#N canvas 469 23 1211 1005 12;
#X obj 150 630 iemguts/sendcanvas 1;
#X obj 430 100 cnv 15 110 20 empty empty note\ fx 7 7 0 14 #d7cbfe
#ffffff 0;
#X obj 100 100 cnv 15 110 20 empty empty instruments 7 7 0 14 #97c5ee
#ffffff 0;
#X obj 540 100 cnv 15 110 20 empty empty modulator 7 7 0 14 #f0aad8
#ffffff 0;
#X obj 100 120 cnv 15 770 150 empty empty empty 7 7 0 14 #fdf6e3 #ffffff
0;
#X obj 760 100 cnv 15 110 20 empty empty utlity 7 7 0 14 #c7e2ca #ffffff
0;
#X obj 210 100 cnv 15 110 20 empty empty audio\ fx 7 7 0 14 #c8e1f7
#ffffff 0;
#X obj 320 100 cnv 15 110 20 empty empty sequencers 7 7 0 14 #bca9fc
#ffffff 0;
#X obj 650 100 cnv 15 110 20 empty empty ctrl\ fx 7 7 0 14 #f7c8e7
#ffffff 0;
#X obj 150 550 r \$0-make;
#X obj 100 120 sub.bop.palette.button \$0 casio;
#X obj 100 140 sub.bop.palette.button \$0 marimba;
#X obj 100 160 sub.bop.palette.button \$0 harp;
#X obj 100 180 sub.bop.palette.button \$0 sampler;
#X obj 100 200 sub.bop.palette.button \$0 synth;
#X obj 100 240 sub.bop.palette.button \$0 glok;
#X text 150 660 create a button as so;
#X text 149 683 sub.bop.palette.button \$0 casio;
#X obj 100 220 sub.bop.palette.button \$0 rhodes;
#X obj 210 120 sub.bop.palette.button \$0 mix;
#X obj 210 140 sub.bop.palette.button \$0 distortion;
#X obj 210 160 sub.bop.palette.button \$0 reverb;
#X obj 210 180 sub.bop.palette.button \$0 filter;
#X obj 320 120 sub.bop.palette.button \$0 midiplayer;
#X obj 320 140 sub.bop.palette.button \$0 noteslider;
#X obj 320 160 sub.bop.palette.button \$0 euclidean;
#X obj 430 140 sub.bop.palette.button \$0 dancer;
#X obj 430 120 sub.bop.palette.button \$0 notefx;
#X obj 540 120 sub.bop.palette.button \$0 ramp;
#X obj 650 120 sub.bop.palette.button \$0 transform;
#X obj 760 120 sub.bop.palette.button \$0 receive;
#X obj 760 140 sub.bop.palette.button \$0 send;
#X text 149 703 sends message bop.casio to r\$0-make;
#X text 150 730 to create a button that does not prepend bop to the
message;
#X text 151 757 sub.bop.palette.button2 \$0 sub.bop.util.scale;
#X obj 720 220 sub.bop.palette.button2 \$0 sub.bop.util.scale;
#X obj 720 250 sub.bop.palette.button2 \$0 sub.bop.util.slide;
#X obj 100 80 cnv 15 770 20 empty empty bop.palette 7 7 0 14 #a8caab
#ffffff 0;
#X obj 150 590 sprintf obj 300 60 %s;
#X connect 9 0 38 0;
#X connect 38 0 0 0;
#X coords 0 -1 1 1 770 190 1 100 80;
