#N canvas 0 37 1470 891 12;
#X obj 100 120 cnv 15 210 20 empty empty empty 7 7 0 14 #c8e0f4 #fcfcfc 0;
#X obj 1010 610 *~ 0.5;
#X obj 110 150 hsl 128 15 -1 1 0 1 from-pan-\$0 to-pan-\$0 pan:-0.00787402 5 5 0 10 #fcfcfc #000000 #000000 6350 1;
#X msg 1300 470 0;
#X obj 110 130 hsl 128 15 0.01 2 1 1 from-amp-\$0 to-amp-\$0 amp:1.11525 5 5 0 10 #fcfcfc #000000 #000000 11350 1;
#X obj 250 150 bng 15 250 50 0 from-center-\$0 to-center-\$0 center 20 5 0 10 #fcfcfc #000000 #000000;
#X obj 250 130 tgl 15 1 from-mute-\$0 to-mute-\$0 mute 20 5 0 10 #fcfcfc #000000 #000000 0 1;
#X obj 800 260 *~;
#X obj 820 166 t b f;
#X msg 820 198 1;
#X obj 820 230 -;
#X obj 800 610 *~ 0.5;
#X obj 1002 256 *~;
#X obj 1022 162 t b f;
#X msg 1022 194 1;
#X obj 1022 226 -;
#X obj 1000 500 *~;
#X obj 1020 390 clip 0 1;
#X obj 1020 340 * -1;
#X obj 1020 420 - 1;
#X obj 1020 460 abs;
#X obj 800 500 *~;
#X obj 820 380 clip 0 1;
#X obj 820 410 - 1;
#X obj 820 450 abs;
#X msg 1390 470 0.5;
#X obj 840 580 pow 2;
#X obj 439 285 savestate, f 11;
#X text 529 285 👈 bangs when parent is saved;
#X obj 439 205 f;
#X obj 439 245 pack f f f;
#X obj 480 400 unpack f f f;
#X obj 800 100 inlet~ left;
#X obj 1000 100 inlet~ right;
#X obj 800 670 outlet~ left;
#X obj 1010 670 outlet~ right;
#X obj 1200 100 inlet note;
#X obj 1300 100 inlet ctrl;
#X obj 439 125 r save-state-\$0;
#X obj 457 152 r from-mute-\$0;
#X obj 477 182 r from-amp-\$0;
#X obj 497 212 r from-pan-\$0;
#X obj 509 315 s save-state-\$0;
#X obj 560 480 s to-pan-\$0;
#X obj 520 510 s to-amp-\$0;
#X obj 480 540 s to-mute-\$0;
#X obj 440 680 s to-mute-\$0;
#X obj 1300 500 s to-pan-\$0;
#X obj 1390 500 s to-amp-\$0;
#X obj 820 134 r from-mute-\$0;
#X obj 820 310 r from-pan-\$0;
#X obj 840 540 r from-amp-\$0;
#X obj 1022 130 r from-mute-\$0;
#X obj 1020 290 r from-pan-\$0;
#X obj 1050 540 r from-amp-\$0;
#X obj 1200 220 outlet note;
#X obj 1050 580 pow 2;
#X obj 1340 280 s to-amp-\$0;
#X obj 1380 250 s to-pan-\$0;
#X obj 1420 220 s to-mute-\$0;
#X obj 1300 320 outlet ctrl;
#X obj 1340 140 route amp pan mute center;
#X obj 1460 190 s to-center-\$0;
#X obj 1300 440 r from-center-\$0;
#X obj 51 240 r from-amp-\$0;
#X obj 51 300 s to-amp-\$0;
#X obj 241 240 r from-pan-\$0;
#X obj 241 300 s to-pan-\$0;
#X msg 47 269 label amp:\$1;
#X msg 245 272 label pan:\$1;
#X text 1350 980 comment;
#X msg 160 240 1;
#X text 350 720 blip mute switch to wake up channel;
#X text 350 700 give pan initial val;
#X obj 440 610 t 0 1;
#X obj 350 680 s to-pan-\$0;
#X obj 370 550 bng 15 250 50 0 empty empty empty 17 7 0 10 #fcfcfc #000000 #000000;
#X obj 440 340 t l b;
#X obj 800 640 clip~ -0.99 0.99;
#X obj 1010 640 clip~ -0.99 0.99;
#X connect 1 0 79 0;
#X connect 3 0 47 0;
#X connect 7 0 21 0;
#X connect 8 0 9 0;
#X connect 8 1 10 1;
#X connect 9 0 10 0;
#X connect 10 0 7 1;
#X connect 11 0 78 0;
#X connect 12 0 16 0;
#X connect 13 0 14 0;
#X connect 13 1 15 1;
#X connect 14 0 15 0;
#X connect 15 0 12 1;
#X connect 16 0 1 0;
#X connect 17 0 19 0;
#X connect 18 0 17 0;
#X connect 19 0 20 0;
#X connect 20 0 16 1;
#X connect 21 0 11 0;
#X connect 22 0 23 0;
#X connect 23 0 24 0;
#X connect 24 0 21 1;
#X connect 25 0 48 0;
#X connect 26 0 11 1;
#X connect 27 0 77 0;
#X connect 27 1 42 0;
#X connect 29 0 30 0;
#X connect 30 0 27 0;
#X connect 31 0 45 0;
#X connect 31 1 44 0;
#X connect 31 2 43 0;
#X connect 32 0 7 0;
#X connect 33 0 12 0;
#X connect 36 0 55 0;
#X connect 37 0 60 0;
#X connect 37 0 61 0;
#X connect 38 0 29 0;
#X connect 39 0 29 1;
#X connect 40 0 30 1;
#X connect 41 0 30 2;
#X connect 49 0 8 0;
#X connect 50 0 22 0;
#X connect 51 0 26 0;
#X connect 52 0 13 0;
#X connect 53 0 18 0;
#X connect 54 0 56 0;
#X connect 56 0 1 1;
#X connect 61 0 57 0;
#X connect 61 1 58 0;
#X connect 61 2 59 0;
#X connect 61 3 62 0;
#X connect 63 0 3 0;
#X connect 64 0 68 0;
#X connect 66 0 69 0;
#X connect 68 0 65 0;
#X connect 69 0 67 0;
#X connect 71 0 68 0;
#X connect 74 0 46 0;
#X connect 74 0 75 0;
#X connect 74 1 46 0;
#X connect 74 1 75 0;
#X connect 76 0 74 0;
#X connect 77 0 31 0;
#X connect 77 1 74 0;
#X connect 78 0 34 0;
#X connect 79 0 35 0;
#X coords 0 -1 1 1 210 80 1 100 100;
