#N canvas 376 0 770 772 10;
#X declare -path ./subpatches/casio;
#X obj 100 120 cnv 15 210 250 empty empty empty 7 7 0 14 #fdf6e3 #ffffff
0;
#X obj 640 100 inlet~ left;
#X obj 900 100 inlet~ right;
#X obj 1000 100 inlet note;
#X obj 1100 100 inlet ctl;
#X obj 640 200 outlet~ left;
#X obj 900 200 outlet~ right;
#X obj 1010 160 outlet note;
#X obj 1100 270 outlet ctl;
#X obj 400 350 savestate, f 11;
#X text 490 350 👈 bangs when parent is saved;
#X obj 400 60 r save-state-\$0;
#X obj 460 380 s save-state-\$0;
#X obj 1000 400 pack 0 0 0;
#X obj 1000 520 route 1 2 3 4, f 132;
#X obj 730 130 hip~ 5;
#X obj 730 155 clip~ -1 1;
#X obj 100 100 cnv 15 210 20 empty empty bop.casio 7 7 0 14 #97c5ee
#ffffff 0;
#X obj 90 50 declare -path ./subpatches/casio;
#X text 1820 860 comment;
#X obj 90 690 int;
#X obj 90 750 t f f;
#X obj 90 670 r from-wave-1-\$0;
#X obj 90 900 s to-wave-1-\$0;
#X obj 1180 250 s to-wave-1-\$0;
#X obj 440 640 s to-wave-1-\$0;
#N canvas 536 235 450 301 wave-name-maker 0;
#X obj 73 -159 i;
#X obj 73 -129 change;
#X obj 73 17 cyclone/zl nth, f 21;
#X obj 73 -69 t b f, f 21;
#X obj 73 -99 + 1;
#X obj 72 -193 inlet;
#X obj 70 160 outlet;
#X msg 70 -40 saw square pulse sinepulse halfpulse res-saw res-triangle
res-trapezoid, f 39;
#X connect 0 0 1 0;
#X connect 1 0 4 0;
#X connect 2 0 6 0;
#X connect 3 0 7 0;
#X connect 3 1 2 1;
#X connect 4 0 3 0;
#X connect 5 0 0 0;
#X connect 7 0 2 0;
#X restore 120 790 pd wave-name-maker;
#X obj 90 830 sprintf label wave-1:%d(%s), f 13;
#X obj 110 150 hsl 185 15 0 7 0 1 from-wave-1-\$0 to-wave-1-\$0 wave-1:5(res-saw)
5 5 0 10 #fcfcfc #000000 #000000 15100 1;
#X obj 250 690 int;
#X obj 250 750 t f f;
#N canvas 536 235 450 301 wave-name-maker 0;
#X obj 73 -159 i;
#X obj 73 -129 change;
#X obj 73 17 cyclone/zl nth, f 21;
#X obj 73 -69 t b f, f 21;
#X obj 73 -99 + 1;
#X obj 72 -193 inlet;
#X obj 70 160 outlet;
#X msg 70 -40 saw square pulse sinepulse halfpulse res-saw res-triangle
res-trapezoid, f 39;
#X connect 0 0 1 0;
#X connect 1 0 4 0;
#X connect 2 0 6 0;
#X connect 3 0 7 0;
#X connect 3 1 2 1;
#X connect 4 0 3 0;
#X connect 5 0 0 0;
#X connect 7 0 2 0;
#X restore 280 790 pd wave-name-maker;
#X obj 250 830 sprintf label wave-2:%d(%s), f 13;
#X obj 250 900 s to-wave-2-\$0;
#X obj 250 670 r from-wave-2-\$0;
#X obj 410 380 t b l;
#X obj 460 620 s to-wave-2-\$0;
#X obj 400 170 f;
#X obj 110 170 hsl 185 15 0 7 0 1 from-wave-2-\$0 to-wave-2-\$0 wave-2:5(res-saw)
5 5 0 10 #fcfcfc #000000 #000000 15300 1;
#X msg 960 280 stop;
#X obj 110 190 hsl 185 15 0 1 0 1 from-filter-\$0 to-filter-\$0 filter:0.904891
5 5 0 10 #fcfcfc #000000 #000000 16650 1;
#X obj 380 900 s to-filter-\$0;
#X obj 400 790 r from-filter-\$0;
#X obj 380 830 sprintf label filter:%f, f 13;
#X obj 480 600 s to-filter-\$0;
#X obj 450 120 r from-filter-\$0;
#X obj 1180 160 route wave-1 wave-2 filter, f 36;
#X obj 1230 210 s to-filter-\$0;
#X obj 520 830 r from-attack-\$0;
#X obj 630 830 r from-peak-\$0;
#X obj 730 830 r from-decay-\$0;
#X obj 840 830 r from-sustain-\$0;
#X obj 960 830 r from-release-\$0;
#X obj 1070 830 r from-curve-\$0;
#X obj 1070 900 s to-curve-\$0;
#X obj 960 900 s to-release-\$0;
#X obj 840 900 s to-sustain-\$0;
#X obj 730 900 s to-decay-\$0;
#X obj 630 900 s to-peak-\$0;
#X obj 520 900 s to-attack-\$0;
#X obj 1520 300 s to-curve-\$0;
#X obj 1460 320 s to-release-\$0;
#X obj 1410 340 s to-sustain-\$0;
#X obj 1380 360 s to-decay-\$0;
#X obj 1350 380 s to-peak-\$0;
#X obj 1330 400 s to-attack-\$0;
#X obj 580 480 s to-curve-\$0;
#X obj 560 500 s to-release-\$0;
#X obj 540 520 s to-sustain-\$0;
#X obj 530 540 s to-decay-\$0;
#X obj 510 560 s to-peak-\$0;
#X obj 490 580 s to-attack-\$0;
#X obj 460 140 r from-attack-\$0;
#X obj 470 160 r from-peak-\$0;
#X obj 480 180 r from-decay-\$0;
#X obj 490 200 r from-sustain-\$0;
#X obj 500 220 r from-release-\$0;
#X obj 520 240 r from-curve-\$0;
#X obj 110 240 hsl 185 15 0.01 1 1 1 from-attack-\$0 to-attack-\$0
attack:0.010000 5 5 0 10 #fcfcfc #000000 #000000 0 1;
#X obj 110 260 hsl 185 15 0 1 0 1 from-peak-\$0 to-peak-\$0 peak:0.847826
5 5 0 10 #fcfcfc #000000 #000000 15600 1;
#X obj 110 280 hsl 185 15 0 1 0 1 from-decay-\$0 to-decay-\$0 decay:0.809783
5 5 0 10 #fcfcfc #000000 #000000 14900 1;
#X obj 110 300 hsl 185 15 0 1 0 1 from-sustain-\$0 to-sustain-\$0 sustain:0.000000
5 5 0 10 #fcfcfc #000000 #000000 0 1;
#X obj 110 320 hsl 185 15 0 1 0 1 from-release-\$0 to-release-\$0 release:0.000000
5 5 0 10 #fcfcfc #000000 #000000 0 1;
#X obj 110 340 hsl 185 15 0 1 0 0 from-curve-\$0 to-curve-\$0 curve:0.000000
5 5 0 10 #fcfcfc #000000 #000000 0 1;
#X obj 520 860 sprintf label attack:%f, f 13;
#X obj 630 860 sprintf label peak:%f, f 13;
#X obj 730 855 sprintf label decay:%f, f 13;
#X obj 840 855 sprintf label sustain:%f, f 13;
#X obj 960 855 sprintf label release:%f, f 13;
#X obj 1070 855 sprintf label curve:%f, f 13;
#X msg 1000 440 \$1 \$1 \$2 \$3;
#X obj 110 210 hsl 185 15 0 1 0 1 from-spread-\$0 to-spread-\$0 spread:0.000000
5 5 0 10 #fcfcfc #000000 #000000 0 1;
#X obj 1180 835 r from-spread-\$0;
#X obj 1180 905 s to-spread-\$0;
#X obj 1180 860 sprintf label spread:%f, f 13;
#X obj 600 460 s to-spread-\$0;
#X obj 540 260 r from-spread-\$0;
#X obj 1570 280 s to-spread-\$0;
#X obj 730 60 catch~ instrument-left-\$0;
#X obj 800 80 catch~ instrument-right-\$0;
#X obj 800 130 hip~ 5;
#X obj 800 155 clip~ -1 1;
#X obj 1000 670 throw~ instrument-left-\$0;
#X obj 1010 640 throw~ instrument-right-\$0;
#X obj 1200 670 throw~ instrument-left-\$0;
#X obj 1210 640 throw~ instrument-right-\$0;
#X obj 1400 670 throw~ instrument-left-\$0;
#X obj 1410 640 throw~ instrument-right-\$0;
#X obj 1590 670 throw~ instrument-left-\$0;
#X obj 1600 640 throw~ instrument-right-\$0;
#X obj 1010 580 r from-spread-\$0;
#X obj 1210 580 r from-spread-\$0;
#X obj 1415 583 r from-spread-\$0;
#X obj 1601 581 r from-spread-\$0;
#X obj 410 80 r from-wave-1-\$0;
#X obj 440 100 r from-wave-2-\$0;
#X obj 1200 230 s to-wave-2-\$0;
#X obj 1000 360 poly 4 1, f 10;
#X obj 1010 280 r bop-play;
#X obj 1010 300 sel 0;
#X obj 1000 330 cyclone/flush;
#X obj 110 130 tgl 15 1 from-pedal-\$0 to-pedal-\$0 pedal 20 5 0 10
#fcfcfc #000000 #000000 1 1;
#X obj 400 310 pack f f f f f f f f f f f;
#X obj 440 410 unpack f f f f f f f f f f f;
#N canvas 0 0 450 300 sustain 0;
#X obj 50 170 stripnote;
#X obj 50 190 pack;
#X obj 100 80 + 1;
#X obj 10 130 gate 2, f 7;
#X obj 100 30 inlet;
#X obj 50 30 inlet;
#X obj 10 250 outlet;
#X connect 0 0 1 0;
#X connect 0 1 1 1;
#X connect 1 0 6 0;
#X connect 2 0 3 0;
#X connect 3 0 6 0;
#X connect 3 1 0 0;
#X connect 4 0 2 0;
#X connect 5 0 3 1;
#X restore 1000 250 pd sustain;
#X obj 550 280 r from-pedal-\$0;
#X obj 610 440 s to-pedal-\$0;
#X obj 1020 210 r from-pedal-\$0;
#X obj 1340 210 route attack peak decay sustain release curve spread
pedal, f 54;
#X obj 1600 260 s to-pedal-\$0;
#X obj 1000 610 sub.bop.util.spread -1;
#X obj 1200 610 sub.bop.util.spread -0.5;
#X obj 1400 610 sub.bop.util.spread 0.5;
#X obj 1590 610 sub.bop.util.spread 1;
#X obj 1000 550 sub.bop.casio.voice \$0;
#X obj 1200 550 sub.bop.casio.voice \$0;
#X obj 1400 550 sub.bop.casio.voice \$0;
#X obj 1590 550 sub.bop.casio.voice \$0;
#X connect 1 0 5 0;
#X connect 2 0 6 0;
#X connect 3 0 7 0;
#X connect 3 0 124 0;
#X connect 4 0 8 0;
#X connect 4 0 46 0;
#X connect 9 0 35 0;
#X connect 9 1 12 0;
#X connect 11 0 37 0;
#X connect 13 0 90 0;
#X connect 14 0 134 0;
#X connect 14 1 135 0;
#X connect 14 2 136 0;
#X connect 14 3 137 0;
#X connect 15 0 16 0;
#X connect 16 0 5 0;
#X connect 20 0 21 0;
#X connect 21 0 27 0;
#X connect 21 1 26 0;
#X connect 22 0 20 0;
#X connect 26 0 27 1;
#X connect 27 0 23 0;
#X connect 29 0 30 0;
#X connect 30 0 32 0;
#X connect 30 1 31 0;
#X connect 31 0 32 1;
#X connect 32 0 33 0;
#X connect 34 0 29 0;
#X connect 35 1 123 0;
#X connect 37 0 122 0;
#X connect 39 0 117 0;
#X connect 42 0 43 0;
#X connect 43 0 41 0;
#X connect 45 0 122 2;
#X connect 46 0 24 0;
#X connect 46 1 116 0;
#X connect 46 2 47 0;
#X connect 46 3 128 0;
#X connect 48 0 84 0;
#X connect 49 0 85 0;
#X connect 50 0 86 0;
#X connect 51 0 87 0;
#X connect 52 0 88 0;
#X connect 53 0 89 0;
#X connect 72 0 122 3;
#X connect 73 0 122 4;
#X connect 74 0 122 5;
#X connect 75 0 122 6;
#X connect 76 0 122 7;
#X connect 77 0 122 8;
#X connect 84 0 59 0;
#X connect 85 0 58 0;
#X connect 86 0 57 0;
#X connect 87 0 56 0;
#X connect 88 0 55 0;
#X connect 89 0 54 0;
#X connect 90 0 14 0;
#X connect 92 0 94 0;
#X connect 94 0 93 0;
#X connect 96 0 122 9;
#X connect 98 0 15 0;
#X connect 99 0 100 0;
#X connect 100 0 101 0;
#X connect 101 0 6 0;
#X connect 110 0 130 1;
#X connect 111 0 131 1;
#X connect 112 0 132 1;
#X connect 113 0 133 1;
#X connect 114 0 37 1;
#X connect 115 0 122 1;
#X connect 117 0 13 0;
#X connect 117 1 13 1;
#X connect 117 2 13 2;
#X connect 118 0 119 0;
#X connect 119 0 120 0;
#X connect 120 0 117 0;
#X connect 120 1 117 1;
#X connect 122 0 9 0;
#X connect 123 0 25 0;
#X connect 123 1 36 0;
#X connect 123 2 44 0;
#X connect 123 3 71 0;
#X connect 123 4 70 0;
#X connect 123 5 69 0;
#X connect 123 6 68 0;
#X connect 123 7 67 0;
#X connect 123 8 66 0;
#X connect 123 9 95 0;
#X connect 123 10 126 0;
#X connect 124 0 120 0;
#X connect 125 0 122 10;
#X connect 127 0 124 1;
#X connect 128 0 65 0;
#X connect 128 1 64 0;
#X connect 128 2 63 0;
#X connect 128 3 62 0;
#X connect 128 4 61 0;
#X connect 128 5 60 0;
#X connect 128 6 97 0;
#X connect 128 7 129 0;
#X connect 130 0 102 0;
#X connect 130 1 103 0;
#X connect 131 0 104 0;
#X connect 131 1 105 0;
#X connect 132 0 106 0;
#X connect 132 1 107 0;
#X connect 133 0 108 0;
#X connect 133 1 109 0;
#X connect 134 0 130 0;
#X connect 135 0 131 0;
#X connect 136 0 132 0;
#X connect 137 0 133 0;
#X coords 0 -1 1 1 210 270 2 100 100;
