#N struct text float x float y text t;
#N canvas 445 23 995 855 10;
#X obj 1150 1390 cnv 15 180 60 empty empty empty 20 12 0 14 #bca8fc
#404040 0;
#X obj 100 120 cnv 15 210 70 empty empty empty 7 7 0 14 #fdf6e3 #ffffff
0;
#X obj 800 100 inlet~ left;
#X obj 900 100 inlet~ right;
#X obj 1000 100 inlet note;
#X obj 1200 100 inlet ctl;
#X obj 800 300 outlet~ left;
#X obj 900 300 outlet~ right;
#X obj 1000 300 outlet note;
#X obj 1320 340 outlet ctl;
#X obj 500 260 savestate, f 11;
#X text 590 260 👈 bangs when parent is saved;
#X obj 110 160 hsl 117 15 0 2.9 0 0 \$0-from-mode \$0-to-mode mode:chord(2)
5 5 0 10 #fcfcfc #000000 #000000 11600 1;
#X symbolatom 110 140 32 0 0 2 notelist #0-to-notelist #0-from-notelist
, f 32;
#X obj 100 100 cnv 15 210 20 empty empty bop.notelist 7 7 0 14 #bca9fc
#ffffff 0;
#X text 1660 1990 comment;
#X obj 500 180 symbol;
#X obj 1160 476 list fromsymbol;
#X obj 1160 436 tosymbol;
#X msg 1160 396 abcdefg;
#X msg 1220 396 ABCDEFG;
#X msg 1280 396 #;
#X msg 1310 396 b;
#X text 1340 396 easier to not use flats for now;
#X msg 1840 1140 48 49 50 51 52 53 54 55 56 57;
#X text 1120 1140 0 1 2 3 4 5 6 7 8 9;
#X obj 1160 540 print;
#X msg 1820 1170 97 98 99 100 101 102 103;
#X text 1190 1170 abcdefeg;
#X msg 1800 1220 65 66 67 68 69 70 71;
#X text 1190 1210 ABCDEFG;
#X msg 1780 1250 35;
#X text 1230 1280 #;
#X obj 420 720 iter;
#X obj 420 750 list fromsymbol;
#X text 1270 1140 * 12;
#X text 1270 1170 0 2 3 5 7 8 10;
#X text 1250 1140 +;
#X text 1250 1170 +;
#X text 1250 1280 +;
#X text 1270 1280 1;
#X obj 500 510 s \$0-to-notelist;
#X obj 540 100 r \$0-from-notelist;
#X obj 500 60 r \$0-save-state;
#X obj 570 290 s \$0-save-state;
#X scalar text 286 637 \; \;;
#X msg 1540 1140 0 12 24 36 48 60 72 84 96 108;
#X msg 1480 1250 1;
#X obj 1560 1900 tabwrite \$0-ascii2semi;
#X obj 1660 1810 zl nth;
#X obj 1660 1710 t b f;
#X obj 1560 1720 t b f;
#X obj 1560 1810 zl nth;
#X obj 1510 1630 t f f;
#X obj 1870 1320 list append;
#X obj 1810 1370 list append;
#X obj 1390 1450 list length;
#X obj 1596 1282 list append;
#X obj 1536 1332 list append;
#X obj 1580 1310 list append;
#X obj 1850 1350 list append;
#X obj 1780 1100 t b b b b;
#X obj 1777 1069 bng 15 250 50 0 empty empty empty 17 7 0 10 #fcfcfc
#000000 #000000;
#X obj 1480 1100 t b b b b;
#X obj 1477 1069 bng 15 250 50 0 empty empty empty 17 7 0 10 #fcfcfc
#000000 #000000;
#X obj 1560 1770 list;
#X obj 1660 1770 list;
#X obj 1390 1540 until;
#X obj 1390 1490 t f 1, f 11;
#X obj 1390 1590 f, f 8;
#X obj 1460 1589 + 1;
#X msg 1370 1410 25;
#X obj 1160 1410 table \$0-ascii2semi 200;
#X obj 1420 910 bng 15 250 50 0 empty empty empty 17 7 0 10 #fcfcfc
#000000 #000000;
#X obj 2050 1310 tabwrite \$0-ascii2semi;
#X obj 2050 1170 until;
#X obj 2050 1214 f, f 13;
#X obj 2100 1170 + 1;
#X msg 2050 1090 200;
#X obj 2050 1120 t f 0, f 13;
#X obj 2050 1262 t -1 f;
#X obj 1420 1370 list;
#X obj 1420 960 t b b b b;
#X text 2050 1060 clear lookup table;
#X text 1270 1210 0 2 3 5 7 8 10;
#X text 1250 1210 +;
#X obj 1420 870 loadbang;
#X text 1420 840 create ascii2semi lookup table;
#N canvas 0 22 450 300 asciilist2note 0;
#X obj 60 170 tabread \$0-ascii2semi;
#X obj 60 130 iter;
#X obj 110 270 f, f 13;
#X msg 110 310 set \$1;
#X msg 40 360 62;
#X obj 240 230 +;
#X obj 50 80 t b l 0 0, f 34;
#X obj 13 26 inlet;
#X obj 13 430 outlet;
#X connect 0 0 5 0;
#X connect 1 0 0 0;
#X connect 2 0 3 0;
#X connect 2 0 5 1;
#X connect 3 0 4 0;
#X connect 4 0 8 0;
#X connect 5 0 2 0;
#X connect 6 0 4 0;
#X connect 6 1 1 0;
#X connect 6 2 2 1;
#X connect 6 3 5 1;
#X connect 7 0 6 0;
#X restore 420 780 pd asciilist2note;
#X obj 390 880 list store, f 25;
#X obj 540 830 bng 15 250 50 0 empty empty empty 17 7 0 10 #fcfcfc
#000000 #000000;
#X obj 390 720 bng 15 250 50 0 empty empty empty 17 7 0 10 #fcfcfc
#000000 #000000;
#X msg 420 830 append \$1;
#X obj 390 690 t b l b, f 25;
#X obj 380 1750 list store, f 38;
#X obj 390 960 list length;
#X obj 120 1400 %;
#X obj 390 920 t l l, f 36;
#X obj 120 1330 - 1;
#X msg 380 1720 get \$1 1;
#X text 360 1020 wrap incoming note requests;
#X msg 400 640 c4 c#4 d4 d#4 e4 f4 f#4 g4 g#4 a5 a#5 b5;
#X obj 470 1190 t f b;
#X obj 1050 250 cyclone/flush;
#X msg 1050 220 \$1 127;
#X obj 390 580 r \$0-from-notelist;
#X floatatom 270 160 5 0 0 0 note #0-to-note #0-from-note, f 5;
#X obj 500 300 t l b;
#X msg 610 360 c4 e4 g4 b5;
#X obj 610 420 s \$0-to-notelist;
#X text 690 360 default notelist;
#X obj 1280 210 s \$0-to-note;
#X obj 1220 280 s \$0-to-notelist;
#X obj 470 1160 r \$0-from-note;
#X obj 510 1240 s \$0-flush;
#X obj 380 1840 s \$0-note-out;
#X obj 1020 170 r \$0-flush;
#X obj 1050 190 r \$0-note-out;
#X obj 390 610 fromsymbol;
#X obj 610 390 tosymbol;
#X obj 1050 280 pack f f;
#X text 1440 1860 tune A0 to note 33;
#X text 1270 1235 33 35 24 26 28 29 31;
#X msg 1520 1170 33 35 24 26 28 29 31;
#X msg 1500 1210 33 35 24 26 28 29 31;
#X obj 500 440 list, f 12;
#X obj 500 360 t b l, f 12;
#X obj 500 400 delay 100;
#X obj 500 470 unpack s f;
#X text 440 1730 throwing negative range error on init;
#X obj 100 290 r \$0-from-mode;
#X obj 100 530 s \$0-to-mode;
#X obj 130 440 list store;
#X msg 140 410 sequence random chord;
#X obj 140 380 loadbang;
#X msg 130 360 get \$1 1;
#X obj 100 330 t f f;
#X obj 100 470 pack f s;
#X msg 100 500 label mode:\$2(\$1);
#X obj 100 310 int;
#X obj 280 1400 random;
#X obj 120 1150 r \$0-from-mode;
#X obj 120 1180 int;
#X obj 120 1240 gate 3, f 58;
#X obj 120 1210 + 1;
#X text 180 1210 sequence \, random \, chord;
#X obj 390 990 s \$0-notelist-length;
#X obj 130 1370 r \$0-notelist-length;
#X obj 310 1360 r \$0-notelist-length;
#X obj 280 1370 bng 15 250 50 0 empty empty empty 17 7 0 10 #fcfcfc
#000000 #000000;
#X obj 460 1410 until;
#X obj 470 1320 r \$0-notelist-length;
#X obj 460 1350 f;
#X obj 460 1290 bng 15 250 50 0 empty empty empty 17 7 0 10 #fcfcfc
#000000 #000000;
#X obj 460 1450 f, f 13;
#X obj 460 1380 t f 0, f 13;
#X obj 510 1420 + 1;
#X obj 570 170 r \$0-from-mode;
#X obj 500 220 pack s f;
#X obj 620 510 s \$0-to-mode;
#X obj 1230 150 route notelist note mode;
#X obj 1320 190 s \$0-to-mode;
#X obj 1210 190 route get;
#X obj 1210 230 bng 15 250 50 0 empty empty empty 17 7 0 10 #fcfcfc
#000000 #000000;
#X obj 1410 220 r \$0-from-notelist;
#X obj 1370 280 list prepend notelist;
#X obj 1370 310 list trim;
#X obj 1407 251 route get;
#X obj 1240 250 tosymbol;
#X connect 2 0 6 0;
#X connect 3 0 7 0;
#X connect 4 0 8 0;
#X connect 5 0 160 0;
#X connect 10 0 107 0;
#X connect 10 1 44 0;
#X connect 16 0 158 0;
#X connect 17 0 26 0;
#X connect 18 0 17 0;
#X connect 19 0 18 0;
#X connect 20 0 18 0;
#X connect 21 0 18 0;
#X connect 22 0 18 0;
#X connect 24 0 54 1;
#X connect 27 0 54 0;
#X connect 29 0 60 0;
#X connect 31 0 55 0;
#X connect 33 0 34 0;
#X connect 34 0 88 0;
#X connect 42 0 16 1;
#X connect 43 0 16 0;
#X connect 46 0 57 1;
#X connect 47 0 58 0;
#X connect 49 0 48 1;
#X connect 50 0 66 0;
#X connect 50 1 49 1;
#X connect 51 0 65 0;
#X connect 51 1 52 1;
#X connect 52 0 48 0;
#X connect 53 0 51 0;
#X connect 53 1 50 0;
#X connect 54 0 60 1;
#X connect 55 0 66 1;
#X connect 56 0 68 0;
#X connect 57 0 59 1;
#X connect 58 0 65 1;
#X connect 58 0 81 1;
#X connect 59 0 58 1;
#X connect 60 0 55 1;
#X connect 61 0 31 0;
#X connect 61 1 29 0;
#X connect 61 2 27 0;
#X connect 61 3 24 0;
#X connect 62 0 61 0;
#X connect 63 0 47 0;
#X connect 63 1 124 0;
#X connect 63 2 123 0;
#X connect 63 3 46 0;
#X connect 64 0 63 0;
#X connect 65 0 52 0;
#X connect 66 0 49 0;
#X connect 67 0 69 0;
#X connect 68 0 67 0;
#X connect 68 1 69 1;
#X connect 69 0 70 0;
#X connect 69 0 53 0;
#X connect 70 0 69 1;
#X connect 71 0 68 0;
#X connect 73 0 82 0;
#X connect 75 0 76 0;
#X connect 76 0 77 0;
#X connect 76 0 80 0;
#X connect 77 0 76 1;
#X connect 78 0 79 0;
#X connect 79 0 75 0;
#X connect 79 1 76 1;
#X connect 80 0 74 0;
#X connect 80 1 74 1;
#X connect 81 0 56 0;
#X connect 82 0 81 0;
#X connect 82 1 64 0;
#X connect 82 2 62 0;
#X connect 82 3 78 0;
#X connect 86 0 73 0;
#X connect 88 0 92 0;
#X connect 89 0 97 0;
#X connect 90 0 89 1;
#X connect 91 0 89 0;
#X connect 92 0 89 0;
#X connect 93 0 91 0;
#X connect 93 1 33 0;
#X connect 93 2 90 0;
#X connect 94 0 115 0;
#X connect 95 0 146 0;
#X connect 96 0 99 0;
#X connect 97 0 95 0;
#X connect 97 1 94 1;
#X connect 98 0 96 0;
#X connect 99 0 94 0;
#X connect 101 0 93 0;
#X connect 102 0 143 1;
#X connect 102 1 114 0;
#X connect 103 0 120 0;
#X connect 103 1 120 1;
#X connect 104 0 103 0;
#X connect 105 0 118 0;
#X connect 107 0 126 0;
#X connect 107 1 108 0;
#X connect 108 0 119 0;
#X connect 113 0 102 0;
#X connect 116 0 103 0;
#X connect 117 0 104 0;
#X connect 118 0 93 0;
#X connect 119 0 109 0;
#X connect 120 0 8 0;
#X connect 123 0 57 0;
#X connect 124 0 59 0;
#X connect 125 0 128 0;
#X connect 126 0 127 0;
#X connect 126 1 125 1;
#X connect 127 0 125 0;
#X connect 128 0 41 0;
#X connect 128 1 159 0;
#X connect 130 0 139 0;
#X connect 132 0 137 1;
#X connect 133 0 132 1;
#X connect 134 0 133 0;
#X connect 135 0 132 0;
#X connect 136 0 137 0;
#X connect 136 1 135 0;
#X connect 137 0 138 0;
#X connect 138 0 131 0;
#X connect 139 0 136 0;
#X connect 140 0 99 0;
#X connect 141 0 142 0;
#X connect 142 0 144 0;
#X connect 143 0 98 0;
#X connect 143 1 149 0;
#X connect 143 2 153 0;
#X connect 144 0 143 0;
#X connect 147 0 96 1;
#X connect 148 0 140 1;
#X connect 149 0 140 0;
#X connect 150 0 154 0;
#X connect 151 0 152 1;
#X connect 152 0 155 0;
#X connect 153 0 152 0;
#X connect 154 0 156 0;
#X connect 154 0 99 0;
#X connect 155 0 150 0;
#X connect 155 1 154 1;
#X connect 156 0 154 1;
#X connect 157 0 158 1;
#X connect 158 0 10 0;
#X connect 160 0 162 0;
#X connect 160 1 111 0;
#X connect 160 1 9 0;
#X connect 160 2 161 0;
#X connect 160 2 9 0;
#X connect 160 3 9 0;
#X connect 162 0 163 0;
#X connect 162 1 168 0;
#X connect 163 0 112 0;
#X connect 164 0 167 0;
#X connect 165 0 166 0;
#X connect 166 0 9 0;
#X connect 167 1 165 0;
#X connect 168 0 112 0;
#X coords 0 -1 1 1 210 90 2 100 100;
