#N canvas 761 0 768 778 10;
#X declare -path ./subpatches/casio;
#X declare -path ./subpatches/utils;
#X obj 100 120 cnv 15 210 230 empty empty empty 7 7 0 14 #fdf6e3 #ffffff
0;
#X obj 640 100 inlet~ left;
#X obj 900 100 inlet~ right;
#X obj 1000 100 inlet note;
#X obj 1100 100 inlet ctl;
#X obj 640 200 outlet~ left;
#X obj 900 200 outlet~ right;
#X obj 1020 200 outlet note;
#X obj 1100 270 outlet ctl;
#X obj 400 350 savestate, f 11;
#X text 490 350 👈 bangs when parent is saved;
#X obj 400 80 r save-state-\$0;
#X obj 460 380 s save-state-\$0;
#X obj 1000 270 poly 4, f 10;
#X obj 1000 310 pack 0 0 0;
#X obj 1000 430 route 1 2 3 4, f 132;
#X obj 1000 230 unpack, f 10;
#X obj 730 130 hip~ 5;
#X obj 730 155 clip~ -1 1;
#X obj 100 100 cnv 15 210 20 empty empty bop.casio 7 7 0 14 #97c5ee
#ffffff 0;
#X obj 90 50 declare -path ./subpatches/casio;
#X text 1820 860 comment;
#X obj 1000 460 bop.casio.voice \$0;
#X obj 1200 460 bop.casio.voice \$0;
#X obj 1400 460 bop.casio.voice \$0;
#X obj 1590 460 bop.casio.voice \$0;
#X obj 90 690 int;
#X obj 90 720 change;
#X obj 90 750 t f f;
#X obj 90 670 r from-wave-1-\$0;
#X obj 90 900 s to-wave-1-\$0;
#X obj 1180 250 s to-wave-1-\$0;
#X obj 410 100 r from-wave1-\$0;
#X obj 440 620 s to-wave-1-\$0;
#N canvas 536 235 450 301 wave-name-maker 0;
#X obj 73 -159 i;
#X obj 73 -129 change;
#X obj 73 17 cyclone/zl nth, f 21;
#X obj 73 -69 t b f, f 21;
#X obj 73 -99 + 1;
#X obj 72 -193 inlet;
#X obj 70 160 outlet;
#X msg 70 -40 saw square pulse sinepulse halfpulse res-saw res-triangle
res-trapezoid, f 39;
#X connect 0 0 1 0;
#X connect 1 0 4 0;
#X connect 2 0 6 0;
#X connect 3 0 7 0;
#X connect 3 1 2 1;
#X connect 4 0 3 0;
#X connect 5 0 0 0;
#X connect 7 0 2 0;
#X restore 120 790 pd wave-name-maker;
#X obj 90 830 sprintf label wave-1:%d(%s), f 13;
#X obj 110 130 hsl 185 15 0 7 0 1 from-wave-1-\$0 to-wave-1-\$0 wave-1:5(res-saw)
5 5 0 10 #fcfcfc #000000 #000000 13200 1;
#X obj 250 690 int;
#X obj 250 720 change;
#X obj 250 750 t f f;
#N canvas 536 235 450 301 wave-name-maker 0;
#X obj 73 -159 i;
#X obj 73 -129 change;
#X obj 73 17 cyclone/zl nth, f 21;
#X obj 73 -69 t b f, f 21;
#X obj 73 -99 + 1;
#X obj 72 -193 inlet;
#X obj 70 160 outlet;
#X msg 70 -40 saw square pulse sinepulse halfpulse res-saw res-triangle
res-trapezoid, f 39;
#X connect 0 0 1 0;
#X connect 1 0 4 0;
#X connect 2 0 6 0;
#X connect 3 0 7 0;
#X connect 3 1 2 1;
#X connect 4 0 3 0;
#X connect 5 0 0 0;
#X connect 7 0 2 0;
#X restore 280 790 pd wave-name-maker;
#X obj 250 830 sprintf label wave-2:%d(%s), f 13;
#X obj 250 900 s to-wave-2-\$0;
#X obj 250 670 r from-wave-2-\$0;
#X obj 410 380 t b l;
#X obj 460 600 s to-wave-2-\$0;
#X obj 400 170 f;
#X obj 440 120 r from-wave2-\$0;
#X obj 1200 230 s to-wave-1-\$0;
#X obj 110 150 hsl 185 15 0 7 0 1 from-wave-2-\$0 to-wave-2-\$0 wave-2:4(halfpulse)
5 5 0 10 #fcfcfc #000000 #000000 11800 1;
#X msg 960 230 stop;
#X obj 110 170 hsl 185 15 0 1 0 1 from-filter-\$0 to-filter-\$0 filter:0.554348
5 5 0 10 #fcfcfc #000000 #000000 10200 1;
#X obj 380 900 s to-filter-\$0;
#X obj 400 790 r from-filter-\$0;
#X obj 380 830 sprintf label filter:%f, f 13;
#X obj 480 580 s to-filter-\$0;
#X obj 450 140 r from-filter-\$0;
#X obj 1180 160 route wave-1 wave-2 filter, f 36;
#X obj 1230 210 s to-filter-\$0;
#X obj 520 830 r from-attack-\$0;
#X obj 630 830 r from-peak-\$0;
#X obj 730 830 r from-decay-\$0;
#X obj 840 830 r from-sustain-\$0;
#X obj 960 830 r from-release-\$0;
#X obj 1070 830 r from-curve-\$0;
#X obj 1070 900 s to-curve-\$0;
#X obj 960 900 s to-release-\$0;
#X obj 840 900 s to-sustain-\$0;
#X obj 730 900 s to-decay-\$0;
#X obj 630 900 s to-peak-\$0;
#X obj 520 900 s to-attack-\$0;
#X obj 1520 280 s to-curve-\$0;
#X obj 1460 300 s to-release-\$0;
#X obj 1410 320 s to-sustain-\$0;
#X obj 1380 340 s to-decay-\$0;
#X obj 1350 360 s to-peak-\$0;
#X obj 1330 380 s to-attack-\$0;
#X obj 580 460 s to-curve-\$0;
#X obj 560 480 s to-release-\$0;
#X obj 540 500 s to-sustain-\$0;
#X obj 530 520 s to-decay-\$0;
#X obj 510 540 s to-peak-\$0;
#X obj 490 560 s to-attack-\$0;
#X obj 460 160 r from-attack-\$0;
#X obj 470 180 r from-peak-\$0;
#X obj 480 200 r from-decay-\$0;
#X obj 490 220 r from-sustain-\$0;
#X obj 500 240 r from-release-\$0;
#X obj 520 260 r from-curve-\$0;
#X obj 110 220 hsl 185 15 0.01 1 1 1 from-attack-\$0 to-attack-\$0
attack:0.141963 5 5 0 10 #fcfcfc #000000 #000000 10600 1;
#X obj 110 240 hsl 185 15 0 1 0 0 from-peak-\$0 to-peak-\$0 peak:0.972826
5 5 0 10 #fcfcfc #000000 #000000 17900 1;
#X obj 110 260 hsl 185 15 0 1 0 1 from-decay-\$0 to-decay-\$0 decay:0.347826
5 5 0 10 #fcfcfc #000000 #000000 6400 1;
#X obj 110 280 hsl 185 15 0 1 0 0 from-sustain-\$0 to-sustain-\$0 sustain:0.000000
5 5 0 10 #fcfcfc #000000 #000000 0 1;
#X obj 110 300 hsl 185 15 0 1 0 0 from-release-\$0 to-release-\$0 release:0.000000
5 5 0 10 #fcfcfc #000000 #000000 0 1;
#X obj 110 320 hsl 185 15 0 1 0 0 from-curve-\$0 to-curve-\$0 curve:0.980978
5 5 0 10 #fcfcfc #000000 #000000 18050 1;
#X obj 520 860 sprintf label attack:%f, f 13;
#X obj 630 860 sprintf label peak:%f, f 13;
#X obj 730 855 sprintf label decay:%f, f 13;
#X obj 840 855 sprintf label sustain:%f, f 13;
#X obj 960 855 sprintf label release:%f, f 13;
#X obj 1070 855 sprintf label curve:%f, f 13;
#X msg 1000 350 \$1 \$1 \$2 \$3;
#X obj 110 190 hsl 185 15 0 1 0 0 from-spread-\$0 to-spread-\$0 spread:0.000000
5 5 0 10 #fcfcfc #000000 #000000 0 1;
#X obj 1180 835 r from-spread-\$0;
#X obj 1180 905 s to-spread-\$0;
#X obj 1180 860 sprintf label spread:%f, f 13;
#X obj 440 410 unpack f f f f f f f f f f;
#X obj 600 440 s to-spread-\$0;
#X obj 400 310 pack f f f f f f f f f f;
#X obj 540 280 r from-spread-\$0;
#X obj 1340 210 route attack peak decay sustain release curve spread
, f 54;
#X obj 1570 260 s to-spread-\$0;
#X obj 730 60 catch~ instrument-left-\$0;
#X obj 800 80 catch~ instrument-right-\$0;
#X obj 800 130 hip~ 5;
#X obj 800 155 clip~ -1 1;
#X obj 1000 580 throw~ instrument-left-\$0;
#X obj 1010 550 throw~ instrument-right-\$0;
#X obj 90 20 declare -path ./subpatches/utils;
#X obj 1000 520 bop.utils.spread -1;
#X obj 1200 580 throw~ instrument-left-\$0;
#X obj 1210 550 throw~ instrument-right-\$0;
#X obj 1200 520 bop.utils.spread -0.5;
#X obj 1400 580 throw~ instrument-left-\$0;
#X obj 1410 550 throw~ instrument-right-\$0;
#X obj 1590 580 throw~ instrument-left-\$0;
#X obj 1600 550 throw~ instrument-right-\$0;
#X obj 1400 520 bop.utils.spread 0.5;
#X obj 1590 520 bop.utils.spread 1;
#X obj 1010 490 r from-spread-\$0;
#X obj 1210 490 r from-spread-\$0;
#X obj 1415 493 r from-spread-\$0;
#X obj 1601 491 r from-spread-\$0;
#X connect 1 0 5 0;
#X connect 2 0 6 0;
#X connect 3 0 7 0;
#X connect 3 0 16 0;
#X connect 4 0 8 0;
#X connect 4 0 57 0;
#X connect 9 0 44 0;
#X connect 9 1 12 0;
#X connect 11 0 46 0;
#X connect 13 0 14 0;
#X connect 13 1 14 1;
#X connect 13 2 14 2;
#X connect 14 0 101 0;
#X connect 15 0 22 0;
#X connect 15 1 23 0;
#X connect 15 2 24 0;
#X connect 15 3 25 0;
#X connect 16 0 13 0;
#X connect 16 1 13 1;
#X connect 17 0 18 0;
#X connect 18 0 5 0;
#X connect 22 0 119 0;
#X connect 23 0 122 0;
#X connect 24 0 127 0;
#X connect 25 0 128 0;
#X connect 26 0 27 0;
#X connect 27 0 28 0;
#X connect 28 0 35 0;
#X connect 28 1 34 0;
#X connect 29 0 26 0;
#X connect 32 0 46 1;
#X connect 34 0 35 1;
#X connect 35 0 30 0;
#X connect 37 0 38 0;
#X connect 38 0 39 0;
#X connect 39 0 41 0;
#X connect 39 1 40 0;
#X connect 40 0 41 1;
#X connect 41 0 42 0;
#X connect 43 0 37 0;
#X connect 44 1 106 0;
#X connect 46 0 108 0;
#X connect 47 0 108 1;
#X connect 50 0 13 0;
#X connect 53 0 54 0;
#X connect 54 0 52 0;
#X connect 56 0 108 2;
#X connect 57 0 31 0;
#X connect 57 1 48 0;
#X connect 57 2 58 0;
#X connect 57 3 110 0;
#X connect 59 0 95 0;
#X connect 60 0 96 0;
#X connect 61 0 97 0;
#X connect 62 0 98 0;
#X connect 63 0 99 0;
#X connect 64 0 100 0;
#X connect 83 0 108 3;
#X connect 84 0 108 4;
#X connect 85 0 108 5;
#X connect 86 0 108 6;
#X connect 87 0 108 7;
#X connect 88 0 108 8;
#X connect 95 0 70 0;
#X connect 96 0 69 0;
#X connect 97 0 68 0;
#X connect 98 0 67 0;
#X connect 99 0 66 0;
#X connect 100 0 65 0;
#X connect 101 0 15 0;
#X connect 103 0 105 0;
#X connect 105 0 104 0;
#X connect 106 0 33 0;
#X connect 106 1 45 0;
#X connect 106 2 55 0;
#X connect 106 3 82 0;
#X connect 106 4 81 0;
#X connect 106 5 80 0;
#X connect 106 6 79 0;
#X connect 106 7 78 0;
#X connect 106 8 77 0;
#X connect 106 9 107 0;
#X connect 108 0 9 0;
#X connect 109 0 108 9;
#X connect 110 0 76 0;
#X connect 110 1 75 0;
#X connect 110 2 74 0;
#X connect 110 3 73 0;
#X connect 110 4 72 0;
#X connect 110 5 71 0;
#X connect 110 6 111 0;
#X connect 112 0 17 0;
#X connect 113 0 114 0;
#X connect 114 0 115 0;
#X connect 115 0 6 0;
#X connect 119 0 116 0;
#X connect 119 1 117 0;
#X connect 122 0 120 0;
#X connect 122 1 121 0;
#X connect 127 0 123 0;
#X connect 127 1 124 0;
#X connect 128 0 125 0;
#X connect 128 1 126 0;
#X connect 129 0 119 1;
#X connect 130 0 122 1;
#X connect 131 0 127 1;
#X connect 132 0 128 1;
#X coords 0 -1 1 1 210 250 2 100 100;
