#N canvas 1 23 840 1005 10;
#X obj 100 120 cnv 15 210 20 empty empty empty 7 7 0 14 #f0a8d8 #fcfcfc
0;
#X obj 1200 100 inlet~ left;
#X obj 1300 100 inlet~ right;
#X obj 1420 100 inlet note;
#X obj 1680 100 inlet ctl;
#X obj 1200 300 outlet~ left;
#X obj 1300 300 outlet~ right;
#X obj 1420 300 outlet note;
#X obj 1680 300 outlet ctl;
#X obj 720 70 r save-state-\$0;
#X obj 786 388 s save-state-\$0;
#X obj 160 130 tgl 15 1 \$0-from-loop \$0-to-loop loop 20 5 0 10 #fcfcfc
#000000 #000000 1 1;
#X obj 110 130 tgl 15 1 \$0-from-play \$0-to-play play 20 5 0 10 #fcfcfc
#000000 #000000 1 1;
#X obj 720 360 savestate, f 11;
#X text 810 360 ðŸ‘ˆ bangs when parent is saved;
#X obj 720 210 f;
#X obj 720 490 t b l;
#X obj 720 700 bng 15 250 50 0 empty empty empty 17 7 0 10 #fcfcfc
#000000 #000000;
#X text 2980 1740 comment;
#X text 2762 1862 comment;
#X obj 210 130 hsl 85 15 0 5.9 0 1 \$0-from-units \$0-to-units unit:12ths(2)
6 6 0 10 #fcfcfc #f0a8d8 #000000 3700 1;
#N canvas 18 115 720 580 tick-calculator 0;
#X msg 310 250 1 6 8 12 24 96, f 18;
#X obj 460 390 *, f 8;
#X obj 470 130 t b f;
#X obj 78 78 inlet;
#X obj 460 60 inlet;
#X obj 50 470 outlet;
#X obj 460 490 outlet;
#X obj 50 420 symbol;
#X msg 130 240 ticks 16ths 12ths 8ths beats bars, f 18;
#X obj 250 290 list store, f 21;
#X msg 250 250 get \$1 1;
#X obj 250 200 t f b, f 21;
#X obj 50 290 list store, f 21;
#X msg 50 250 get \$1 1;
#X obj 50 200 t f b, f 21;
#X obj 80 140 t f f;
#X obj 78 108 int;
#X obj 460 440 int;
#X obj 470 90 int;
#X connect 0 0 9 1;
#X connect 1 0 17 0;
#X connect 2 0 1 0;
#X connect 2 1 1 1;
#X connect 3 0 16 0;
#X connect 4 0 18 0;
#X connect 7 0 5 0;
#X connect 8 0 12 1;
#X connect 9 0 1 0;
#X connect 10 0 9 0;
#X connect 11 0 10 0;
#X connect 11 1 0 0;
#X connect 12 0 7 0;
#X connect 13 0 12 0;
#X connect 14 0 13 0;
#X connect 14 1 8 0;
#X connect 15 0 14 0;
#X connect 15 1 11 0;
#X connect 16 0 15 0;
#X connect 17 0 6 0;
#X connect 18 0 2 0;
#X restore 150 1470 pd tick-calculator;
#X obj 100 1410 t f f, f 8;
#X obj 1380 881 i;
#X obj 1380 910 %;
#X obj 1380 850 route ticks;
#X obj 1380 940 /, f 7;
#X obj 1380 810 spigot;
#X obj 100 1540 pack f s;
#X obj 100 1500 int;
#X msg 100 1580 label unit:\$2(\$1);
#X obj 110 150 hsl 185 15 1 24 0 1 \$0-from-duration \$0-to-duration
duration:24 6 6 0 10 #fcfcfc #f0a8d8 #000000 18400 1;
#X obj 360 1410 int;
#X msg 360 1500 label duration:\$1;
#X obj 370 350 s \$0-to-toggles;
#X obj 110 170 sub.bop.rhythm.toggle \$0 1;
#X obj 142 170 sub.bop.rhythm.toggle \$0 2;
#X obj 174 170 sub.bop.rhythm.toggle \$0 3;
#X obj 206 170 sub.bop.rhythm.toggle \$0 4;
#X obj 238 170 sub.bop.rhythm.toggle \$0 5;
#X obj 270 170 sub.bop.rhythm.toggle \$0 6;
#X obj 110 202 sub.bop.rhythm.toggle \$0 7;
#X obj 142 202 sub.bop.rhythm.toggle \$0 8;
#X obj 174 202 sub.bop.rhythm.toggle \$0 9;
#X obj 206 202 sub.bop.rhythm.toggle \$0 10;
#X obj 238 202 sub.bop.rhythm.toggle \$0 11;
#X obj 270 202 sub.bop.rhythm.toggle \$0 12;
#X obj 110 234 sub.bop.rhythm.toggle \$0 13;
#X obj 142 234 sub.bop.rhythm.toggle \$0 14;
#X obj 174 234 sub.bop.rhythm.toggle \$0 15;
#X obj 206 234 sub.bop.rhythm.toggle \$0 16;
#X obj 238 234 sub.bop.rhythm.toggle \$0 17;
#X obj 270 234 sub.bop.rhythm.toggle \$0 18;
#X obj 110 266 sub.bop.rhythm.toggle \$0 19;
#X obj 142 266 sub.bop.rhythm.toggle \$0 20;
#X obj 174 266 sub.bop.rhythm.toggle \$0 21;
#X obj 206 266 sub.bop.rhythm.toggle \$0 22;
#X obj 238 266 sub.bop.rhythm.toggle \$0 23;
#X obj 270 266 sub.bop.rhythm.toggle \$0 24;
#X obj 100 400 r \$0-from-toggle;
#X msg 370 290 3 blink;
#X obj 470 290 tgl 15 0 empty empty empty 17 7 0 10 #fcfcfc #000000
#000000 0 1;
#X msg 470 320 2 set \$1;
#X obj 370 580 tabwrite \$0-rhythm;
#X obj 370 520 swap;
#X obj 370 490 unpack;
#X obj 460 550 - 1;
#X obj 260 1070 array set \$0-rhythm;
#X obj 100 1030 array get \$0-rhythm;
#X obj 100 990 bng 15 250 50 0 empty empty empty 17 7 0 10 #fcfcfc
#000000 #000000;
#X text 260 1090 set list to array;
#X obj 100 1100 iter;
#X obj 130 1170 f, f 11;
#X obj 160 1130 + 1;
#X obj 100 1060 t l 1, f 16;
#X obj 100 1280 s \$0-to-toggles;
#X obj 100 1130 t f b;
#X obj 100 1220 pack f f;
#X text 160 1220 value \, index;
#X msg 100 1250 \$2 set \$1;
#X obj 100 520 array get \$0-rhythm;
#X obj 100 490 bng 15 250 50 0 empty empty empty 17 7 0 10 #fcfcfc
#000000 #000000;
#X text 120 490 get array as list;
#X text 120 990 set toggles from array;
#X obj 100 1370 r \$0-from-units;
#X obj 100 1610 s \$0-to-units;
#X obj 210 1440 r \$0-from-duration;
#X obj 210 1500 s \$0-duration-ticks;
#X obj 360 1380 r \$0-from-duration;
#X obj 360 1540 s \$0-to-duration;
#X obj 1419 878 r \$0-duration-ticks;
#X obj 1410 780 r \$0-from-play;
#X obj 1590 1205 tabread \$0-rhythm;
#X obj 740 100 r \$0-from-duration;
#X obj 770 130 r \$0-from-units;
#X obj 790 160 r \$0-from-loop;
#X obj 810 190 r \$0-from-play;
#X obj 800 580 s \$0-to-play;
#X obj 780 610 s \$0-to-loop;
#X obj 760 640 s \$0-to-units;
#X obj 740 670 s \$0-to-duration;
#X obj 720 720 s \$0-to-units;
#X obj 1700 240 s \$0-to-duration;
#X obj 1790 210 s \$0-to-units;
#X obj 1870 190 s \$0-to-loop;
#X obj 1950 170 s \$0-to-play;
#X obj 720 260 pack f f f f s, f 20;
#X obj 100 430 t b l, f 46;
#X obj 100 550 tosymbol;
#X obj 100 580 s \$0-from-rhythm-symbol;
#X obj 840 220 r \$0-from-rhythm-symbol;
#X obj 740 520 unpack f f f f s;
#X obj 830 550 s \$0-to-rhythm-symbol;
#X obj 260 1030 fromsymbol;
#X obj 100 650 r \$0-to-rhythm-symbol;
#X text 100 630 receives rhythm as symbol from save state;
#X text 100 600 sets array list as symbol for save state;
#X text 370 600 store rhythm in array;
#X obj 1140 1250 int;
#X obj 1170 1150 r \$0-from-duration;
#X obj 1530 1345 + 1;
#X obj 1530 1405 s \$0-to-toggles;
#X msg 1530 1375 \$1 blink;
#X obj 1140 870 route ticks;
#X msg 1710 1235 1;
#X obj 1590 1245 select 1;
#X obj 1710 1205 select 0;
#X obj 1625 1295 + 1;
#X obj 1140 1300 change;
#X obj 1760 1400 s \$0-raw-hit;
#X obj 1140 940 f;
#X obj 1175 940 + 1;
#X obj 1140 900 bang;
#X obj 1142 821 spigot;
#X obj 1180 750 r \$0-from-play;
#X obj 1180 780 t f f;
#X obj 1230 820 select 1;
#X obj 1140 1100 /, f 7;
#N canvas 536 235 450 301 looping 0;
#X obj 160 203 + 1;
#X obj 80 300 t b 0 b;
#X obj 390 218 i;
#X obj 390 189 spigot;
#X obj 390 276 change;
#X obj 390 305 sel 0;
#X obj 390 247 %;
#X text 350 80 â° RETRIGGER OFF OF TICKS % DURATIONðŸ‘‡;
#X text 168 133 Stop if not looping ðŸ‘‡;
#X obj 160 170 r from-loop-\$0;
#X obj 242 202 r endbang-\$0;
#X obj 80 402 s to-seq-\$0;
#X obj 458 159 r from-loop-\$0;
#X obj 429 215 r duration-ticks-\$0;
#X obj 390 334 s start-\$0;
#X obj 350 160 route ticks;
#X obj 350 130 r bop-time;
#X msg 242 355 start -1;
#X obj 242 389 s to-seq-\$0;
#X msg 80 368 goto 0;
#X obj 90 340 s to-play-\$0;
#X text 40 495 todo: fix looping behaviour;
#X text 40 520 if looping longer than duration of the clip \, playback
should pause until loop length comes around, f 33;
#X obj 160 240 cyclone/gate 2;
#X connect 0 0 23 0;
#X connect 1 0 19 0;
#X connect 1 1 20 0;
#X connect 2 0 6 0;
#X connect 3 0 2 0;
#X connect 4 0 5 0;
#X connect 5 0 14 0;
#X connect 6 0 4 0;
#X connect 9 0 0 0;
#X connect 10 0 23 1;
#X connect 12 0 3 1;
#X connect 13 0 6 1;
#X connect 15 0 3 0;
#X connect 16 0 15 0;
#X connect 17 0 18 0;
#X connect 19 0 11 0;
#X connect 23 0 1 0;
#X connect 23 1 17 0;
#X restore 1200 1100 pd looping reference;
#X obj 1179 1018 r \$0-duration-ticks;
#X msg 1230 910 0;
#X obj 1170 1370 >= 1;
#X obj 1170 1480 s \$0-to-play;
#X obj 1170 1400 select 1;
#X obj 1140 1210 * 24;
#X obj 1140 1510 s \$0-step;
#X obj 1140 1340 t f f;
#X obj 1530 1090 r \$0-step;
#X obj 1170 1180 int;
#X obj 1190 1270 r \$0-from-duration;
#X obj 1190 1300 int;
#X obj 1400 1340 s \$0-to-play;
#X msg 1400 1290 1;
#X obj 1190 1330 - 1;
#X obj 1380 1070 int;
#X obj 1410 970 r \$0-from-duration;
#X obj 1380 1120 change;
#X obj 1380 1030 * 24;
#X obj 1380 1170 s \$0-step;
#X obj 1410 1000 int;
#X obj 1269 556 r \$0-from-loop;
#X msg 1170 1450 0;
#X obj 1269 586 + 1;
#X text 1390 750 looping (continuous);
#X text 1010 720 play once;
#X obj 960 820 r \$0-from-loop;
#X obj 960 940 s \$0-to-play;
#X obj 1540 140 r \$0-raw-hit;
#X obj 1700 260 r \$0-to-outlet-ctrl;
#X obj 1540 240 s \$0-to-outlet-ctrl;
#X msg 1540 210 note \$1;
#X msg 130 840 0 0 0 0 0 0 0 0 0 0 0 0 0 0 0 0 0 0 0 0 0 0 0 0, f
12;
#X msg 230 840 1 1 1 1 1 1 1 1 1 1 1 1 1 1 1 1 1 1 1 1 1 1 1 1, f
12;
#X obj 100 810 t s b b, f 22;
#X obj 130 910 tosymbol;
#X text 320 860 reinit array;
#X obj 720 470 list;
#X obj 720 390 t b l;
#X obj 720 430 delay 100;
#X text 780 430 initialisation wasn't working without this delay -
the toggle subpathes didn't have their args yet, f 31;
#X obj 1590 1295 f 1;
#X obj 1430 1050 loadbang;
#X msg 1430 1080 -1;
#X obj 1070 1210 loadbang;
#X msg 1070 1240 -1;
#X obj 430 1020 s \$0-to-duration;
#X obj 430 980 bng 15 250 50 0 empty empty empty 17 7 0 10 #fcfcfc
#000000 #000000;
#X obj 100 950 t b s b, f 56;
#X obj 100 760 symbol, f 11;
#X obj 100 730 delay 300;
#X obj 100 700 t b s, f 11;
#X obj 1760 1360 pack f f;
#X obj 1530 1125 t f f f f, f 47;
#X text 1860 1400 note number \, cell index;
#X obj 1540 170 unpack f f;
#X msg 1610 210 cell \$1;
#X obj 1800 1280 + 1;
#X obj 354 139 table \$0-rhythm 24;
#X obj 574 46 loadbang;
#X obj 580 127 s \$0-scope-id;
#X obj 532 47 bng 15 250 50 0 empty empty empty 17 7 0 10 #fcfcfc #000000
#000000;
#X obj 481 184 r \$0-scope-id;
#X obj 483 220 print rhythm scope-id;
#X obj 577 92 \$1;
#X obj 1200 670 route 0 1 2;
#X obj 1200 615 list prepend;
#X obj 1200 640 list trim;
#X obj 230 100 cnv 5 20 5 empty empty empty 20 12 0 14 #f0a8d8 #404040
0;
#X obj 1700 140 route duration units loop play rhythm, f 81;
#X obj 2080 190 route get, f 32;
#X obj 2080 220 bng 15 250 50 0 empty empty empty 17 7 0 10 #fcfcfc
#000000 #000000;
#X obj 2080 250 s \$0-get-rhythm;
#X obj 130 460 r \$0-get-rhythm;
#X obj 2080 280 r \$0-from-rhythm-symbol;
#X obj 2080 370 list prepend;
#X obj 2080 395 list trim;
#X obj 2080 425 s \$0-to-outlet-ctrl;
#X obj 2080 310 t l b;
#X msg 2110 341 rhythm;
#X text 2141 170 if not get then set;
#X obj 2260 220 tosymbol;
#X obj 2260 250 s \$0-to-rhythm-symbol;
#X msg 1880 90 rhythm 1 0 0 0 0 0 0 1 0 0 0 0 0 0 1 1 0 0 0 0 0 0 0
0;
#X obj 230 305 cnv 5 20 5 empty empty empty 20 12 0 14 #f0a8d8 #404040
0;
#X obj 1431 144 route time;
#X obj 1434 177 s time-\$0;
#X obj 1197 558 r time-\$0;
#X connect 1 0 5 0;
#X connect 2 0 6 0;
#X connect 3 0 7 0;
#X connect 3 0 224 0;
#X connect 4 0 8 0;
#X connect 4 0 208 0;
#X connect 9 0 15 0;
#X connect 13 0 177 0;
#X connect 13 1 10 0;
#X connect 15 0 106 0;
#X connect 16 0 17 0;
#X connect 16 1 111 0;
#X connect 17 0 101 0;
#X connect 21 0 28 1;
#X connect 21 1 87 0;
#X connect 22 0 29 0;
#X connect 22 1 21 0;
#X connect 23 0 24 0;
#X connect 24 0 26 0;
#X connect 25 0 23 0;
#X connect 26 0 157 0;
#X connect 27 0 25 0;
#X connect 28 0 30 0;
#X connect 29 0 28 0;
#X connect 30 0 85 0;
#X connect 32 0 33 0;
#X connect 33 0 89 0;
#X connect 59 0 107 0;
#X connect 60 0 34 0;
#X connect 61 0 62 0;
#X connect 62 0 34 0;
#X connect 64 0 63 0;
#X connect 64 1 66 0;
#X connect 65 0 64 0;
#X connect 65 1 64 1;
#X connect 66 0 63 1;
#X connect 68 0 74 0;
#X connect 69 0 68 0;
#X connect 71 0 76 0;
#X connect 72 0 73 0;
#X connect 72 0 77 1;
#X connect 73 0 72 1;
#X connect 74 0 71 0;
#X connect 74 1 72 1;
#X connect 76 0 77 0;
#X connect 76 1 72 0;
#X connect 77 0 79 0;
#X connect 79 0 75 0;
#X connect 80 0 108 0;
#X connect 81 0 80 0;
#X connect 84 0 22 0;
#X connect 86 0 21 1;
#X connect 88 0 32 0;
#X connect 90 0 24 1;
#X connect 90 0 26 1;
#X connect 91 0 27 1;
#X connect 92 0 125 0;
#X connect 93 0 15 1;
#X connect 94 0 106 1;
#X connect 95 0 106 2;
#X connect 96 0 106 3;
#X connect 106 0 13 0;
#X connect 107 0 81 0;
#X connect 107 1 65 0;
#X connect 108 0 109 0;
#X connect 110 0 106 4;
#X connect 111 0 100 0;
#X connect 111 1 99 0;
#X connect 111 2 98 0;
#X connect 111 3 97 0;
#X connect 111 4 112 0;
#X connect 113 0 67 0;
#X connect 114 0 190 0;
#X connect 118 0 128 0;
#X connect 119 0 148 0;
#X connect 120 0 122 0;
#X connect 122 0 121 0;
#X connect 123 0 132 0;
#X connect 124 0 180 1;
#X connect 125 0 180 0;
#X connect 126 0 124 0;
#X connect 127 0 180 1;
#X connect 128 0 146 0;
#X connect 130 0 131 0;
#X connect 130 0 137 0;
#X connect 131 0 130 1;
#X connect 132 0 130 0;
#X connect 133 0 123 0;
#X connect 134 0 135 0;
#X connect 135 0 133 1;
#X connect 135 1 136 0;
#X connect 136 0 140 0;
#X connect 137 0 144 0;
#X connect 139 0 137 1;
#X connect 140 0 130 1;
#X connect 141 0 143 0;
#X connect 143 0 161 0;
#X connect 144 0 118 0;
#X connect 146 0 145 0;
#X connect 146 1 141 0;
#X connect 147 0 192 0;
#X connect 148 0 144 1;
#X connect 149 0 150 0;
#X connect 150 0 153 0;
#X connect 152 0 151 0;
#X connect 153 0 141 1;
#X connect 154 0 156 0;
#X connect 155 0 159 0;
#X connect 156 0 158 0;
#X connect 157 0 154 0;
#X connect 159 0 157 1;
#X connect 160 0 162 0;
#X connect 161 0 142 0;
#X connect 162 0 205 1;
#X connect 165 0 166 0;
#X connect 167 0 194 0;
#X connect 168 0 8 0;
#X connect 170 0 169 0;
#X connect 171 0 174 0;
#X connect 172 0 174 0;
#X connect 173 0 187 0;
#X connect 173 1 171 0;
#X connect 173 2 172 0;
#X connect 174 0 187 0;
#X connect 176 0 16 0;
#X connect 177 0 178 0;
#X connect 177 1 176 1;
#X connect 178 0 176 0;
#X connect 180 0 127 0;
#X connect 180 0 191 0;
#X connect 181 0 182 0;
#X connect 182 0 156 0;
#X connect 183 0 184 0;
#X connect 184 0 128 0;
#X connect 186 0 185 0;
#X connect 187 0 69 0;
#X connect 187 1 113 0;
#X connect 187 2 186 0;
#X connect 188 0 173 0;
#X connect 189 0 188 0;
#X connect 190 0 189 0;
#X connect 190 1 188 1;
#X connect 191 0 129 0;
#X connect 192 0 120 0;
#X connect 192 1 92 0;
#X connect 192 2 126 0;
#X connect 192 3 196 0;
#X connect 194 0 170 0;
#X connect 194 1 195 0;
#X connect 195 0 169 0;
#X connect 196 0 191 1;
#X connect 198 0 203 0;
#X connect 201 0 202 0;
#X connect 203 0 199 0;
#X connect 204 1 133 0;
#X connect 204 2 27 0;
#X connect 205 0 206 0;
#X connect 206 0 204 0;
#X connect 208 0 102 0;
#X connect 208 1 103 0;
#X connect 208 2 104 0;
#X connect 208 3 105 0;
#X connect 208 4 209 0;
#X connect 209 0 210 0;
#X connect 209 1 220 0;
#X connect 210 0 211 0;
#X connect 212 0 81 0;
#X connect 213 0 217 0;
#X connect 214 0 215 0;
#X connect 215 0 216 0;
#X connect 217 0 214 0;
#X connect 217 1 218 0;
#X connect 218 0 214 1;
#X connect 220 0 221 0;
#X connect 222 0 208 0;
#X connect 224 0 225 0;
#X connect 226 0 205 0;
#X coords 0 -1 1 1 210 210 1 100 100;
