#N canvas 0 0 1522 772 10;
#X obj 100 120 cnv 15 210 80 empty empty empty 7 7 0 14 #fdf6e3 #ffffff
0;
#X obj 770 100 inlet~ left;
#X obj 900 100 inlet~ right;
#X obj 1040 100 inlet note;
#X obj 1140 100 inlet ctl;
#X obj 770 300 outlet~ left;
#X obj 900 300 outlet~ right;
#X obj 1040 300 outlet note;
#X obj 1140 300 outlet ctl;
#X obj 468 252 savestate, f 11;
#X text 558 252 👈 bangs when parent is saved;
#X obj 470 180 f;
#X obj 470 100 r save-state-\$0;
#X obj 538 282 s save-state-\$0;
#X obj 100 100 cnv 15 210 20 empty empty bop.filter 7 7 0 14 #c8e1f7
#ffffff 0;
#X obj 110 130 hsl 185 15 20 20000 1 1 from-frequency-\$0 to-frequency-\$0
frequency:216.948Hz 5 5 0 10 #fcfcfc #000000 #000000 6350 1;
#X obj 110 150 hsl 185 15 3 300 1 1 from-resonance-\$0 to-resonance-\$0
resonance:301.377 5 5 0 10 #fcfcfc #000000 #000000 18400 1;
#X obj 110 170 hsl 185 15 0 1 0 1 from-mode-\$0 to-mode-\$0 mode:0.375(bandpass)
5 5 0 10 #fcfcfc #000000 #000000 6900 1;
#X obj 770 200 sub.bop.multimode~;
#X obj 900 200 sub.bop.multimode~;
#X obj 460 483 r from-frequency-\$0;
#X obj 460 700 s to-frequency-\$0;
#X msg 510 600 \$1 20;
#X obj 510 621 line~;
#X obj 510 650 s~ \$0-ctf;
#X msg 460 670 label frequency:\$1Hz;
#X obj 780 130 r~ \$0-ctf;
#X obj 910 130 r~ \$0-ctf;
#X obj 488 127 r from-frequency-\$0;
#X obj 468 392 s to-frequency-\$0;
#X obj 800 480 r from-resonance-\$0;
#X obj 800 700 s to-resonance-\$0;
#X msg 800 670 label resonance:\$1;
#X msg 850 608 \$1 20;
#X obj 850 629 line~;
#X obj 850 650 s~ \$0-rsn;
#X obj 1190 560 t f f;
#X obj 1190 640 pack f s;
#X obj 1190 460 r from-mode-\$0;
#X obj 1190 700 s to-mode-\$0;
#X msg 1190 670 label mode:\$1(\$2);
#N canvas 158 356 452 306 mode-name-maker 0;
#X obj 70 -80 i;
#X obj 70 -40 t b f, f 21;
#X obj 69 -144 inlet;
#X obj 70 140 outlet;
#X obj 70 110 symbol;
#X obj 70 50 list split;
#X msg 70 80 \$1;
#X msg 70 -10 lopass bandpass hipass, f 39;
#X obj 70 -110 * 2.9;
#X connect 0 0 1 0;
#X connect 1 0 7 0;
#X connect 1 1 5 1;
#X connect 2 0 8 0;
#X connect 4 0 3 0;
#X connect 5 1 6 0;
#X connect 6 0 4 0;
#X connect 7 0 5 0;
#X connect 8 0 0 0;
#X restore 1210 600 pd mode-name-maker;
#X obj 498 372 s to-resonance-\$0;
#X obj 500 160 r from-resonance-\$0;
#X obj 518 182 r from-mode-\$0;
#X obj 538 352 s to-mode-\$0;
#X obj 468 222 pack f f f;
#X obj 468 312 unpack f f f;
#X obj 1230 190 s to-mode-\$0;
#X obj 1170 150 route frequency resonance mode;
#X obj 800 150 r~ \$0-rsn;
#X obj 930 150 r~ \$0-rsn;
#X obj 1240 540 line~;
#X obj 1240 570 s~ \$0-mode;
#X msg 1240 510 \$1 200;
#X obj 960 170 r~ \$0-mode;
#X obj 830 170 r~ \$0-mode;
#X obj 1190 210 s to-resonance-\$0;
#X obj 1170 230 s to-frequency-\$0;
#X connect 1 0 18 0;
#X connect 2 0 19 0;
#X connect 3 0 7 0;
#X connect 4 0 8 0;
#X connect 4 0 49 0;
#X connect 9 0 47 0;
#X connect 9 1 13 0;
#X connect 11 0 46 0;
#X connect 12 0 11 0;
#X connect 18 0 5 0;
#X connect 19 0 6 0;
#X connect 20 0 22 0;
#X connect 20 0 25 0;
#X connect 22 0 23 0;
#X connect 23 0 24 0;
#X connect 25 0 21 0;
#X connect 26 0 18 1;
#X connect 27 0 19 1;
#X connect 28 0 11 1;
#X connect 30 0 32 0;
#X connect 30 0 33 0;
#X connect 32 0 31 0;
#X connect 33 0 34 0;
#X connect 34 0 35 0;
#X connect 36 0 37 0;
#X connect 36 1 41 0;
#X connect 37 0 40 0;
#X connect 38 0 54 0;
#X connect 38 0 36 0;
#X connect 40 0 39 0;
#X connect 41 0 37 1;
#X connect 43 0 46 1;
#X connect 44 0 46 2;
#X connect 46 0 9 0;
#X connect 47 0 29 0;
#X connect 47 1 42 0;
#X connect 47 2 45 0;
#X connect 49 0 58 0;
#X connect 49 1 57 0;
#X connect 49 2 48 0;
#X connect 50 0 18 2;
#X connect 51 0 19 2;
#X connect 52 0 53 0;
#X connect 54 0 52 0;
#X connect 55 0 19 3;
#X connect 56 0 18 3;
#X coords 0 -1 1 1 210 100 2 100 100;
