#N canvas 34 234 937 482 10;
#X obj 100 120 cnv 15 210 20 empty empty empty 7 7 0 14 #bca8fc #fcfcfc 0;
#X obj 800 100 inlet~ left;
#X obj 900 100 inlet~ right;
#X obj 1000 100 inlet note;
#X obj 800 320 outlet~ left;
#X obj 900 320 outlet~ right;
#X obj 1000 320 outlet note;
#X obj 490 170 savestate, f 11;
#X text 580 170 👈 bangs when parent is saved;
#X obj 490 90 f;
#X obj 490 130 pack f f f;
#X obj 490 300 unpack f f f;
#X obj 490 10 r save-state-\$0;
#X obj 560 200 s save-state-\$0;
#X obj 528 67 r from-reverse-\$0;
#X obj 520 360 s to-reverse-\$0;
#X obj 110 130 hsl 185 15 0 1 0 0 from-noteslider-\$0 to-noteslider-\$0 noteslider:0 5 5 0 10 #fcfcfc #000000 #000000 0 1;
#N canvas 360 348 619 419 scale-name-maker 0;
#X obj 73 -159 i;
#X obj 73 -129 change;
#X obj 73 -69 t b f, f 21;
#X obj 72 -193 inlet;
#X obj 70 160 outlet;
#X msg 70 -40 list major-pentatonic minor-pentatonic blues ionian dorian phygian lydian mixolydian aeolian locrian lydian-dominant diminished whole-tone altered;
#X obj 70 120 symbol;
#X obj 100 80 delay 200;
#X obj 100 50 loadbang;
#X obj 73 17 sub.bop.util.nth, f 21;
#X connect 0 0 1 0;
#X connect 1 0 2 0;
#X connect 2 0 5 0;
#X connect 2 1 9 1;
#X connect 3 0 0 0;
#X connect 5 0 9 0;
#X connect 6 0 4 0;
#X connect 7 0 6 0;
#X connect 8 0 7 0;
#X connect 9 0 6 0;
#X restore 80 440 pd scale-name-maker;
#X obj 110 150 hsl 185 15 0 13 0 0 from-scale-\$0 to-scale-\$0 scale:1(minor-pentatonic) 5 5 0 10 #fcfcfc #000000 #000000 0 1;
#X obj 20 330 int;
#X obj 20 360 change;
#X obj 1520 180 s to-reverse-\$0;
#X obj 670 688 change;
#X obj 670 631 int;
#X text 801 525 < number of notes in scale;
#X text 708 659 < current note, f 10;
#X floatatom 760 529 5 0 0 0 - - - 0;
#X obj 820 640 > 0;
#X obj 819 673 * 127;
#X text 860 673 < current velocity;
#X msg 511 818 0 3 5 7 10 12 15 17 19 22 24 27 29 31 34;
#X obj 670 723 t b f, f 13;
#X obj 725 1197 pack, f 5;
#X msg 660 1388 60;
#X text 689 1384 < store last note to send note off on next note, f 18;
#X msg 819 1150 0;
#X obj 725 1235 t l b, f 29;
#X obj 660 1453 pack;
#X obj 660 1424 t f 0;
#X obj 850 741 sel 0;
#X obj 850 710 change;
#X text 898 737 < send note off when under thresh, f 18;
#X obj 850 772 s \$0-noteoff;
#X text 701 1065 < scale offset;
#X obj 727 1262 s \$0-notepairout;
#X obj 659 1482 s \$0-notepairout;
#X obj 1020 280 r \$0-notepairout;
#X obj 725 1353 r \$0-noteoff;
#N canvas -68 176 774 466 scalemaker 0;
#X obj 296 28 inlet;
#X obj 282 698 outlet;
#X msg 335 318 0 3 5 7 10;
#X obj 366 203 bng 15 250 50 0 empty empty empty 17 7 0 10 #fcfcfc #000000 #000000;
#X msg 593 546 set;
#X floatatom 427 340 5 0 0 0 - - - 0;
#X obj 469 330 + 12;
#X obj 366 260 t b b;
#X obj 410 532 + 0;
#X msg 427 258 set 0;
#X obj 604 202 bng 15 250 50 0 empty empty empty 17 7 0 10 #fcfcfc #000000 #000000;
#X text 109 319 scale as semi-tone steps >;
#X msg 282 658 0 3 5 7 10 12 15 17 19 22 24 27 29 31 34;
#N canvas 14 203 496 733 scales 0;
#X obj 65 27 t b s, f 8;
#X obj 65 119 outlet;
#X obj -22 132 outlet;
#N canvas 75 167 1085 398 scales 0;
#X obj 182 59 inlet;
#X obj 812 556 outlet;
#X msg 182 138 0 2 4 7 9;
#X msg 267 138 0 3 5 7 10;
#X msg 352 138 0 3 5 6 7 10;
#X obj 470 138 sel ionian dorian phrygian lydian mixolydian aeolian locrain, f 61;
#X obj 182 100 sel major-pentatonic minor-pentatonic blues;
#X msg 470 186 0 2 4 5 7 9 11;
#X msg 521 216 0 2 3 5 7 9 10;
#X msg 573 246 0 1 3 5 7 8 10;
#X msg 625 275 0 2 4 6 7 9 11;
#X msg 677 305 0 2 4 5 7 9 10;
#X msg 729 335 0 2 3 5 7 8 10;
#X msg 781 365 0 1 3 5 6 8 10;
#X obj 890 209 sel lydian-dominant diminished whole-tone altered;
#X msg 890 243 0 2 4 6 7 9 10;
#X msg 962 276 0 2 3 5 6 8 9 11;
#X msg 1035 310 0 2 4 6 8 10;
#X msg 1108 339 0 1 3 4 6 8 10;
#X connect 0 0 6 0;
#X connect 2 0 1 0;
#X connect 3 0 1 0;
#X connect 4 0 1 0;
#X connect 5 0 7 0;
#X connect 5 1 8 0;
#X connect 5 2 9 0;
#X connect 5 3 10 0;
#X connect 5 4 11 0;
#X connect 5 5 12 0;
#X connect 5 6 13 0;
#X connect 5 7 14 0;
#X connect 6 0 2 0;
#X connect 6 1 3 0;
#X connect 6 2 4 0;
#X connect 6 3 5 0;
#X connect 7 0 1 0;
#X connect 8 0 1 0;
#X connect 9 0 1 0;
#X connect 10 0 1 0;
#X connect 11 0 1 0;
#X connect 12 0 1 0;
#X connect 13 0 1 0;
#X connect 14 0 15 0;
#X connect 14 1 16 0;
#X connect 14 2 17 0;
#X connect 14 3 18 0;
#X connect 15 0 1 0;
#X connect 16 0 1 0;
#X connect 17 0 1 0;
#X connect 18 0 1 0;
#X restore -22 93 pd scales;
#X text -82 -54 comment;
#X obj 65 -5 r \$0scalename;
#X connect 0 0 1 0;
#X connect 0 1 3 0;
#X connect 3 0 2 0;
#X connect 5 0 0 0;
#X restore 129 28 pd scales;
#X floatatom 296 60 5 0 0 0 - - - 0;
#X obj 296 86 t b f b, f 52;
#X msg 470 360 set \$1;
#X msg 410 560 add2 \$1;
#X obj 130 70 list prepend set;
#X obj 130 100 list trim;
#X obj 365 165 until;
#X obj 333 457 sub.bop.util.iter;
#X connect 0 0 14 0;
#X connect 2 0 21 0;
#X connect 3 0 7 0;
#X connect 4 0 12 0;
#X connect 5 0 6 0;
#X connect 5 0 8 1;
#X connect 6 0 16 0;
#X connect 7 0 2 0;
#X connect 7 1 5 0;
#X connect 8 0 17 0;
#X connect 9 0 5 0;
#X connect 10 0 4 0;
#X connect 10 0 9 0;
#X connect 12 0 1 0;
#X connect 13 0 18 0;
#X connect 13 1 14 0;
#X connect 14 0 15 0;
#X connect 15 0 12 0;
#X connect 15 1 20 0;
#X connect 15 2 10 0;
#X connect 16 0 5 0;
#X connect 17 0 12 0;
#X connect 18 0 19 0;
#X connect 19 0 2 0;
#X connect 20 0 3 0;
#X connect 21 0 8 0;
#X restore 510 640 pd scalemaker;
#X obj 551 732 s \$0-numnotes;
#X obj 759 497 r \$0-numnotes;
#X text 343 814 scale as semi-tone steps >;
#X obj 100 480 s \$0scalename;
#X obj 664 1092 t f f b, f 21;
#X obj 670 591 t f f;
#X text 190 480 👈 sends to [pd scalemaker];
#X obj 591 908 s \$0-scalelist;
#X obj 1090 130 r \$0-scalelist;
#X obj 370 650 s \$0-getscale;
#X obj 370 620 bng 15 250 50 0 empty empty empty 17 7 0 10 #fcfcfc #000000 #000000;
#X obj 611 778 r \$0-getscale;
#X obj 513 675 t b l l;
#X obj 1300 270 s to-noteslider-\$0;
#X obj 670 460 r from-noteslider-\$0;
#X obj 370 560 r from-scale-id-\$0;
#X obj 1270 100 inlet ctrl;
#X obj 1270 300 outlet ctrl;
#X obj 370 590 change;
#X text 580 860 TODO: this is causing double outputs due to the scale-name-slider and scale-id;
#X obj 664 1065 + 60;
#X obj 508 37 r from-octaves-\$0;
#X obj 622 363 s to-octaves-\$0;
#X obj 1490 210 s to-octaves-\$0;
#X obj 1300 140 route f noteslider scale-id octaves reverse;
#X obj 510 540 r from-octaves-\$0;
#X obj 432 363 s to-scale-\$0;
#X obj 580 100 r from-scale-\$0;
#X obj 1420 240 s to-scale-\$0;
#X obj 20 390 t f f;
#X obj 20 310 r from-scale-\$0;
#X obj 20 560 s to-scale-\$0;
#X obj 110 170 hsl 185 15 1 8 0 1 from-octaves-\$0 to-octaves-\$0 octaves:3 5 5 0 10 #fcfcfc #000000 #000000 7090 1;
#X obj 20 590 r from-octaves-\$0;
#X obj 20 690 s to-octaves-\$0;
#X obj 20 720 r from-noteslider-\$0;
#X obj 20 790 s to-noteslider-\$0;
#X obj 20 490 pack f s;
#X msg 20 530 label scale:\$1(\$2);
#X msg 20 670 label octaves:\$1;
#X obj 20 620 int;
#X msg 20 760 label noteslider:\$1;
#X obj 670 560 sub.bop.util.scale 0 1 0 5;
#X msg 660 1320 set \$1;
#X msg 817 1090 set \$1;
#X obj 510 570 int;
#X obj 510 600 change;
#X msg 529 252 0 0 3;
#X text 570 250 default settings;
#X obj 490 220 t l b b;
#X text 580 270 the change objects in the label making section are prevent correct intialization, f 22;
#X obj 1090 170 list prepend notelist;
#X obj 1090 202 list trim;
#X obj 521 758 list prepend set;
#X obj 521 779 list trim;
#X obj 551 708 list length;
#X obj 663 1037 sub.bop.util.nth;
#X obj 511 998 list store;
#X connect 1 0 4 0;
#X connect 2 0 5 0;
#X connect 3 0 6 0;
#X connect 7 0 98 0;
#X connect 7 1 13 0;
#X connect 9 0 10 0;
#X connect 10 0 7 0;
#X connect 11 0 75 0;
#X connect 11 1 15 0;
#X connect 11 2 71 0;
#X connect 12 0 9 0;
#X connect 14 0 10 1;
#X connect 17 0 52 0;
#X connect 17 0 86 1;
#X connect 19 0 20 0;
#X connect 20 0 78 0;
#X connect 22 0 31 0;
#X connect 23 0 22 0;
#X connect 26 0 91 4;
#X connect 27 0 28 0;
#X connect 28 0 40 0;
#X connect 28 0 93 0;
#X connect 30 0 56 0;
#X connect 30 0 106 0;
#X connect 31 0 30 0;
#X connect 31 1 105 1;
#X connect 32 0 36 0;
#X connect 33 0 38 0;
#X connect 35 0 32 1;
#X connect 36 0 44 0;
#X connect 36 1 33 0;
#X connect 37 0 45 0;
#X connect 38 0 37 0;
#X connect 38 1 37 1;
#X connect 39 0 42 0;
#X connect 40 0 39 0;
#X connect 46 0 6 0;
#X connect 47 0 33 0;
#X connect 48 0 61 0;
#X connect 50 0 26 0;
#X connect 53 0 92 0;
#X connect 53 1 32 0;
#X connect 53 2 35 0;
#X connect 54 0 23 0;
#X connect 54 1 27 0;
#X connect 57 0 100 0;
#X connect 59 0 58 0;
#X connect 60 0 30 0;
#X connect 61 0 30 0;
#X connect 61 1 102 0;
#X connect 61 2 104 0;
#X connect 63 0 91 0;
#X connect 64 0 67 0;
#X connect 65 0 66 0;
#X connect 65 0 73 0;
#X connect 67 0 59 0;
#X connect 69 0 53 0;
#X connect 70 0 10 2;
#X connect 73 0 62 0;
#X connect 73 1 62 0;
#X connect 73 2 77 0;
#X connect 73 3 72 0;
#X connect 73 4 21 0;
#X connect 74 0 94 0;
#X connect 76 0 9 1;
#X connect 78 0 86 0;
#X connect 78 1 17 0;
#X connect 79 0 19 0;
#X connect 82 0 89 0;
#X connect 84 0 90 0;
#X connect 86 0 87 0;
#X connect 87 0 80 0;
#X connect 88 0 83 0;
#X connect 89 0 88 0;
#X connect 90 0 85 0;
#X connect 91 0 54 0;
#X connect 92 0 33 0;
#X connect 93 0 35 0;
#X connect 94 0 95 0;
#X connect 95 0 48 0;
#X connect 96 0 11 0;
#X connect 98 0 11 0;
#X connect 98 1 96 0;
#X connect 100 0 101 0;
#X connect 101 0 66 0;
#X connect 102 0 103 0;
#X connect 103 0 30 0;
#X connect 104 0 49 0;
#X connect 105 0 69 0;
#X connect 106 0 105 0;
#X coords 0 -1 1 1 210 100 1 100 100;
