#N canvas 488 0 545 772 10;
#X obj 100 120 cnv 15 210 130 empty empty empty 7 7 0 14 #fdf6e3 #ffffff
0;
#X obj 500 100 inlet~ left;
#X obj 600 100 inlet~ right;
#X obj 700 100 inlet note;
#X obj 860 100 inlet ctl;
#X obj 500 300 outlet~ left;
#X obj 600 300 outlet~ right;
#X obj 700 300 outlet note;
#X obj 860 300 outlet ctl;
#X text 100 10 GOP is 210 wide;
#X obj 110 150 hsl 185 45 0 1 0 0 from-play-slider-\$0 to-play-slider-\$0
empty 5 5 0 10 #fcfcfc #000000 #000000 1148 1;
#X text 100 30 gui sends and receives are from-{param}-\$0 and to-{param}-\$0
;
#X text 100 70 bang and toggle label is {param} \, x = 20 \, y = 5
\, size = 15;
#X text 100 50 slider label is {param} \, x = 5 \, y = 5;
#X symbolatom 130 130 19 0 0 1 filepath to-filepath-#0 from-filepath-#0
, f 19;
#X obj 110 200 bng 15 250 50 0 from-go-\$0 to-go-\$0 go 20 5 0 10 #fcfcfc
#000000 #000000;
#N canvas 0 0 450 300 (subpatch) 0;
#X array sample-\$0 17292 float 0 black black;
#X coords 0 1 17291 -1 190 45 1;
#X restore 110 150 graph;
#X obj 110 130 bng 15 250 50 0 from-open-\$0 to-open-\$0 empty 20 5
0 10 #fcfcfc #000000 #000000;
#X obj 720 200 t b f;
#X obj 997 258 cyclone/prepend set;
#X obj 970 220 t b s;
#X obj 880 200 s to-go-\$0;
#X obj 720 270 s to-go-\$0;
#X obj 750 240 s pitch-\$0;
#X obj 780 200 s volume-\$0;
#X obj 967 298 s to-filepath-\$0;
#X obj 100 430 savestate, f 11;
#X text 180 450 👈 bangs when parent is saved;
#X obj 100 280 r save-state-\$0;
#X obj 170 470 s save-state-\$0;
#X obj 140 310 r from-filepath-\$0;
#X obj 100 340 symbol;
#X obj 100 670 s to-filepath-\$0;
#X obj 530 630 soundfiler;
#X obj 780 761 *~;
#X obj 530 480 bng 15 250 50 0 empty empty empty 17 7 0 10 #fcfcfc
#000000 #000000;
#X obj 530 510 openpanel;
#X floatatom 540 660 15 0 0 0 - - -, f 15;
#X obj 780 570 *~;
#X obj 530 730 expr $f1/44100 * 1000;
#X obj 500 770 f;
#X obj 780 460 line~;
#X obj 440 660 bng 15 250 50 0 empty empty empty 17 7 0 10 #fcfcfc
#000000 #000000;
#X msg 500 1380 1 \$1;
#X obj 500 800 t f b, f 26;
#X obj 500 1340 * 1;
#X obj 520 1310 expr pow(2 \, $f1/12);
#X obj 520 1130 * -1;
#X obj 800 730 line;
#X obj 800 670 / 127;
#X msg 800 700 \$1 5;
#X obj 530 450 r from-open-\$0;
#X obj 530 540 s to-filepath-\$0;
#X obj 530 570 r from-filepath-\$0;
#X msg 530 600 read -resize \$1 sample-\$0;
#X obj 540 690 s sample-size-\$0;
#X obj 440 630 r from-go-\$0;
#X obj 520 940 r pitch-\$0;
#X obj 800 530 r sample-size-\$0;
#X obj 830 490 s to-play-slider-\$0;
#X obj 780 600 tabread4~ sample-\$0;
#X obj 800 630 r volume-\$0;
#X obj 780 890 s~ to-out-\$0;
#X obj 510 160 r~ to-out-\$0;
#X obj 600 230 +~;
#X obj 500 230 +~;
#X obj 520 1100 - 60;
#X obj 830 460 line;
#X obj 500 1420 s to-line-\$0;
#X obj 650 860 s to-line-\$0;
#X obj 780 400 r to-line-\$0;
#X obj 720 160 unpack 60 127;
#X obj 100 100 cnv 15 210 20 empty empty bop.sampler 7 7 0 14 #c8e1f7
#ffffff 0;
#X obj 170 200 hsl 100 15 -1 1 0 1 from-tune-\$0 to-tune-\$0 tune:-0.5051
5 5 0 10 #fcfcfc #000000 #000000 2450 1;
#X obj 150 340 r from-tune-\$0;
#X obj 1020 230 s to-tune-\$0;
#X msg 150 610 0;
#X obj 130 640 s to-tune-\$0;
#X obj 590 940 r from-tune-\$0;
#X obj 520 1190 -, f 6;
#X obj 170 220 hsl 100 15 -12 12 0 1 from-transpose-\$0 to-transpose-\$0
transpose:-5 5 5 0 10 #fcfcfc #000000 #000000 2550 1;
#X obj 100 400 pack s f f;
#X obj 170 370 r from-transpose-\$0;
#X obj 100 500 unpack s f f;
#X obj 880 160 route go bang filepath tune transpose, f 48;
#X obj 1070 200 s to-transpose-\$0;
#X obj 520 1280 -, f 6;
#X obj 690 940 r from-transpose-\$0;
#X obj 280 200 bng 15 250 50 0 from-reset-tune-\$0 empty empty 17 7
0 10 #fcfcfc #000000 #000000;
#X obj 163 582 r from-reset-tune-\$0;
#X obj 280 220 bng 15 250 50 0 from-reset-transpose-\$0 empty empty
17 7 0 10 #fcfcfc #000000 #000000;
#X msg 290 510 0;
#X obj 303 482 r from-reset-transpose-\$0;
#X obj 160 540 s to-transpose-\$0;
#X obj 550 1250 int;
#X obj 300 930 r from-tune-\$0;
#X obj 110 930 r from-transpose-\$0;
#X obj 300 990 s to-tune-\$0;
#X obj 110 990 s to-transpose-\$0;
#X obj 110 960 sprintf label transpose:%d;
#X obj 300 960 sprintf label tune:%. 4g;
#X obj 350 860 s to-envelope-\$0;
#X obj 817 822 line~;
#X obj 820 790 r to-envelope-\$0;
#X obj 780 850 *~;
#X obj 440 700 t b b;
#X msg 340 810 1 20;
#X msg 410 810 0 20;
#X obj 340 730 delay 20;
#X msg 650 830 0, f 5;
#X obj 690 980 t b f;
#X obj 520 1070 f;
#X obj 520 970 t b f;
#X obj 590 970 t b f;
#X connect 1 0 65 0;
#X connect 2 0 64 0;
#X connect 3 0 7 0;
#X connect 3 0 71 0;
#X connect 4 0 8 0;
#X connect 4 0 84 0;
#X connect 18 0 22 0;
#X connect 18 1 23 0;
#X connect 19 0 25 0;
#X connect 20 0 25 0;
#X connect 20 1 19 0;
#X connect 26 0 83 0;
#X connect 26 1 29 0;
#X connect 28 0 31 0;
#X connect 30 0 31 1;
#X connect 31 0 81 0;
#X connect 33 0 37 0;
#X connect 33 0 39 0;
#X connect 34 0 104 0;
#X connect 35 0 36 0;
#X connect 36 0 52 0;
#X connect 37 0 55 0;
#X connect 38 0 60 0;
#X connect 39 0 40 1;
#X connect 40 0 44 0;
#X connect 41 0 38 0;
#X connect 42 0 105 0;
#X connect 43 0 68 0;
#X connect 44 0 45 0;
#X connect 44 1 109 0;
#X connect 45 0 43 0;
#X connect 46 0 45 1;
#X connect 47 0 79 0;
#X connect 48 0 34 1;
#X connect 49 0 50 0;
#X connect 50 0 48 0;
#X connect 51 0 35 0;
#X connect 53 0 54 0;
#X connect 54 0 33 0;
#X connect 56 0 42 0;
#X connect 57 0 112 0;
#X connect 58 0 38 1;
#X connect 60 0 34 0;
#X connect 61 0 49 0;
#X connect 63 0 64 1;
#X connect 63 0 65 1;
#X connect 64 0 6 0;
#X connect 65 0 5 0;
#X connect 66 0 47 0;
#X connect 67 0 59 0;
#X connect 70 0 41 0;
#X connect 70 0 67 0;
#X connect 71 0 18 0;
#X connect 71 1 24 0;
#X connect 74 0 81 1;
#X connect 76 0 77 0;
#X connect 78 0 113 0;
#X connect 79 0 86 0;
#X connect 81 0 26 0;
#X connect 82 0 81 2;
#X connect 83 0 32 0;
#X connect 83 1 77 0;
#X connect 83 2 93 0;
#X connect 84 0 21 0;
#X connect 84 1 21 0;
#X connect 84 2 20 0;
#X connect 84 3 75 0;
#X connect 84 4 85 0;
#X connect 86 0 46 0;
#X connect 87 0 110 0;
#X connect 89 0 76 0;
#X connect 91 0 93 0;
#X connect 92 0 91 0;
#X connect 94 0 86 1;
#X connect 95 0 100 0;
#X connect 96 0 99 0;
#X connect 99 0 98 0;
#X connect 100 0 97 0;
#X connect 102 0 104 1;
#X connect 103 0 102 0;
#X connect 104 0 62 0;
#X connect 105 0 108 0;
#X connect 105 1 107 0;
#X connect 106 0 101 0;
#X connect 107 0 101 0;
#X connect 108 0 106 0;
#X connect 108 0 40 0;
#X connect 109 0 69 0;
#X connect 110 0 111 0;
#X connect 110 1 94 0;
#X connect 111 0 66 0;
#X connect 112 0 111 0;
#X connect 112 1 111 1;
#X connect 113 0 111 0;
#X connect 113 1 79 1;
#X coords 0 -1 1 1 210 150 2 100 100;
