#N canvas 276 0 970 772 10;
#X declare -path ./subpatches/harp;
#X obj 100 120 cnv 15 210 30 empty empty empty 7 7 0 14 #fdf6e3 #ffffff
0;
#X obj 670 100 inlet~ left;
#X obj 900 100 inlet~ right;
#X obj 1000 100 inlet note;
#X obj 1100 100 inlet ctl;
#X obj 670 220 outlet~ left;
#X obj 900 220 outlet~ right;
#X obj 1020 200 outlet note;
#X obj 1100 200 outlet ctl;
#X obj 400 260 savestate, f 11;
#X text 490 260 👈 bangs when parent is saved;
#X obj 400 180 f;
#X obj 400 100 r save-state-\$0;
#X obj 460 290 s save-state-\$0;
#X obj 400 330 s to-param1-\$0;
#X obj 1130 170 s to-param1-\$0;
#X obj 100 100 cnv 15 210 20 empty empty bop.harp 7 7 0 14 #c8e1f7
#ffffff 0;
#X obj 90 50 declare -path ./subpatches/harp;
#X obj 1000 450 harp~;
#X obj 1000 270 poly 4;
#X obj 1000 310 pack 0 0 0;
#X obj 1000 340 route 1 2 3 4, f 55;
#X obj 1000 480 *~ 0.5;
#X obj 1000 390 unpack;
#X obj 1000 420 mtof;
#X obj 1000 230 unpack;
#X obj 1000 520 throw~ harp-\$0;
#X obj 780 100 catch~ harp-\$0;
#X obj 1100 450 harp~;
#X obj 1100 480 *~ 0.5;
#X obj 1100 390 unpack;
#X obj 1100 420 mtof;
#X obj 1100 520 throw~ harp-\$0;
#X obj 1200 450 harp~;
#X obj 1200 480 *~ 0.5;
#X obj 1200 390 unpack;
#X obj 1200 420 mtof;
#X obj 1200 520 throw~ harp-\$0;
#X obj 1300 450 harp~;
#X obj 1300 480 *~ 0.5;
#X obj 1300 390 unpack;
#X obj 1300 420 mtof;
#X obj 1300 520 throw~ harp-\$0;
#X obj 400 220 pack f;
#X obj 400 290 unpack f;
#X obj 410 150 r from-param-\$0;
#X obj 1130 140 route param1;
#X obj 780 120 hip~ 5;
#X obj 780 145 clip~ -1 1;
#X connect 1 0 5 0;
#X connect 2 0 6 0;
#X connect 3 0 7 0;
#X connect 3 0 25 0;
#X connect 4 0 8 0;
#X connect 4 0 46 0;
#X connect 9 0 44 0;
#X connect 9 1 13 0;
#X connect 11 0 43 0;
#X connect 12 0 11 0;
#X connect 18 0 22 0;
#X connect 19 0 20 0;
#X connect 19 1 20 1;
#X connect 19 2 20 2;
#X connect 20 0 21 0;
#X connect 21 0 23 0;
#X connect 21 1 30 0;
#X connect 21 2 35 0;
#X connect 21 3 40 0;
#X connect 22 0 26 0;
#X connect 23 0 24 0;
#X connect 23 1 18 1;
#X connect 24 0 18 0;
#X connect 25 0 19 0;
#X connect 25 1 19 1;
#X connect 27 0 47 0;
#X connect 28 0 29 0;
#X connect 29 0 32 0;
#X connect 30 0 31 0;
#X connect 30 1 28 1;
#X connect 31 0 28 0;
#X connect 33 0 34 0;
#X connect 34 0 37 0;
#X connect 35 0 36 0;
#X connect 35 1 33 1;
#X connect 36 0 33 0;
#X connect 38 0 39 0;
#X connect 39 0 42 0;
#X connect 40 0 41 0;
#X connect 40 1 38 1;
#X connect 41 0 38 0;
#X connect 43 0 9 0;
#X connect 44 0 14 0;
#X connect 45 0 11 1;
#X connect 46 0 15 0;
#X connect 47 0 48 0;
#X connect 48 0 5 0;
#X connect 48 0 6 0;
#X coords 0 -1 1 1 210 50 2 100 100;
