#N canvas 0 23 1680 1005 10;
#X obj 100 120 cnv 15 210 20 empty empty empty 7 7 0 14 #c7e2ca #ffffff
0;
#X obj 871 83 inlet~ left;
#X obj 971 83 inlet~ right;
#X obj 1071 83 inlet note;
#X obj 871 333 outlet~ left;
#X obj 971 333 outlet~ right;
#X obj 1071 333 outlet note;
#X obj 360 780 savestate, f 11;
#X text 440 800 👈 bangs when parent is saved;
#X obj 360 750 f;
#X obj 360 670 r save-state-\$0;
#X obj 430 830 s save-state-\$0;
#X obj 110 130 tgl 55 0 from-play-\$0 to-play-\$0 play 15 24 0 10 #ffffff
#000000 #000000 0 1;
#X floatatom 100 300 5 0 0 1 ticks to-ticks-#0 from-ticks-#0, f 5
;
#X floatatom 100 320 5 0 0 1 16ths to-16ths-#0 from-16ths-#0, f 5
;
#X floatatom 170 300 5 0 0 1 8ths to-8ths-#0 from-8ths-#0, f 5;
#X floatatom 170 320 5 0 0 1 beats to-beats-#0 from-beats-#0, f 5
;
#X floatatom 170 340 5 0 0 1 bars to-bars-#0 from-bars-#0, f 5;
#X floatatom 100 340 5 0 0 1 12ths to-12ths-#0 from-12ths-#0, f 5
;
#X obj 170 150 bng 15 250 50 0 from-rewind-\$0 to-rewind-\$0 rewind
20 5 0 10 #ffffff #000000 #000000;
#X obj 353 274 r from-ticks-\$0;
#X obj 453 274 r from-16ths-\$0;
#X obj 563 274 r from-12ths-\$0;
#X obj 363 438 r from-8ths-\$0;
#X obj 463 438 r from-beats-\$0;
#X obj 573 438 r from-bars-\$0;
#X obj 1410 60 inlet ctrl;
#X obj 1436 481 outlet ctrl;
#X obj 1410 260 s to-rewind-\$0;
#X obj 1500 200 s to-bpm-\$0;
#X obj 378 697 r from-bpm-\$0;
#X obj 360 830 unpack f;
#X obj 360 960 s to-bpm-\$0;
#X text 863 622 pulse;
#X obj 798 727 metro;
#X obj 825 689 expr 60000/$f1;
#X obj 798 586 t f b;
#X text 693 655 16ths as ticks 👉;
#X msg 868 585 set \$1;
#X obj 855 558 t b f;
#X obj 824 654 * 24;
#X floatatom 862 729 5 0 0 0 - - -, f 5;
#X msg 825 623 88;
#X text 1570 675 24 ticks per beat;
#X text 1570 716 12 ticks per quaver;
#X text 1570 759 6 ticks per semiquaver;
#X text 1570 630 96 ticks per bar of 4/4;
#X text 1570 737 8 ticks per quaver triplet;
#X text 1570 653 32 ticks per minim triplet;
#X text 1570 696 16 ticks per crotchet triplet;
#X obj 852 531 r from-bpm-\$0;
#X obj 800 900 s to-ticks-\$0;
#X obj 980 610 r from-ticks-\$0;
#X obj 1090 610 r from-ticks-\$0;
#X obj 1200 610 r from-ticks-\$0;
#X obj 1300 610 r from-ticks-\$0;
#X obj 980 670 s to-16ths-\$0;
#X obj 1086 667 s to-12ths-\$0;
#X obj 1198 667 s to-8ths-\$0;
#X obj 1300 669 s to-beats-\$0;
#X obj 1400 670 s to-bars-\$0;
#X obj 355 188 sel 1;
#X msg 359 223 \; pd dsp 1;
#X obj 359 153 r from-play-\$0;
#X obj 800 500 r from-play-\$0;
#X obj 1450 230 s to-play-\$0;
#X msg 353 304 ticks \$1;
#X msg 453 304 16ths \$1;
#X msg 563 304 12ths \$1;
#X msg 363 468 8ths \$1;
#X msg 463 468 beats \$1;
#X msg 573 468 bars \$1;
#X msg 670 560 play \$1;
#X obj 170 170 nbx 5 15 -1e+37 1e+37 0 0 empty from-bars-\$0 empty
0 -8 0 15 #fcfcfc #000000 #000000 217 256 0;
#X obj 230 170 nbx 2 15 -1e+37 1e+37 0 0 empty from-beats-\$0 empty
0 -8 0 15 #fcfcfc #000000 #000000 1 256 0;
#X obj 270 170 nbx 2 15 -1e+37 1e+37 0 0 empty ticks-in-bar-\$0 empty
0 -8 0 15 #fcfcfc #000000 #000000 1 256 0;
#X obj 100 640 s ticks-in-bar-\$0;
#X obj 100 580 r from-ticks-\$0;
#X obj 100 610 % 24;
#X text 220 170 .;
#X text 260 170 .;
#X obj 830 790 r from-rewind-\$0;
#X obj 170 130 nbx 11 17 -1e+37 1e+33 0 0 from-bpm-\$0 to-bpm-\$0 bpm
83 7 0 10 #fcfcfc #000000 #000000 88 256 0;
#X obj 891 133 clip~ -1 1;
#X obj 981 133 clip~ -1 1;
#X obj 425 197 s bop-play;
#X obj 263 274 r from-bpm-\$0;
#X floatatom 260 410 5 0 0 0 - - -, f 5;
#X msg 260 440 bpm \$1;
#X obj 300 380 bng 15 250 50 0 empty empty empty 17 7 0 10 #fcfcfc
#000000 #000000;
#X obj 100 880 iemguts/sendcanvas 1;
#X obj 100 910 bng 15 250 50 0 \$0-make-palette empty palette 20 5
0 10 #fcfcfc #000000 #000000;
#X obj 100 680 r \$0-make-palette;
#X obj 100 720 iemguts/canvasposition;
#X obj 100 820 pack;
#X msg 100 840 obj \$1 \$2 bop.palette;
#X obj 100 750 unpack;
#X obj 100 790 + 220;
#X obj 360 880 delay 100;
#X obj 360 910 f;
#X msg 430 920 110;
#X obj 430 880 loadbang;
#X obj 340 50 cnv 15 55 55 empty \$0-play-canvas 🦉 3 22 0 50 #e0e0e0
#404040 0;
#X msg 412 72 label \$1;
#X obj 412 102 s \$0-play-canvas;
#X msg 412 22 🦉;
#X msg 472 22 🦅;
#X obj 412 42 symbol;
#X obj 801 862 f;
#X obj 850 860 + 1;
#X msg 830 820 0;
#X obj 1410 140 route rewind play 1 0 bpm id;
#X obj 671 593 s bop-time-\$0;
#X obj 562 345 s bop-time-\$0;
#X obj 460 353 s bop-time-\$0;
#X obj 347 352 s bop-time-\$0;
#X obj 358 498 s bop-time-\$0;
#X obj 459 504 s bop-time-\$0;
#X obj 569 506 s bop-time-\$0;
#X obj 255 499 s bop-time-\$0;
#X obj 1560 330 r to-bpm-\$0;
#X msg 1560 360 bpm \$1;
#X obj 1330 320 r from-rewind-\$0;
#X msg 1330 350 0;
#X msg 1330 380 rewind \$1;
#X obj 680 300 r bop-time-\$0;
#X obj 1090 280 r outlet-note-\$0;
#X obj 680 360 list trim;
#X obj 680 330 list prepend time;
#X obj 300 195 cnv 5 10 5 empty empty empty 7 7 0 14 #c7e2ca #ffffff
0;
#X obj 680 420 s outlet-ctrl-\$0;
#X obj 1440 450 r outlet-ctrl-\$0;
#X obj 1330 410 s outlet-ctrl-\$0;
#X obj 1560 400 s outlet-ctrl-\$0;
#X obj 1450 350 r to-play-\$0;
#X obj 1450 380 s outlet-ctrl-\$0;
#N canvas 0 22 450 300 ticks-2-12ths 0;
#X obj 40 122 i;
#X obj 40 80 / 8;
#X obj 40 193 % 12;
#X obj 41 162 change;
#X obj 13 26 inlet;
#X obj 13 263 outlet;
#X connect 0 0 3 0;
#X connect 1 0 0 0;
#X connect 2 0 5 0;
#X connect 3 0 2 0;
#X connect 4 0 1 0;
#X restore 1090 640 pd ticks-2-12ths;
#N canvas 0 22 450 300 ticks-2-16ths 0;
#X obj 44 122 i;
#X obj 44 80 / 6;
#X obj 44 193 % 16;
#X obj 40 152 change;
#X obj 13 26 inlet;
#X obj 13 263 outlet;
#X connect 0 0 3 0;
#X connect 1 0 0 0;
#X connect 2 0 5 0;
#X connect 3 0 2 0;
#X connect 4 0 1 0;
#X restore 980 640 pd ticks-2-16ths;
#N canvas 0 22 450 300 ticks-2-8ths 0;
#X obj 40 122 i;
#X obj 40 193 % 8;
#X obj 40 80 / 12;
#X obj 42 157 change;
#X obj 13 26 inlet;
#X obj 13 263 outlet;
#X connect 0 0 3 0;
#X connect 1 0 5 0;
#X connect 2 0 0 0;
#X connect 3 0 1 0;
#X connect 4 0 2 0;
#X restore 1200 640 pd ticks-2-8ths;
#N canvas 0 22 450 300 ticks-2-beats 0;
#X obj 40 106 i;
#X obj 40 132 change;
#X obj 40 158 % 4;
#X obj 40 80 / 24;
#X obj 13 26 inlet;
#X obj 13 228 outlet;
#X connect 0 0 1 0;
#X connect 1 0 2 0;
#X connect 2 0 5 0;
#X connect 3 0 0 0;
#X connect 4 0 3 0;
#X restore 1300 640 pd ticks-2-beats;
#N canvas 0 22 450 300 ticks-2-bars 0;
#X obj 43 120 / 4;
#X obj 43 140 i;
#X obj 43 160 change;
#X obj 40 80 / 24;
#X obj 13 26 inlet;
#X obj 13 230 outlet;
#X connect 0 0 1 0;
#X connect 1 0 2 0;
#X connect 2 0 5 0;
#X connect 3 0 0 0;
#X connect 4 0 3 0;
#X restore 1400 640 pd ticks-2-bars;
#X obj 1400 610 r from-ticks-\$0;
#X connect 1 0 83 0;
#X connect 2 0 84 0;
#X connect 3 0 6 0;
#X connect 7 0 31 0;
#X connect 7 1 11 0;
#X connect 9 0 7 0;
#X connect 10 0 9 0;
#X connect 20 0 66 0;
#X connect 21 0 67 0;
#X connect 22 0 68 0;
#X connect 23 0 69 0;
#X connect 24 0 70 0;
#X connect 25 0 71 0;
#X connect 26 0 111 0;
#X connect 30 0 9 1;
#X connect 31 0 98 0;
#X connect 31 0 99 1;
#X connect 34 0 108 0;
#X connect 35 0 34 1;
#X connect 35 0 41 0;
#X connect 36 0 34 0;
#X connect 36 1 42 0;
#X connect 38 0 42 0;
#X connect 39 0 42 0;
#X connect 39 1 38 0;
#X connect 40 0 35 0;
#X connect 42 0 40 0;
#X connect 50 0 39 0;
#X connect 52 0 137 0;
#X connect 53 0 136 0;
#X connect 54 0 138 0;
#X connect 55 0 139 0;
#X connect 61 0 62 0;
#X connect 63 0 61 0;
#X connect 63 0 85 0;
#X connect 64 0 36 0;
#X connect 64 0 72 0;
#X connect 66 0 115 0;
#X connect 67 0 114 0;
#X connect 68 0 113 0;
#X connect 69 0 116 0;
#X connect 70 0 117 0;
#X connect 71 0 118 0;
#X connect 72 0 112 0;
#X connect 77 0 78 0;
#X connect 78 0 76 0;
#X connect 81 0 110 0;
#X connect 83 0 4 0;
#X connect 84 0 5 0;
#X connect 86 0 87 0;
#X connect 87 0 88 0;
#X connect 88 0 119 0;
#X connect 89 0 87 0;
#X connect 92 0 93 0;
#X connect 93 0 96 0;
#X connect 94 0 95 0;
#X connect 95 0 90 0;
#X connect 96 0 97 0;
#X connect 96 1 94 1;
#X connect 97 0 94 0;
#X connect 98 0 99 0;
#X connect 99 0 32 0;
#X connect 100 0 32 0;
#X connect 101 0 100 0;
#X connect 103 0 104 0;
#X connect 105 0 107 0;
#X connect 106 0 107 0;
#X connect 107 0 103 0;
#X connect 108 0 109 0;
#X connect 108 0 51 0;
#X connect 109 0 108 1;
#X connect 110 0 108 1;
#X connect 111 0 28 0;
#X connect 111 1 65 0;
#X connect 111 2 65 0;
#X connect 111 3 65 0;
#X connect 111 4 29 0;
#X connect 120 0 121 0;
#X connect 121 0 133 0;
#X connect 122 0 123 0;
#X connect 123 0 124 0;
#X connect 124 0 132 0;
#X connect 125 0 128 0;
#X connect 126 0 6 0;
#X connect 127 0 130 0;
#X connect 128 0 127 0;
#X connect 131 0 27 0;
#X connect 134 0 135 0;
#X connect 136 0 57 0;
#X connect 137 0 56 0;
#X connect 138 0 58 0;
#X connect 139 0 59 0;
#X connect 140 0 60 0;
#X connect 141 0 140 0;
#X coords 0 -1 1 1 210 100 1 100 100;
