#N canvas 376 0 770 772 10;
#X declare -path ./subpatches/marimba;
#X obj 100 120 cnv 15 210 30 empty empty empty 7 7 0 14 #fdf6e3 #ffffff
0;
#X obj 700 100 inlet~ left;
#X obj 900 100 inlet~ right;
#X obj 1000 100 inlet note;
#X obj 1100 100 inlet ctl;
#X obj 700 250 outlet~ left;
#X obj 900 250 outlet~ right;
#X obj 1020 200 outlet note;
#X obj 1100 200 outlet ctl;
#X obj 400 260 savestate, f 11;
#X text 490 260 👈 bangs when parent is saved;
#X obj 400 180 f;
#X obj 400 100 r save-state-\$0;
#X obj 460 290 s save-state-\$0;
#X obj 400 330 s to-param1-\$0;
#X obj 1130 170 s to-param1-\$0;
#X obj 1000 380 pack 0 0 0;
#X obj 1000 410 route 1 2 3 4, f 69;
#X obj 1000 550 *~ 0.5;
#X obj 1000 460 unpack;
#X obj 1000 490 mtof;
#X obj 1120 550 *~ 0.5;
#X obj 1120 460 unpack;
#X obj 1120 490 mtof;
#X obj 1240 550 *~ 0.5;
#X obj 1240 460 unpack;
#X obj 1240 490 mtof;
#X obj 1360 550 *~ 0.5;
#X obj 1360 460 unpack;
#X obj 1360 490 mtof;
#X obj 400 220 pack f;
#X obj 400 290 unpack f;
#X obj 410 150 r from-param-\$0;
#X obj 1130 140 route param1;
#X obj 780 100 catch~ marimba-\$0;
#X obj 1000 590 throw~ marimba-\$0;
#X obj 1120 590 throw~ marimba-\$0;
#X obj 1240 590 throw~ marimba-\$0;
#X obj 1360 590 throw~ marimba-\$0;
#X obj 1000 520 marimba~;
#X obj 1120 520 marimba~;
#X obj 1240 520 marimba~;
#X obj 1360 520 marimba~;
#X obj 780 130 hip~ 5;
#X obj 780 160 clip~ -1 1;
#X obj 90 50 declare -path ./subpatches/marimba;
#X obj 700 220 +~;
#X obj 900 210 +~;
#X obj 100 100 cnv 15 210 20 empty empty bop.marimba 7 7 0 14 #97c5ee
#ffffff 0;
#X obj 1000 340 poly 4 1;
#X obj 1010 260 r bop-play;
#X obj 1010 280 sel 0;
#X obj 1000 310 cyclone/flush;
#X connect 1 0 46 0;
#X connect 2 0 47 1;
#X connect 3 0 7 0;
#X connect 3 0 52 0;
#X connect 4 0 8 0;
#X connect 9 0 31 0;
#X connect 9 1 13 0;
#X connect 11 0 30 0;
#X connect 12 0 11 0;
#X connect 16 0 17 0;
#X connect 17 0 19 0;
#X connect 17 1 22 0;
#X connect 17 2 25 0;
#X connect 17 3 28 0;
#X connect 18 0 35 0;
#X connect 19 0 20 0;
#X connect 19 1 39 1;
#X connect 20 0 39 0;
#X connect 21 0 36 0;
#X connect 22 0 23 0;
#X connect 22 1 40 1;
#X connect 23 0 40 0;
#X connect 24 0 37 0;
#X connect 25 0 26 0;
#X connect 25 1 41 1;
#X connect 26 0 41 0;
#X connect 27 0 38 0;
#X connect 28 0 29 0;
#X connect 28 1 42 1;
#X connect 29 0 42 0;
#X connect 30 0 9 0;
#X connect 31 0 14 0;
#X connect 32 0 11 1;
#X connect 33 0 15 0;
#X connect 34 0 43 0;
#X connect 39 0 18 0;
#X connect 40 0 21 0;
#X connect 41 0 24 0;
#X connect 42 0 27 0;
#X connect 43 0 44 0;
#X connect 44 0 47 0;
#X connect 44 0 46 1;
#X connect 46 0 5 0;
#X connect 47 0 6 0;
#X connect 49 0 16 0;
#X connect 49 1 16 1;
#X connect 49 2 16 2;
#X connect 50 0 51 0;
#X connect 51 0 52 0;
#X connect 52 0 49 0;
#X connect 52 1 49 1;
#X coords 0 -1 1 1 210 50 2 100 100;
