#N canvas 456 23 768 778 10;
#X obj 670 100 inlet~ left;
#X obj 900 100 inlet~ right;
#X obj 670 220 outlet~ left;
#X obj 900 220 outlet~ right;
#X obj 1040 560 pack 0 0 0;
#X obj 1040 590 route 1 2 3 4, f 97;
#X obj 1040 730 *~ 0.5;
#X obj 1040 640 unpack;
#X obj 1040 670 mtof;
#X obj 1190 730 *~ 0.5;
#X obj 1190 640 unpack;
#X obj 1190 670 mtof;
#X obj 1330 730 *~ 0.5;
#X obj 1330 640 unpack;
#X obj 1330 670 mtof;
#X obj 1470 730 *~ 0.5;
#X obj 1470 640 unpack;
#X obj 1470 670 mtof;
#X obj 760 120 hip~ 5;
#X obj 760 145 clip~ -1 1;
#X obj 760 100 catch~ instrument-\$0;
#X obj 1040 770 throw~ instrument-\$0;
#X obj 1190 770 throw~ instrument-\$0;
#X obj 1330 770 throw~ instrument-\$0;
#X obj 1470 770 throw~ instrument-\$0;
#X obj 100 120 cnv 15 210 20 empty empty empty 7 7 0 14 #94c4ec #fcfcfc
0;
#X obj 1040 520 poly 4 1, f 10;
#X obj 1050 460 sel 0;
#X obj 1040 490 cyclone/flush;
#X obj 380 230 savestate, f 11;
#X text 470 230 👈 bangs when parent is saved;
#X obj 380 150 f;
#X obj 440 260 s save-state-\$0;
#X obj 380 190 pack f;
#X obj 380 280 unpack f;
#X obj 380 100 r save-state-\$0;
#X obj 1222 102 inlet ctl;
#X obj 1220 220 outlet ctl;
#X obj 110 130 tgl 15 1 from-pedal-\$0 to-pedal-\$0 pedal 20 5 0 10
#fcfcfc #000000 #000000 0 1;
#X obj 390 120 r from-pedal-\$0;
#X obj 380 350 s to-pedal-\$0;
#X obj 1360 150 route pedal;
#X obj 1360 180 s to-pedal-\$0;
#X obj 1040 700 sub.bop.rds~;
#X obj 1190 700 sub.bop.rds~;
#X obj 1330 700 sub.bop.rds~;
#X obj 1470 700 sub.bop.rds~;
#X obj 1046 43 inlet note;
#X obj 1056 103 outlet note;
#X obj 1280 140 route time;
#X obj 1283 173 s time-\$0;
#X obj 1050 410 r time-\$0;
#X obj 1050 435 route play;
#X obj 380 310 t b b f;
#N canvas 782 406 450 300 sustain 0;
#X obj 170 180 stripnote;
#X obj 170 200 pack;
#X obj 190 40 inlet;
#X obj 140 40 inlet;
#X obj 140 240 outlet;
#X obj 140 120 list trim;
#X obj 140 150 route 0 1;
#X obj 140 80 list prepend 0;
#X connect 0 0 1 0;
#X connect 0 1 1 1;
#X connect 1 0 4 0;
#X connect 2 0 7 1;
#X connect 3 0 7 0;
#X connect 5 0 6 0;
#X connect 6 0 4 0;
#X connect 6 1 0 0;
#X connect 7 0 5 0;
#X restore 1040 370 pd sustain;
#X obj 1100 340 r from-pedal-\$0;
#X msg 930 490 stop;
#X obj 930 460 sel 0;
#X obj 930 430 r from-pedal-\$0;
#X obj 300 100 cnv 5 10 5 empty empty empty 20 12 0 14 #94c4ec #404040
0;
#X connect 0 0 2 0;
#X connect 1 0 3 0;
#X connect 4 0 5 0;
#X connect 5 0 7 0;
#X connect 5 1 10 0;
#X connect 5 2 13 0;
#X connect 5 3 16 0;
#X connect 6 0 21 0;
#X connect 7 0 8 0;
#X connect 7 1 43 1;
#X connect 8 0 43 0;
#X connect 9 0 22 0;
#X connect 10 0 11 0;
#X connect 10 1 44 1;
#X connect 11 0 44 0;
#X connect 12 0 23 0;
#X connect 13 0 14 0;
#X connect 13 1 45 1;
#X connect 14 0 45 0;
#X connect 15 0 24 0;
#X connect 16 0 17 0;
#X connect 16 1 46 1;
#X connect 17 0 46 0;
#X connect 18 0 19 0;
#X connect 19 0 2 0;
#X connect 19 0 3 0;
#X connect 20 0 18 0;
#X connect 26 0 4 0;
#X connect 26 1 4 1;
#X connect 26 2 4 2;
#X connect 27 0 28 0;
#X connect 28 0 26 0;
#X connect 28 1 26 1;
#X connect 29 0 34 0;
#X connect 29 1 32 0;
#X connect 31 0 33 0;
#X connect 33 0 29 0;
#X connect 34 0 53 0;
#X connect 35 0 31 0;
#X connect 36 0 37 0;
#X connect 36 0 49 0;
#X connect 39 0 31 1;
#X connect 41 0 42 0;
#X connect 43 0 6 0;
#X connect 44 0 9 0;
#X connect 45 0 12 0;
#X connect 46 0 15 0;
#X connect 47 0 48 0;
#X connect 47 0 54 0;
#X connect 49 0 50 0;
#X connect 49 1 41 0;
#X connect 51 0 52 0;
#X connect 52 0 27 0;
#X connect 52 0 57 0;
#X connect 53 0 40 0;
#X connect 53 1 40 0;
#X connect 53 2 40 0;
#X connect 54 0 28 0;
#X connect 55 0 54 1;
#X connect 56 0 26 0;
#X connect 57 0 56 0;
#X connect 58 0 57 0;
#X coords 0 -1 1 1 210 60 1 100 100;
