#N canvas 376 0 770 772 10;
#X obj 100 120 cnv 15 210 120 empty empty empty 7 7 0 14 #fdf6e3 #ffffff
0;
#X obj 800 100 inlet~ left;
#X obj 900 100 inlet~ right;
#X obj 1000 100 inlet note;
#X obj 1100 100 inlet ctl;
#X obj 800 300 outlet~ left;
#X obj 900 300 outlet~ right;
#X obj 1000 300 outlet note;
#X obj 1130 440 outlet ctl;
#X obj 500 290 savestate, f 11;
#X text 590 290 👈 bangs when parent is saved;
#X obj 500 90 r save-state-\$0;
#X obj 570 320 s save-state-\$0;
#X text 1860 1190 🕹️;
#X obj 100 100 cnv 15 210 20 empty empty bop.transform 7 7 0 14 #f7c8e7
#ffffff 0;
#X symbolatom 110 130 12 0 0 1 tag to-tag-#0 from-tag-#0, f 12;
#X obj 520 110 r from-tag-\$0;
#X obj 500 470 s to-tag-\$0;
#X obj 290 780 nbx 8 15 -1e+37 1e+37 0 1 from-min-\$0 to-min-\$0 min
60 6 0 10 #fcfcfc #000000 #000000 0.04 256 0;
#X obj 290 800 nbx 8 15 -1e+37 1e+37 0 1 from-max-\$0 to-max-\$0 max
60 6 0 10 #fcfcfc #000000 #000000 0.58 256 0;
#X obj 1150 350 s to-tag-\$0;
#X obj 290 760 hsl 185 15 0.04 0.58 0 0 from-value-\$0 to-value-\$0
value:0.371875 5 5 0 10 #fcfcfc #000000 #000000 0 1;
#X obj 490 920 s to-value-\$0;
#X obj 302 1002 s to-value-\$0;
#X obj 302 852 r from-value-\$0;
#X obj 142 932 pack f f;
#X obj 182 902 t b f;
#X msg 142 962 range \$1 \$2;
#X obj 302 882 sprintf label value:%f;
#X obj 142 842 r from-min-\$0;
#X obj 182 872 r from-max-\$0;
#X obj 640 770 s to-max-\$0;
#X obj 590 790 s to-min-\$0;
#X obj 580 810 r from-min-\$0;
#X obj 620 830 r from-max-\$0;
#X obj 1100 190 route;
#X obj 1120 140 r from-tag-\$0;
#X obj 1100 470 s value-in-\$0;
#X obj 1100 600 r value-in-\$0;
#X obj 200 210 hsl 95 15 0 5.9 0 1 from-units-\$0 to-units-\$0 units:4(beats)
6 6 0 10 #ffffff #000000 #000000 7750 1;
#X obj 540 430 s to-duration-\$0;
#X obj 560 150 r from-duration-\$0;
#X obj 580 170 r from-units-\$0;
#X obj 560 410 s to-units-\$0;
#X obj 200 170 nbx 10 15 1 1e+37 0 1 from-duration-\$0 to-duration-\$0
duration 40 6 0 10 #fcfcfc #000000 #000000 1 256 0;
#N canvas 536 233 450 305 tick-calculator 0;
#X obj 73 -159 i;
#X msg 73 -39 list ticks 16ths 12ths 8ths beats bars, f 18;
#X obj 73 17 cyclone/zl nth, f 21;
#X obj 73 -69 t b f, f 21;
#X obj 73 -99 + 1;
#X text 230 -35 todo: calculate bars according to time signature,
f 17;
#X obj 217 17 cyclone/zl nth, f 21;
#X obj 217 -99 t b f, f 21;
#X msg 217 -69 1 6 8 12 24 96, f 18;
#X obj 216 106 *;
#X obj 229 70 t b f;
#X obj 72 -193 inlet;
#X obj 238 38 inlet;
#X obj 70 160 outlet;
#X obj 214 160 outlet;
#X connect 0 0 4 0;
#X connect 1 0 2 0;
#X connect 2 0 13 0;
#X connect 3 0 1 0;
#X connect 3 1 2 1;
#X connect 4 0 3 0;
#X connect 4 0 7 0;
#X connect 6 0 9 0;
#X connect 7 0 8 0;
#X connect 7 1 6 1;
#X connect 8 0 6 0;
#X connect 9 0 14 0;
#X connect 10 0 9 0;
#X connect 10 1 9 1;
#X connect 11 0 0 0;
#X connect 12 0 10 0;
#X restore 133 567 pd tick-calculator;
#X obj 103 487 r from-units-\$0;
#X obj 240 530 r from-duration-\$0;
#X obj 240 600 s duration-ticks-\$0;
#X obj 103 667 s to-units-\$0;
#X obj 103 527 t f f;
#X obj 103 637 sprintf label units:%i(%s);
#X obj 540 130 r from-lag-\$0;
#X obj 520 450 s to-lag-\$0;
#X obj 1007 1156 r from-tag-\$0;
#X obj 980 1190 symbol;
#X obj 980 1130 t b f, f 21;
#X obj 980 1220 sprintf %s %f, f 21;
#X obj 980 1260 s tagged-value-out-\$0;
#X obj 1150 390 r tagged-value-out-\$0;
#X obj 110 170 tgl 15 0 from-quantize-\$0 to-quantize-\$0 quantize
20 5 0 10 #fcfcfc #000000 #000000 0 63.8298;
#X obj 580 195 r from-quantize-\$0;
#X obj 590 390 s to-quantize-\$0;
#X obj 110 150 hsl 185 15 0 1000 0 1 from-lag-\$0 to-lag-\$0 lag:0ms
6 6 0 10 #ffffff #000000 #000000 0 1;
#X obj 450 530 r from-lag-\$0;
#X obj 450 600 s to-lag-\$0;
#X obj 450 570 sprintf label lag:%ims;
#X obj 1010 680 r bop-time;
#X obj 1010 945 %;
#X obj 1190 1010 f;
#X obj 980 1070 pack f f, f 38;
#X obj 980 1100 line;
#X obj 1030 920 r duration-ticks-\$0;
#X obj 980 650 gate 2, f 38;
#X obj 979 603 r from-quantize-\$0;
#X obj 979 628 + 1;
#X obj 1200 1040 r from-lag-\$0;
#X obj 1010 720 route ticks;
#X obj 1240 300 s to-duration-\$0;
#X obj 1260 280 s to-units-\$0;
#X obj 1220 320 s to-lag-\$0;
#X obj 1290 260 s to-quantize-\$0;
#X obj 1010 970 sel 0;
#X obj 200 190 hsl 95 15 0 100 0 1 from-offset-\$0 to-offset-\$0 offset:0
6 6 0 10 #ffffff #000000 #000000 0 1;
#X obj 180 350 r from-offset-\$0;
#X obj 180 420 s to-offset-\$0;
#X obj 1020 750 r from-offset-\$0;
#X obj 1020 780 * 0.01;
#X obj 1020 860 *;
#X obj 1010 890 +;
#X obj 1040 800 r duration-ticks-\$0;
#X obj 1040 830 t b f;
#X obj 1150 220 route tag lag duration units quantize offset;
#X obj 1340 240 s to-offset-\$0;
#X obj 600 220 r from-offset-\$0;
#X obj 610 370 s to-offset-\$0;
#X obj 498 347 unpack s f f f f f;
#X obj 500 180 symbol;
#X obj 500 250 pack s f f f f f;
#X obj 490 880 sub.bop.util.scale 0 1 0 1;
#X obj 180 380 sprintf label offset:%. 4g;
#X connect 1 0 5 0;
#X connect 2 0 6 0;
#X connect 3 0 7 0;
#X connect 4 0 35 0;
#X connect 9 0 96 0;
#X connect 9 1 12 0;
#X connect 11 0 97 0;
#X connect 16 0 97 1;
#X connect 24 0 28 0;
#X connect 25 0 27 0;
#X connect 26 0 25 0;
#X connect 26 1 25 1;
#X connect 27 0 23 0;
#X connect 28 0 23 0;
#X connect 29 0 25 0;
#X connect 30 0 26 0;
#X connect 33 0 99 3;
#X connect 34 0 99 4;
#X connect 35 0 37 0;
#X connect 35 1 8 0;
#X connect 35 1 92 0;
#X connect 36 0 35 1;
#X connect 38 0 73 1;
#X connect 41 0 98 2;
#X connect 42 0 98 3;
#X connect 45 0 51 1;
#X connect 45 1 48 0;
#X connect 46 0 50 0;
#X connect 47 0 45 1;
#X connect 50 0 51 0;
#X connect 50 1 45 0;
#X connect 51 0 49 0;
#X connect 52 0 98 1;
#X connect 54 0 55 1;
#X connect 55 0 57 0;
#X connect 56 0 55 0;
#X connect 56 1 57 1;
#X connect 57 0 58 0;
#X connect 59 0 8 0;
#X connect 61 0 98 4;
#X connect 64 0 66 0;
#X connect 66 0 65 0;
#X connect 67 0 77 0;
#X connect 68 0 82 0;
#X connect 69 0 70 0;
#X connect 70 0 71 0;
#X connect 71 0 56 0;
#X connect 72 0 68 1;
#X connect 73 0 70 0;
#X connect 73 1 69 1;
#X connect 74 0 75 0;
#X connect 75 0 73 0;
#X connect 76 0 70 1;
#X connect 77 0 89 0;
#X connect 82 0 69 0;
#X connect 84 0 100 0;
#X connect 86 0 87 0;
#X connect 87 0 88 0;
#X connect 88 0 89 1;
#X connect 89 0 68 0;
#X connect 90 0 91 0;
#X connect 91 0 88 0;
#X connect 91 1 88 1;
#X connect 92 0 20 0;
#X connect 92 1 80 0;
#X connect 92 2 78 0;
#X connect 92 3 79 0;
#X connect 92 4 81 0;
#X connect 92 5 93 0;
#X connect 94 0 98 5;
#X connect 96 0 17 0;
#X connect 96 1 53 0;
#X connect 96 2 40 0;
#X connect 96 3 43 0;
#X connect 96 4 62 0;
#X connect 96 5 95 0;
#X connect 97 0 98 0;
#X connect 98 0 9 0;
#X connect 99 0 22 0;
#X connect 100 0 85 0;
#X coords 0 -1 1 1 210 140 2 100 100;
