#N canvas 0 0 1522 772 10;
#X obj 100 130 cnv 15 210 60 empty empty empty 7 7 0 14 #fdf6e3 #ffffff
0;
#X obj 100 250 cnv 15 210 50 empty empty empty 7 7 0 14 #ded5ff #ffffff
0;
#X obj 800 100 inlet~ left;
#X obj 900 100 inlet~ right;
#X obj 1000 100 inlet note;
#X obj 1100 100 inlet ctl;
#X obj 800 300 outlet~ left;
#X obj 900 300 outlet~ right;
#X obj 1000 300 outlet note;
#X obj 1100 300 outlet ctl;
#X text 100 10 GOP is 210 wide;
#X text 100 30 gui sends and receives are from-{param}-\$0 and to-{param}-\$0
;
#X text 100 70 bang and toggle label is {param} \, x = 20 \, y = 5
\, size = 15;
#X text 100 50 slider label is {param} \, x = 5 \, y = 5;
#X obj 100 300 cnv 15 210 70 empty empty empty 7 7 0 14 #ffd5f0 #ffffff
0;
#X obj 100 370 cnv 15 210 70 empty empty empty 7 7 0 14 #d5ecff #ffffff
0;
#X obj 100 110 cnv 15 210 20 empty empty bop.dancer 7 7 0 14 #ded5ff
#ffffff 0;
#X msg 600 600 label \$1;
#X obj 500 440 sel 0 1;
#X obj 500 700 s \$0-indicator;
#X msg 570 500 symbol 😐;
#X obj 180 140 cnv 15 40 40 empty \$0-indicator 😐 0 15 0 30 #fdf6e3
#fcfcfc 0;
#X msg 756 708 color -1.6751e+07 -1 -1;
#X msg 920 670 color -1.67772e+07 -1 -1;
#X msg 743 676 color -1.00925e+07 -1 -1;
#X obj 712 804 s \$0-indicator;
#X msg 668 495 symbol 😁;
#X msg 809 497 symbol 😁;
#X msg 878 496 symbol 😀;
#X msg 738 494 symbol 😄;
#X obj 644 201 stripnote;
#X obj 657 134 unpack;
#X obj 640 230 bng 15 250 50 0 empty empty empty 17 7 0 10 #fcfcfc
#000000 #000000;
#X obj 640 260 counter 4;
#X obj 700 390 sel 0 1 2 3, f 42;
#X obj 500 370 r boop-time;
#X obj 500 400 route play;
#X connect 2 0 6 0;
#X connect 3 0 7 0;
#X connect 4 0 8 0;
#X connect 4 0 31 0;
#X connect 5 0 9 0;
#X connect 17 0 19 0;
#X connect 18 0 20 0;
#X connect 20 0 17 0;
#X connect 22 0 25 0;
#X connect 24 0 25 0;
#X connect 26 0 17 0;
#X connect 27 0 17 0;
#X connect 28 0 17 0;
#X connect 29 0 17 0;
#X connect 30 0 32 0;
#X connect 31 0 30 0;
#X connect 31 1 30 1;
#X connect 32 0 33 0;
#X connect 33 0 34 0;
#X connect 34 0 26 0;
#X connect 34 1 29 0;
#X connect 34 2 27 0;
#X connect 34 3 28 0;
#X connect 35 0 36 0;
#X connect 36 0 18 0;
#X coords 0 -1 1 1 210 100 2 100 100;
