#N canvas 376 0 770 772 10;
#X obj 100 120 cnv 15 210 60 empty empty empty 7 7 0 14 #fdf6e3 #ffffff
0;
#X obj 800 100 inlet~ left;
#X obj 900 100 inlet~ right;
#X obj 1260 60 inlet note;
#X obj 1600 100 inlet ctl;
#X obj 800 300 outlet~ left;
#X obj 900 300 outlet~ right;
#X obj 1260 770 outlet note;
#X obj 1600 300 outlet ctl;
#X obj 500 260 savestate, f 11;
#X text 590 260 👈 bangs when parent is saved;
#X obj 500 180 f;
#X obj 500 100 r save-state-\$0;
#X obj 570 290 s save-state-\$0;
#X obj 1760 920 cnv 15 210 70 empty empty empty 7 7 0 14 #c9c9c9 #ffffff
0;
#X obj 100 100 cnv 15 210 20 empty empty bop.notefx 7 7 0 14 #d7cbfe
#ffffff 0;
#X obj 1260 100 unpack, f 18;
#X obj 1260 610 + 0, f 6;
#X obj 1260 730 pack, f 26;
#X obj 1270 410 t b f;
#X obj 110 130 hsl 165 15 -12 12 0 1 from-semitone-\$0 to-semitone-\$0
semitone: 5 5 0 10 #fcfcfc #000000 #000000 7200 1;
#X obj 1270 250 int;
#X obj 210 340 r from-semitone-\$0;
#X obj 210 370 sprintf label semitone:%d;
#X obj 210 400 s to-semitone-\$0;
#X obj 518 127 r from-semitone-\$0;
#X obj 498 407 s to-semitone-\$0;
#X obj 1270 170 r from-semitone-\$0;
#X obj 1630 240 s to-semitone-\$0;
#X obj 110 150 hsl 165 15 -6 6 0 1 from-octave-\$0 to-octave-\$0 octave:0
5 5 0 10 #fcfcfc #000000 #000000 8200 1;
#X obj 210 430 r from-octave-\$0;
#X obj 210 460 sprintf label octave:%d;
#X obj 210 490 s to-octave-\$0;
#X obj 498 317 unpack f f;
#X obj 500 220 pack f f;
#X obj 550 170 r from-octave-\$0;
#X obj 550 370 s to-octave-\$0;
#X obj 1630 150 route semitone octave;
#X obj 1650 210 s to-octave-\$0;
#X obj 1360 250 int;
#X obj 1270 280 change;
#X obj 1360 310 t b f;
#X obj 1360 130 s velocity-in-\$0;
#X obj 1260 130 s pitch-in-\$0;
#X obj 1260 530 r pitch-in-\$0;
#X obj 1410 530 r velocity-in-\$0;
#X text 1320 420 add pitch shifting values;
#X obj 1300 450 s pitch-offset-\$0;
#X obj 1290 580 r pitch-offset-\$0;
#X obj 285 130 bng 15 250 50 0 reset-semitone-\$0 empty empty 17 7
0 10 #fcfcfc #000000 #000000;
#X obj 285 150 bng 15 250 50 0 reset-octave-\$0 empty empty 17 7 0
10 #fcfcfc #000000 #000000;
#X obj 80 340 r reset-semitone-\$0;
#X obj 80 430 r reset-octave-\$0;
#X msg 80 370 0;
#X msg 80 460 0;
#X obj 1270 340 expr $f1 + ($f2 * 12);
#X obj 1360 220 r from-octave-\$0;
#X obj 1360 280 change;
#X obj 1260 670 cyclone/flush, f 26;
#X obj 1270 480 s flush-\$0;
#X obj 1270 640 r flush-\$0;
#X connect 1 0 5 0;
#X connect 2 0 6 0;
#X connect 3 0 16 0;
#X connect 4 0 8 0;
#X connect 4 0 37 0;
#X connect 9 0 33 0;
#X connect 9 1 13 0;
#X connect 11 0 34 0;
#X connect 12 0 11 0;
#X connect 16 0 43 0;
#X connect 16 1 42 0;
#X connect 17 0 58 0;
#X connect 18 0 7 0;
#X connect 19 0 59 0;
#X connect 19 1 47 0;
#X connect 21 0 40 0;
#X connect 22 0 23 0;
#X connect 23 0 24 0;
#X connect 25 0 11 1;
#X connect 27 0 21 0;
#X connect 30 0 31 0;
#X connect 31 0 32 0;
#X connect 33 0 26 0;
#X connect 33 1 36 0;
#X connect 34 0 9 0;
#X connect 35 0 34 1;
#X connect 37 0 28 0;
#X connect 37 1 38 0;
#X connect 39 0 57 0;
#X connect 40 0 55 0;
#X connect 41 0 55 0;
#X connect 41 1 55 1;
#X connect 44 0 17 0;
#X connect 45 0 58 1;
#X connect 48 0 17 1;
#X connect 51 0 53 0;
#X connect 52 0 54 0;
#X connect 53 0 24 0;
#X connect 54 0 32 0;
#X connect 55 0 19 0;
#X connect 56 0 39 0;
#X connect 57 0 41 0;
#X connect 58 0 18 0;
#X connect 58 1 18 1;
#X connect 60 0 58 0;
#X coords 0 -1 1 1 210 80 2 100 100;
