#N canvas 0 23 1680 1005 10;
#X obj 890 120 inlet~ left;
#X obj 990 120 inlet~ right;
#X obj 1340 60 inlet note;
#X obj 1600 100 inlet ctl;
#X obj 890 320 outlet~ left;
#X obj 990 320 outlet~ right;
#X obj 1130 360 outlet note;
#X obj 1600 510 outlet ctl;
#X obj 500 260 savestate, f 11;
#X text 590 260 👈 bangs when parent is saved;
#X obj 500 60 f;
#X obj 500 -20 r save-state-\$0;
#X obj 570 290 s save-state-\$0;
#X obj 100 120 cnv 15 210 20 empty empty empty 7 7 0 14 #d7cbfe #ffffff
0;
#X obj 1380 240 unpack, f 18;
#X obj 1410 870 + 0, f 6;
#X obj 1310 2590 pack, f 26;
#X obj 1340 670 t b f;
#X obj 110 130 hsl 85 15 -12 12 0 1 from-semitone-\$0 to-semitone-\$0
semitone:0 5 5 0 10 #fcfcfc #000000 #000000 4396 1;
#X obj 1340 550 int;
#X obj 100 600 r from-semitone-\$0;
#X obj 100 660 s to-semitone-\$0;
#X obj 518 7 r from-semitone-\$0;
#X obj 500 510 s to-semitone-\$0;
#X obj 1340 490 r from-semitone-\$0;
#X obj 1630 450 s to-semitone-\$0;
#X obj 210 130 hsl 85 15 -6 6 0 1 from-octave-\$0 to-octave-\$0 octave:2
5 5 0 10 #fcfcfc #000000 #000000 6072 1;
#X obj 100 700 r from-octave-\$0;
#X obj 100 760 s to-octave-\$0;
#X obj 530 30 r from-octave-\$0;
#X obj 520 490 s to-octave-\$0;
#X obj 1700 420 s to-octave-\$0;
#X obj 1430 550 int;
#X obj 1340 580 change;
#X obj 1430 610 t b f;
#X obj 1370 320 s velocity-in-\$0;
#X obj 1280 320 s pitch-in-\$0;
#X obj 1410 790 r pitch-in-\$0;
#X obj 1450 900 r velocity-in-\$0;
#X text 1390 680 add pitch shifting values;
#X obj 1370 710 s pitch-offset-\$0;
#X obj 1440 840 r pitch-offset-\$0;
#X obj 1340 640 expr $f1 + ($f2 * 12);
#X obj 1430 520 r from-octave-\$0;
#X obj 1430 580 change;
#X obj 1310 2530 cyclone/flush, f 26;
#X obj 1340 740 s flush-\$0;
#X obj 1320 2500 r flush-\$0;
#X obj 110 150 tgl 15 1 from-monophonic-\$0 to-monophonic-\$0 monophonic
17 7 0 10 #fcfcfc #000000 #000000 0 1;
#X obj 540 50 r from-monophonic-\$0;
#X obj 1770 390 s to-monophonic-\$0;
#X obj 540 470 s to-monophonic-\$0;
#X obj 1210 90 r from-monophonic-\$0;
#X obj 1310 700 bng 15 250 50 0 empty empty empty 17 7 0 10 #fcfcfc
#000000 #000000;
#X obj 1290 270 unpack;
#X obj 1210 120 t b f, f 12;
#X obj 1210 160 s flush-\$0;
#X obj 200 150 tgl 15 1 from-filter-repeats-\$0 to-filter-repeats-\$0
filter-repeats 17 7 0 10 #fcfcfc #000000 #000000 0 1;
#X obj 560 80 r from-filter-repeats-\$0;
#X obj 550 450 s from-filter-repeats-\$0;
#X obj 1820 350 s to-filter-repeats-\$0;
#X obj 1240 2200 r from-filter-repeats-\$0;
#X obj 1310 2440 unpack;
#N canvas 376 22 770 772 filter-repeats 0;
#X obj 240 30 inlet;
#X msg 240 80 \$2 \$1 \$2;
#X obj 240 120 route 0;
#X msg 280 160 \$2 \$3;
#X text 330 160 note ons;
#X text 170 160 note offs;
#X obj 240 430 outlet;
#X obj 260 230 unpack;
#X obj 280 190 t l l;
#X obj 290 360 l;
#X obj 260 290 change;
#X obj 260 320 bng 15 250 50 0 empty empty empty 17 7 0 10 #fcfcfc
#000000 #000000;
#X obj 260 260 int;
#X connect 0 0 1 0;
#X connect 1 0 2 0;
#X connect 2 0 6 0;
#X connect 2 1 3 0;
#X connect 3 0 8 0;
#X connect 7 0 12 0;
#X connect 8 0 7 0;
#X connect 8 1 9 1;
#X connect 9 0 6 0;
#X connect 10 0 11 0;
#X connect 11 0 9 0;
#X connect 12 0 10 0;
#X restore 1370 2390 pd filter-repeats;
#X obj 1240 2230 t b f, f 12;
#X obj 1240 2260 s flush-\$0;
#X obj 1380 270 poly 1, f 19;
#X obj 470 290 t b l;
#X obj 470 540 t b b;
#X obj 510 580 s to-monophonic-\$0;
#X obj 470 600 s from-filter-repeats-\$0;
#X text 1420 2420 This is breaking when toggling monophonic - it is
causing output to stop;
#X msg 100 640 label semitone:\$1;
#X obj 100 620 int;
#X obj 100 720 int;
#X msg 100 740 label octave:\$1;
#X obj 1410 930 pack f f;
#X obj 110 170 hsl 165 15 0 100 0 1 from-probability-\$0 to-probability-\$0
probability:63% 5 5 0 10 #fcfcfc #000000 #000000 10400 1;
#X obj 100 800 r from-probability-\$0;
#X obj 100 860 s to-probability-\$0;
#X obj 1650 1110 r from-probability-\$0;
#X obj 1530 1070 t l b, f 8;
#X obj 1570 1110 random 100;
#X obj 1490 1190 gate, f 7;
#X obj 1570 1140 <=, f 14;
#X msg 100 840 label probability:\$1%;
#X obj 100 820 int;
#X obj 210 190 hsl 85 15 1 127 0 1 from-vmax-\$0 to-vmax-\$0 vmax:91
5 5 0 10 #fcfcfc #000000 #000000 6000 1;
#X obj 110 190 hsl 85 15 1 127 0 1 from-vmin-\$0 to-vmin-\$0 vmin:1
5 5 0 10 #fcfcfc #000000 #000000 0 1;
#X obj 110 210 hsl 185 15 0 100 0 1 from-vrandom-\$0 to-vrandom-\$0
vrandom:39(+/-) 5 5 0 10 #fcfcfc #000000 #000000 7200 1;
#X obj 110 230 hsl 185 15 0 200 0 1 from-humanize-\$0 to-humanize-\$0
humanize:44(ms) 5 5 0 10 #fcfcfc #000000 #000000 4100 1;
#X obj 290 170 cnv 10 10 10 empty \$0-probability-indicator empty 20
12 0 14 #e3dccb #fcfcfc 0;
#X obj 1570 1340 s \$0-probability-indicator;
#X msg 1570 1310 color \$1 \$2;
#N canvas 0 22 306 317 rgb 0;
#X obj 96 521 outlet;
#X obj 162 230 t b f;
#X obj 96 268 +;
#X obj 96 293 t b f;
#X obj 96 324 +;
#X obj 19 208 * -65536;
#X obj 96 208 * -256;
#X obj 162 208 * -1;
#X obj 96 355 - 1;
#X obj 96 385 list prepend 0;
#X obj 115 456 t b a;
#X obj 180 320 vradio 15 1 0 2 empty empty empty 0 -8 0 10 #fcfcfc
#000000 #000000 0;
#X text 196 316 1.bg;
#X text 196 333 2.label;
#X obj 96 410 route 0 1;
#X obj 96 497 pack 0 0;
#X obj 80 20 inlet;
#X obj 80 50 unpack f f f;
#X connect 1 0 2 0;
#X connect 1 1 2 1;
#X connect 2 0 3 0;
#X connect 3 0 4 0;
#X connect 3 1 4 1;
#X connect 4 0 8 0;
#X connect 5 0 4 0;
#X connect 6 0 2 0;
#X connect 7 0 1 0;
#X connect 8 0 9 0;
#X connect 9 0 14 0;
#X connect 10 0 15 0;
#X connect 10 1 15 1;
#X connect 11 0 9 1;
#X connect 14 0 15 0;
#X connect 14 1 10 0;
#X connect 15 0 0 0;
#X connect 16 0 17 0;
#X connect 17 0 5 0;
#X connect 17 1 6 0;
#X connect 17 2 7 0;
#X coords 0 0 1 1 102 58 0;
#X restore 1570 1280 pd rgb;
#X msg 1570 1240 252 168 168;
#X msg 1650 1240 227 220 203;
#X obj 1570 1170 change;
#X obj 1570 1190 sel 0 1;
#X text 1360 960 noteoff;
#X text 1470 960 noteon;
#X text 1550 1040 only filter out note on messages;
#X obj 580 110 r from-probability-\$0;
#X obj 570 430 s to-probability-\$0;
#X obj 1880 320 s to-probability-\$0;
#X obj 300 820 int;
#X obj 300 800 r from-vmax-\$0;
#X obj 300 860 s to-vmax-\$0;
#X msg 300 840 label vmax:\$1;
#X obj 400 820 int;
#X obj 400 800 r from-vmin-\$0;
#X obj 400 860 s to-vmin-\$0;
#X msg 400 840 label vmin:\$1;
#X obj 500 820 int;
#X obj 500 800 r from-vrandom-\$0;
#X obj 500 860 s to-vrandom-\$0;
#X obj 1530 1410 r from-vmax-\$0;
#X obj 1530 1490 r from-vmin-\$0;
#X text 1800 1220 👈probability;
#X obj 1490 1280 unpack;
#X obj 1520 1460 min;
#X obj 1520 1550 max;
#X obj 1490 1860 pack, f 5;
#X obj 1530 1430 int;
#X obj 1530 1520 int;
#X obj 1550 1680 random;
#X obj 1580 1560 r from-vrandom-\$0;
#X obj 1520 1770 +, f 12;
#X obj 1520 1650 t f b;
#X text 1740 1570 👈velocity filtering, f 11;
#X obj 1590 1710 -;
#X obj 1580 1590 t f f;
#X obj 1520 1800 int;
#X msg 500 840 label vrandom:\$1(+/-);
#X obj 1580 1650 * 2;
#X obj 1590 1740 int;
#X obj 1580 1620 + 1;
#X obj 1520 1830 clip 1 127;
#X obj 650 820 int;
#X obj 650 800 r from-humanize-\$0;
#X obj 650 860 s to-humanize-\$0;
#X msg 650 840 label humanize:\$1(ms);
#X obj 600 130 r from-vmax-\$0;
#X obj 590 410 s to-vmax-\$0;
#X obj 610 150 r from-vmin-\$0;
#X obj 610 390 s to-vmin-\$0;
#X obj 620 170 r from-vrandom-\$0;
#X obj 630 370 s to-vrandom-\$0;
#X obj 1950 290 s to-vmax-\$0;
#X obj 2020 260 s to-vmin-\$0;
#X obj 2090 230 s to-vrandom-\$0;
#X obj 500 320 unpack f f f f f f f f f;
#X obj 500 220 pack f f f f f f f f f;
#X obj 640 190 r from-humanize-\$0;
#X obj 640 350 s to-humanize-\$0;
#X obj 1630 150 route semitone octave monophonic filter-repeats probability
vmax vmin vrandom humanize, f 88;
#X obj 2110 190 s to-humanize-\$0;
#X obj 1760 1990 r from-humanize-\$0;
#X obj 1760 2020 min 1;
#X obj 1760 2050 + 1;
#X obj 1760 2080 gate 2, f 10;
#X text 1670 2130 👈humanize, f 11;
#X msg 1540 960 60 127;
#X obj 1550 2130 random;
#X obj 1570 2070 r from-humanize-\$0;
#X obj 1490 2030 t l b, f 8;
#X obj 1490 2150 unpack;
#X obj 1490 2230 pack;
#X text 1760 1960 TODO: optimise humanization;
#X obj 1490 2190 pipe 0 0 0;
#X obj 1310 2620 s \$0-note-outlet;
#X obj 1130 240 r \$0-note-outlet;
#X obj 1350 100 route time;
#X obj 1323 133 s time-\$0;
#X obj 1140 270 r time-\$0;
#X obj 1410 960 sub.bop.util.noses;
#X obj 1280 190 sub.bop.util.gate;
#X obj 1310 2290 sub.bop.util.gate;
#X obj 1140 295 list prepend time;
#X obj 1140 320 list trim;
#X connect 0 0 4 0;
#X connect 1 0 5 0;
#X connect 2 0 172 0;
#X connect 3 0 7 0;
#X connect 3 0 155 0;
#X connect 8 0 67 0;
#X connect 8 1 12 0;
#X connect 10 0 152 0;
#X connect 11 0 10 0;
#X connect 14 0 66 0;
#X connect 14 1 66 1;
#X connect 15 0 76 0;
#X connect 16 0 170 0;
#X connect 17 0 46 0;
#X connect 17 1 40 0;
#X connect 19 0 33 0;
#X connect 20 0 73 0;
#X connect 22 0 10 1;
#X connect 24 0 19 0;
#X connect 27 0 74 0;
#X connect 29 0 152 1;
#X connect 32 0 44 0;
#X connect 33 0 42 0;
#X connect 34 0 42 0;
#X connect 34 1 42 1;
#X connect 37 0 15 0;
#X connect 38 0 76 1;
#X connect 41 0 15 1;
#X connect 42 0 17 0;
#X connect 43 0 32 0;
#X connect 44 0 34 0;
#X connect 45 0 16 0;
#X connect 45 1 16 1;
#X connect 47 0 45 0;
#X connect 49 0 152 2;
#X connect 52 0 55 0;
#X connect 53 0 46 0;
#X connect 54 0 36 0;
#X connect 54 1 35 0;
#X connect 55 0 56 0;
#X connect 55 1 176 0;
#X connect 58 0 152 3;
#X connect 61 0 64 0;
#X connect 62 0 45 0;
#X connect 62 1 45 1;
#X connect 63 0 62 0;
#X connect 64 0 65 0;
#X connect 64 1 177 0;
#X connect 66 1 36 0;
#X connect 66 2 35 0;
#X connect 67 0 68 0;
#X connect 67 1 151 0;
#X connect 68 0 70 0;
#X connect 68 0 69 0;
#X connect 68 1 70 0;
#X connect 68 1 69 0;
#X connect 72 0 21 0;
#X connect 73 0 72 0;
#X connect 74 0 75 0;
#X connect 75 0 28 0;
#X connect 76 0 175 0;
#X connect 78 0 86 0;
#X connect 80 0 84 1;
#X connect 81 0 83 1;
#X connect 81 1 82 0;
#X connect 82 0 84 0;
#X connect 83 0 119 0;
#X connect 84 0 83 0;
#X connect 84 0 97 0;
#X connect 85 0 79 0;
#X connect 86 0 85 0;
#X connect 93 0 92 0;
#X connect 94 0 93 0;
#X connect 95 0 94 0;
#X connect 96 0 94 0;
#X connect 97 0 98 0;
#X connect 98 0 95 0;
#X connect 98 1 96 0;
#X connect 102 0 152 4;
#X connect 105 0 108 0;
#X connect 106 0 105 0;
#X connect 108 0 107 0;
#X connect 109 0 112 0;
#X connect 110 0 109 0;
#X connect 112 0 111 0;
#X connect 113 0 133 0;
#X connect 114 0 113 0;
#X connect 116 0 123 0;
#X connect 117 0 124 0;
#X connect 119 0 122 0;
#X connect 119 1 120 0;
#X connect 120 0 121 0;
#X connect 121 0 128 0;
#X connect 122 0 165 0;
#X connect 123 0 120 1;
#X connect 124 0 121 1;
#X connect 125 0 130 0;
#X connect 126 0 131 0;
#X connect 127 0 132 0;
#X connect 128 0 127 0;
#X connect 128 1 125 0;
#X connect 130 0 135 0;
#X connect 131 0 136 0;
#X connect 131 1 130 1;
#X connect 132 0 137 0;
#X connect 133 0 115 0;
#X connect 134 0 125 1;
#X connect 135 0 127 1;
#X connect 136 0 134 0;
#X connect 137 0 122 1;
#X connect 138 0 141 0;
#X connect 139 0 138 0;
#X connect 141 0 140 0;
#X connect 142 0 152 5;
#X connect 144 0 152 6;
#X connect 146 0 152 7;
#X connect 151 0 23 0;
#X connect 151 1 30 0;
#X connect 151 2 51 0;
#X connect 151 3 59 0;
#X connect 151 4 103 0;
#X connect 151 5 143 0;
#X connect 151 6 145 0;
#X connect 151 7 147 0;
#X connect 151 8 154 0;
#X connect 152 0 8 0;
#X connect 153 0 152 8;
#X connect 155 0 25 0;
#X connect 155 1 31 0;
#X connect 155 2 50 0;
#X connect 155 3 60 0;
#X connect 155 4 104 0;
#X connect 155 5 148 0;
#X connect 155 6 149 0;
#X connect 155 7 150 0;
#X connect 155 8 156 0;
#X connect 157 0 158 0;
#X connect 158 0 159 0;
#X connect 159 0 160 0;
#X connect 162 0 81 0;
#X connect 163 0 169 2;
#X connect 164 0 163 1;
#X connect 165 0 166 0;
#X connect 165 1 163 0;
#X connect 166 0 169 0;
#X connect 166 1 169 1;
#X connect 167 0 177 1;
#X connect 169 0 167 0;
#X connect 169 1 167 1;
#X connect 171 0 6 0;
#X connect 172 0 173 0;
#X connect 172 1 176 1;
#X connect 174 0 178 0;
#X connect 175 0 177 1;
#X connect 175 1 81 0;
#X connect 176 0 54 0;
#X connect 176 1 14 0;
#X connect 177 0 62 0;
#X connect 177 1 63 0;
#X connect 178 0 179 0;
#X connect 179 0 6 0;
#X coords 0 -1 1 1 210 160 1 100 100;
