#N canvas 622 37 840 891 10;
#X obj 800 100 inlet~ left;
#X obj 900 100 inlet~ right;
#X obj 1000 100 inlet note;
#X obj 1100 100 inlet ctl;
#X obj 800 300 outlet~ left;
#X obj 900 300 outlet~ right;
#X obj 1000 300 outlet note;
#X obj 1098 577 outlet ctl;
#X obj 500 260 savestate, f 11;
#X text 590 260 👈 bangs when parent is saved;
#X obj 500 160 f;
#X obj 500 50 r save-state-\$0;
#X obj 570 290 s save-state-\$0;
#X text 1530 810 🎹, f 2;
#X text 1400 810 🔊, f 2;
#X text 1460 810 🔊, f 2;
#X text 1590 830 🕹️;
#X text 1400 830 ⚪, f 2;
#X text 1460 830 🔴, f 2;
#X text 1530 830 🎹, f 2;
#X obj 1400 860 cnv 15 210 70 empty empty empty 7 7 0 14 #c8c8c8 #fcfcfc 0;
#X obj 100 120 cnv 15 210 20 empty empty empty 7 7 0 14 #f0a8d8 #fcfcfc 0;
#X obj 200 170 hsl 95 15 0 5.9 0 1 from-units-\$0 to-units-\$0 units:ticks(0) 6 6 0 10 #fcfcfc #000000 #000000 0 1;
#X obj 500 460 s to-duration-\$0;
#X obj 540 80 r from-duration-\$0;
#X obj 560 100 r from-units-\$0;
#X obj 520 440 s to-units-\$0;
#X obj 200 150 nbx 10 15 1 1e+37 0 1 from-duration-\$0 to-duration-\$0 duration 40 6 0 10 #fcfcfc #000000 #000000 1 256;
#X obj 100 400 r from-units-\$0;
#X obj 237 443 r from-duration-\$0;
#X obj 237 513 s duration-ticks-\$0;
#X obj 100 580 s to-units-\$0;
#X obj 100 440 t f f;
#X obj 1130 300 s to-duration-\$0;
#X obj 1180 270 s to-units-\$0;
#X text 1560 760 comment;
#X symbolatom 110 130 12 0 0 1 tag to-tag-\$0 from-tag-\$0 0;
#X obj 560 125 r from-tag-\$0;
#X obj 540 420 s to-tag-\$0;
#X obj 110 150 nbx 8 15 -1e+37 1e+37 0 1 from-min-\$0 to-min-\$0 min 60 6 0 10 #fcfcfc #000000 #000000 -0.25 256;
#X obj 110 170 nbx 8 15 -1e+37 1e+37 0 1 from-max-\$0 to-max-\$0 max 60 6 0 10 #fcfcfc #000000 #000000 1 256;
#X obj 1210 250 s to-tag-\$0;
#X obj 110 210 hsl 185 15 -0.25 1 0 1 from-value-\$0 to-value-\$0 value:0.191576 5 5 0 10 #fcfcfc #000000 #000000 6500 1;
#X obj 1167 406 r from-tag-\$0;
#X obj 1140 440 symbol;
#X obj 1140 380 t b f, f 21;
#X obj 800 490 route ticks;
#X obj 800 840 s to-value-\$0;
#X obj 530 690 s to-value-\$0;
#X obj 530 540 r from-value-\$0;
#X obj 370 620 pack f f;
#X obj 410 590 t b f;
#X msg 370 650 range \$1 \$2;
#X obj 800 720 %;
#X obj 820 690 r duration-ticks-\$0;
#X obj 850 720 r duration-ticks-\$0;
#X obj 1140 340 r from-value-\$0;
#X obj 370 530 r from-min-\$0;
#X obj 410 560 r from-max-\$0;
#X obj 570 150 r from-min-\$0;
#X obj 600 170 r from-max-\$0;
#X obj 580 380 s to-max-\$0;
#X obj 550 400 s to-min-\$0;
#X obj 1290 210 s to-max-\$0;
#X obj 1240 230 s to-min-\$0;
#X obj 890 740 r from-min-\$0;
#X obj 930 760 r from-max-\$0;
#X obj 110 190 hsl 185 15 0 100 0 1 from-offset-\$0 to-offset-\$0 offset:0 5 5 0 10 #fcfcfc #000000 #000000 0 1;
#X obj 280 700 r from-offset-\$0;
#X obj 280 770 s to-offset-\$0;
#X obj 610 190 r from-offset-\$0;
#X obj 590 360 s to-offset-\$0;
#X obj 500 220 pack f f s f f f;
#X obj 498 317 unpack f f s f f f;
#X obj 1130 150 route duration units tag min max offset;
#X obj 1320 180 s to-offset-\$0;
#X obj 810 530 r from-offset-\$0;
#X obj 810 560 * 0.01;
#X obj 810 640 *;
#X obj 800 670 +;
#X obj 830 580 r duration-ticks-\$0;
#X obj 830 610 t b f;
#X obj 800 800 sub.bop.util.scale 0 1 0 1;
#X obj 100 500 int;
#X obj 100 525 pack f s;
#X msg 280 730 label offset:\$1;
#X msg 530 590 label value:\$1;
#X obj 1140 510 pack s f, f 21;
#X msg 100 550 label units:\$2(\$1);
#X obj 1145 543 list trim;
#X obj 1513 272 r bop-time;
#X obj 1516 351 route;
#X obj 1537 305 r \$0-scope-id;
#X obj 1514 199 r \$0-scope-id;
#X obj 1510 230 print ramp scope-id;
#X obj 800 400 r bop-time;
#X obj 800 460 route;
#X obj 820 430 r \$0-scope-id;
#X obj 720 505 print;
#X obj 1510 70 loadbang;
#X obj 1510 160 s \$0-scope-id;
#X obj 1510 100 bng 15 250 50 0 empty empty empty 17 7 0 10 #fcfcfc #000000 #000000;
#X obj 1510 130 iemguts/canvasdollarzero 1;
#X text 1535 99 get \$0 of parent patch to localise messaging;
#X obj 130 480 sub.bop.util.tickcalc;
#X connect 0 0 4 0;
#X connect 1 0 5 0;
#X connect 2 0 6 0;
#X connect 3 0 7 0;
#X connect 3 0 74 0;
#X connect 8 0 73 0;
#X connect 8 1 12 0;
#X connect 10 0 72 0;
#X connect 11 0 10 0;
#X connect 24 0 10 1;
#X connect 25 0 72 1;
#X connect 28 0 32 0;
#X connect 29 0 104 1;
#X connect 32 0 83 0;
#X connect 32 1 104 0;
#X connect 37 0 72 2;
#X connect 43 0 44 1;
#X connect 44 0 87 0;
#X connect 45 0 44 0;
#X connect 45 1 87 1;
#X connect 46 0 79 0;
#X connect 46 0 98 0;
#X connect 49 0 86 0;
#X connect 50 0 52 0;
#X connect 51 0 50 0;
#X connect 51 1 50 1;
#X connect 52 0 48 0;
#X connect 53 0 82 0;
#X connect 54 0 53 1;
#X connect 55 0 82 2;
#X connect 56 0 45 0;
#X connect 57 0 50 0;
#X connect 58 0 51 0;
#X connect 59 0 72 3;
#X connect 60 0 72 4;
#X connect 65 0 82 3;
#X connect 66 0 82 4;
#X connect 68 0 85 0;
#X connect 70 0 72 5;
#X connect 72 0 8 0;
#X connect 73 0 23 0;
#X connect 73 1 26 0;
#X connect 73 2 38 0;
#X connect 73 3 62 0;
#X connect 73 4 61 0;
#X connect 73 5 71 0;
#X connect 74 0 33 0;
#X connect 74 1 34 0;
#X connect 74 2 41 0;
#X connect 74 3 64 0;
#X connect 74 4 63 0;
#X connect 74 5 75 0;
#X connect 76 0 77 0;
#X connect 77 0 78 0;
#X connect 78 0 79 1;
#X connect 79 0 53 0;
#X connect 80 0 81 0;
#X connect 81 0 78 0;
#X connect 81 1 78 1;
#X connect 82 0 47 0;
#X connect 83 0 84 0;
#X connect 84 0 88 0;
#X connect 85 0 69 0;
#X connect 86 0 48 0;
#X connect 87 0 89 0;
#X connect 88 0 31 0;
#X connect 89 0 7 0;
#X connect 90 0 91 0;
#X connect 92 0 91 1;
#X connect 93 0 94 0;
#X connect 95 0 96 0;
#X connect 96 0 46 0;
#X connect 97 0 96 1;
#X connect 99 0 101 0;
#X connect 101 0 102 0;
#X connect 102 0 100 0;
#X connect 104 0 84 1;
#X connect 104 1 30 0;
#X coords 0 -1 1 1 210 140 1 100 100;
