#N canvas 376 0 770 772 10;
#X declare -path ./subpatches/casio;
#X declare -path ./subpatches/utils;
#X obj 100 120 cnv 15 210 250 empty empty empty 7 7 0 14 #fdf6e3 #ffffff
0;
#X obj 640 100 inlet~ left;
#X obj 900 100 inlet~ right;
#X obj 1000 100 inlet note;
#X obj 1100 100 inlet ctl;
#X obj 640 200 outlet~ left;
#X obj 900 200 outlet~ right;
#X obj 1010 160 outlet note;
#X obj 1100 270 outlet ctl;
#X obj 400 350 savestate, f 11;
#X text 490 350 👈 bangs when parent is saved;
#X obj 400 60 r save-state-\$0;
#X obj 460 380 s save-state-\$0;
#X obj 1000 400 pack 0 0 0;
#X obj 1000 520 route 1 2 3 4, f 132;
#X obj 730 130 hip~ 5;
#X obj 730 155 clip~ -1 1;
#X obj 100 100 cnv 15 210 20 empty empty bop.casio 7 7 0 14 #97c5ee
#ffffff 0;
#X obj 90 50 declare -path ./subpatches/casio;
#X text 1820 860 comment;
#X obj 1000 550 bop.casio.voice \$0;
#X obj 1200 550 bop.casio.voice \$0;
#X obj 1400 550 bop.casio.voice \$0;
#X obj 1590 550 bop.casio.voice \$0;
#X obj 90 690 int;
#X obj 90 750 t f f;
#X obj 90 670 r from-wave-1-\$0;
#X obj 90 900 s to-wave-1-\$0;
#X obj 1180 250 s to-wave-1-\$0;
#X obj 440 640 s to-wave-1-\$0;
#N canvas 536 235 450 301 wave-name-maker 0;
#X obj 73 -159 i;
#X obj 73 -129 change;
#X obj 73 17 cyclone/zl nth, f 21;
#X obj 73 -69 t b f, f 21;
#X obj 73 -99 + 1;
#X obj 72 -193 inlet;
#X obj 70 160 outlet;
#X msg 70 -40 saw square pulse sinepulse halfpulse res-saw res-triangle
res-trapezoid, f 39;
#X connect 0 0 1 0;
#X connect 1 0 4 0;
#X connect 2 0 6 0;
#X connect 3 0 7 0;
#X connect 3 1 2 1;
#X connect 4 0 3 0;
#X connect 5 0 0 0;
#X connect 7 0 2 0;
#X restore 120 790 pd wave-name-maker;
#X obj 90 830 sprintf label wave-1:%d(%s), f 13;
#X obj 110 150 hsl 185 15 0 7 0 1 from-wave-1-\$0 to-wave-1-\$0 wave-1:3(sinepulse)
5 5 0 10 #fcfcfc #000000 #000000 8000 1;
#X obj 250 690 int;
#X obj 250 750 t f f;
#N canvas 536 235 450 301 wave-name-maker 0;
#X obj 73 -159 i;
#X obj 73 -129 change;
#X obj 73 17 cyclone/zl nth, f 21;
#X obj 73 -69 t b f, f 21;
#X obj 73 -99 + 1;
#X obj 72 -193 inlet;
#X obj 70 160 outlet;
#X msg 70 -40 saw square pulse sinepulse halfpulse res-saw res-triangle
res-trapezoid, f 39;
#X connect 0 0 1 0;
#X connect 1 0 4 0;
#X connect 2 0 6 0;
#X connect 3 0 7 0;
#X connect 3 1 2 1;
#X connect 4 0 3 0;
#X connect 5 0 0 0;
#X connect 7 0 2 0;
#X restore 280 790 pd wave-name-maker;
#X obj 250 830 sprintf label wave-2:%d(%s), f 13;
#X obj 250 900 s to-wave-2-\$0;
#X obj 250 670 r from-wave-2-\$0;
#X obj 410 380 t b l;
#X obj 460 620 s to-wave-2-\$0;
#X obj 400 170 f;
#X obj 110 170 hsl 185 15 0 7 0 1 from-wave-2-\$0 to-wave-2-\$0 wave-2:4(halfpulse)
5 5 0 10 #fcfcfc #000000 #000000 10700 1;
#X msg 960 280 stop;
#X obj 110 190 hsl 185 15 0 1 0 1 from-filter-\$0 to-filter-\$0 filter:0.475000
5 5 0 10 #fcfcfc #000000 #000000 8740 1;
#X obj 380 900 s to-filter-\$0;
#X obj 400 790 r from-filter-\$0;
#X obj 380 830 sprintf label filter:%f, f 13;
#X obj 480 600 s to-filter-\$0;
#X obj 450 120 r from-filter-\$0;
#X obj 1180 160 route wave-1 wave-2 filter, f 36;
#X obj 1230 210 s to-filter-\$0;
#X obj 520 830 r from-attack-\$0;
#X obj 630 830 r from-peak-\$0;
#X obj 730 830 r from-decay-\$0;
#X obj 840 830 r from-sustain-\$0;
#X obj 960 830 r from-release-\$0;
#X obj 1070 830 r from-curve-\$0;
#X obj 1070 900 s to-curve-\$0;
#X obj 960 900 s to-release-\$0;
#X obj 840 900 s to-sustain-\$0;
#X obj 730 900 s to-decay-\$0;
#X obj 630 900 s to-peak-\$0;
#X obj 520 900 s to-attack-\$0;
#X obj 1520 300 s to-curve-\$0;
#X obj 1460 320 s to-release-\$0;
#X obj 1410 340 s to-sustain-\$0;
#X obj 1380 360 s to-decay-\$0;
#X obj 1350 380 s to-peak-\$0;
#X obj 1330 400 s to-attack-\$0;
#X obj 580 480 s to-curve-\$0;
#X obj 560 500 s to-release-\$0;
#X obj 540 520 s to-sustain-\$0;
#X obj 530 540 s to-decay-\$0;
#X obj 510 560 s to-peak-\$0;
#X obj 490 580 s to-attack-\$0;
#X obj 460 140 r from-attack-\$0;
#X obj 470 160 r from-peak-\$0;
#X obj 480 180 r from-decay-\$0;
#X obj 490 200 r from-sustain-\$0;
#X obj 500 220 r from-release-\$0;
#X obj 520 240 r from-curve-\$0;
#X obj 110 240 hsl 185 15 0.01 1 1 1 from-attack-\$0 to-attack-\$0
attack:0.034952 5 5 0 10 #fcfcfc #000000 #000000 5000 1;
#X obj 110 260 hsl 185 15 0 1 0 1 from-peak-\$0 to-peak-\$0 peak:0.630435
5 5 0 10 #fcfcfc #000000 #000000 11600 1;
#X obj 110 280 hsl 185 15 0 1 0 1 from-decay-\$0 to-decay-\$0 decay:0.961957
5 5 0 10 #fcfcfc #000000 #000000 17700 1;
#X obj 110 300 hsl 185 15 0 1 0 1 from-sustain-\$0 to-sustain-\$0 sustain:0.000000
5 5 0 10 #fcfcfc #000000 #000000 14800 1;
#X obj 110 320 hsl 185 15 0 1 0 1 from-release-\$0 to-release-\$0 release:0.978261
5 5 0 10 #fcfcfc #000000 #000000 18000 1;
#X obj 110 340 hsl 185 15 0 1 0 0 from-curve-\$0 to-curve-\$0 curve:0.630435
5 5 0 10 #fcfcfc #000000 #000000 11600 1;
#X obj 520 860 sprintf label attack:%f, f 13;
#X obj 630 860 sprintf label peak:%f, f 13;
#X obj 730 855 sprintf label decay:%f, f 13;
#X obj 840 855 sprintf label sustain:%f, f 13;
#X obj 960 855 sprintf label release:%f, f 13;
#X obj 1070 855 sprintf label curve:%f, f 13;
#X msg 1000 440 \$1 \$1 \$2 \$3;
#X obj 110 210 hsl 185 15 0 1 0 1 from-spread-\$0 to-spread-\$0 spread:0.934783
5 5 0 10 #fcfcfc #000000 #000000 17200 1;
#X obj 1180 835 r from-spread-\$0;
#X obj 1180 905 s to-spread-\$0;
#X obj 1180 860 sprintf label spread:%f, f 13;
#X obj 600 460 s to-spread-\$0;
#X obj 540 260 r from-spread-\$0;
#X obj 1570 280 s to-spread-\$0;
#X obj 730 60 catch~ instrument-left-\$0;
#X obj 800 80 catch~ instrument-right-\$0;
#X obj 800 130 hip~ 5;
#X obj 800 155 clip~ -1 1;
#X obj 1000 670 throw~ instrument-left-\$0;
#X obj 1010 640 throw~ instrument-right-\$0;
#X obj 90 20 declare -path ./subpatches/utils;
#X obj 1000 610 bop.utils.spread -1;
#X obj 1200 670 throw~ instrument-left-\$0;
#X obj 1210 640 throw~ instrument-right-\$0;
#X obj 1200 610 bop.utils.spread -0.5;
#X obj 1400 670 throw~ instrument-left-\$0;
#X obj 1410 640 throw~ instrument-right-\$0;
#X obj 1590 670 throw~ instrument-left-\$0;
#X obj 1600 640 throw~ instrument-right-\$0;
#X obj 1400 610 bop.utils.spread 0.5;
#X obj 1590 610 bop.utils.spread 1;
#X obj 1010 580 r from-spread-\$0;
#X obj 1210 580 r from-spread-\$0;
#X obj 1415 583 r from-spread-\$0;
#X obj 1601 581 r from-spread-\$0;
#X obj 410 80 r from-wave-1-\$0;
#X obj 440 100 r from-wave-2-\$0;
#X obj 1200 230 s to-wave-2-\$0;
#X obj 1000 360 poly 4 1, f 10;
#X obj 1010 280 r bop-play;
#X obj 1010 300 sel 0;
#X obj 1000 330 cyclone/flush;
#X obj 110 130 tgl 15 1 from-pedal-\$0 to-pedal-\$0 pedal 20 5 0 10
#fcfcfc #000000 #000000 0 1;
#X obj 400 310 pack f f f f f f f f f f f;
#X obj 440 410 unpack f f f f f f f f f f f;
#N canvas 0 0 450 300 sustain 0;
#X obj 50 170 stripnote;
#X obj 50 190 pack;
#X obj 100 80 + 1;
#X obj 10 130 gate 2, f 7;
#X obj 100 30 inlet;
#X obj 50 30 inlet;
#X obj 10 250 outlet;
#X connect 0 0 1 0;
#X connect 0 1 1 1;
#X connect 1 0 6 0;
#X connect 2 0 3 0;
#X connect 3 0 6 0;
#X connect 3 1 0 0;
#X connect 4 0 2 0;
#X connect 5 0 3 1;
#X restore 1000 250 pd sustain;
#X obj 550 280 r from-pedal-\$0;
#X obj 610 440 s to-pedal-\$0;
#X obj 1020 210 r from-pedal-\$0;
#X obj 1340 210 route attack peak decay sustain release curve spread
pedal, f 54;
#X obj 1600 260 s to-pedal-\$0;
#X connect 1 0 5 0;
#X connect 2 0 6 0;
#X connect 3 0 7 0;
#X connect 3 0 133 0;
#X connect 4 0 8 0;
#X connect 4 0 50 0;
#X connect 9 0 39 0;
#X connect 9 1 12 0;
#X connect 11 0 41 0;
#X connect 13 0 94 0;
#X connect 14 0 20 0;
#X connect 14 1 21 0;
#X connect 14 2 22 0;
#X connect 14 3 23 0;
#X connect 15 0 16 0;
#X connect 16 0 5 0;
#X connect 20 0 109 0;
#X connect 21 0 112 0;
#X connect 22 0 117 0;
#X connect 23 0 118 0;
#X connect 24 0 25 0;
#X connect 25 0 31 0;
#X connect 25 1 30 0;
#X connect 26 0 24 0;
#X connect 30 0 31 1;
#X connect 31 0 27 0;
#X connect 33 0 34 0;
#X connect 34 0 36 0;
#X connect 34 1 35 0;
#X connect 35 0 36 1;
#X connect 36 0 37 0;
#X connect 38 0 33 0;
#X connect 39 1 132 0;
#X connect 41 0 131 0;
#X connect 43 0 126 0;
#X connect 46 0 47 0;
#X connect 47 0 45 0;
#X connect 49 0 131 2;
#X connect 50 0 28 0;
#X connect 50 1 125 0;
#X connect 50 2 51 0;
#X connect 50 3 137 0;
#X connect 52 0 88 0;
#X connect 53 0 89 0;
#X connect 54 0 90 0;
#X connect 55 0 91 0;
#X connect 56 0 92 0;
#X connect 57 0 93 0;
#X connect 76 0 131 3;
#X connect 77 0 131 4;
#X connect 78 0 131 5;
#X connect 79 0 131 6;
#X connect 80 0 131 7;
#X connect 81 0 131 8;
#X connect 88 0 63 0;
#X connect 89 0 62 0;
#X connect 90 0 61 0;
#X connect 91 0 60 0;
#X connect 92 0 59 0;
#X connect 93 0 58 0;
#X connect 94 0 14 0;
#X connect 96 0 98 0;
#X connect 98 0 97 0;
#X connect 100 0 131 9;
#X connect 102 0 15 0;
#X connect 103 0 104 0;
#X connect 104 0 105 0;
#X connect 105 0 6 0;
#X connect 109 0 106 0;
#X connect 109 1 107 0;
#X connect 112 0 110 0;
#X connect 112 1 111 0;
#X connect 117 0 113 0;
#X connect 117 1 114 0;
#X connect 118 0 115 0;
#X connect 118 1 116 0;
#X connect 119 0 109 1;
#X connect 120 0 112 1;
#X connect 121 0 117 1;
#X connect 122 0 118 1;
#X connect 123 0 41 1;
#X connect 124 0 131 1;
#X connect 126 0 13 0;
#X connect 126 1 13 1;
#X connect 126 2 13 2;
#X connect 127 0 128 0;
#X connect 128 0 129 0;
#X connect 129 0 126 0;
#X connect 129 1 126 1;
#X connect 131 0 9 0;
#X connect 132 0 29 0;
#X connect 132 1 40 0;
#X connect 132 2 48 0;
#X connect 132 3 75 0;
#X connect 132 4 74 0;
#X connect 132 5 73 0;
#X connect 132 6 72 0;
#X connect 132 7 71 0;
#X connect 132 8 70 0;
#X connect 132 9 99 0;
#X connect 132 10 135 0;
#X connect 133 0 129 0;
#X connect 134 0 131 10;
#X connect 136 0 133 1;
#X connect 137 0 69 0;
#X connect 137 1 68 0;
#X connect 137 2 67 0;
#X connect 137 3 66 0;
#X connect 137 4 65 0;
#X connect 137 5 64 0;
#X connect 137 6 101 0;
#X connect 137 7 138 0;
#X coords 0 -1 1 1 210 270 2 100 100;
