#N canvas 376 0 770 772 10;
#X declare -path ./subpatches/rhodes;
#X obj 100 120 cnv 15 210 30 empty empty empty 7 7 0 14 #fdf6e3 #ffffff
0;
#X obj 670 100 inlet~ left;
#X obj 900 100 inlet~ right;
#X obj 1000 100 inlet note;
#X obj 1280 100 inlet ctl;
#X obj 670 220 outlet~ left;
#X obj 900 220 outlet~ right;
#X obj 1020 160 outlet note;
#X obj 1280 200 outlet ctl;
#X obj 400 260 savestate, f 11;
#X text 490 260 👈 bangs when parent is saved;
#X obj 400 180 f;
#X obj 400 100 r save-state-\$0;
#X obj 460 290 s save-state-\$0;
#X obj 400 330 s to-param1-\$0;
#X obj 1310 170 s to-param1-\$0;
#X obj 1000 310 pack 0 0 0;
#X obj 1000 340 route 1 2 3 4, f 97;
#X obj 1000 480 *~ 0.5;
#X obj 1000 390 unpack;
#X obj 1000 420 mtof;
#X obj 1150 480 *~ 0.5;
#X obj 1150 390 unpack;
#X obj 1150 420 mtof;
#X obj 1290 480 *~ 0.5;
#X obj 1290 390 unpack;
#X obj 1290 420 mtof;
#X obj 1430 480 *~ 0.5;
#X obj 1430 390 unpack;
#X obj 1430 420 mtof;
#X obj 400 220 pack f;
#X obj 400 290 unpack f;
#X obj 410 150 r from-param-\$0;
#X obj 1310 140 route param1;
#X obj 760 120 hip~ 5;
#X obj 760 145 clip~ -1 1;
#X obj 90 50 declare -path ./subpatches/rhodes;
#X obj 760 100 catch~ instrument-\$0;
#X obj 1000 520 throw~ instrument-\$0;
#X obj 1150 520 throw~ instrument-\$0;
#X obj 1290 520 throw~ instrument-\$0;
#X obj 1430 520 throw~ instrument-\$0;
#X obj 1000 450 rds~;
#X obj 1150 450 rds~;
#X obj 1290 450 rds~;
#X obj 1430 450 rds~;
#X obj 100 100 cnv 15 210 20 empty empty bop.rhodes 7 7 0 14 #97c5ee
#ffffff 0;
#X obj 1000 270 poly 4 1, f 10;
#X obj 1010 190 r bop-play;
#X obj 1010 210 sel 0;
#X obj 1000 240 cyclone/flush;
#X connect 1 0 5 0;
#X connect 2 0 6 0;
#X connect 3 0 7 0;
#X connect 3 0 50 0;
#X connect 4 0 8 0;
#X connect 9 0 31 0;
#X connect 9 1 13 0;
#X connect 11 0 30 0;
#X connect 12 0 11 0;
#X connect 16 0 17 0;
#X connect 17 0 19 0;
#X connect 17 1 22 0;
#X connect 17 2 25 0;
#X connect 17 3 28 0;
#X connect 18 0 38 0;
#X connect 19 0 20 0;
#X connect 19 1 42 1;
#X connect 20 0 42 0;
#X connect 21 0 39 0;
#X connect 22 0 23 0;
#X connect 22 1 43 1;
#X connect 23 0 43 0;
#X connect 24 0 40 0;
#X connect 25 0 26 0;
#X connect 25 1 44 1;
#X connect 26 0 44 0;
#X connect 27 0 41 0;
#X connect 28 0 29 0;
#X connect 28 1 45 1;
#X connect 29 0 45 0;
#X connect 30 0 9 0;
#X connect 31 0 14 0;
#X connect 32 0 11 1;
#X connect 33 0 15 0;
#X connect 34 0 35 0;
#X connect 35 0 5 0;
#X connect 35 0 6 0;
#X connect 37 0 34 0;
#X connect 42 0 18 0;
#X connect 43 0 21 0;
#X connect 44 0 24 0;
#X connect 45 0 27 0;
#X connect 47 0 16 0;
#X connect 47 1 16 1;
#X connect 47 2 16 2;
#X connect 48 0 49 0;
#X connect 49 0 50 0;
#X connect 50 0 47 0;
#X connect 50 1 47 1;
#X coords 0 -1 1 1 210 50 2 100 100;
