#N canvas 840 23 840 1005 10;
#X obj 100 120 cnv 15 210 90 empty empty empty 7 7 0 14 #fdf6e3 #ffffff
0;
#X obj 670 90 inlet~ left;
#X obj 770 90 inlet~ right;
#X obj 870 90 inlet note;
#X obj 670 290 outlet~ left;
#X obj 770 290 outlet~ right;
#X obj 870 290 outlet note;
#X obj 350 690 savestate, f 11;
#X text 430 710 👈 bangs when parent is saved;
#X obj 350 660 f;
#X obj 350 580 r save-state-\$0;
#X obj 420 740 s save-state-\$0;
#X obj 110 130 tgl 55 0 from-play-\$0 to-play-\$0 play 15 24 0 10 #ffffff
#000000 #000000 0 1;
#X floatatom 100 300 5 0 0 1 ticks to-ticks-#0 from-ticks-#0, f 5
;
#X floatatom 100 320 5 0 0 1 16ths to-16ths-#0 from-16ths-#0, f 5
;
#X floatatom 170 300 5 0 0 1 8ths to-8ths-#0 from-8ths-#0, f 5;
#X floatatom 170 320 5 0 0 1 beats to-beats-#0 from-beats-#0, f 5
;
#X floatatom 170 340 5 0 0 1 bars to-bars-#0 from-bars-#0, f 5;
#X floatatom 100 340 5 0 0 1 12ths to-12ths-#0 from-12ths-#0, f 5
;
#X obj 170 150 bng 15 250 50 0 from-rewind-\$0 to-rewind-\$0 rewind
20 5 0 10 #ffffff #000000 #000000;
#X obj 350 350 r from-ticks-\$0;
#X obj 450 350 r from-16ths-\$0;
#X obj 560 350 r from-12ths-\$0;
#X obj 350 460 r from-8ths-\$0;
#X obj 450 460 r from-beats-\$0;
#X obj 560 460 r from-bars-\$0;
#X obj 970 90 inlet ctrl;
#X obj 970 290 outlet ctrl;
#X obj 990 120 route rewind play 1 0 bpm;
#X obj 990 240 s to-rewind-\$0;
#X obj 1080 180 s to-bpm-\$0;
#X obj 368 607 r from-bpm-\$0;
#X obj 350 740 unpack f;
#X obj 350 850 s to-bpm-\$0;
#X text 863 622 pulse;
#X obj 798 727 metro;
#X obj 825 689 expr 60000/$f1;
#X obj 798 586 t f b;
#X obj 1300 676 i;
#X obj 1373 690 / 4;
#X obj 1373 710 i;
#X obj 1198 695 i;
#X obj 1198 766 % 8;
#X obj 1373 730 change;
#X obj 1300 702 change;
#X obj 1300 728 % 4;
#X text 693 655 16ths as ticks 👉;
#X msg 868 585 set \$1;
#X obj 855 558 t b f;
#X obj 824 654 * 24;
#X floatatom 862 729 5 0 0 0 - - -, f 5;
#X msg 825 623 110;
#X obj 1300 650 / 24;
#X obj 1198 653 / 12;
#X obj 980 719 i;
#X obj 980 677 / 6;
#X obj 980 790 % 16;
#X text 1486 677 24 ticks per beat;
#X text 1486 718 12 ticks per quaver;
#X text 1486 761 6 ticks per semiquaver;
#X text 1486 632 96 ticks per bar of 4/4;
#X text 1486 739 8 ticks per quaver triplet;
#X text 1486 655 32 ticks per minim triplet;
#X text 1486 698 16 ticks per crotchet triplet;
#X obj 1099 700 i;
#X obj 1099 658 / 8;
#X obj 1099 771 % 12;
#X obj 1200 730 change;
#X obj 1100 740 change;
#X obj 976 749 change;
#X obj 852 531 r from-bpm-\$0;
#X obj 799 822 s to-ticks-\$0;
#X obj 980 610 r from-ticks-\$0;
#X obj 1100 610 r from-ticks-\$0;
#X obj 1200 610 r from-ticks-\$0;
#X obj 1300 610 r from-ticks-\$0;
#X obj 980 820 s to-16ths-\$0;
#X obj 1096 817 s to-12ths-\$0;
#X obj 1198 817 s to-8ths-\$0;
#X obj 1300 819 s to-beats-\$0;
#X obj 1373 759 s to-bars-\$0;
#X obj 690 220 dac~;
#X obj 386 175 sel 1;
#X msg 390 210 \; pd dsp 1;
#X obj 390 140 r from-play-\$0;
#X obj 800 500 r from-play-\$0;
#X obj 1030 210 s to-play-\$0;
#X msg 350 380 ticks \$1;
#X msg 450 380 16ths \$1;
#X msg 560 380 12ths \$1;
#X msg 350 490 8ths \$1;
#X msg 450 490 beats \$1;
#X msg 560 490 bars \$1;
#X msg 710 530 play \$1;
#X obj 350 410 s bop-time;
#X obj 450 410 s bop-time;
#X obj 560 410 s bop-time;
#X obj 560 520 s bop-time;
#X obj 450 520 s bop-time;
#X obj 350 520 s bop-time;
#X obj 710 560 s bop-time;
#X obj 170 170 nbx 5 15 -1e+37 1e+37 0 0 empty from-bars-\$0 empty
0 -8 0 15 #fcfcfc #000000 #000000 0 256 3;
#X obj 230 170 nbx 2 15 -1e+37 1e+37 0 0 empty from-beats-\$0 empty
0 -8 0 15 #fcfcfc #000000 #000000 0 256 3;
#X obj 270 170 nbx 2 15 -1e+37 1e+37 0 0 empty ticks-in-bar-\$0 empty
0 -8 0 15 #fcfcfc #000000 #000000 0 256 3;
#X obj 100 450 s ticks-in-bar-\$0;
#X obj 100 390 r from-ticks-\$0;
#X obj 100 420 % 24;
#X text 220 170 .;
#X text 260 170 .;
#X obj 830 760 r from-rewind-\$0;
#X obj 170 130 nbx 8 15 -1e+37 10000 0 0 from-bpm-\$0 to-bpm-\$0 bpm
60 5 0 10 #fcfcfc #000000 #000000 0 256 0;
#X obj 690 140 clip~ -1 1;
#X obj 780 140 clip~ -1 1;
#X obj 100 100 cnv 15 210 20 empty empty bop\ 🐦 7 7 0 14 #a8caab
#ffffff 0;
#X obj 100 490 keyname;
#X obj 100 640 s to-play-\$0;
#X obj 100 520 pack f s;
#X msg 100 540 \$2 \$1;
#X obj 100 600 sel 1;
#X obj 100 570 route Space;
#X obj 456 184 s bop-play;
#X obj 799 787 cyclone/counter;
#X obj 260 350 r from-bpm-\$0;
#X floatatom 260 410 5 0 0 0 - - -, f 5;
#X obj 260 470 s bop-time;
#X msg 260 440 bpm \$1;
#X obj 300 380 bng 15 250 50 0 empty empty empty 17 7 0 10 #fcfcfc
#000000 #000000;
#X obj 100 880 iemguts/sendcanvas 1;
#X obj 110 190 bng 15 250 50 0 \$0-make-palette empty palette 20 5
0 10 #fcfcfc #000000 #000000;
#X obj 100 680 r \$0-make-palette;
#X obj 100 720 iemguts/canvasposition;
#X obj 100 820 pack;
#X msg 100 840 obj \$1 \$2 bop.palette;
#X obj 100 750 unpack;
#X obj 100 790 + 220;
#X obj 350 790 delay 100;
#X obj 350 820 f;
#X msg 420 830 110;
#X obj 420 790 loadbang;
#X connect 1 0 4 0;
#X connect 1 0 111 0;
#X connect 2 0 5 0;
#X connect 2 0 112 0;
#X connect 3 0 6 0;
#X connect 7 0 32 0;
#X connect 7 1 11 0;
#X connect 9 0 7 0;
#X connect 10 0 9 0;
#X connect 20 0 87 0;
#X connect 20 0 126 0;
#X connect 21 0 88 0;
#X connect 22 0 89 0;
#X connect 23 0 90 0;
#X connect 24 0 91 0;
#X connect 25 0 92 0;
#X connect 26 0 27 0;
#X connect 26 0 28 0;
#X connect 28 0 29 0;
#X connect 28 1 86 0;
#X connect 28 2 86 0;
#X connect 28 3 86 0;
#X connect 28 4 30 0;
#X connect 31 0 9 1;
#X connect 32 0 135 0;
#X connect 32 0 136 1;
#X connect 35 0 121 0;
#X connect 36 0 35 1;
#X connect 36 0 50 0;
#X connect 37 0 35 0;
#X connect 37 1 51 0;
#X connect 38 0 44 0;
#X connect 39 0 40 0;
#X connect 40 0 43 0;
#X connect 41 0 67 0;
#X connect 42 0 78 0;
#X connect 43 0 80 0;
#X connect 44 0 45 0;
#X connect 45 0 79 0;
#X connect 47 0 51 0;
#X connect 48 0 51 0;
#X connect 48 1 47 0;
#X connect 49 0 36 0;
#X connect 51 0 49 0;
#X connect 52 0 38 0;
#X connect 52 0 39 0;
#X connect 53 0 41 0;
#X connect 54 0 69 0;
#X connect 55 0 54 0;
#X connect 56 0 76 0;
#X connect 64 0 68 0;
#X connect 65 0 64 0;
#X connect 66 0 77 0;
#X connect 67 0 42 0;
#X connect 68 0 66 0;
#X connect 69 0 56 0;
#X connect 70 0 48 0;
#X connect 72 0 55 0;
#X connect 73 0 65 0;
#X connect 74 0 53 0;
#X connect 75 0 52 0;
#X connect 82 0 83 0;
#X connect 84 0 82 0;
#X connect 84 0 120 0;
#X connect 85 0 37 0;
#X connect 85 0 93 0;
#X connect 87 0 94 0;
#X connect 88 0 95 0;
#X connect 89 0 96 0;
#X connect 90 0 99 0;
#X connect 91 0 98 0;
#X connect 92 0 97 0;
#X connect 93 0 100 0;
#X connect 105 0 106 0;
#X connect 106 0 104 0;
#X connect 109 0 121 2;
#X connect 111 0 81 0;
#X connect 112 0 81 1;
#X connect 114 0 116 0;
#X connect 114 1 116 1;
#X connect 116 0 117 0;
#X connect 117 0 119 0;
#X connect 118 0 115 0;
#X connect 119 0 118 0;
#X connect 121 0 71 0;
#X connect 122 0 123 0;
#X connect 123 0 125 0;
#X connect 125 0 124 0;
#X connect 126 0 123 0;
#X connect 129 0 130 0;
#X connect 130 0 133 0;
#X connect 131 0 132 0;
#X connect 132 0 127 0;
#X connect 133 0 134 0;
#X connect 133 1 131 1;
#X connect 134 0 131 0;
#X connect 135 0 136 0;
#X connect 136 0 33 0;
#X connect 137 0 33 0;
#X connect 138 0 137 0;
#X coords 0 -1 1 1 210 110 2 100 100;
