#N canvas 71 23 1538 787 10;
#X obj 100 120 cnv 15 210 80 empty empty empty 7 7 0 14 #fdf6e3 #ffffff
0;
#X obj 890 120 inlet~ left;
#X obj 990 120 inlet~ right;
#X obj 1300 50 inlet note;
#X obj 1600 100 inlet ctl;
#X obj 890 320 outlet~ left;
#X obj 990 320 outlet~ right;
#X obj 1280 1260 outlet note;
#X obj 1600 380 outlet ctl;
#X obj 500 260 savestate, f 11;
#X text 590 260 👈 bangs when parent is saved;
#X obj 500 110 f;
#X obj 500 30 r save-state-\$0;
#X obj 570 290 s save-state-\$0;
#X obj 100 100 cnv 15 210 20 empty empty bop.notefx 7 7 0 14 #d7cbfe
#ffffff 0;
#X obj 1300 180 unpack, f 18;
#X obj 1310 760 + 0, f 6;
#X obj 1280 1220 pack, f 26;
#X obj 1320 560 t b f;
#X obj 110 130 hsl 165 15 -12 12 0 1 from-semitone-\$0 to-semitone-\$0
semitone:5 5 5 0 10 #fcfcfc #000000 #000000 11900 1;
#X obj 1320 440 int;
#X obj 170 500 r from-semitone-\$0;
#X obj 170 560 s to-semitone-\$0;
#X obj 518 57 r from-semitone-\$0;
#X obj 500 460 s to-semitone-\$0;
#X obj 1320 380 r from-semitone-\$0;
#X obj 1630 350 s to-semitone-\$0;
#X obj 110 150 hsl 165 15 -6 6 0 1 from-octave-\$0 to-octave-\$0 octave:-1
5 5 0 10 #fcfcfc #000000 #000000 5800 1;
#X obj 170 600 r from-octave-\$0;
#X obj 170 660 s to-octave-\$0;
#X obj 530 80 r from-octave-\$0;
#X obj 520 440 s to-octave-\$0;
#X obj 1650 320 s to-octave-\$0;
#X obj 1410 440 int;
#X obj 1320 470 change;
#X obj 1410 500 t b f;
#X obj 1340 300 s velocity-in-\$0;
#X obj 1250 300 s pitch-in-\$0;
#X obj 1310 680 r pitch-in-\$0;
#X obj 1370 790 r velocity-in-\$0;
#X text 1370 570 add pitch shifting values;
#X obj 1350 600 s pitch-offset-\$0;
#X obj 1340 730 r pitch-offset-\$0;
#X obj 285 130 bng 15 250 50 0 reset-semitone-\$0 empty empty 17 7
0 10 #fcfcfc #000000 #000000;
#X obj 285 150 bng 15 250 50 0 reset-octave-\$0 empty empty 17 7 0
10 #fcfcfc #000000 #000000;
#X obj 40 500 r reset-semitone-\$0;
#X obj 40 600 r reset-octave-\$0;
#X msg 40 530 0;
#X msg 40 630 0;
#X obj 1320 530 expr $f1 + ($f2 * 12);
#X obj 1410 410 r from-octave-\$0;
#X obj 1410 470 change;
#X obj 1280 1160 cyclone/flush, f 26;
#X obj 1310 630 s flush-\$0;
#X obj 1290 1130 r flush-\$0;
#X obj 110 170 tgl 15 1 from-monophonic-\$0 to-monophonic-\$0 monophonic
17 7 0 10 #fcfcfc #000000 #000000 0 4;
#X obj 540 100 r from-monophonic-\$0;
#X obj 1720 290 s to-monophonic-\$0;
#X obj 540 420 s to-monophonic-\$0;
#X obj 1140 50 r from-monophonic-\$0;
#X obj 1210 120 + 1;
#X obj 1290 590 bng 15 250 50 0 empty empty empty 17 7 0 10 #fcfcfc
#000000 #000000;
#X obj 1210 210 unpack;
#X obj 1140 80 t b f, f 12;
#X obj 1140 120 s flush-\$0;
#X obj 200 170 tgl 15 1 from-filter-repeats-\$0 to-filter-repeats-\$0
filter-repeats 17 7 0 10 #fcfcfc #000000 #000000 0 1;
#X obj 560 170 r from-filter-repeats-\$0;
#X obj 560 380 s from-filter-repeats-\$0;
#X obj 1820 220 s to-filter-repeats-\$0;
#X obj 1150 840 r from-filter-repeats-\$0;
#X obj 1280 1070 unpack;
#N canvas 376 22 770 772 filter-repeats 0;
#X obj 240 30 inlet;
#X msg 240 80 \$2 \$1 \$2;
#X obj 240 120 route 0;
#X msg 280 160 \$2 \$3;
#X text 330 160 note ons;
#X text 170 160 note offs;
#X obj 240 430 outlet;
#X obj 260 230 unpack;
#X obj 280 190 t l l;
#X obj 290 360 l;
#X obj 260 290 change;
#X obj 260 320 bng 15 250 50 0 empty empty empty 17 7 0 10 #fcfcfc
#000000 #000000;
#X obj 260 260 int;
#X connect 0 0 1 0;
#X connect 1 0 2 0;
#X connect 2 0 6 0;
#X connect 2 1 3 0;
#X connect 3 0 8 0;
#X connect 7 0 12 0;
#X connect 8 0 7 0;
#X connect 8 1 9 1;
#X connect 9 0 6 0;
#X connect 10 0 11 0;
#X connect 11 0 9 0;
#X connect 12 0 10 0;
#X restore 1340 1020 pd filter-repeats;
#X obj 1180 900 + 1;
#X obj 1150 870 t b f;
#X obj 1150 940 s flush-\$0;
#X obj 1300 210 poly 1, f 19;
#X obj 470 290 t b l;
#X obj 320 340 t b b;
#X obj 360 380 s to-monophonic-\$0;
#X obj 320 400 s from-filter-repeats-\$0;
#X text 1460 1020 This is breaking when toggling monophonic - it is
causing output to stop;
#X msg 170 540 label semitone:\$1;
#X obj 170 520 int;
#X obj 170 620 int;
#X msg 170 640 label octave:\$1;
#X obj 1280 970 cyclone/gate 2;
#X obj 1210 150 cyclone/gate 2, f 15;
#X obj 1330 820 pack f f;
#X obj 498 317 unpack f f f f;
#X obj 500 220 pack f f f f;
#X obj 1630 150 route semitone octave monophonic filter-repeats;
#X connect 1 0 5 0;
#X connect 2 0 6 0;
#X connect 3 0 86 1;
#X connect 4 0 8 0;
#X connect 4 0 90 0;
#X connect 9 0 76 0;
#X connect 9 1 13 0;
#X connect 11 0 89 0;
#X connect 12 0 11 0;
#X connect 15 0 75 0;
#X connect 15 1 75 1;
#X connect 16 0 87 0;
#X connect 17 0 7 0;
#X connect 18 0 53 0;
#X connect 18 1 41 0;
#X connect 20 0 34 0;
#X connect 21 0 82 0;
#X connect 23 0 11 1;
#X connect 25 0 20 0;
#X connect 28 0 83 0;
#X connect 30 0 89 1;
#X connect 33 0 51 0;
#X connect 34 0 49 0;
#X connect 35 0 49 0;
#X connect 35 1 49 1;
#X connect 38 0 16 0;
#X connect 39 0 87 1;
#X connect 42 0 16 1;
#X connect 45 0 47 0;
#X connect 46 0 48 0;
#X connect 47 0 22 0;
#X connect 48 0 29 0;
#X connect 49 0 18 0;
#X connect 50 0 33 0;
#X connect 51 0 35 0;
#X connect 52 0 17 0;
#X connect 52 1 17 1;
#X connect 54 0 52 0;
#X connect 56 0 89 2;
#X connect 59 0 63 0;
#X connect 60 0 86 0;
#X connect 61 0 53 0;
#X connect 62 0 37 0;
#X connect 62 1 36 0;
#X connect 63 0 64 0;
#X connect 63 1 60 0;
#X connect 66 0 89 3;
#X connect 69 0 73 0;
#X connect 70 0 52 0;
#X connect 70 1 52 1;
#X connect 71 0 70 0;
#X connect 72 0 85 0;
#X connect 73 0 74 0;
#X connect 73 1 72 0;
#X connect 75 1 37 0;
#X connect 75 2 36 0;
#X connect 76 0 77 0;
#X connect 76 1 88 0;
#X connect 77 0 79 0;
#X connect 77 0 78 0;
#X connect 77 1 79 0;
#X connect 77 1 78 0;
#X connect 81 0 22 0;
#X connect 82 0 81 0;
#X connect 83 0 84 0;
#X connect 84 0 29 0;
#X connect 85 0 70 0;
#X connect 85 1 71 0;
#X connect 86 0 62 0;
#X connect 86 1 15 0;
#X connect 87 0 85 1;
#X connect 88 0 24 0;
#X connect 88 1 31 0;
#X connect 88 2 58 0;
#X connect 88 3 67 0;
#X connect 89 0 9 0;
#X connect 90 0 26 0;
#X connect 90 1 32 0;
#X connect 90 2 57 0;
#X connect 90 3 68 0;
#X coords 0 -1 1 1 210 100 2 100 100;
