#N canvas 648 35 769 772 10;
#X obj 100 120 cnv 15 210 160 empty empty empty 7 7 0 14 #fdf6e3 #ffffff
0;
#X obj 890 120 inlet~ left;
#X obj 990 120 inlet~ right;
#X obj 1280 50 inlet note;
#X obj 1600 100 inlet ctl;
#X obj 890 320 outlet~ left;
#X obj 990 320 outlet~ right;
#X obj 1280 1260 outlet note;
#X obj 1600 380 outlet ctl;
#X obj 500 260 savestate, f 11;
#X text 590 260 👈 bangs when parent is saved;
#X obj 500 110 f;
#X obj 500 30 r save-state-\$0;
#X obj 570 290 s save-state-\$0;
#X obj 100 100 cnv 15 210 20 empty empty bop.notefx 7 7 0 14 #d7cbfe
#ffffff 0;
#X obj 1280 180 unpack, f 18;
#X obj 1310 760 + 0, f 6;
#X obj 1280 1220 pack, f 26;
#X obj 1320 560 t b f;
#X obj 110 130 hsl 165 15 -12 12 0 1 from-semitone-\$0 to-semitone-\$0
semitone:0 5 5 0 10 #fcfcfc #000000 #000000 8200 1;
#X obj 1320 440 int;
#X obj 170 510 r from-semitone-\$0;
#X obj 170 540 sprintf label semitone:%d;
#X obj 170 570 s to-semitone-\$0;
#X obj 518 57 r from-semitone-\$0;
#X obj 500 460 s to-semitone-\$0;
#X obj 1320 380 r from-semitone-\$0;
#X obj 1630 350 s to-semitone-\$0;
#X obj 110 150 hsl 165 15 -6 6 0 1 from-octave-\$0 to-octave-\$0 octave:0
5 5 0 10 #fcfcfc #000000 #000000 8200 1;
#X obj 170 600 r from-octave-\$0;
#X obj 170 630 sprintf label octave:%d;
#X obj 170 660 s to-octave-\$0;
#X obj 530 80 r from-octave-\$0;
#X obj 520 440 s to-octave-\$0;
#X obj 1650 320 s to-octave-\$0;
#X obj 1410 440 int;
#X obj 1320 470 change;
#X obj 1410 500 t b f;
#X obj 1340 300 s velocity-in-\$0;
#X obj 1250 300 s pitch-in-\$0;
#X obj 1310 680 r pitch-in-\$0;
#X obj 1360 810 r velocity-in-\$0;
#X text 1370 570 add pitch shifting values;
#X obj 1350 600 s pitch-offset-\$0;
#X obj 1340 730 r pitch-offset-\$0;
#X obj 285 130 bng 15 250 50 0 reset-semitone-\$0 empty empty 17 7
0 10 #fcfcfc #000000 #000000;
#X obj 285 150 bng 15 250 50 0 reset-octave-\$0 empty empty 17 7 0
10 #fcfcfc #000000 #000000;
#X obj 40 510 r reset-semitone-\$0;
#X obj 40 600 r reset-octave-\$0;
#X msg 40 540 0;
#X msg 40 630 0;
#X obj 1320 530 expr $f1 + ($f2 * 12);
#X obj 1410 410 r from-octave-\$0;
#X obj 1410 470 change;
#X obj 1280 1160 cyclone/flush, f 26;
#X obj 1310 630 s flush-\$0;
#X obj 1290 1130 r flush-\$0;
#X obj 110 250 tgl 15 1 from-monophonic-\$0 to-monophonic-\$0 monophonic
17 7 0 10 #fcfcfc #000000 #000000 0 4;
#X obj 540 100 r from-monophonic-\$0;
#X obj 1720 290 s to-monophonic-\$0;
#X obj 540 420 s to-monophonic-\$0;
#X obj 1140 50 r from-monophonic-\$0;
#X obj 1210 120 + 1;
#X obj 1290 590 bng 15 250 50 0 empty empty empty 17 7 0 10 #fcfcfc
#000000 #000000;
#X obj 1210 150 gate 2, f 13;
#X obj 1210 210 unpack;
#X obj 1140 80 t b f, f 12;
#X obj 1140 120 s flush-\$0;
#X obj 110 180 hsl 185 15 0 127 0 1 from-lowest-\$0 to-lowest-\$0 lowest:a_0(0)
5 5 0 10 #fcfcfc #000000 #000000 0 1;
#X obj 110 200 hsl 185 15 0 127 0 1 from-highest-\$0 to-highest-\$0
lowest:d#_0(127) 5 5 0 10 #fcfcfc #000000 #000000 18400 1;
#X obj 350 540 r from-lowest-\$0;
#X obj 350 630 s to-lowest-\$0;
#X obj 520 540 r from-highest-\$0;
#X obj 520 630 s to-highest-\$0;
#X obj 110 220 hsl 185 15 0 6.9 0 1 from-limit-mode-\$0 to-limit-mode-\$0
limit-mode:0(none) 5 5 0 10 #fcfcfc #000000 #000000 0 1;
#X obj 690 600 r from-limit-mode-\$0;
#X obj 690 800 s to-limit-mode-\$0;
#X obj 690 640 int;
#X obj 690 770 sprintf label limit-mode:%i(%s);
#X msg 840 670 clamp wrap mirror chuck squeeze;
#X obj 560 120 r from-lowest-\$0;
#X obj 550 400 s to-lowest-\$0;
#X obj 570 140 r from-highest-\$0;
#X obj 560 380 s to-highest-\$0;
#X obj 580 160 r from-limit-mode-\$0;
#X obj 570 360 s to-limit-mode-\$0;
#X obj 1790 270 s to-lowest-\$0;
#X obj 1850 250 s to-highest-\$0;
#X obj 1920 220 s to-limit-mode-\$0;
#N canvas 376 0 770 772 limit 0;
#X obj 170 70 inlet;
#X obj 220 70 inlet;
#X obj 100 320 outlet;
#X obj 170 100 pack f f;
#X obj 20 80 r from-limit-mode-\$0;
#X obj 100 140 + 1;
#N canvas 760 0 770 787 clamp 0;
#X obj 140 42 inlet;
#X obj 140 310 outlet;
#X obj 190 120 r from-lowest-\$0;
#X obj 190 210 r from-highest-\$0;
#X obj 140 80 unpack, f 34;
#X obj 140 280 pack, f 34;
#X obj 140 170 expr if($i1 >= $i2 \, $i1 \, $i2);
#X obj 140 250 expr if($i1 <= $i2 \, $i1 \, $i2);
#X connect 0 0 4 0;
#X connect 2 0 6 1;
#X connect 3 0 7 1;
#X connect 4 0 6 0;
#X connect 4 1 5 1;
#X connect 5 0 1 0;
#X connect 6 0 7 0;
#X connect 7 0 5 0;
#X restore 120 240 pd clamp;
#N canvas 376 0 770 772 wrap 0;
#X obj 160 92 inlet;
#X obj 160 480 outlet;
#X obj 160 130 unpack, f 40;
#X obj 160 450 pack, f 40;
#X obj 190 220 r from-lowest-\$0;
#X obj 230 240 r from-highest-\$0;
#X obj 160 310 wrap;
#X obj 262 298 r from-lowest-\$0;
#X obj 292 318 r from-highest-\$0;
#X obj 160 270 sub.bop.util.scale 0 1 0 1;
#X obj 160 350 sub.bop.util.scale 0 1 0 1;
#X connect 0 0 2 0;
#X connect 2 0 9 0;
#X connect 2 1 3 1;
#X connect 3 0 1 0;
#X connect 4 0 9 1;
#X connect 5 0 9 2;
#X connect 6 0 10 0;
#X connect 7 0 10 3;
#X connect 8 0 10 4;
#X connect 9 0 6 0;
#X connect 10 0 3 0;
#X restore 180 240 pd wrap;
#N canvas 376 0 770 772 mirror 0;
#X obj 160 20 inlet;
#X obj 160 564 outlet;
#X obj 160 50 unpack, f 58;
#X obj 160 540 pack, f 58;
#X obj 190 80 r from-lowest-\$0;
#X obj 230 100 r from-highest-\$0;
#X obj 160 220 wrap;
#X obj 260 220 r from-lowest-\$0;
#X obj 290 240 r from-highest-\$0;
#X obj 230 130 * 2;
#X obj 290 270 * 2;
#X obj 240 350 r from-highest-\$0;
#X obj 160 380 moses, f 14;
#X obj 270 390 r from-highest-\$0;
#X obj 300 410 r from-highest-\$0;
#X obj 300 440 * 2;
#X obj 360 450 r from-lowest-\$0;
#X obj 330 430 r from-highest-\$0;
#X obj 160 160 sub.bop.util.scale 0 1 0 1;
#X obj 160 300 sub.bop.util.scale 0 1 0 1;
#X obj 240 490 sub.bop.util.scale 0 1 0 1;
#X connect 0 0 2 0;
#X connect 2 0 18 0;
#X connect 2 1 3 1;
#X connect 3 0 1 0;
#X connect 4 0 18 1;
#X connect 5 0 9 0;
#X connect 6 0 19 0;
#X connect 7 0 19 3;
#X connect 8 0 10 0;
#X connect 9 0 18 2;
#X connect 10 0 19 4;
#X connect 11 0 12 1;
#X connect 12 0 3 0;
#X connect 12 1 20 0;
#X connect 13 0 20 1;
#X connect 14 0 15 0;
#X connect 15 0 20 2;
#X connect 16 0 20 4;
#X connect 17 0 20 3;
#X connect 18 0 6 0;
#X connect 19 0 12 0;
#X connect 20 0 3 0;
#X restore 240 240 pd mirror;
#N canvas 536 235 450 301 chuck 0;
#X obj 80 -48 inlet;
#X obj 90 200 outlet;
#X obj 150 20 r from-lowest-\$0;
#X obj 150 80 r from-highest-\$0;
#X obj 80 -10 unpack, f 34;
#X obj 80 140 pack, f 34;
#X obj 50 170 route -1;
#X obj 80 50 expr if($i1 >= $i2 \, $i1 \, -1);
#X obj 80 110 expr if($i1 <= $i2 \, $i1 \, -1);
#X connect 0 0 4 0;
#X connect 2 0 7 1;
#X connect 3 0 8 1;
#X connect 4 0 7 0;
#X connect 4 1 5 1;
#X connect 5 0 6 0;
#X connect 6 1 1 0;
#X connect 7 0 8 0;
#X connect 8 0 5 0;
#X restore 300 240 pd chuck;
#N canvas 376 0 770 772 squeeze 0;
#X obj 100 30 inlet;
#X obj 100 250 outlet;
#X obj 220 100 r from-lowest-\$0;
#X obj 240 130 r from-highest-\$0;
#X obj 100 70 unpack, f 43;
#X obj 100 210 pack, f 43;
#X obj 100 170 sub.bop.util.scale 0 127 0 127;
#X connect 0 0 4 0;
#X connect 2 0 6 3;
#X connect 3 0 6 4;
#X connect 4 0 6 0;
#X connect 4 1 5 1;
#X connect 5 0 1 0;
#X connect 6 0 5 0;
#X restore 360 240 pd squeeze;
#X obj 20 170 s flush-\$0;
#N canvas 0 0 450 300 nudge 0;
#X obj 110 -228 inlet;
#X obj 110 120 outlet;
#X obj 290 -160 r from-lowest-\$0;
#X obj 210 0 r from-highest-\$0;
#X obj 110 -190 unpack, f 88;
#X obj 110 90 pack, f 88;
#X obj 450 -120 r from-lowest-\$0;
#X obj 340 -120 r from-highest-\$0;
#X obj 340 -60 -;
#X obj 452 -93 t b f;
#X obj 110 50 expr if($i1 <= $i2 \, $i1 \, $i1 - $i3);
#X obj 110 -30 expr if($i1 >= $i2 \, $i1 \, $i1 + $i3);
#X floatatom 50 90 5 0 0 0 - - -, f 5;
#X connect 0 0 4 0;
#X connect 2 0 11 1;
#X connect 3 0 10 1;
#X connect 4 0 11 0;
#X connect 4 1 5 1;
#X connect 5 0 1 0;
#X connect 6 0 9 0;
#X connect 7 0 8 0;
#X connect 8 0 10 2;
#X connect 8 0 11 2;
#X connect 9 0 8 0;
#X connect 9 1 8 1;
#X connect 10 0 5 0;
#X connect 10 0 12 0;
#X connect 11 0 10 0;
#X restore 430 240 pd nudge;
#X obj 100 170 gate 7;
#X obj 20 100 t b f;
#X connect 0 0 3 0;
#X connect 1 0 3 1;
#X connect 3 0 13 1;
#X connect 4 0 14 0;
#X connect 5 0 13 0;
#X connect 6 0 2 0;
#X connect 7 0 2 0;
#X connect 8 0 2 0;
#X connect 9 0 2 0;
#X connect 10 0 2 0;
#X connect 12 0 2 0;
#X connect 13 0 2 0;
#X connect 13 1 6 0;
#X connect 13 2 7 0;
#X connect 13 3 8 0;
#X connect 13 4 9 0;
#X connect 13 5 10 0;
#X connect 13 6 12 0;
#X connect 14 0 11 0;
#X connect 14 1 5 0;
#X restore 1310 860 pd limit;
#X obj 700 730 cyclone/zl nth;
#X obj 789 664 + 1;
#X text 1380 860 clamp/wrap etc;
#X obj 200 250 tgl 15 1 from-filter-repeats-\$0 to-filter--repeats-\$0
filter-repeats 17 7 0 10 #fcfcfc #000000 #000000 0 1;
#X obj 498 317 unpack f f f f f f f;
#X obj 500 220 pack f f f f f f f;
#X obj 590 180 r from-filter-repeats-\$0;
#X obj 600 340 s from-filter-repeats-\$0;
#X obj 1630 150 route semitone octave monophonic lowest highest limit-mode
filter-repeats;
#X obj 1940 200 s to-filter-repeats-\$0;
#X obj 1150 840 r from-filter-repeats-\$0;
#X obj 1280 1070 unpack;
#N canvas 376 0 770 772 filter-repeats 0;
#X obj 240 30 inlet;
#X msg 240 80 \$2 \$1 \$2;
#X obj 240 120 route 0;
#X msg 280 160 \$2 \$3;
#X text 330 160 note ons;
#X text 170 160 note offs;
#X obj 240 430 outlet;
#X obj 260 230 unpack;
#X obj 280 190 t l l;
#X obj 290 360 l;
#X obj 260 290 change;
#X obj 260 320 bng 15 250 50 0 empty empty empty 17 7 0 10 #fcfcfc
#000000 #000000;
#X obj 260 260 int;
#X connect 0 0 1 0;
#X connect 1 0 2 0;
#X connect 2 0 6 0;
#X connect 2 1 3 0;
#X connect 3 0 8 0;
#X connect 7 0 12 0;
#X connect 8 0 7 0;
#X connect 8 1 9 1;
#X connect 9 0 6 0;
#X connect 10 0 11 0;
#X connect 11 0 9 0;
#X connect 12 0 10 0;
#X restore 1310 1010 pd filter-repeats;
#X obj 1180 900 + 1;
#X obj 1280 970 gate 2;
#X obj 1150 870 t b f;
#X obj 1150 940 s flush-\$0;
#X msg 700 700 none clamp wrap mirror chuck squeeze nudge;
#X obj 690 670 t f b f;
#X msg 350 600 label lowest:\$1_\$2(\$3);
#N canvas 0 0 450 300 get-note-desc 0;
#N canvas 700 226 451 326 midi2no 0;
#X obj 140 80 / 12;
#X obj 40 80 % 12;
#X obj 40 100 - 1;
#X obj 140 100 - 1;
#X obj 13 26 inlet;
#X obj 13 170 outlet;
#X obj 69 170 outlet;
#X connect 0 0 3 0;
#X connect 1 0 2 0;
#X connect 2 0 5 0;
#X connect 3 0 6 0;
#X connect 4 0 1 0;
#X connect 4 0 0 0;
#X restore 50 130 pd midi2no;
#X obj 60 80 t f f;
#N canvas 0 0 1538 812 itonote 0;
#X obj 80 270 list split;
#X msg 110 300 \$1;
#X obj 40 130 clip 0 11;
#X obj 40 80 i;
#X obj 40 100 change;
#X obj 40 160 t f b f f, f 20;
#X obj 13 26 inlet;
#X obj 110 360 outlet;
#X msg 80 200 a a# b c c# d d# e f f# g g#, f 8;
#X obj 110 330 tosymbol;
#X connect 0 1 1 0;
#X connect 1 0 9 0;
#X connect 2 0 5 0;
#X connect 3 0 4 0;
#X connect 4 0 2 0;
#X connect 5 1 8 0;
#X connect 5 2 0 1;
#X connect 6 0 3 0;
#X connect 8 0 0 0;
#X connect 9 0 7 0;
#X restore 40 200 pd itonote;
#X obj 40 270 pack s f f;
#X obj 168 178 int;
#X obj 106 231 int;
#X obj 13 26 inlet;
#X obj 13 340 outlet;
#X connect 0 0 2 0;
#X connect 0 1 5 0;
#X connect 1 0 0 0;
#X connect 1 1 4 0;
#X connect 2 0 3 0;
#X connect 3 0 7 0;
#X connect 4 0 3 2;
#X connect 5 0 3 1;
#X connect 6 0 1 0;
#X restore 350 570 pd get-note-desc;
#X msg 520 600 label lowest:\$1_\$2(\$3);
#N canvas 0 0 450 300 get-note-desc 0;
#N canvas 700 226 451 326 midi2no 0;
#X obj 140 80 / 12;
#X obj 40 80 % 12;
#X obj 40 100 - 1;
#X obj 140 100 - 1;
#X obj 13 26 inlet;
#X obj 13 170 outlet;
#X obj 69 170 outlet;
#X connect 0 0 3 0;
#X connect 1 0 2 0;
#X connect 2 0 5 0;
#X connect 3 0 6 0;
#X connect 4 0 1 0;
#X connect 4 0 0 0;
#X restore 50 130 pd midi2no;
#X obj 60 80 t f f;
#N canvas 0 0 1538 812 itonote 0;
#X obj 80 270 list split;
#X msg 110 300 \$1;
#X obj 40 130 clip 0 11;
#X obj 40 80 i;
#X obj 40 100 change;
#X obj 40 160 t f b f f, f 20;
#X obj 13 26 inlet;
#X obj 110 360 outlet;
#X msg 80 200 a a# b c c# d d# e f f# g g#, f 8;
#X obj 110 330 tosymbol;
#X connect 0 1 1 0;
#X connect 1 0 9 0;
#X connect 2 0 5 0;
#X connect 3 0 4 0;
#X connect 4 0 2 0;
#X connect 5 1 8 0;
#X connect 5 2 0 1;
#X connect 6 0 3 0;
#X connect 8 0 0 0;
#X connect 9 0 7 0;
#X restore 40 200 pd itonote;
#X obj 40 270 pack s f f;
#X obj 168 178 int;
#X obj 106 231 int;
#X obj 13 26 inlet;
#X obj 13 340 outlet;
#X connect 0 0 2 0;
#X connect 0 1 5 0;
#X connect 1 0 0 0;
#X connect 1 1 4 0;
#X connect 2 0 3 0;
#X connect 3 0 7 0;
#X connect 4 0 3 2;
#X connect 5 0 3 1;
#X connect 6 0 1 0;
#X restore 520 570 pd get-note-desc;
#X obj 1280 210 poly 1, f 19;
#X obj 470 290 t b l;
#X obj 430 320 t b b;
#X obj 360 380 s to-monophonic-\$0;
#X obj 332 352 s from-filter-repeats-\$0;
#X text 1430 1010 This is breaking when toggling monophonic - it is
causing output to stop;
#X connect 1 0 5 0;
#X connect 2 0 6 0;
#X connect 3 0 64 1;
#X connect 4 0 8 0;
#X connect 4 0 98 0;
#X connect 9 0 114 0;
#X connect 9 1 13 0;
#X connect 11 0 95 0;
#X connect 12 0 11 0;
#X connect 15 0 113 0;
#X connect 15 1 113 1;
#X connect 16 0 89 0;
#X connect 17 0 7 0;
#X connect 18 0 55 0;
#X connect 18 1 43 0;
#X connect 20 0 36 0;
#X connect 21 0 22 0;
#X connect 22 0 23 0;
#X connect 24 0 11 1;
#X connect 26 0 20 0;
#X connect 29 0 30 0;
#X connect 30 0 31 0;
#X connect 32 0 95 1;
#X connect 35 0 53 0;
#X connect 36 0 51 0;
#X connect 37 0 51 0;
#X connect 37 1 51 1;
#X connect 40 0 16 0;
#X connect 41 0 89 1;
#X connect 44 0 16 1;
#X connect 47 0 49 0;
#X connect 48 0 50 0;
#X connect 49 0 23 0;
#X connect 50 0 31 0;
#X connect 51 0 18 0;
#X connect 52 0 35 0;
#X connect 53 0 37 0;
#X connect 54 0 17 0;
#X connect 54 1 17 1;
#X connect 56 0 54 0;
#X connect 58 0 95 2;
#X connect 61 0 66 0;
#X connect 62 0 64 0;
#X connect 63 0 55 0;
#X connect 64 0 65 0;
#X connect 64 1 15 0;
#X connect 65 0 39 0;
#X connect 65 1 38 0;
#X connect 66 0 67 0;
#X connect 66 1 62 0;
#X connect 70 0 110 0;
#X connect 72 0 112 0;
#X connect 75 0 77 0;
#X connect 77 0 108 0;
#X connect 78 0 76 0;
#X connect 80 0 95 3;
#X connect 82 0 95 4;
#X connect 84 0 95 5;
#X connect 89 0 104 1;
#X connect 90 0 78 1;
#X connect 91 0 90 1;
#X connect 94 0 25 0;
#X connect 94 1 33 0;
#X connect 94 2 60 0;
#X connect 94 3 81 0;
#X connect 94 4 83 0;
#X connect 94 5 85 0;
#X connect 94 6 97 0;
#X connect 95 0 9 0;
#X connect 96 0 95 6;
#X connect 98 0 27 0;
#X connect 98 1 34 0;
#X connect 98 2 59 0;
#X connect 98 3 86 0;
#X connect 98 4 87 0;
#X connect 98 5 88 0;
#X connect 98 6 99 0;
#X connect 100 0 105 0;
#X connect 101 0 54 0;
#X connect 101 1 54 1;
#X connect 102 0 101 0;
#X connect 103 0 104 0;
#X connect 104 0 101 0;
#X connect 104 1 102 0;
#X connect 105 0 106 0;
#X connect 105 1 103 0;
#X connect 107 0 90 0;
#X connect 108 0 78 0;
#X connect 108 1 107 0;
#X connect 108 2 91 0;
#X connect 109 0 71 0;
#X connect 110 0 109 0;
#X connect 111 0 73 0;
#X connect 112 0 111 0;
#X connect 113 1 39 0;
#X connect 113 2 38 0;
#X connect 114 0 115 0;
#X connect 114 1 94 0;
#X connect 115 0 117 0;
#X connect 115 0 116 0;
#X connect 115 1 117 0;
#X connect 115 1 116 0;
#X coords 0 -1 1 1 210 180 2 100 100;
