#N canvas 376 0 770 772 12;
#X obj 100 120 cnv 15 210 60 empty empty empty 7 7 0 14 #fdf6e3 #ffffff
0;
#X obj 1010 610 *~ 0.5;
#X obj 110 150 hsl 128 15 -1 1 0 1 from-pan-\$0 to-pan-\$0 pan:0 5
5 0 10 #fcfcfc #000000 #000000 6350 1;
#X msg 1300 470 0;
#X obj 110 130 hsl 128 15 0 1 0 1 from-amp-\$0 to-amp-\$0 amp:0.9408
5 5 0 10 #fcfcfc #000000 #000000 11948 1;
#X obj 250 150 bng 15 250 50 0 from-center-\$0 to-center-\$0 center
20 5 0 10 #fcfcfc #000000 #000000;
#X obj 250 130 tgl 15 1 from-mute-\$0 to-mute-\$0 mute 20 5 0 10 #fcfcfc
#000000 #000000 0 1;
#X obj 800 260 *~;
#X obj 820 166 t b f;
#X msg 820 198 1;
#X obj 820 230 -;
#X obj 338 368 t b b;
#X obj 800 610 *~ 0.5;
#X obj 1002 256 *~;
#X obj 1022 162 t b f;
#X msg 1022 194 1;
#X obj 1022 226 -;
#X obj 1000 500 *~;
#X obj 1020 390 clip 0 1;
#X obj 1020 340 * -1;
#X obj 1020 420 - 1;
#X obj 1020 460 abs;
#X obj 800 500 *~;
#X obj 820 380 clip 0 1;
#X obj 820 410 - 1;
#X obj 820 450 abs;
#X msg 1390 470 0.5;
#X obj 840 580 pow 2;
#X obj 439 285 savestate, f 11;
#X text 529 285 👈 bangs when parent is saved;
#X obj 439 205 f;
#X obj 439 245 pack f f f;
#X obj 440 350 unpack f f f;
#X obj 407 322 t b l;
#X obj 800 100 inlet~ left;
#X obj 1000 100 inlet~ right;
#X obj 800 660 outlet~ left;
#X obj 1010 670 outlet~ right;
#X obj 1200 100 inlet note;
#X obj 1300 100 inlet ctrl;
#X obj 439 125 r save-state-\$0;
#X obj 457 152 r from-mute-\$0;
#X obj 477 182 r from-amp-\$0;
#X obj 497 212 r from-pan-\$0;
#X obj 509 315 s save-state-\$0;
#X obj 517 382 s to-pan-\$0;
#X obj 477 412 s to-amp-\$0;
#X obj 437 442 s to-mute-\$0;
#X obj 337 412 s to-mute-\$0;
#X obj 1300 500 s to-pan-\$0;
#X obj 1390 500 s to-amp-\$0;
#X obj 820 134 r from-mute-\$0;
#X obj 820 310 r from-pan-\$0;
#X obj 840 540 r from-amp-\$0;
#X obj 1022 130 r from-mute-\$0;
#X obj 1020 290 r from-pan-\$0;
#X obj 1050 540 r from-amp-\$0;
#X obj 1200 220 outlet note;
#X obj 1050 580 pow 2;
#X obj 1340 280 s to-amp-\$0;
#X obj 1380 250 s to-pan-\$0;
#X obj 1420 220 s to-mute-\$0;
#X obj 1300 320 outlet ctrl;
#X obj 1340 140 route amp pan mute center;
#X obj 1460 190 s to-center-\$0;
#X obj 1300 440 r from-center-\$0;
#X obj 100 100 cnv 15 210 20 empty empty bop.mix 7 7 0 14 #c8e1f7 #ffffff
0;
#X obj 51 240 r from-amp-\$0;
#X obj 51 270 sprintf label amp:%. 4g;
#X obj 51 300 s to-amp-\$0;
#X obj 241 240 r from-pan-\$0;
#X obj 240 270 sprintf label pan:%. 4g;
#X obj 241 300 s to-pan-\$0;
#X connect 1 0 37 0;
#X connect 3 0 49 0;
#X connect 7 0 22 0;
#X connect 8 0 9 0;
#X connect 8 1 10 1;
#X connect 9 0 10 0;
#X connect 10 0 7 1;
#X connect 11 0 48 0;
#X connect 11 1 48 0;
#X connect 12 0 36 0;
#X connect 13 0 17 0;
#X connect 14 0 15 0;
#X connect 14 1 16 1;
#X connect 15 0 16 0;
#X connect 16 0 13 1;
#X connect 17 0 1 0;
#X connect 18 0 20 0;
#X connect 19 0 18 0;
#X connect 20 0 21 0;
#X connect 21 0 17 1;
#X connect 22 0 12 0;
#X connect 23 0 24 0;
#X connect 24 0 25 0;
#X connect 25 0 22 1;
#X connect 26 0 50 0;
#X connect 27 0 12 1;
#X connect 28 0 33 0;
#X connect 28 1 44 0;
#X connect 30 0 31 0;
#X connect 31 0 28 0;
#X connect 32 0 47 0;
#X connect 32 1 46 0;
#X connect 32 2 45 0;
#X connect 33 0 11 0;
#X connect 33 1 32 0;
#X connect 34 0 7 0;
#X connect 35 0 13 0;
#X connect 38 0 57 0;
#X connect 39 0 62 0;
#X connect 39 0 63 0;
#X connect 40 0 30 0;
#X connect 41 0 30 1;
#X connect 42 0 31 1;
#X connect 43 0 31 2;
#X connect 51 0 8 0;
#X connect 52 0 23 0;
#X connect 53 0 27 0;
#X connect 54 0 14 0;
#X connect 55 0 19 0;
#X connect 56 0 58 0;
#X connect 58 0 1 1;
#X connect 63 0 59 0;
#X connect 63 1 60 0;
#X connect 63 2 61 0;
#X connect 63 3 64 0;
#X connect 65 0 3 0;
#X connect 67 0 68 0;
#X connect 68 0 69 0;
#X connect 70 0 71 0;
#X connect 71 0 72 0;
#X coords 0 -1 1 1 210 80 2 100 100;
