#N canvas -8 -8 1538 787 10;
#X obj 100 120 cnv 15 210 150 empty empty empty 7 7 0 14 #fdf6e3 #ffffff
0;
#X obj 770 100 inlet~ left;
#X obj 900 100 inlet~ right;
#X obj 1000 100 inlet note;
#X obj 1100 100 inlet ctl;
#X obj 770 300 outlet~ left;
#X obj 900 300 outlet~ right;
#X obj 1000 300 outlet note;
#X obj 1100 300 outlet ctl;
#X obj 480 280 savestate, f 11;
#X text 570 280 👈 bangs when parent is saved;
#X obj 480 100 f;
#X obj 480 20 r save-state-\$0;
#X obj 550 310 s save-state-\$0;
#X obj 100 100 cnv 15 210 20 empty empty bop.reverb 7 7 0 14 #c8e1f7
#ffffff 0;
#X obj 770 190 freeverb~, f 22;
#X obj 50 620 s to-freeverb-\$0;
#X obj 790 150 r to-freeverb-\$0;
#X obj 110 130 hsl 185 15 0 1.1 0 1 from-room-size-\$0 to-room-size-\$0
room-size:0.6068 5 5 0 10 #fcfcfc #000000 #000000 10150 1;
#X obj 110 150 hsl 185 15 0 1.25 0 1 from-damping-\$0 to-damping-\$0
damping:0.9171 5 5 0 10 #fcfcfc #000000 #000000 13500 1;
#X obj 40 560 r from-room-size-\$0;
#X obj 40 680 s to-room-size-\$0;
#X obj 40 650 sprintf label room-size:%. 4g;
#X obj 498 47 r from-room-size-\$0;
#X obj 480 500 s to-room-size-\$0;
#X obj 260 620 s to-freeverb-\$0;
#X msg 260 590 damping \$1;
#X obj 250 650 sprintf label damping:%. 4g;
#X obj 250 680 s to-damping-\$0;
#X obj 250 560 r from-damping-\$0;
#X obj 518 77 r from-damping-\$0;
#X obj 500 480 s to-damping-\$0;
#X obj 110 200 hsl 185 15 0 1.25 0 1 from-wet-\$0 to-wet-\$0 wet:0.4144
5 5 0 10 #fcfcfc #000000 #000000 6100 1;
#X obj 600 620 s to-freeverb-\$0;
#X obj 590 560 r from-wet-\$0;
#X msg 600 590 wet \$1;
#X obj 590 650 sprintf label wet:%. 4g;
#X obj 590 680 s to-wet-\$0;
#X obj 568 127 r from-wet-\$0;
#X obj 540 430 s to-wet-\$0;
#X obj 110 220 hsl 185 15 0 1 0 1 from-dry-\$0 to-dry-\$0 dry:0.6793
5 5 0 10 #fcfcfc #000000 #000000 12500 1;
#X obj 770 620 s to-freeverb-\$0;
#X obj 760 560 r from-dry-\$0;
#X msg 770 590 dry \$1;
#X obj 760 650 sprintf label dry:%. 4g;
#X obj 760 680 s to-dry-\$0;
#X obj 570 410 s to-dry-\$0;
#X obj 580 150 r from-dry-\$0;
#X obj 110 240 tgl 15 1 from-freeze-\$0 to-freeze-\$0 freeze 20 5 0
10 #fcfcfc #000000 #000000 0 1;
#X obj 240 240 tgl 15 1 from-bypass-\$0 to-bypass-\$0 bypass 20 5 0
10 #fcfcfc #000000 #000000 0 1;
#X obj 932 622 s to-freeverb-\$0;
#X obj 930 560 r from-freeze-\$0;
#X msg 932 592 freeze \$1;
#X obj 590 180 r from-freeze-\$0;
#X obj 600 210 r from-bypass-\$0;
#X obj 590 390 s from-freeze-\$0;
#X obj 610 370 s from-bypass-\$0;
#X obj 1060 620 s to-freeverb-\$0;
#X obj 1058 558 r from-bypass-\$0;
#X msg 1060 590 bypass \$1;
#X obj 1192 302 s to-room-size-\$0;
#X obj 1212 282 s to-damping-\$0;
#X obj 1232 262 s to-wet-\$0;
#X obj 1262 242 s to-dry-\$0;
#X obj 110 170 hsl 185 15 0 2 0 1 from-width-\$0 to-width-\$0 width:1.837
5 5 0 10 #fcfcfc #000000 #000000 16900 1;
#X obj 430 620 s to-freeverb-\$0;
#X obj 420 560 r from-width-\$0;
#X msg 430 590 width \$1;
#X obj 420 650 sprintf label width:%. 4g;
#X obj 420 680 s to-width-\$0;
#X obj 478 337 unpack f f f f f f f;
#X obj 520 455 s to-width-\$0;
#X obj 480 250 pack f f f f f f f;
#X obj 528 102 r from-width-\$0;
#X obj 1130 150 route room-size damping wet dry freeze bypass width
;
#X obj 1350 180 s to-width-\$0;
#X msg 50 590 roomsize \$1;
#X obj 1282 222 s to-freeze-\$0;
#X obj 1302 202 s to-bypass-\$0;
#X connect 1 0 15 0;
#X connect 2 0 15 1;
#X connect 3 0 7 0;
#X connect 4 0 8 0;
#X connect 4 0 74 0;
#X connect 9 0 70 0;
#X connect 9 1 13 0;
#X connect 11 0 72 0;
#X connect 12 0 11 0;
#X connect 15 0 5 0;
#X connect 15 1 6 0;
#X connect 17 0 15 0;
#X connect 20 0 76 0;
#X connect 20 0 22 0;
#X connect 22 0 21 0;
#X connect 23 0 11 1;
#X connect 26 0 25 0;
#X connect 27 0 28 0;
#X connect 29 0 26 0;
#X connect 29 0 27 0;
#X connect 30 0 72 1;
#X connect 34 0 35 0;
#X connect 34 0 36 0;
#X connect 35 0 33 0;
#X connect 36 0 37 0;
#X connect 38 0 72 3;
#X connect 42 0 43 0;
#X connect 42 0 44 0;
#X connect 43 0 41 0;
#X connect 44 0 45 0;
#X connect 47 0 72 4;
#X connect 51 0 52 0;
#X connect 52 0 50 0;
#X connect 53 0 72 5;
#X connect 54 0 72 6;
#X connect 58 0 59 0;
#X connect 59 0 57 0;
#X connect 66 0 67 0;
#X connect 66 0 68 0;
#X connect 67 0 65 0;
#X connect 68 0 69 0;
#X connect 70 0 24 0;
#X connect 70 1 31 0;
#X connect 70 2 71 0;
#X connect 70 3 39 0;
#X connect 70 4 46 0;
#X connect 70 5 55 0;
#X connect 70 6 56 0;
#X connect 72 0 9 0;
#X connect 73 0 72 2;
#X connect 74 0 60 0;
#X connect 74 1 61 0;
#X connect 74 2 62 0;
#X connect 74 3 63 0;
#X connect 74 4 77 0;
#X connect 74 5 78 0;
#X connect 74 6 75 0;
#X connect 76 0 16 0;
#X coords 0 -1 1 1 210 170 2 100 100;
