#N canvas 840 23 840 491 12;
#X obj 100 120 cnv 15 210 90 empty empty empty 7 7 0 14 #fdf6e3 #ffffff
0;
#X obj 110 150 hsl 185 15 0.0098 0.98 0 1 from-amount-\$0 to-amount-\$0
amount:0.136348 5 5 0 10 #fcfcfc #000000 #000000 2400 1;
#X obj 450 270 savestate, f 11;
#X text 540 270 👈 bangs when parent is saved;
#X obj 450 160 f;
#X obj 448 317 t b l;
#X obj 800 100 inlet~ left;
#X obj 1000 100 inlet~ right;
#X obj 800 370 outlet~ left;
#X obj 1020 380 outlet~ right;
#X obj 1200 100 inlet note;
#X obj 1300 100 inlet ctrl;
#X obj 450 80 r save-state-\$0;
#X obj 528 317 s save-state-\$0;
#X obj 1200 220 outlet note;
#X obj 1300 320 outlet ctrl;
#X obj 100 100 cnv 15 210 20 empty empty bop.distortion 7 7 0 14 #c8e1f7
#ffffff 0;
#X obj 460 110 r from-amount-\$0;
#X obj 550 500 s to-amount-\$0;
#X obj 1340 280 s to-amount-\$0;
#X obj 40 420 r from-amount-\$0;
#X obj 40 480 s to-amount-\$0;
#X obj 110 170 hsl 185 15 0.01 1 1 1 from-dry-\$0 to-dry-\$0 dry:0.569423
5 5 0 10 #fcfcfc #000000 #000000 16150 1;
#X obj 39 510 r from-dry-\$0;
#X obj 39 570 s to-dry-\$0;
#X obj 110 190 hsl 185 15 0.01 1 0 1 from-wet-\$0 to-wet-\$0 wet:0.542663
5 5 0 10 #fcfcfc #000000 #000000 9900 1;
#X obj 39 610 r from-wet-\$0;
#X obj 39 670 s to-wet-\$0;
#X obj 570 470 s to-dry-\$0;
#X obj 610 440 s to-wet-\$0;
#X obj 480 140 r from-dry-\$0;
#X obj 510 170 r from-wet-\$0;
#X obj 1380 230 s to-dry-\$0;
#X obj 1420 200 s to-wet-\$0;
#X obj 800 280 sub.bop.distortion.channel \$0;
#X obj 1020 280 sub.bop.distortion.channel \$0;
#X msg 39 450 label amount:\$1;
#X msg 37 552 label dry:\$1;
#X msg 39 640 label wet:\$1;
#X floatatom 230 380 5 0 0 0 - - -, f 5;
#X obj 110 130 hsl 185 15 0 1.9 0 1 from-mode-\$0 to-mode-\$0 mode:1(soft-clip)
5 5 0 10 #fcfcfc #000000 #000000 16600 1;
#X obj 230 350 i;
#X obj 230 460 r from-mode-\$0;
#X obj 230 720 s to-mode-\$0;
#X obj 230 500 int;
#X obj 240 590 cyclone/zl nth;
#X obj 329 524 + 1;
#X obj 230 530 t f b f;
#X obj 230 620 int;
#X obj 270 620 symbol;
#X obj 230 650 pack f s;
#X obj 230 420 s mode-\$0;
#X msg 240 560 crush soft-clip;
#X msg 230 679 label mode:\$1(\$2);
#X obj 450 230 pack f f f f;
#X obj 550 370 unpack f f f f;
#X obj 230 310 r from-mode-\$0;
#X obj 640 410 s to-mode-\$0;
#X obj 530 200 r from-mode-\$0;
#X obj 1340 140 route amount dry wet mode;
#X obj 1460 170 s to-mode-\$0;
#X connect 2 0 5 0;
#X connect 2 1 13 0;
#X connect 4 0 54 0;
#X connect 5 1 55 0;
#X connect 6 0 34 0;
#X connect 7 0 35 0;
#X connect 10 0 14 0;
#X connect 11 0 15 0;
#X connect 11 0 59 0;
#X connect 12 0 4 0;
#X connect 17 0 4 1;
#X connect 20 0 36 0;
#X connect 23 0 37 0;
#X connect 26 0 38 0;
#X connect 30 0 54 1;
#X connect 31 0 54 2;
#X connect 34 0 8 0;
#X connect 35 0 9 0;
#X connect 36 0 21 0;
#X connect 37 0 24 0;
#X connect 38 0 27 0;
#X connect 39 0 51 0;
#X connect 41 0 39 0;
#X connect 42 0 44 0;
#X connect 44 0 47 0;
#X connect 45 0 49 0;
#X connect 46 0 45 1;
#X connect 47 0 48 0;
#X connect 47 1 52 0;
#X connect 47 2 46 0;
#X connect 48 0 50 0;
#X connect 49 0 50 1;
#X connect 50 0 53 0;
#X connect 52 0 45 0;
#X connect 53 0 43 0;
#X connect 54 0 2 0;
#X connect 55 0 18 0;
#X connect 55 1 28 0;
#X connect 55 2 29 0;
#X connect 55 3 57 0;
#X connect 56 0 41 0;
#X connect 58 0 54 3;
#X connect 59 0 19 0;
#X connect 59 1 32 0;
#X connect 59 2 33 0;
#X connect 59 3 60 0;
#X coords 0 -1 1 1 210 110 2 100 100;
