#N canvas 0 0 1522 772 10;
#X obj 100 120 cnv 15 210 70 empty empty empty 7 7 0 14 #fdf6e3 #ffffff
0;
#X obj 800 100 inlet~ left;
#X obj 900 100 inlet~ right;
#X obj 1000 100 inlet note;
#X obj 800 320 outlet~ left;
#X obj 900 320 outlet~ right;
#X obj 1000 320 outlet note;
#X obj 490 170 savestate, f 11;
#X text 580 170 👈 bangs when parent is saved;
#X obj 490 90 f;
#X obj 490 130 pack f f f;
#X obj 488 227 unpack f f f;
#X obj 490 10 r save-state-\$0;
#X obj 560 200 s save-state-\$0;
#X text 100 10 GOP is 210 wide;
#X text 100 30 gui sends and receives are from-{param}-\$0 and to-{param}-\$0
;
#X text 100 70 bang and toggle label is {param} \, x = 20 \, y = 5
\, size = 15;
#X obj 110 170 tgl 15 1 from-reverse-\$0 to-reverse-\$0 reverse 20
5 0 10 #fcfcfc #000000 #000000 1 1;
#X text 100 50 slider label is {param} \, x = 5 \, y = 5;
#X obj 528 67 r from-reverse-\$0;
#X obj 518 287 s to-reverse-\$0;
#X obj 110 130 hsl 185 15 0 1 0 0 from-noteslider-\$0 to-noteslider-\$0
noteslider 5 5 0 10 #fcfcfc #000000 #000000 1533 1;
#N canvas 536 235 450 301 scale-name-maker 0;
#X obj 73 -159 i;
#X obj 73 -129 change;
#X obj 73 17 cyclone/zl nth, f 21;
#X obj 73 -69 t b f, f 21;
#X obj 73 -99 + 1;
#X obj 70 110 cyclone/prepend label;
#X obj 72 -193 inlet;
#X obj 70 160 outlet;
#X msg 70 -40 list major-pentatonic minor-pentatonic blues ionian dorian
phygian lydian mixolydian aeolian locrian lydian-dominant diminished
whole-tone altered;
#X obj 230 110 outlet;
#X connect 0 0 1 0;
#X connect 1 0 4 0;
#X connect 2 0 5 0;
#X connect 2 0 9 0;
#X connect 3 0 8 0;
#X connect 3 1 2 1;
#X connect 4 0 3 0;
#X connect 5 0 7 0;
#X connect 6 0 0 0;
#X connect 8 0 2 0;
#X restore 100 420 pd scale-name-maker;
#X obj 110 150 hsl 100 15 0 13 0 0 from-scale-name-slider-\$0 to-scale-name-slider-\$0
ionian 5 5 0 10 #fcfcfc #000000 #000000 2285 1;
#X floatatom 100 380 5 0 0 0 - - -, f 5;
#X obj 100 320 int;
#X obj 100 350 change;
#X obj 100 260 r from-scale-id-\$0;
#X obj 580 100 r from-scale-id-\$0;
#X obj 1420 240 s to-scale-id-\$0;
#X obj 1520 180 s to-reverse-\$0;
#X obj 670 688 change;
#X obj 670 631 int;
#X text 801 525 < number of notes in scale;
#X text 708 659 < current note, f 10;
#X floatatom 760 529 5 0 0 0 - - -, f 5;
#X obj 820 667 > 0;
#X obj 819 700 * 127;
#X text 860 700 < current velocity;
#X msg 511 818 0 2 4 5 7 9 11 12 14 16 17 19 21 23 24 26 28 29 31 33
35;
#X obj 670 723 t b f, f 13;
#X obj 725 1197 pack, f 5;
#X obj 661 1313 prepend set;
#X msg 660 1388 95;
#X text 689 1384 < store last note to send note off on next note,
f 18;
#X obj 819 1110 prepend set;
#X msg 819 1150 127;
#X obj 725 1235 t l b, f 29;
#X obj 660 1453 pack;
#X obj 660 1424 t f 0;
#X obj 851 788 sel 0;
#X obj 851 757 change;
#X text 899 784 < send note off when under thresh, f 18;
#X obj 851 819 s \$0-noteoff;
#X text 701 1065 < scale offset;
#X obj 727 1262 s \$0-notepairout;
#X obj 659 1482 s \$0-notepairout;
#X obj 1020 280 r \$0-notepairout;
#X obj 725 1353 r \$0-noteoff;
#N canvas 595 175 769 463 scalemaker 0;
#X obj 296 28 inlet;
#X obj 223 695 outlet;
#X msg 335 318 0 2 4 5 7 9 11;
#X obj 366 203 bng 15 250 50 0 empty empty empty 17 7 0 10 #fcfcfc
#000000 #000000;
#X msg 593 546 set;
#X floatatom 427 340 5 0 0 0 - - -, f 5;
#X obj 469 330 + 12;
#X obj 469 354 prepend set;
#X obj 366 260 t b b;
#X obj 410 532 + 0;
#X obj 409 563 prepend add2;
#X msg 427 258 set 0;
#X obj 604 202 bng 15 250 50 0 empty empty empty 17 7 0 10 #fcfcfc
#000000 #000000;
#X obj 365 154 uzi;
#X text 109 319 scale as semi-tone steps >;
#X msg 282 658 0 2 4 5 7 9 11 12 14 16 17 19 21 23 24 26 28 29 31 33
35;
#X obj 296 86 t b i b, f 52;
#N canvas 76 58 496 733 scales 0;
#X obj 65 27 t b s, f 8;
#X obj 65 119 outlet;
#X obj -22 132 outlet;
#N canvas 75 167 1085 398 scales 0;
#X obj 182 59 inlet;
#X obj 812 556 outlet;
#X msg 182 138 0 2 4 7 9;
#X msg 267 138 0 3 5 7 10;
#X msg 352 138 0 3 5 6 7 10;
#X obj 470 138 sel ionian dorian phrygian lydian mixolydian aeolian
locrain, f 61;
#X obj 182 100 sel major-pentatonic minor-pentatonic blues;
#X msg 470 186 0 2 4 5 7 9 11;
#X msg 521 216 0 2 3 5 7 9 10;
#X msg 573 246 0 1 3 5 7 8 10;
#X msg 625 275 0 2 4 6 7 9 11;
#X msg 677 305 0 2 4 5 7 9 10;
#X msg 729 335 0 2 3 5 7 8 10;
#X msg 781 365 0 1 3 5 6 8 10;
#X obj 890 209 sel lydian-dominant diminished whole-tone altered;
#X msg 890 243 0 2 4 6 7 9 10;
#X msg 962 276 0 2 3 5 6 8 9 11;
#X msg 1035 310 0 2 4 6 8 10;
#X msg 1108 339 0 1 3 4 6 8 10;
#X connect 0 0 6 0;
#X connect 2 0 1 0;
#X connect 3 0 1 0;
#X connect 4 0 1 0;
#X connect 5 0 7 0;
#X connect 5 1 8 0;
#X connect 5 2 9 0;
#X connect 5 3 10 0;
#X connect 5 4 11 0;
#X connect 5 5 12 0;
#X connect 5 6 13 0;
#X connect 5 7 14 0;
#X connect 6 0 2 0;
#X connect 6 1 3 0;
#X connect 6 2 4 0;
#X connect 6 3 5 0;
#X connect 7 0 1 0;
#X connect 8 0 1 0;
#X connect 9 0 1 0;
#X connect 10 0 1 0;
#X connect 11 0 1 0;
#X connect 12 0 1 0;
#X connect 13 0 1 0;
#X connect 14 0 15 0;
#X connect 14 1 16 0;
#X connect 14 2 17 0;
#X connect 14 3 18 0;
#X connect 15 0 1 0;
#X connect 16 0 1 0;
#X connect 17 0 1 0;
#X connect 18 0 1 0;
#X restore -22 93 pd scales;
#X text -82 -54 comment;
#X obj 65 -5 r \$0scalename;
#X connect 0 0 1 0;
#X connect 0 1 3 0;
#X connect 3 0 2 0;
#X connect 5 0 0 0;
#X restore 129 28 pd scales;
#X floatatom 296 60 5 0 0 0 - - -, f 5;
#X obj 129 62 prepend set, f 12;
#X obj 340 457 cyclone/zl iter 1;
#X obj 365 119 t b f;
#X connect 0 0 18 0;
#X connect 2 0 20 0;
#X connect 3 0 8 0;
#X connect 4 0 15 0;
#X connect 5 0 6 0;
#X connect 5 0 9 1;
#X connect 6 0 7 0;
#X connect 7 0 5 0;
#X connect 8 0 2 0;
#X connect 8 1 5 0;
#X connect 9 0 10 0;
#X connect 10 0 15 0;
#X connect 11 0 5 0;
#X connect 12 0 4 0;
#X connect 12 0 11 0;
#X connect 13 0 3 0;
#X connect 15 0 1 0;
#X connect 16 0 15 0;
#X connect 16 1 21 0;
#X connect 16 2 12 0;
#X connect 17 0 19 0;
#X connect 17 1 18 0;
#X connect 18 0 16 0;
#X connect 19 0 2 0;
#X connect 20 0 9 0;
#X connect 21 0 13 0;
#X connect 21 1 13 1;
#X restore 513 647 pd scalemaker;
#X obj 531 758 prepend set;
#X obj 551 708 zl len;
#X obj 551 732 s \$0-numnotes;
#X obj 759 497 r \$0-numnotes;
#X text 343 814 scale as semi-tone steps >;
#X obj 260 460 s \$0scalename;
#X floatatom 513 596 5 0 0 0 - - -, f 5;
#X msg 376 948 mode reg;
#X msg 436 948 mode rev;
#X obj 376 907 sel 0 1;
#X obj 349 883 t b f;
#X obj 669 563 maxlib/scale 0 1 0 5;
#X obj 663 1037 cyclone/zl nth;
#X obj 511 998 cyclone/zl;
#X obj 664 1092 t f f b, f 21;
#X obj 670 591 t f f;
#X text 350 460 👈 sends to [pd scalemaker];
#X obj 591 908 s \$0-scalelist;
#X obj 1090 130 r \$0-scalelist;
#X obj 250 590 s \$0-getscale;
#X obj 250 560 bng 15 250 50 0 empty empty empty 17 7 0 10 #fcfcfc
#000000 #000000;
#X obj 611 778 r \$0-getscale;
#X obj 513 675 t b l l;
#X obj 150 290 r from-scale-name-slider-\$0;
#X obj 100 460 s to-scale-name-slider-\$0;
#X obj 1300 270 s to-noteslider-\$0;
#X obj 670 460 r from-noteslider-\$0;
#X obj 1090 190 cyclone/prepend scale-list;
#X obj 349 1010 s to-number-of-octaves-\$0;
#X obj 350 850 r from-reverse-\$0;
#X obj 560 260 s to-scale-id-\$0;
#X obj 400 420 s to-scale-id-\$0;
#X obj 230 420 s to-scale-name-slider-\$0;
#X obj 250 500 r from-scale-id-\$0;
#X obj 1270 100 inlet ctrl;
#X obj 1270 300 outlet ctrl;
#X obj 250 530 change;
#X obj 303 556 print;
#X text 580 860 TODO: this is causing double outputs due to the scale-name-slider
and scale-id;
#X obj 664 1065 + 60;
#X obj 508 37 r from-octaves-\$0;
#X obj 488 317 s to-octaves-\$0;
#X obj 1490 210 s to-octaves-\$0;
#X obj 1300 140 route f noteslider scale-id octaves reverse;
#X obj 510 560 r from-octaves-\$0;
#X obj 100 100 cnv 15 210 20 empty empty bop.noteslider 7 7 0 14 #d7cbfe
#ffffff 0;
#X obj 220 150 nbx 2 15 0 13 0 1 from-scale-id-\$0 to-scale-id-\$0
scale-id 30 5 0 10 #fcfcfc #000000 #000000 3 256 0;
#X obj 220 170 nbx 2 15 1 6 0 1 from-octaves-\$0 to-octaves-\$0 octaves
30 5 0 10 #fcfcfc #000000 #000000 3 256 0;
#X connect 1 0 4 0;
#X connect 2 0 5 0;
#X connect 3 0 6 0;
#X connect 7 0 11 0;
#X connect 7 1 13 0;
#X connect 9 0 10 0;
#X connect 10 0 7 0;
#X connect 11 0 101 0;
#X connect 11 1 20 0;
#X connect 11 2 90 0;
#X connect 12 0 9 0;
#X connect 19 0 10 1;
#X connect 22 0 84 0;
#X connect 22 1 65 0;
#X connect 24 0 22 0;
#X connect 24 0 92 0;
#X connect 24 0 91 0;
#X connect 25 0 26 0;
#X connect 26 0 24 0;
#X connect 27 0 25 0;
#X connect 28 0 10 2;
#X connect 31 0 40 0;
#X connect 32 0 31 0;
#X connect 35 0 71 4;
#X connect 36 0 37 0;
#X connect 37 0 45 0;
#X connect 37 0 51 0;
#X connect 39 0 73 0;
#X connect 39 0 77 0;
#X connect 40 0 39 0;
#X connect 40 1 72 1;
#X connect 41 0 47 0;
#X connect 42 0 43 0;
#X connect 43 0 49 0;
#X connect 45 0 46 0;
#X connect 46 0 41 1;
#X connect 47 0 55 0;
#X connect 47 1 43 0;
#X connect 48 0 56 0;
#X connect 49 0 48 0;
#X connect 49 1 48 1;
#X connect 50 0 53 0;
#X connect 51 0 50 0;
#X connect 57 0 6 0;
#X connect 58 0 43 0;
#X connect 59 0 82 0;
#X connect 60 0 39 0;
#X connect 61 0 62 0;
#X connect 63 0 35 0;
#X connect 66 0 59 0;
#X connect 67 0 73 0;
#X connect 68 0 73 0;
#X connect 69 0 67 0;
#X connect 69 1 68 0;
#X connect 70 0 88 0;
#X connect 70 1 69 0;
#X connect 71 0 75 0;
#X connect 72 0 99 0;
#X connect 73 0 72 0;
#X connect 74 0 42 0;
#X connect 74 1 41 0;
#X connect 74 2 46 0;
#X connect 75 0 32 0;
#X connect 75 1 36 0;
#X connect 78 0 87 0;
#X connect 80 0 79 0;
#X connect 81 0 39 0;
#X connect 82 0 39 0;
#X connect 82 1 60 0;
#X connect 82 2 61 0;
#X connect 83 0 25 0;
#X connect 86 0 71 0;
#X connect 87 0 95 0;
#X connect 89 0 70 0;
#X connect 93 0 96 0;
#X connect 94 0 95 0;
#X connect 94 0 103 0;
#X connect 96 0 80 0;
#X connect 96 0 97 0;
#X connect 99 0 74 0;
#X connect 100 0 9 1;
#X connect 103 0 85 0;
#X connect 103 1 85 0;
#X connect 103 2 29 0;
#X connect 103 3 102 0;
#X connect 103 4 30 0;
#X connect 104 0 66 0;
#X coords 0 -1 1 1 210 90 2 100 100;
