#N canvas 414 23 635 1005 10;
#X obj 100 120 cnv 15 210 20 empty empty empty 7 7 0 14 #94c4ec #fcfcfc
0;
#X obj 700 100 inlet~ left;
#X obj 900 100 inlet~ right;
#X obj 1010 100 inlet note;
#X obj 1200 100 inlet ctl;
#X obj 700 250 outlet~ left;
#X obj 900 250 outlet~ right;
#X obj 1030 150 outlet note;
#X obj 1200 200 outlet ctl;
#X obj 1070 490 pack 0 0 0;
#X obj 1070 520 route 1 2 3 4, f 69;
#X obj 1070 660 *~ 0.5;
#X obj 1070 570 unpack;
#X obj 1070 600 mtof;
#X obj 1190 660 *~ 0.5;
#X obj 1190 570 unpack;
#X obj 1190 600 mtof;
#X obj 1310 660 *~ 0.5;
#X obj 1310 570 unpack;
#X obj 1310 600 mtof;
#X obj 1430 660 *~ 0.5;
#X obj 1430 570 unpack;
#X obj 1430 600 mtof;
#X obj 780 100 catch~ marimba-\$0;
#X obj 1070 700 throw~ marimba-\$0;
#X obj 1190 700 throw~ marimba-\$0;
#X obj 1310 700 throw~ marimba-\$0;
#X obj 1430 700 throw~ marimba-\$0;
#X obj 780 130 hip~ 5;
#X obj 780 160 clip~ -1 1;
#X obj 700 220 +~;
#X obj 900 210 +~;
#X obj 1070 450 poly 4 1;
#X obj 1000 390 sel 0;
#X obj 1070 420 cyclone/flush;
#X obj 110 130 tgl 15 1 from-pedal-\$0 to-pedal-\$0 pedal 20 5 0 10
#fcfcfc #000000 #000000 0 1;
#X obj 400 230 savestate, f 11;
#X text 490 230 👈 bangs when parent is saved;
#X obj 400 150 f;
#X obj 460 260 s save-state-\$0;
#X obj 400 190 pack f;
#X obj 400 290 unpack f;
#X obj 400 100 r save-state-\$0;
#N canvas 782 406 450 300 sustain 0;
#X obj 170 180 stripnote;
#X obj 170 200 pack;
#X obj 190 40 inlet;
#X obj 140 40 inlet;
#X obj 140 240 outlet;
#X obj 140 120 list trim;
#X obj 140 150 route 0 1;
#X obj 140 80 list prepend 0;
#X connect 0 0 1 0;
#X connect 0 1 1 1;
#X connect 1 0 4 0;
#X connect 2 0 7 1;
#X connect 3 0 7 0;
#X connect 5 0 6 0;
#X connect 6 0 4 0;
#X connect 6 1 0 0;
#X connect 7 0 5 0;
#X restore 1070 290 pd sustain;
#X obj 410 120 r from-pedal-\$0;
#X obj 1130 250 r from-pedal-\$0;
#X obj 1220 140 route pedal;
#X obj 1220 170 s to-pedal-\$0;
#X obj 1070 630 sub.bop.marimba~;
#X obj 1190 630 sub.bop.marimba~;
#X obj 1310 630 sub.bop.marimba~;
#X obj 1430 630 sub.bop.marimba~;
#X obj 1010 240 route time;
#X obj 1000 270 s time-\$0;
#X obj 1000 330 r time-\$0;
#X obj 1000 355 route play;
#X obj 400 330 s to-pedal-\$0;
#X msg 900 390 stop;
#X obj 900 360 sel 0;
#X obj 900 330 r from-pedal-\$0;
#X connect 1 0 30 0;
#X connect 2 0 31 1;
#X connect 3 0 7 0;
#X connect 3 0 52 0;
#X connect 4 0 8 0;
#X connect 4 0 46 0;
#X connect 9 0 10 0;
#X connect 10 0 12 0;
#X connect 10 1 15 0;
#X connect 10 2 18 0;
#X connect 10 3 21 0;
#X connect 11 0 24 0;
#X connect 12 0 13 0;
#X connect 12 1 48 1;
#X connect 13 0 48 0;
#X connect 14 0 25 0;
#X connect 15 0 16 0;
#X connect 15 1 49 1;
#X connect 16 0 49 0;
#X connect 17 0 26 0;
#X connect 18 0 19 0;
#X connect 18 1 50 1;
#X connect 19 0 50 0;
#X connect 20 0 27 0;
#X connect 21 0 22 0;
#X connect 21 1 51 1;
#X connect 22 0 51 0;
#X connect 23 0 28 0;
#X connect 28 0 29 0;
#X connect 29 0 31 0;
#X connect 29 0 30 1;
#X connect 30 0 5 0;
#X connect 31 0 6 0;
#X connect 32 0 9 0;
#X connect 32 1 9 1;
#X connect 32 2 9 2;
#X connect 33 0 34 0;
#X connect 34 0 32 0;
#X connect 34 1 32 1;
#X connect 36 0 41 0;
#X connect 36 1 39 0;
#X connect 38 0 40 0;
#X connect 40 0 36 0;
#X connect 41 0 56 0;
#X connect 42 0 38 0;
#X connect 43 0 34 0;
#X connect 44 0 38 1;
#X connect 45 0 43 1;
#X connect 46 0 47 0;
#X connect 48 0 11 0;
#X connect 49 0 14 0;
#X connect 50 0 17 0;
#X connect 51 0 20 0;
#X connect 52 0 53 0;
#X connect 52 1 43 0;
#X connect 54 0 55 0;
#X connect 55 0 33 0;
#X connect 55 0 58 0;
#X connect 57 0 32 0;
#X connect 58 0 57 0;
#X connect 59 0 58 0;
#X coords 0 -1 1 1 210 60 1 100 100;
