#N canvas 189 92 768 778 10;
#X obj 670 100 inlet~ left;
#X obj 900 100 inlet~ right;
#X obj 1000 100 inlet note;
#X obj 1100 100 inlet ctl;
#X obj 670 220 outlet~ left;
#X obj 900 220 outlet~ right;
#X obj 1100 200 outlet ctl;
#X obj 400 260 savestate, f 11;
#X text 490 260 👈 bangs when parent is saved;
#X obj 400 180 f;
#X obj 460 290 s save-state-\$0;
#X obj 1000 480 pack 0 0 0, f 13;
#X obj 1000 510 route 1 2 3 4, f 55;
#X obj 1000 650 *~ 0.5;
#X obj 1000 560 unpack;
#X obj 1000 590 mtof;
#X obj 1000 690 throw~ harp-\$0;
#X obj 780 100 catch~ harp-\$0;
#X obj 1100 650 *~ 0.5;
#X obj 1100 560 unpack;
#X obj 1100 590 mtof;
#X obj 1100 690 throw~ harp-\$0;
#X obj 1200 650 *~ 0.5;
#X obj 1200 560 unpack;
#X obj 1200 590 mtof;
#X obj 1200 690 throw~ harp-\$0;
#X obj 1300 650 *~ 0.5;
#X obj 1300 560 unpack;
#X obj 1300 590 mtof;
#X obj 1300 690 throw~ harp-\$0;
#X obj 400 220 pack f;
#X obj 400 290 unpack f;
#X obj 780 120 hip~ 5;
#X obj 780 145 clip~ -1 1;
#X obj 100 120 cnv 15 210 20 empty empty empty 7 7 0 14 #94c4ec #fcfcfc
0;
#X obj 1000 440 poly 4 1, f 13;
#X obj 1000 400 cyclone/flush;
#X obj 110 130 tgl 15 1 from-pedal-\$0 to-pedal-\$0 pedal 20 5 0 10
#fcfcfc #000000 #000000 0 1;
#X obj 400 130 r save-state-\$0;
#N canvas 0 22 450 300 sustain 0;
#X obj 50 170 stripnote;
#X obj 50 190 pack;
#X obj 100 80 + 1;
#X obj 100 30 inlet;
#X obj 50 30 inlet;
#X obj 10 250 outlet;
#X obj 10 130 cyclone/gate 2;
#X connect 0 0 1 0;
#X connect 0 1 1 1;
#X connect 1 0 5 0;
#X connect 2 0 6 0;
#X connect 3 0 2 0;
#X connect 4 0 6 1;
#X connect 6 0 5 0;
#X connect 6 1 0 0;
#X restore 1000 300 pd sustain;
#X obj 410 150 r from-pedal-\$0;
#X obj 400 330 s to-pedal-\$0;
#X obj 1020 260 r from-pedal-\$0;
#X obj 1130 140 route pedal;
#X obj 1130 170 s to-pedal-\$0;
#X obj 1000 620 sub.bop.harp~;
#X obj 1100 620 sub.bop.harp~;
#X obj 1200 620 sub.bop.harp~;
#X obj 1300 620 sub.bop.harp~;
#X obj 1010 130 outlet note;
#X obj 980 170 route time;
#X obj 983 203 s time-\$0;
#X obj 910 380 sel 0;
#X obj 910 320 r time-\$0;
#X obj 910 345 route play;
#X msg 790 380 stop;
#X obj 790 350 sel 0;
#X obj 790 320 r from-pedal-\$0;
#X connect 0 0 4 0;
#X connect 1 0 5 0;
#X connect 2 0 50 0;
#X connect 2 0 49 0;
#X connect 3 0 6 0;
#X connect 3 0 43 0;
#X connect 7 0 31 0;
#X connect 7 1 10 0;
#X connect 9 0 30 0;
#X connect 11 0 12 0;
#X connect 12 0 14 0;
#X connect 12 1 19 0;
#X connect 12 2 23 0;
#X connect 12 3 27 0;
#X connect 13 0 16 0;
#X connect 14 0 15 0;
#X connect 14 1 45 1;
#X connect 15 0 45 0;
#X connect 17 0 32 0;
#X connect 18 0 21 0;
#X connect 19 0 20 0;
#X connect 19 1 46 1;
#X connect 20 0 46 0;
#X connect 22 0 25 0;
#X connect 23 0 24 0;
#X connect 23 1 47 1;
#X connect 24 0 47 0;
#X connect 26 0 29 0;
#X connect 27 0 28 0;
#X connect 27 1 48 1;
#X connect 28 0 48 0;
#X connect 30 0 7 0;
#X connect 31 0 41 0;
#X connect 32 0 33 0;
#X connect 33 0 4 0;
#X connect 33 0 5 0;
#X connect 35 0 11 0;
#X connect 35 1 11 1;
#X connect 35 2 11 2;
#X connect 36 0 35 0;
#X connect 36 1 35 1;
#X connect 38 0 9 0;
#X connect 39 0 36 0;
#X connect 40 0 9 1;
#X connect 42 0 39 1;
#X connect 43 0 44 0;
#X connect 45 0 13 0;
#X connect 46 0 18 0;
#X connect 47 0 22 0;
#X connect 48 0 26 0;
#X connect 50 0 51 0;
#X connect 50 1 39 0;
#X connect 52 0 36 0;
#X connect 53 0 54 0;
#X connect 54 0 52 0;
#X connect 54 0 56 0;
#X connect 55 0 35 0;
#X connect 56 0 55 0;
#X connect 57 0 56 0;
#X coords 0 -1 1 1 210 60 1 100 100;
