#N canvas 0 0 1522 772 10;
#X declare -path ./subpatches/utils;
#X declare -path ./subpatches/synth;
#X obj 100 120 cnv 15 210 280 empty empty empty 7 7 0 14 #fdf6e3 #ffffff
0;
#X obj 640 100 inlet~ left;
#X obj 900 100 inlet~ right;
#X obj 1000 100 inlet note;
#X obj 1130 100 inlet ctl;
#X obj 640 200 outlet~ left;
#X obj 900 200 outlet~ right;
#X obj 1010 160 outlet note;
#X obj 1130 270 outlet ctl;
#X obj 400 350 savestate, f 11;
#X text 490 350 👈 bangs when parent is saved;
#X obj 400 0 r save-state-\$0;
#X obj 460 380 s save-state-\$0;
#X obj 1000 460 pack 0 0 0;
#X obj 1000 590 route 1 2 3 4, f 132;
#X obj 730 130 hip~ 5;
#X obj 730 155 clip~ -1 1;
#X obj 100 100 cnv 15 210 20 empty empty bop.synth 7 7 0 14 #97c5ee
#ffffff 0;
#X text 2130 1110 comment;
#X obj 110 240 hsl 185 15 0.01 1 1 1 from-sine-\$0 to-sine-\$0 sine:0.01
5 5 0 10 #fcfcfc #000000 #000000 0 1;
#X obj 410 380 t b l;
#X obj 400 50 f;
#X obj 610 870 s to-filter-\$0;
#X obj 610 800 r from-filter-\$0;
#X obj 610 830 sprintf label filter:%f, f 13;
#X obj 750 800 r from-attack-\$0;
#X obj 860 800 r from-peak-\$0;
#X obj 960 800 r from-decay-\$0;
#X obj 1070 800 r from-sustain-\$0;
#X obj 1190 800 r from-release-\$0;
#X obj 1300 800 r from-curve-\$0;
#X obj 1300 870 s to-curve-\$0;
#X obj 1190 870 s to-release-\$0;
#X obj 1070 870 s to-sustain-\$0;
#X obj 960 870 s to-decay-\$0;
#X obj 860 870 s to-peak-\$0;
#X obj 750 870 s to-attack-\$0;
#X obj 1420 310 s to-curve-\$0;
#X obj 1360 330 s to-release-\$0;
#X obj 1310 350 s to-sustain-\$0;
#X obj 1280 370 s to-decay-\$0;
#X obj 1250 390 s to-peak-\$0;
#X obj 1230 410 s to-attack-\$0;
#X obj 530 590 s to-curve-\$0;
#X obj 510 610 s to-release-\$0;
#X obj 490 630 s to-sustain-\$0;
#X obj 480 650 s to-decay-\$0;
#X obj 460 670 s to-peak-\$0;
#X obj 440 690 s to-attack-\$0;
#X obj 420 20 r from-attack-\$0;
#X obj 430 40 r from-peak-\$0;
#X obj 440 60 r from-decay-\$0;
#X obj 450 80 r from-sustain-\$0;
#X obj 460 100 r from-release-\$0;
#X obj 480 120 r from-curve-\$0;
#X obj 110 270 hsl 185 15 0.01 1 1 1 from-attack-\$0 to-attack-\$0
attack:0.067846 5 5 0 10 #fcfcfc #000000 #000000 7650 1;
#X obj 110 290 hsl 185 15 0 1 0 1 from-peak-\$0 to-peak-\$0 peak:0.000000
5 5 0 10 #fcfcfc #000000 #000000 0 1;
#X obj 110 310 hsl 185 15 0 1 0 1 from-decay-\$0 to-decay-\$0 decay:0.000000
5 5 0 10 #fcfcfc #000000 #000000 0 1;
#X obj 110 330 hsl 185 15 0 1 0 1 from-sustain-\$0 to-sustain-\$0 sustain:0.000000
5 5 0 10 #fcfcfc #000000 #000000 0 1;
#X obj 110 350 hsl 185 15 0 1 0 1 from-release-\$0 to-release-\$0 release:0.000000
5 5 0 10 #fcfcfc #000000 #000000 0 1;
#X obj 110 370 hsl 185 15 0 1 0 0 from-curve-\$0 to-curve-\$0 curve:0.000000
5 5 0 10 #fcfcfc #000000 #000000 0 1;
#X obj 750 830 sprintf label attack:%f, f 13;
#X obj 860 830 sprintf label peak:%f, f 13;
#X obj 960 825 sprintf label decay:%f, f 13;
#X obj 1070 825 sprintf label sustain:%f, f 13;
#X obj 1190 825 sprintf label release:%f, f 13;
#X obj 1300 825 sprintf label curve:%f, f 13;
#X msg 1000 500 \$1 \$1 \$2 \$3;
#X obj 110 150 hsl 185 15 0 1 0 1 from-spread-\$0 to-spread-\$0 spread:0.000000
5 5 0 10 #fcfcfc #000000 #000000 0 1;
#X obj 1410 800 r from-spread-\$0;
#X obj 1410 870 s to-spread-\$0;
#X obj 1410 825 sprintf label spread:%f, f 13;
#X obj 550 570 s to-spread-\$0;
#X obj 500 140 r from-spread-\$0;
#X obj 1470 290 s to-spread-\$0;
#X obj 730 60 catch~ instrument-left-\$0;
#X obj 800 80 catch~ instrument-right-\$0;
#X obj 800 130 hip~ 5;
#X obj 800 155 clip~ -1 1;
#X obj 1000 740 throw~ instrument-left-\$0;
#X obj 1010 710 throw~ instrument-right-\$0;
#X obj 90 20 declare -path ./subpatches/utils;
#X obj 1000 680 bop.utils.spread -1;
#X obj 1200 740 throw~ instrument-left-\$0;
#X obj 1210 710 throw~ instrument-right-\$0;
#X obj 1200 680 bop.utils.spread -0.5;
#X obj 1400 740 throw~ instrument-left-\$0;
#X obj 1410 710 throw~ instrument-right-\$0;
#X obj 1590 740 throw~ instrument-left-\$0;
#X obj 1600 710 throw~ instrument-right-\$0;
#X obj 1400 680 bop.utils.spread 0.5;
#X obj 1590 680 bop.utils.spread 1;
#X obj 1010 650 r from-spread-\$0;
#X obj 1210 650 r from-spread-\$0;
#X obj 1415 653 r from-spread-\$0;
#X obj 1601 651 r from-spread-\$0;
#X obj 1000 420 poly 4 1, f 10;
#X obj 1010 340 r bop-play;
#X obj 1010 360 sel 0;
#X obj 1000 390 cyclone/flush;
#X obj 110 130 tgl 15 1 from-pedal-\$0 to-pedal-\$0 pedal 20 5 0 10
#fcfcfc #000000 #000000 0 1;
#N canvas 0 0 450 300 sustain 0;
#X obj 50 170 stripnote;
#X obj 50 190 pack;
#X obj 100 80 + 1;
#X obj 10 130 gate 2, f 7;
#X obj 100 30 inlet;
#X obj 50 30 inlet;
#X obj 10 250 outlet;
#X connect 0 0 1 0;
#X connect 0 1 1 1;
#X connect 1 0 6 0;
#X connect 2 0 3 0;
#X connect 3 0 6 0;
#X connect 3 1 0 0;
#X connect 4 0 2 0;
#X connect 5 0 3 1;
#X restore 1000 250 pd sustain;
#X obj 510 160 r from-pedal-\$0;
#X obj 560 550 s to-pedal-\$0;
#X obj 1020 210 r from-pedal-\$0;
#X obj 1500 270 s to-pedal-\$0;
#X obj 1000 620 bop.polysynth.voice \$0;
#X obj 1200 620 bop.polysynth.voice \$0;
#X obj 1400 620 bop.polysynth.voice \$0;
#X obj 1590 620 bop.polysynth.voice \$0;
#X obj 500 860 s to-sine-\$0;
#X obj 500 800 r from-sine-\$0;
#X obj 160 800 r from-saw-\$0;
#X obj 160 860 s to-saw-\$0;
#X obj 250 800 r from-square-\$0;
#X obj 250 860 s to-square-\$0;
#X obj 370 800 r from-triangle-\$0;
#X obj 370 860 s to-triangle-\$0;
#X obj 610 460 s to-sine-\$0;
#X obj 570 240 r from-sine-\$0;
#X obj 520 180 r from-saw-\$0;
#X obj 570 520 s to-saw-\$0;
#X obj 530 200 r from-square-\$0;
#X obj 580 500 s to-square-\$0;
#X obj 550 220 r from-triangle-\$0;
#X obj 590 480 s to-triangle-\$0;
#X obj 110 180 hsl 185 15 0.01 1 1 1 from-saw-\$0 to-saw-\$0 saw:0.860563
5 5 0 10 #fcfcfc #000000 #000000 17800 1;
#X obj 110 200 hsl 185 15 0.01 1 1 1 from-square-\$0 to-square-\$0
square:0.279031 5 5 0 10 #fcfcfc #000000 #000000 13300 1;
#X obj 110 220 hsl 185 15 0.01 1 1 1 from-triangle-\$0 to-triangle-\$0
triangle:0.2284 5 5 0 10 #fcfcfc #000000 #000000 12500 1;
#X msg 250 830 label square:\$1;
#X msg 160 830 label saw:\$1;
#X msg 370 830 label triangle:\$1;
#X msg 500 830 label sine:\$1;
#X obj 1650 260 route saw square triangle sine;
#X obj 1780 300 s to-sine-\$0;
#X obj 1650 360 s to-saw-\$0;
#X obj 1700 340 s to-square-\$0;
#X obj 1740 320 s to-triangle-\$0;
#X obj 90 50 declare -path ./subpatches/synth;
#X obj 1240 200 route attack peak decay sustain release curve spread
pedal mono, f 62;
#X obj 1540 250 s to-mono-\$0;
#X obj 440 410 unpack f f f f f f f f f f f f f;
#X obj 400 310 pack f f f f f f f f f f f f f;
#X obj 620 440 s to-mono-\$0;
#X obj 580 260 r from-mono-\$0;
#X obj 170 130 tgl 15 1 from-mono-\$0 to-mono-\$0 mono 20 5 0 10 #fcfcfc
#000000 #000000 0 1;
#X obj 820 240 r from-mono-\$0;
#X obj 1100 420 poly 1 1;
#X obj 1000 310 gate 2, f 17;
#X obj 820 270 + 1;
#X obj 823 301 t f b;
#X connect 1 0 5 0;
#X connect 2 0 6 0;
#X connect 3 0 7 0;
#X connect 3 0 101 0;
#X connect 4 0 8 0;
#X connect 4 0 139 0;
#X connect 9 0 20 0;
#X connect 9 1 12 0;
#X connect 11 0 21 0;
#X connect 13 0 67 0;
#X connect 14 0 106 0;
#X connect 14 1 107 0;
#X connect 14 2 108 0;
#X connect 14 3 109 0;
#X connect 15 0 16 0;
#X connect 16 0 5 0;
#X connect 20 1 141 0;
#X connect 21 0 142 0;
#X connect 23 0 24 0;
#X connect 24 0 22 0;
#X connect 25 0 61 0;
#X connect 26 0 62 0;
#X connect 27 0 63 0;
#X connect 28 0 64 0;
#X connect 29 0 65 0;
#X connect 30 0 66 0;
#X connect 49 0 21 1;
#X connect 50 0 142 1;
#X connect 51 0 142 2;
#X connect 52 0 142 3;
#X connect 53 0 142 4;
#X connect 54 0 142 5;
#X connect 61 0 36 0;
#X connect 62 0 35 0;
#X connect 63 0 34 0;
#X connect 64 0 33 0;
#X connect 65 0 32 0;
#X connect 66 0 31 0;
#X connect 67 0 14 0;
#X connect 69 0 71 0;
#X connect 71 0 70 0;
#X connect 73 0 142 6;
#X connect 75 0 15 0;
#X connect 76 0 77 0;
#X connect 77 0 78 0;
#X connect 78 0 6 0;
#X connect 82 0 79 0;
#X connect 82 1 80 0;
#X connect 85 0 83 0;
#X connect 85 1 84 0;
#X connect 90 0 86 0;
#X connect 90 1 87 0;
#X connect 91 0 88 0;
#X connect 91 1 89 0;
#X connect 92 0 82 1;
#X connect 93 0 85 1;
#X connect 94 0 90 1;
#X connect 95 0 91 1;
#X connect 96 0 13 0;
#X connect 96 1 13 1;
#X connect 96 2 13 2;
#X connect 97 0 98 0;
#X connect 98 0 99 0;
#X connect 99 0 96 0;
#X connect 99 1 96 1;
#X connect 101 0 148 1;
#X connect 102 0 142 7;
#X connect 104 0 101 1;
#X connect 106 0 82 0;
#X connect 107 0 85 0;
#X connect 108 0 90 0;
#X connect 109 0 91 0;
#X connect 111 0 132 0;
#X connect 112 0 130 0;
#X connect 114 0 129 0;
#X connect 116 0 131 0;
#X connect 119 0 142 11;
#X connect 120 0 142 8;
#X connect 122 0 142 9;
#X connect 124 0 142 10;
#X connect 129 0 115 0;
#X connect 130 0 113 0;
#X connect 131 0 117 0;
#X connect 132 0 110 0;
#X connect 133 0 135 0;
#X connect 133 1 136 0;
#X connect 133 2 137 0;
#X connect 133 3 134 0;
#X connect 139 0 42 0;
#X connect 139 1 41 0;
#X connect 139 2 40 0;
#X connect 139 3 39 0;
#X connect 139 4 38 0;
#X connect 139 5 37 0;
#X connect 139 6 74 0;
#X connect 139 7 105 0;
#X connect 139 8 140 0;
#X connect 139 9 133 0;
#X connect 141 0 48 0;
#X connect 141 1 47 0;
#X connect 141 2 46 0;
#X connect 141 3 45 0;
#X connect 141 4 44 0;
#X connect 141 5 43 0;
#X connect 141 6 72 0;
#X connect 141 7 103 0;
#X connect 141 8 121 0;
#X connect 141 9 123 0;
#X connect 141 10 125 0;
#X connect 141 11 118 0;
#X connect 141 12 143 0;
#X connect 142 0 9 0;
#X connect 144 0 142 12;
#X connect 146 0 149 0;
#X connect 147 0 13 0;
#X connect 147 1 13 1;
#X connect 147 2 13 2;
#X connect 148 0 99 0;
#X connect 148 1 147 0;
#X connect 149 0 150 0;
#X connect 150 0 148 0;
#X connect 150 1 99 0;
#X coords 0 -1 1 1 210 300 2 100 100;
