#N canvas 0 23 1440 855 10;
#X obj 100 120 cnv 15 210 190 empty empty empty 7 7 0 14 #fcf4e0 #fcfcfc
0;
#X obj 1200 100 inlet~ left;
#X obj 1300 100 inlet~ right;
#X obj 1420 100 inlet note;
#X obj 1680 100 inlet ctl;
#X obj 1200 300 outlet~ left;
#X obj 1300 300 outlet~ right;
#X obj 1420 300 outlet note;
#X obj 1680 300 outlet ctl;
#X obj 720 70 r save-state-\$0;
#X obj 786 388 s save-state-\$0;
#X obj 160 130 tgl 15 1 \$0-from-loop \$0-to-loop loop 20 5 0 10 #fcfcfc
#000000 #000000 1 1;
#X obj 110 130 tgl 15 1 \$0-from-play \$0-to-play play 20 5 0 10 #fcfcfc
#000000 #000000 1 1;
#X obj 720 360 savestate, f 11;
#X text 810 360 ðŸ‘ˆ bangs when parent is saved;
#X obj 720 210 f;
#X obj 720 450 t b l;
#X obj 720 660 bng 15 250 50 0 empty empty empty 17 7 0 10 #fcfcfc
#000000 #000000;
#X obj 100 100 cnv 15 210 20 empty empty bop.rhythm 7 7 0 14 #bca8fc
#fcfcfc 0;
#X text 2980 1740 comment;
#X text 2762 1862 comment;
#X obj 210 130 hsl 85 15 0 5.9 0 1 \$0-from-units \$0-to-units unit:16ths(1)
6 6 0 10 #fcfcfc #bca8fc #000000 2000 1;
#N canvas 1068 348 450 545 tick-calculator 0;
#X obj 100 130 i;
#X msg 100 270 list ticks 16ths 12ths 8ths beats bars, f 18;
#X obj 100 326 cyclone/zl nth, f 21;
#X obj 100 240 t b f, f 21;
#X obj 100 160 + 1;
#X obj 270 326 cyclone/zl nth, f 21;
#X obj 270 210 t b f, f 21;
#X msg 270 240 1 6 8 12 24 96, f 18;
#X obj 270 420 *, f 8;
#X obj 290 390 t b f;
#X obj 100 100 inlet;
#X obj 290 360 inlet;
#X obj 100 470 outlet;
#X obj 270 470 outlet;
#X obj 100 420 symbol;
#X connect 0 0 4 0;
#X connect 1 0 2 0;
#X connect 2 0 14 0;
#X connect 3 0 1 0;
#X connect 3 1 2 1;
#X connect 4 0 3 0;
#X connect 4 0 6 0;
#X connect 5 0 8 0;
#X connect 6 0 7 0;
#X connect 6 1 5 1;
#X connect 7 0 5 0;
#X connect 8 0 13 0;
#X connect 9 0 8 0;
#X connect 9 1 8 1;
#X connect 10 0 0 0;
#X connect 11 0 9 0;
#X connect 14 0 12 0;
#X restore 150 1360 pd tick-calculator;
#X obj 100 1300 t f f, f 8;
#X obj 1380 881 i;
#X obj 1380 910 %;
#X obj 1380 850 route ticks;
#X obj 1380 940 /, f 7;
#X obj 1380 810 spigot;
#X obj 100 1430 pack f s;
#X obj 100 1390 int;
#X msg 100 1470 label unit:\$2(\$1);
#X obj 110 150 hsl 185 15 1 24 0 1 \$0-from-duration \$0-to-duration
duration:12 6 6 0 10 #fcfcfc #bca8fc #000000 8800 1;
#X obj 360 1300 int;
#X msg 360 1340 label duration:\$1;
#X obj 370 350 s \$0-to-toggles;
#X obj 110 170 sub.bop.rhythm.toggle \$0 1;
#X obj 142 170 sub.bop.rhythm.toggle \$0 2;
#X obj 174 170 sub.bop.rhythm.toggle \$0 3;
#X obj 206 170 sub.bop.rhythm.toggle \$0 4;
#X obj 238 170 sub.bop.rhythm.toggle \$0 5;
#X obj 270 170 sub.bop.rhythm.toggle \$0 6;
#X obj 110 202 sub.bop.rhythm.toggle \$0 7;
#X obj 142 202 sub.bop.rhythm.toggle \$0 8;
#X obj 174 202 sub.bop.rhythm.toggle \$0 9;
#X obj 206 202 sub.bop.rhythm.toggle \$0 10;
#X obj 238 202 sub.bop.rhythm.toggle \$0 11;
#X obj 270 202 sub.bop.rhythm.toggle \$0 12;
#X obj 110 234 sub.bop.rhythm.toggle \$0 13;
#X obj 142 234 sub.bop.rhythm.toggle \$0 14;
#X obj 174 234 sub.bop.rhythm.toggle \$0 15;
#X obj 206 234 sub.bop.rhythm.toggle \$0 16;
#X obj 238 234 sub.bop.rhythm.toggle \$0 17;
#X obj 270 234 sub.bop.rhythm.toggle \$0 18;
#X obj 110 266 sub.bop.rhythm.toggle \$0 19;
#X obj 142 266 sub.bop.rhythm.toggle \$0 20;
#X obj 174 266 sub.bop.rhythm.toggle \$0 21;
#X obj 206 266 sub.bop.rhythm.toggle \$0 22;
#X obj 238 266 sub.bop.rhythm.toggle \$0 23;
#X obj 270 266 sub.bop.rhythm.toggle \$0 24;
#X obj 100 400 r \$0-from-toggle;
#X msg 370 290 3 blink;
#X obj 470 290 tgl 15 0 empty empty empty 17 7 0 10 #fcfcfc #000000
#000000 0 1;
#X msg 470 320 2 set \$1;
#X msg 310 780 1 0 0 0 0 0 0 0 0 0 0 0 0 0 0 0 0 0 0 0 0 0 0 0, f
12;
#N canvas 0 22 450 300 (subpatch) 0;
#X array \$0-rhythm 24 float 6 black black;
#X coords 0 1 24 0 202 51 1;
#X restore 360 180 graph;
#X obj 370 580 tabwrite \$0-rhythm;
#X obj 370 520 swap;
#X obj 370 490 unpack;
#X obj 390 550 - 1;
#X obj 290 850 array set \$0-rhythm;
#X obj 100 790 array get \$0-rhythm;
#X obj 100 750 bng 15 250 50 0 empty empty empty 17 7 0 10 #fcfcfc
#000000 #000000;
#X text 290 870 set list to array;
#X obj 100 860 iter;
#X obj 130 930 f, f 11;
#X obj 160 900 + 1;
#X obj 100 820 t l 1, f 16;
#X obj 100 1040 s \$0-to-toggles;
#X obj 100 890 t f b;
#X obj 100 980 pack f f;
#X text 160 980 value \, index;
#X msg 100 1010 \$2 set \$1;
#X obj 100 520 array get \$0-rhythm;
#X obj 100 490 bng 15 250 50 0 empty empty empty 17 7 0 10 #fcfcfc
#000000 #000000;
#X text 120 490 get array as list;
#X text 120 750 set toggles from array;
#X obj 100 1260 r \$0-from-units;
#X obj 100 1500 s \$0-to-units;
#X obj 210 1330 r \$0-from-duration;
#X obj 210 1390 s \$0-duration-ticks;
#X obj 360 1270 r \$0-from-duration;
#X obj 360 1380 s \$0-to-duration;
#X obj 1419 878 r \$0-duration-ticks;
#X obj 1410 780 r \$0-from-play;
#X obj 1590 1205 tabread \$0-rhythm;
#X obj 740 100 r \$0-from-duration;
#X obj 770 130 r \$0-from-units;
#X obj 790 160 r \$0-from-loop;
#X obj 810 190 r \$0-from-play;
#X obj 800 540 s \$0-to-play;
#X obj 780 570 s \$0-to-loop;
#X obj 760 600 s \$0-to-units;
#X obj 740 630 s \$0-to-duration;
#X obj 720 680 s \$0-to-units;
#X obj 1700 240 s \$0-to-duration;
#X obj 1790 210 s \$0-to-units;
#X obj 1700 140 route duration units loop play, f 58;
#X obj 1870 190 s \$0-to-loop;
#X obj 1950 170 s \$0-to-play;
#X obj 720 260 pack f f f f s, f 20;
#X obj 100 430 t b l, f 46;
#X obj 100 550 tosymbol;
#X obj 100 580 s \$0-from-rhythm-symbol;
#X obj 840 220 r \$0-from-rhythm-symbol;
#X obj 740 480 unpack f f f f s;
#X obj 830 510 s \$0-to-rhythm-symbol;
#X obj 290 750 fromsymbol;
#X obj 100 710 t b s, f 32;
#X obj 100 670 r \$0-to-rhythm-symbol;
#X text 100 650 receives rhythm as symbol from save state;
#X text 100 600 sets array list as symbol for save state;
#X text 370 600 store rhythm in array;
#X obj 1140 1250 int;
#X obj 1170 1150 r \$0-from-duration;
#X obj 1530 1345 + 1;
#X obj 1530 1405 s \$0-to-toggles;
#X msg 1530 1375 \$1 blink;
#X obj 1140 870 route ticks;
#X obj 1590 1295 f;
#X msg 1710 1235 1;
#X obj 1590 1245 select 1;
#X obj 1710 1205 select 0;
#X obj 1625 1295 + 1;
#X obj 1140 1300 change;
#X obj 1590 1335 s \$0-raw-hit;
#X obj 1140 940 f;
#X obj 1175 940 + 1;
#X obj 1140 900 bang;
#X obj 1142 821 spigot;
#X obj 1180 750 r \$0-from-play;
#X obj 1180 780 t f f;
#X obj 1230 820 select 1;
#X obj 1140 1100 /, f 7;
#N canvas 536 235 450 301 looping 0;
#X obj 160 203 + 1;
#X obj 80 300 t b 0 b;
#X obj 390 218 i;
#X obj 390 189 spigot;
#X obj 390 276 change;
#X obj 390 305 sel 0;
#X obj 390 247 %;
#X text 350 80 â° RETRIGGER OFF OF TICKS % DURATIONðŸ‘‡;
#X text 168 133 Stop if not looping ðŸ‘‡;
#X obj 160 170 r from-loop-\$0;
#X obj 242 202 r endbang-\$0;
#X obj 80 402 s to-seq-\$0;
#X obj 458 159 r from-loop-\$0;
#X obj 429 215 r duration-ticks-\$0;
#X obj 390 334 s start-\$0;
#X obj 350 160 route ticks;
#X obj 350 130 r bop-time;
#X msg 242 355 start -1;
#X obj 242 389 s to-seq-\$0;
#X msg 80 368 goto 0;
#X obj 90 340 s to-play-\$0;
#X text 40 495 todo: fix looping behaviour;
#X text 40 520 if looping longer than duration of the clip \, playback
should pause until loop length comes around, f 33;
#X obj 160 240 cyclone/gate 2;
#X connect 0 0 23 0;
#X connect 1 0 19 0;
#X connect 1 1 20 0;
#X connect 2 0 6 0;
#X connect 3 0 2 0;
#X connect 4 0 5 0;
#X connect 5 0 14 0;
#X connect 6 0 4 0;
#X connect 9 0 0 0;
#X connect 10 0 23 1;
#X connect 12 0 3 1;
#X connect 13 0 6 1;
#X connect 15 0 3 0;
#X connect 16 0 15 0;
#X connect 17 0 18 0;
#X connect 19 0 11 0;
#X connect 23 0 1 0;
#X connect 23 1 17 0;
#X restore 1200 1100 pd looping reference;
#X obj 1179 1018 r \$0-duration-ticks;
#X msg 1230 910 0;
#X obj 1170 1370 >= 1;
#X obj 1170 1480 s \$0-to-play;
#X obj 1170 1400 select 1;
#X obj 1140 1210 * 24;
#X obj 1140 1510 s \$0-step;
#X obj 1140 1340 t f f;
#X obj 1530 1090 r \$0-step;
#X obj 1530 1125 t f f f b, f 47;
#X obj 1170 1180 int;
#X obj 1190 1270 r \$0-from-duration;
#X obj 1190 1300 int;
#X obj 1400 1340 s \$0-to-play;
#X msg 1400 1290 1;
#X obj 1190 1330 - 1;
#X obj 1380 1070 int;
#X obj 1410 970 r \$0-from-duration;
#X obj 1380 1120 change;
#X obj 1380 1030 * 24;
#X obj 1380 1170 s \$0-step;
#X obj 1410 1000 int;
#X obj 1140 600 r \$0-from-loop;
#X msg 1170 1450 0;
#X obj 1170 650 r bop-time;
#X obj 1140 680 gate 2;
#X obj 1140 630 + 1;
#X text 1390 750 looping (continuous);
#X text 1010 720 play once;
#X obj 960 820 r \$0-from-loop;
#X obj 960 940 s \$0-to-play;
#X obj 1540 140 r \$0-raw-hit;
#X obj 1700 260 r \$0-to-outlet-ctrl;
#X obj 1540 240 s \$0-to-outlet-ctrl;
#X msg 1540 190 note \$1;
#X connect 1 0 5 0;
#X connect 2 0 6 0;
#X connect 3 0 7 0;
#X connect 4 0 8 0;
#X connect 4 0 107 0;
#X connect 9 0 15 0;
#X connect 13 0 16 0;
#X connect 13 1 10 0;
#X connect 15 0 110 0;
#X connect 16 0 17 0;
#X connect 16 1 115 0;
#X connect 17 0 104 0;
#X connect 22 0 29 1;
#X connect 22 1 90 0;
#X connect 23 0 30 0;
#X connect 23 1 22 0;
#X connect 24 0 25 0;
#X connect 25 0 27 0;
#X connect 26 0 24 0;
#X connect 27 0 164 0;
#X connect 28 0 26 0;
#X connect 29 0 31 0;
#X connect 30 0 29 0;
#X connect 31 0 88 0;
#X connect 33 0 34 0;
#X connect 34 0 92 0;
#X connect 60 0 111 0;
#X connect 61 0 35 0;
#X connect 62 0 63 0;
#X connect 63 0 35 0;
#X connect 64 0 70 0;
#X connect 67 0 66 0;
#X connect 67 1 69 0;
#X connect 68 0 67 0;
#X connect 68 1 67 1;
#X connect 69 0 66 1;
#X connect 71 0 77 0;
#X connect 72 0 71 0;
#X connect 74 0 79 0;
#X connect 75 0 76 0;
#X connect 75 0 80 1;
#X connect 76 0 75 1;
#X connect 77 0 74 0;
#X connect 77 1 75 1;
#X connect 79 0 80 0;
#X connect 79 1 75 0;
#X connect 80 0 82 0;
#X connect 82 0 78 0;
#X connect 83 0 112 0;
#X connect 84 0 83 0;
#X connect 87 0 23 0;
#X connect 89 0 22 1;
#X connect 91 0 33 0;
#X connect 93 0 25 1;
#X connect 93 0 27 1;
#X connect 94 0 28 1;
#X connect 95 0 131 0;
#X connect 96 0 15 1;
#X connect 97 0 110 1;
#X connect 98 0 110 2;
#X connect 99 0 110 3;
#X connect 107 0 105 0;
#X connect 107 1 106 0;
#X connect 107 2 108 0;
#X connect 107 3 109 0;
#X connect 110 0 13 0;
#X connect 111 0 84 0;
#X connect 111 1 68 0;
#X connect 112 0 113 0;
#X connect 114 0 110 4;
#X connect 115 0 103 0;
#X connect 115 1 102 0;
#X connect 115 2 101 0;
#X connect 115 3 100 0;
#X connect 115 4 116 0;
#X connect 117 0 70 0;
#X connect 118 0 72 0;
#X connect 118 1 117 0;
#X connect 119 0 118 0;
#X connect 123 0 134 0;
#X connect 124 0 155 0;
#X connect 125 0 127 0;
#X connect 127 0 126 0;
#X connect 128 0 138 0;
#X connect 129 0 133 0;
#X connect 129 0 135 0;
#X connect 130 0 129 1;
#X connect 131 0 129 0;
#X connect 132 0 130 0;
#X connect 133 0 129 1;
#X connect 134 0 152 0;
#X connect 136 0 137 0;
#X connect 136 0 143 0;
#X connect 137 0 136 1;
#X connect 138 0 136 0;
#X connect 139 0 128 0;
#X connect 140 0 141 0;
#X connect 141 0 139 1;
#X connect 141 1 142 0;
#X connect 142 0 146 0;
#X connect 143 0 150 0;
#X connect 145 0 143 1;
#X connect 146 0 136 1;
#X connect 147 0 149 0;
#X connect 149 0 168 0;
#X connect 150 0 123 0;
#X connect 152 0 151 0;
#X connect 152 1 147 0;
#X connect 153 0 154 0;
#X connect 154 0 125 0;
#X connect 154 1 95 0;
#X connect 154 2 132 0;
#X connect 155 0 150 1;
#X connect 156 0 157 0;
#X connect 157 0 160 0;
#X connect 159 0 158 0;
#X connect 160 0 147 1;
#X connect 161 0 163 0;
#X connect 162 0 166 0;
#X connect 163 0 165 0;
#X connect 164 0 161 0;
#X connect 166 0 164 1;
#X connect 167 0 171 0;
#X connect 168 0 148 0;
#X connect 169 0 170 1;
#X connect 170 0 139 0;
#X connect 170 1 28 0;
#X connect 171 0 170 0;
#X connect 174 0 175 0;
#X connect 176 0 179 0;
#X connect 177 0 8 0;
#X connect 179 0 178 0;
#X coords 0 -1 1 1 210 210 2 100 100;
