#N canvas 0 0 1522 772 10;
#X declare -path ./subpatches/harp;
#X obj 100 120 cnv 15 210 30 empty empty empty 7 7 0 14 #fdf6e3 #ffffff
0;
#X obj 670 100 inlet~ left;
#X obj 900 100 inlet~ right;
#X obj 1000 100 inlet note;
#X obj 1100 100 inlet ctl;
#X obj 670 220 outlet~ left;
#X obj 900 220 outlet~ right;
#X obj 1020 200 outlet note;
#X obj 1100 200 outlet ctl;
#X obj 400 260 savestate, f 11;
#X text 490 260 👈 bangs when parent is saved;
#X obj 400 180 f;
#X obj 400 100 r save-state-\$0;
#X obj 460 290 s save-state-\$0;
#X obj 400 330 s to-param1-\$0;
#X obj 1130 170 s to-param1-\$0;
#X obj 90 50 declare -path ./subpatches/harp;
#X obj 1000 540 harp~;
#X obj 1000 400 pack 0 0 0, f 13;
#X obj 1000 430 route 1 2 3 4, f 55;
#X obj 1000 570 *~ 0.5;
#X obj 1000 480 unpack;
#X obj 1000 510 mtof;
#X obj 1000 230 unpack, f 13;
#X obj 1000 610 throw~ harp-\$0;
#X obj 780 100 catch~ harp-\$0;
#X obj 1100 540 harp~;
#X obj 1100 570 *~ 0.5;
#X obj 1100 480 unpack;
#X obj 1100 510 mtof;
#X obj 1100 610 throw~ harp-\$0;
#X obj 1200 540 harp~;
#X obj 1200 570 *~ 0.5;
#X obj 1200 480 unpack;
#X obj 1200 510 mtof;
#X obj 1200 610 throw~ harp-\$0;
#X obj 1300 540 harp~;
#X obj 1300 570 *~ 0.5;
#X obj 1300 480 unpack;
#X obj 1300 510 mtof;
#X obj 1300 610 throw~ harp-\$0;
#X obj 400 220 pack f;
#X obj 400 290 unpack f;
#X obj 410 150 r from-param-\$0;
#X obj 1130 140 route param1;
#X obj 780 120 hip~ 5;
#X obj 780 145 clip~ -1 1;
#X obj 100 100 cnv 15 210 20 empty empty bop.harp 7 7 0 14 #97c5ee
#ffffff 0;
#X obj 1000 360 poly 4 1, f 13;
#X obj 1010 270 r bop-play;
#X obj 1010 290 sel 0;
#X obj 1000 320 cyclone/flush;
#X connect 1 0 5 0;
#X connect 2 0 6 0;
#X connect 3 0 7 0;
#X connect 3 0 23 0;
#X connect 4 0 8 0;
#X connect 4 0 44 0;
#X connect 9 0 42 0;
#X connect 9 1 13 0;
#X connect 11 0 41 0;
#X connect 12 0 11 0;
#X connect 17 0 20 0;
#X connect 18 0 19 0;
#X connect 19 0 21 0;
#X connect 19 1 28 0;
#X connect 19 2 33 0;
#X connect 19 3 38 0;
#X connect 20 0 24 0;
#X connect 21 0 22 0;
#X connect 21 1 17 1;
#X connect 22 0 17 0;
#X connect 23 0 51 0;
#X connect 23 1 51 1;
#X connect 25 0 45 0;
#X connect 26 0 27 0;
#X connect 27 0 30 0;
#X connect 28 0 29 0;
#X connect 28 1 26 1;
#X connect 29 0 26 0;
#X connect 31 0 32 0;
#X connect 32 0 35 0;
#X connect 33 0 34 0;
#X connect 33 1 31 1;
#X connect 34 0 31 0;
#X connect 36 0 37 0;
#X connect 37 0 40 0;
#X connect 38 0 39 0;
#X connect 38 1 36 1;
#X connect 39 0 36 0;
#X connect 41 0 9 0;
#X connect 42 0 14 0;
#X connect 43 0 11 1;
#X connect 44 0 15 0;
#X connect 45 0 46 0;
#X connect 46 0 5 0;
#X connect 46 0 6 0;
#X connect 48 0 18 0;
#X connect 48 1 18 1;
#X connect 48 2 18 2;
#X connect 49 0 50 0;
#X connect 50 0 51 0;
#X connect 51 0 48 0;
#X connect 51 1 48 1;
#X coords 0 -1 1 1 210 50 2 100 100;
