#N canvas 191 23 1297 787 10;
#X obj 100 120 cnv 15 210 20 empty empty empty 7 7 0 14 #c4e0c8 #fcfcfc
0;
#X obj 100 400 cnv 15 159 60 empty empty empty 20 12 0 14 #e0e0e0 #404040
0;
#X obj 660 100 inlet~ left;
#X obj 830 100 inlet~ right;
#X obj 1000 100 inlet note;
#X obj 1220 100 inlet ctl;
#X obj 660 220 outlet~ left;
#X obj 830 220 outlet~ right;
#X obj 1000 300 outlet note;
#X obj 1220 300 outlet ctl;
#X obj 360 230 savestate, f 11;
#X text 450 230 👈 bangs when parent is saved;
#X obj 360 130 r save-state-\$0;
#X obj 420 260 s save-state-\$0;
#X symbolatom 110 130 26 0 0 1 id to-id-#0 from-id-#0, f 26;
#X obj 360 190 symbol;
#X obj 360 260 unpack s;
#X obj 390 160 r from-id-\$0;
#X obj 360 290 s to-id-\$0;
#X obj 1250 150 route id;
#X obj 1250 190 s to-id-\$0;
#X obj 660 180 +~, f 2;
#X obj 830 180 +~;
#X obj 1090 110 list trim;
#X obj 1120 140 r from-id-\$0;
#X obj 1090 240 route notes ctrl;
#X obj 840 150 r~ catch-right-\$0;
#X obj 670 150 r~ catch-left-\$0;
#X obj 280 440 t b s s b, f 142;
#X msg 1130 490 clear;
#X obj 1130 525 s pd-dynamic-catch-\$0;
#X obj 840 480 t b b s, f 39;
#X obj 280 490 bng 15 250 50 0 empty empty done 20 5 0 10 #fcfcfc #000000
#000000;
#X obj 1090 70 r bop-send;
#X obj 840 730 s pd-dynamic-catch-\$0;
#X msg 840 530 connect 0 0 1 0;
#X obj 280 400 r from-id-\$0;
#X obj 560 480 t b b s, f 34;
#X msg 500 540 connect 2 0 3 0;
#N canvas 0 205 466 344 dynamic-catch-\$0 0;
#X obj 50 50 catch~ bop-throw-when-right;
#X obj 50 100 s~ catch-right-%0;
#X obj 50 200 catch~ bop-throw-when-left;
#X obj 50 250 s~ catch-left-%0;
#X obj 50 100 s~ catch-right-%0;
#X connect 0 0 1 0;
#X connect 2 0 3 0;
#X restore 120 420 pd dynamic-catch-\$0;
#X obj 1080 610 symbol;
#X msg 1080 650 obj 50 50 catch~ bop-throw-\$1-right;
#X msg 610 670 obj 50 200 catch~ bop-throw-\$1-left;
#X obj 750 630 symbol;
#X obj 785 367 print;
#X obj 785 284 bng 15 250 50 0 empty empty empty 17 7 0 10 #fcfcfc
#000000 #000000;
#X obj 788 319 symbol;
#X obj 818 282 r from-id-\$0;
#X obj 1090 200 route id;
#X obj 1120 168 symbol;
#X obj 500 710 s pd-dynamic-catch-\$0;
#X obj 667 515 \$0;
#X msg 610 560 obj 50 250 s~ catch-left-\$1, f 14;
#X msg 950 570 obj 50 100 s~ catch-right-\$1, f 16;
#X obj 991 525 \$0;
#X connect 2 0 21 0;
#X connect 3 0 22 0;
#X connect 4 0 8 0;
#X connect 5 0 9 0;
#X connect 5 0 19 0;
#X connect 10 0 16 0;
#X connect 10 1 13 0;
#X connect 12 0 15 0;
#X connect 15 0 10 0;
#X connect 16 0 18 0;
#X connect 17 0 15 1;
#X connect 19 0 20 0;
#X connect 21 0 6 0;
#X connect 22 0 7 0;
#X connect 23 0 48 0;
#X connect 24 0 49 0;
#X connect 25 0 8 0;
#X connect 25 1 9 0;
#X connect 26 0 22 1;
#X connect 27 0 21 1;
#X connect 28 0 32 0;
#X connect 28 1 37 0;
#X connect 28 2 31 0;
#X connect 28 3 29 0;
#X connect 29 0 30 0;
#X connect 31 0 35 0;
#X connect 31 1 54 0;
#X connect 31 2 40 0;
#X connect 33 0 23 0;
#X connect 35 0 34 0;
#X connect 36 0 28 0;
#X connect 37 0 38 0;
#X connect 37 1 51 0;
#X connect 37 2 43 0;
#X connect 38 0 50 0;
#X connect 40 0 41 0;
#X connect 41 0 34 0;
#X connect 42 0 50 0;
#X connect 43 0 42 0;
#X connect 45 0 46 0;
#X connect 46 0 44 0;
#X connect 47 0 46 1;
#X connect 48 0 25 0;
#X connect 49 0 48 1;
#X connect 51 0 52 0;
#X connect 52 0 50 0;
#X connect 53 0 34 0;
#X connect 54 0 53 0;
#X coords 0 -1 1 1 210 60 1 100 100;
