#N canvas 376 0 770 772 10;
#X obj 100 120 cnv 15 210 100 empty empty empty 7 7 0 14 #fdf6e3 #ffffff
0;
#X obj 1300 100 inlet~ left;
#X obj 1400 100 inlet~ right;
#X obj 1500 100 inlet note;
#X obj 1640 100 inlet ctl;
#X obj 1300 300 outlet~ left;
#X obj 1400 300 outlet~ right;
#X obj 1500 300 outlet note;
#X obj 1640 520 outlet ctl;
#X obj 640 100 r save-state-\$0;
#X obj 706 328 s save-state-\$0;
#X text 100 10 GOP is 210 wide;
#X obj 110 190 hsl 185 15 0 193 0 0 from-playslider-\$0 to-playslider-\$0
empty 5 5 0 10 #ffffff #000000 #000000 5720 1;
#X text 100 30 gui sends and receives are from-{param}-\$0 and to-{param}-\$0
;
#X text 100 70 bang and toggle label is {param} \, x = 20 \, y = 5
\, size = 15;
#X obj 110 170 tgl 15 1 from-loop-\$0 to-loop-\$0 loop 20 5 0 10 #ffffff
#000000 #000000 1 1;
#X symbolatom 130 130 20 0 0 1 filepath to-filepath-#0 from-filepath-#0
, f 20;
#X text 100 50 slider label is {param} \, x = 5 \, y = 5;
#X obj 110 150 tgl 15 1 from-play-\$0 to-play-\$0 play 20 5 0 10 #ffffff
#000000 #000000 1 1;
#X obj 190 170 hsl 105 15 0 5 0 1 from-units-\$0 to-units-\$0 units:beats
6 6 0 10 #ffffff #000000 #000000 9927 1;
#X msg 1790 250 0;
#X obj 1740 250 t b 1;
#X msg 1691 439 set \$1;
#X obj 1663 402 t b s;
#X obj 1740 220 sel 1 0;
#X obj 1662 489 s to-filepath-\$0;
#X obj 1740 340 s start-\$0;
#X obj 1800 280 s to-loop-\$0;
#X obj 1700 370 s to-loop-\$0;
#X obj 263 370 cnv 15 95 34 empty empty empty 20 12 0 14 #ff80ff #404040
0;
#X obj 270 380 cyclone/seq;
#X obj 289 413 bng 15 250 50 0 empty empty empty 17 7 0 10 #fcfcfc
#000000 #000000;
#X obj 270 550 midiparse;
#X obj 100 600 gate, f 24;
#X msg 100 400 0;
#X msg 120 553 1;
#X obj 270 510 cyclone/midiflush;
#X obj 150 425 sel 0;
#X obj 120 460 bng 15 250 50 0 empty empty empty 17 7 0 10 #fcfcfc
#000000 #000000;
#X obj 100 340 r loadfile-\$0;
#X obj 120 520 r endbang-\$0;
#X obj 120 490 s flush-\$0;
#X obj 270 340 r to-seq-\$0;
#X obj 150 400 r playtoggle-\$0;
#X obj 290 440 s endbang-\$0;
#X obj 290 480 r flush-\$0;
#X obj 100 630 s to-note-out-\$0;
#X obj 1510 260 r to-note-out-\$0;
#X obj 640 300 savestate, f 11;
#X text 730 300 👈 bangs when parent is saved;
#X obj 640 220 f;
#X obj 640 360 unpack f f s;
#X obj 640 260 pack f f s;
#X obj 640 460 s to-duration-\$0;
#X obj 660 140 r from-duration-\$0;
#X obj 715 390 s to-filepath-\$0;
#X obj 710 220 r from-filepath-\$0;
#X obj 680 180 r from-units-\$0;
#X obj 680 430 s to-units-\$0;
#X obj 1660 140 route filepath loop play duration units;
#X obj 1800 200 s to-duration-\$0;
#X obj 1840 170 s to-units-\$0;
#X obj 130 850 gate 2, f 14;
#X obj 130 813 + 1;
#X msg 130 965 start -1;
#X obj 130 897 t b 0 b;
#X msg 601 1093 start -1;
#X obj 600 838 i;
#X obj 600 809 spigot;
#X obj 600 896 change;
#X obj 600 925 sel 0;
#X obj 600 867 %;
#X text 560 700 ⏰ RETRIGGER OFF OF TICKS % DURATION👇;
#X text 138 743 Stop if not looping 👇;
#X obj 600 1030 t b b;
#N canvas 536 233 450 305 tick-calculator 0;
#X obj 73 -159 i;
#X msg 73 -39 list ticks 16ths 12ths 8ths beats bars, f 18;
#X obj 73 17 cyclone/zl nth, f 21;
#X obj 73 -69 t b f, f 21;
#X obj 73 -99 + 1;
#X text 230 -35 todo: calculate bars according to time signature,
f 17;
#X obj 217 17 cyclone/zl nth, f 21;
#X obj 217 -99 t b f, f 21;
#X msg 217 -69 1 6 8 12 24 96, f 18;
#X obj 216 106 *;
#X obj 229 70 t b f;
#X obj 72 -193 inlet;
#X obj 238 38 inlet;
#X obj 70 160 outlet;
#X obj 214 160 outlet;
#X connect 0 0 4 0;
#X connect 1 0 2 0;
#X connect 2 0 13 0;
#X connect 3 0 1 0;
#X connect 3 1 2 1;
#X connect 4 0 3 0;
#X connect 4 0 7 0;
#X connect 6 0 9 0;
#X connect 7 0 8 0;
#X connect 7 1 6 1;
#X connect 8 0 6 0;
#X connect 9 0 14 0;
#X connect 10 0 9 0;
#X connect 10 1 9 1;
#X connect 11 0 0 0;
#X connect 12 0 10 0;
#X restore 333 897 pd tick-calculator;
#X obj 130 780 r from-loop-\$0;
#X obj 212 812 r endbang-\$0;
#X obj 148 932 s play-\$0;
#X obj 130 999 s to-seq-\$0;
#X obj 333 825 r from-units-\$0;
#X obj 352 860 r from-duration-\$0;
#X obj 352 933 s duration-ticks-\$0;
#X obj 330 1000 s to-units-\$0;
#X obj 668 779 r from-loop-\$0;
#X obj 639 835 r duration-ticks-\$0;
#X obj 600 954 s start-\$0;
#X obj 600 1000 r start-\$0;
#X obj 621 1063 s flush-\$0;
#X obj 601 1123 s to-seq-\$0;
#X obj 1000 836 spigot;
#X obj 1109 921 counter, f 23;
#X floatatom 1109 979 5 0 0 0 - - -, f 5;
#X msg 1250 973 range 0 \$1;
#X msg 1000 931 tick;
#X obj 1000 876 t b b;
#X text 1071 742 playback and slider control 👇;
#X obj 1167 808 route start;
#X msg 1168 865 0;
#X obj 1174 837 bng 15 250 50 0 empty empty empty 17 7 0 10 #fcfcfc
#000000 #000000;
#X msg 1248 890 99999;
#X obj 1000 975 s to-seq-\$0;
#X obj 1168 775 r to-seq-\$0;
#X obj 1250 950 r length-\$0;
#X msg 1616 1032 start -1;
#X obj 2017 1222 counter;
#X floatatom 2184 1343 14 0 0 0 - - -, f 14;
#X obj 1500 1112 t b 0;
#X obj 1500 1300 f, f 8;
#X obj 1600 816 t 1 b b b 0, f 99;
#X obj 1600 1158 metro 1;
#X msg 1618 1124 0;
#X obj 1600 1190 t b b;
#X msg 1600 1220 tick;
#X msg 1895 1033 read assets/upsidedown.mid, f 28;
#X obj 1774 977 list trim;
#X obj 1749 896 t b s;
#X obj 1721 973 bng 15 250 50 0 empty empty empty 17 7 0 10 #fcfcfc
#000000 #000000;
#X obj 1774 929 list prepend set read, f 12;
#X text 1818 744 📂 FILE LOADING 👇;
#X obj 1500 1070 r endbang-\$0;
#X obj 1600 780 r loadfile-\$0;
#X obj 1616 1094 s to-seq-\$0;
#X obj 1601 1250 s to-seq-\$0;
#X obj 1752 850 r from-filepath-\$0;
#X obj 1747 1022 s loadfile-\$0;
#X obj 2184 1378 s length-\$0;
#X obj 560 780 route ticks;
#X obj 1000 790 route ticks;
#X obj 560 750 r bop-time;
#X obj 1000 760 r bop-time;
#X obj 110 130 bng 15 250 50 0 from-open-\$0 to-open-\$0 empty 20 5
0 10 #fcfcfc #000000 #000000;
#X obj 920 180 bng 15 250 50 0 empty empty empty 17 7 0 10 #fcfcfc
#000000 #000000;
#X obj 920 210 openpanel;
#X obj 920 150 r from-open-\$0;
#X obj 920 240 s to-filepath-\$0;
#X obj 1109 1005 s to-playslider-\$0;
#X obj 1251 998 s to-playslider-\$0;
#X obj 1031 812 r from-play-\$0;
#X obj 1760 310 s to-play-\$0;
#X obj 2087 882 s to-playtoggle-\$0;
#X obj 100 100 cnv 15 210 20 empty empty bop.midiplayer 7 7 0 14 #d7cbfe
#ffffff 0;
#X obj 190 150 nbx 11 15 1 1e+37 0 1 from-duration-\$0 to-duration-\$0
duration 50 6 0 10 #fcfcfc #000000 #000000 4 256 0;
#X obj 600 325 t b l;
#X obj 460 370 bng 15 250 50 0 empty empty empty 17 7 0 10 #fcfcfc
#000000 #000000;
#X obj 456 399 s to-units-\$0;
#X obj 380 1080 r from-tune-\$0;
#X obj 380 1140 s to-tune-\$0;
#X obj 380 1110 sprintf label tune:%. 4g;
#X obj 330 970 sprintf label units:%s;
#X connect 1 0 5 0;
#X connect 2 0 6 0;
#X connect 3 0 7 0;
#X connect 4 0 8 0;
#X connect 4 0 59 0;
#X connect 9 0 50 0;
#X connect 20 0 27 0;
#X connect 20 0 139 0;
#X connect 21 0 26 0;
#X connect 21 1 139 0;
#X connect 22 0 25 0;
#X connect 23 0 25 0;
#X connect 23 1 22 0;
#X connect 24 0 21 0;
#X connect 24 1 20 0;
#X connect 30 0 36 0;
#X connect 30 1 31 0;
#X connect 31 0 44 0;
#X connect 32 0 33 1;
#X connect 33 0 46 0;
#X connect 34 0 33 0;
#X connect 34 0 38 0;
#X connect 35 0 33 0;
#X connect 36 0 32 0;
#X connect 37 0 38 0;
#X connect 38 0 41 0;
#X connect 39 0 34 0;
#X connect 40 0 35 0;
#X connect 42 0 30 0;
#X connect 43 0 37 0;
#X connect 45 0 36 0;
#X connect 47 0 7 0;
#X connect 48 0 143 0;
#X connect 48 1 10 0;
#X connect 50 0 52 0;
#X connect 51 0 53 0;
#X connect 51 1 58 0;
#X connect 51 2 55 0;
#X connect 52 0 48 0;
#X connect 54 0 50 1;
#X connect 56 0 52 2;
#X connect 57 0 52 1;
#X connect 59 0 23 0;
#X connect 59 1 28 0;
#X connect 59 2 24 0;
#X connect 59 3 60 0;
#X connect 59 4 61 0;
#X connect 62 0 65 0;
#X connect 63 0 62 0;
#X connect 64 0 79 0;
#X connect 65 0 64 0;
#X connect 65 1 78 0;
#X connect 66 0 89 0;
#X connect 67 0 71 0;
#X connect 68 0 67 0;
#X connect 69 0 70 0;
#X connect 70 0 86 0;
#X connect 71 0 69 0;
#X connect 74 0 66 0;
#X connect 74 1 88 0;
#X connect 75 0 149 0;
#X connect 75 1 82 0;
#X connect 76 0 63 0;
#X connect 77 0 62 1;
#X connect 80 0 75 0;
#X connect 81 0 75 1;
#X connect 84 0 68 1;
#X connect 85 0 71 1;
#X connect 87 0 74 0;
#X connect 90 0 95 0;
#X connect 91 0 92 0;
#X connect 92 0 136 0;
#X connect 93 0 137 0;
#X connect 94 0 101 0;
#X connect 95 0 94 0;
#X connect 95 1 91 0;
#X connect 97 0 99 0;
#X connect 98 0 91 2;
#X connect 99 0 98 0;
#X connect 100 0 91 4;
#X connect 102 0 97 0;
#X connect 103 0 93 0;
#X connect 104 0 122 0;
#X connect 105 0 108 1;
#X connect 106 0 126 0;
#X connect 107 0 108 0;
#X connect 107 1 110 0;
#X connect 108 0 106 0;
#X connect 109 0 110 0;
#X connect 109 1 104 0;
#X connect 109 2 114 0;
#X connect 109 3 105 2;
#X connect 109 4 106 0;
#X connect 109 4 140 0;
#X connect 110 0 112 0;
#X connect 111 0 110 0;
#X connect 112 0 113 0;
#X connect 112 1 105 0;
#X connect 113 0 123 0;
#X connect 114 0 122 0;
#X connect 115 0 114 0;
#X connect 116 0 125 0;
#X connect 116 1 118 0;
#X connect 117 0 125 0;
#X connect 118 0 115 0;
#X connect 120 0 107 0;
#X connect 121 0 109 0;
#X connect 124 0 116 0;
#X connect 127 0 68 0;
#X connect 128 0 90 0;
#X connect 129 0 127 0;
#X connect 130 0 128 0;
#X connect 132 0 133 0;
#X connect 133 0 135 0;
#X connect 134 0 132 0;
#X connect 138 0 90 1;
#X connect 143 0 144 0;
#X connect 143 1 51 0;
#X connect 144 0 145 0;
#X connect 146 0 148 0;
#X connect 148 0 147 0;
#X connect 149 0 83 0;
#X coords 0 -1 1 1 210 120 2 100 100;
