#N canvas 0 23 1680 1005 10;
#X obj 100 120 cnv 15 210 20 empty empty empty 7 7 0 14 #bca8fc #fcfcfc
0;
#X obj 1300 100 inlet~ left;
#X obj 1400 100 inlet~ right;
#X obj 1498 100 inlet note;
#X obj 1640 100 inlet ctl;
#X obj 1300 300 outlet~ left;
#X obj 1400 300 outlet~ right;
#X obj 1500 300 outlet note;
#X obj 1640 300 outlet ctl;
#X obj 640 100 r save-state-\$0;
#X obj 706 328 s save-state-\$0;
#X obj 110 170 tgl 15 1 from-loop-\$0 to-loop-\$0 loop 20 5 0 10 #fcfcfc
#000000 #000000 1 1;
#X symbolatom 130 130 20 0 0 1 filepath to-filepath-#0 from-filepath-#0
, f 20;
#X obj 110 150 tgl 15 1 from-play-\$0 to-play-\$0 play 20 5 0 10 #fcfcfc
#000000 #000000 1 1;
#X obj 190 170 hsl 105 15 0 5.9 0 1 from-units-\$0 to-units-\$0 units:4(beats)
6 6 0 10 #fcfcfc #000000 #000000 8500 1;
#X obj 1740 270 s to-filepath-\$0;
#X obj 1780 250 s to-loop-\$0;
#X obj 263 470 cnv 15 95 34 empty empty empty 20 12 0 14 #fc80fc #404040
0;
#X obj 270 480 cyclone/seq;
#X obj 289 513 bng 15 250 50 0 empty empty empty 17 7 0 10 #fcfcfc
#000000 #000000;
#X msg 120 653 1;
#X obj 270 610 cyclone/midiflush;
#X obj 150 525 sel 0;
#X obj 120 560 bng 15 250 50 0 empty empty empty 17 7 0 10 #fcfcfc
#000000 #000000;
#X obj 120 620 r endbang-\$0;
#X obj 120 590 s flush-\$0;
#X obj 270 440 r to-seq-\$0;
#X obj 290 540 s endbang-\$0;
#X obj 290 580 r flush-\$0;
#X obj 100 780 s to-note-out-\$0;
#X obj 1510 260 r to-note-out-\$0;
#X obj 640 300 savestate, f 11;
#X text 730 300 👈 bangs when parent is saved;
#X obj 640 220 f;
#X obj 680 475 s to-duration-\$0;
#X obj 660 120 r from-duration-\$0;
#X obj 710 435 s to-filepath-\$0;
#X obj 710 160 r from-filepath-\$0;
#X obj 680 140 r from-units-\$0;
#X obj 690 455 s to-units-\$0;
#X obj 1740 140 route filepath loop play duration units;
#X obj 1880 200 s to-duration-\$0;
#X obj 1920 170 s to-units-\$0;
#X obj 130 913 + 1;
#X obj 50 1010 t b 0 b;
#X msg 601 1093 start -1;
#X obj 600 838 i;
#X obj 600 809 spigot;
#X obj 600 896 change;
#X obj 600 925 sel 0;
#X obj 600 867 %;
#X text 560 670 ⏰ RETRIGGER OFF OF TICKS % DURATION👇;
#X text 138 843 Stop if not looping 👇;
#X obj 600 1030 t b b;
#N canvas 838 244 451 331 tick-calculator 0;
#X obj 73 -159 i;
#X msg 73 -39 list ticks 16ths 12ths 8ths beats bars, f 18;
#X obj 73 17 cyclone/zl nth, f 21;
#X obj 73 -69 t b f, f 21;
#X obj 73 -99 + 1;
#X text 230 -35 todo: calculate bars according to time signature,
f 17;
#X obj 217 17 cyclone/zl nth, f 21;
#X obj 217 -99 t b f, f 21;
#X msg 217 -69 1 6 8 12 24 96, f 18;
#X obj 216 106 *;
#X obj 229 70 t b f;
#X obj 72 -193 inlet;
#X obj 238 38 inlet;
#X obj 70 160 outlet;
#X obj 214 160 outlet;
#X obj 70 70 symbol;
#X connect 0 0 4 0;
#X connect 1 0 2 0;
#X connect 2 0 15 0;
#X connect 3 0 1 0;
#X connect 3 1 2 1;
#X connect 4 0 3 0;
#X connect 4 0 7 0;
#X connect 6 0 9 0;
#X connect 7 0 8 0;
#X connect 7 1 6 1;
#X connect 8 0 6 0;
#X connect 9 0 14 0;
#X connect 10 0 9 0;
#X connect 10 1 9 1;
#X connect 11 0 0 0;
#X connect 12 0 10 0;
#X connect 15 0 13 0;
#X restore 353 977 pd tick-calculator;
#X obj 130 880 r from-loop-\$0;
#X obj 212 912 r endbang-\$0;
#X obj 50 1112 s to-seq-\$0;
#X obj 320 910 r from-units-\$0;
#X obj 460 940 r from-duration-\$0;
#X obj 460 1010 s duration-ticks-\$0;
#X obj 320 1110 s to-units-\$0;
#X obj 668 779 r from-loop-\$0;
#X obj 639 835 r duration-ticks-\$0;
#X obj 600 954 s start-\$0;
#X obj 600 1000 r start-\$0;
#X obj 621 1063 s flush-\$0;
#X obj 601 1123 s to-seq-\$0;
#X obj 900 876 spigot;
#X floatatom 1009 1019 5 0 0 0 - - -, f 5;
#X msg 1150 1013 range 0 \$1;
#X msg 900 971 tick;
#X obj 900 916 t b b;
#X text 971 782 playback and slider control 👇;
#X obj 1067 848 route start;
#X msg 1068 905 0;
#X obj 1074 877 bng 15 250 50 0 empty empty empty 17 7 0 10 #fcfcfc
#000000 #000000;
#X msg 1148 930 99999;
#X obj 900 1015 s to-seq-\$0;
#X obj 1068 815 r to-seq-\$0;
#X obj 1150 990 r length-\$0;
#X msg 1616 1032 start -1;
#X obj 1500 1112 t b 0;
#X obj 1500 1330 f, f 8;
#X obj 1600 1158 metro 1;
#X msg 1618 1124 0;
#X obj 1600 1190 t b b;
#X msg 1600 1220 tick;
#X msg 1890 1027 read symbol, f 28;
#X obj 1830 632 list trim;
#X obj 1830 584 list prepend set read, f 12;
#X text 1818 744 📂 FILE LOADING 👇;
#X obj 1500 1070 r endbang-\$0;
#X obj 1616 1094 s to-seq-\$0;
#X obj 1601 1250 s to-seq-\$0;
#X obj 1806 515 r from-filepath-\$0;
#X obj 2340 850 s length-\$0;
#X obj 560 780 route ticks;
#X obj 900 830 route ticks;
#X obj 110 130 bng 15 250 50 0 from-open-\$0 to-open-\$0 empty 20 5
0 10 #fcfcfc #000000 #000000;
#X obj 920 180 bng 15 250 50 0 empty empty empty 17 7 0 10 #fcfcfc
#000000 #000000;
#X obj 920 210 openpanel;
#X obj 920 150 r from-open-\$0;
#X obj 920 290 s to-filepath-\$0;
#X obj 1009 1045 s to-playslider-\$0;
#X obj 1151 1038 s to-playslider-\$0;
#X obj 931 852 r from-play-\$0;
#X obj 2330 870 s to-playtoggle-\$0;
#X obj 190 150 nbx 11 15 1 1e+37 0 1 from-duration-\$0 to-duration-\$0
duration 50 6 0 10 #fcfcfc #000000 #000000 2 256 0;
#X obj 640 330 t b l;
#X obj 644 476 bng 15 250 50 0 empty empty empty 17 7 0 10 #fcfcfc
#000000 #000000;
#X obj 640 505 s to-units-\$0;
#X obj 380 1180 r from-tune-\$0;
#X obj 380 1240 s to-tune-\$0;
#X msg 100 500 2;
#X obj 240 730 s loading-notes-\$0;
#X obj 1760 1460 r loading-notes-\$0;
#X text 2580 1740 comment;
#X obj 1870 1530 unpack;
#X obj 1500 1790 route 0;
#X msg 1500 1760 \$2 \$1 \$3;
#X obj 1500 1820 unpack f f f;
#X text 1600 1820 velocity note index;
#X obj 1500 1400 s length-\$0;
#X floatatom 1500 1370 5 0 0 0 - - -, f 5;
#X obj 110 200 hsl 185 40 0 0 0 0 from-playslider-\$0 to-playslider-\$0
empty 5 5 0 10 #fcfcfc #000000 #000000 0 1;
#N canvas 0 22 450 300 (subpatch) 0;
#X array sequence-\$0 1 float 2 black black;
#X coords 0 127 1 0 190 40 1;
#X restore 110 200 graph;
#X msg 212 1065 start -1;
#X obj 212 1099 s to-seq-\$0;
#X msg 50 1078 goto 0;
#X obj 200 590 s start-\$0;
#X obj 180 550 bng 15 250 50 0 empty empty empty 17 7 0 10 #fcfcfc
#000000 #000000;
#X obj 150 500 r from-play-\$0;
#X obj 60 1050 s to-play-\$0;
#X obj 1830 230 s to-play-\$0;
#X obj 640 260 pack f f s f f;
#X obj 680 365 unpack f f s f f;
#X obj 720 180 r from-play-\$0;
#X obj 740 410 s to-play-\$0;
#X obj 2310 920 s to-text-\$0;
#X msg 2310 890 clear;
#X obj 1850 1730 unpack f f f f;
#X obj 1850 1760 pack f f f;
#X obj 1850 1840 r to-text-\$0;
#X text 60 1160 todo: fix looping behaviour;
#X text 60 1185 if looping longer than duration of the clip \, playback
should pause until loop length comes around, f 33;
#X text 60 1250 not a major drama as you can control playback externally
, f 33;
#X obj 1850 1670 pack f f f f;
#X obj 1760 1490 t b l;
#X obj 1780 1560 r to-text-\$0;
#X obj 1780 1590 route clear;
#X msg 941 251 symbol assets/upsidedown.mid;
#X msg 1850 1700 \$2 \$3 \$4 \$1;
#X text 1980 1870 stores note \, velocity \, tick;
#X obj 1500 1460 r length-\$0;
#X msg 1580 1530 resize \$1;
#X obj 1500 1860 tabwrite sequence-\$0;
#X obj 1520 1560 s sequence-\$0;
#X obj 1850 1870 text define notes-\$0;
#X obj 1850 1810 text set notes-\$0;
#X msg 1520 1530 const 0;
#X obj 2120 1260 s loading-tick-\$0;
#X obj 1920 1630 r loading-tick-\$0;
#X obj 1500 1670 until;
#X obj 1500 1640 text size notes-\$0;
#X obj 1500 1490 t b b f;
#X obj 1500 1600 t b b;
#X obj 1480 1560 bng 15 250 50 0 empty empty empty 17 7 0 10 #fcfcfc
#000000 #000000;
#X obj 1500 1730 text get notes-\$0;
#X text 1600 1430 DISPLAYING NOTES IN ARRAY;
#X obj 318 940 t f f;
#X obj 320 1010 pack f s;
#X msg 320 1080 label units:\$1(\$2);
#X msg 380 1210 label tune:\$1;
#X obj 320 1030 list;
#X obj 320 980 i;
#X obj 100 700 cyclone/gate 2, f 24;
#X obj 1500 1700 cyclone/counter;
#X obj 1760 1620 cyclone/counter;
#X obj 2117 1222 cyclone/counter;
#X obj 1009 961 cyclone/counter, f 23;
#X obj 270 650 cyclone/midiparse;
#X obj 130 950 cyclone/gate 2;
#X msg 1593 983 1;
#X obj 1600 816 t b b b b 0, f 122;
#X obj 1532 683 s loadfile-\$0;
#X obj 1805 551 t b b s;
#X obj 100 440 r loadfile-\$0;
#X obj 730 220 r from-loop-\$0;
#X obj 770 390 s to-loop-\$0;
#X obj 1660 140 route time;
#X obj 1660 161 s time-\$0;
#X obj 1664 187 r time-\$0;
#X obj 893 722 r time-\$0;
#X obj 555 730 r time-\$0;
#X obj 300 100 cnv 5 10 5 empty empty empty 20 12 0 14 #bca8fc #404040
0;
#X connect 1 0 5 0;
#X connect 2 0 6 0;
#X connect 3 0 7 0;
#X connect 4 0 8 0;
#X connect 4 0 190 0;
#X connect 9 0 33 0;
#X connect 18 0 21 0;
#X connect 18 1 19 0;
#X connect 19 0 27 0;
#X connect 20 0 176 0;
#X connect 21 0 181 0;
#X connect 22 0 23 0;
#X connect 22 1 131 0;
#X connect 23 0 25 0;
#X connect 24 0 20 0;
#X connect 26 0 18 0;
#X connect 28 0 21 0;
#X connect 30 0 7 0;
#X connect 31 0 109 0;
#X connect 31 1 10 0;
#X connect 33 0 135 0;
#X connect 35 0 33 1;
#X connect 37 0 135 2;
#X connect 38 0 135 1;
#X connect 40 0 15 0;
#X connect 40 1 16 0;
#X connect 40 2 134 0;
#X connect 40 3 41 0;
#X connect 40 4 42 0;
#X connect 43 0 182 0;
#X connect 44 0 129 0;
#X connect 44 1 133 0;
#X connect 45 0 67 0;
#X connect 46 0 50 0;
#X connect 47 0 46 0;
#X connect 48 0 49 0;
#X connect 49 0 64 0;
#X connect 50 0 48 0;
#X connect 53 0 45 0;
#X connect 53 1 66 0;
#X connect 54 0 171 1;
#X connect 54 1 60 0;
#X connect 55 0 43 0;
#X connect 56 0 182 1;
#X connect 58 0 170 0;
#X connect 59 0 54 1;
#X connect 62 0 47 1;
#X connect 63 0 50 1;
#X connect 65 0 53 0;
#X connect 68 0 72 0;
#X connect 69 0 104 0;
#X connect 70 0 105 0;
#X connect 71 0 78 0;
#X connect 72 0 71 0;
#X connect 72 1 180 0;
#X connect 74 0 76 0;
#X connect 75 0 180 2;
#X connect 76 0 75 0;
#X connect 77 0 180 4;
#X connect 79 0 74 0;
#X connect 80 0 70 0;
#X connect 81 0 93 0;
#X connect 82 0 83 0;
#X connect 82 1 84 0;
#X connect 83 0 124 0;
#X connect 84 0 86 0;
#X connect 85 0 84 0;
#X connect 86 0 87 0;
#X connect 86 1 179 0;
#X connect 87 0 94 0;
#X connect 88 0 93 0;
#X connect 89 0 88 0;
#X connect 90 0 89 0;
#X connect 92 0 82 0;
#X connect 95 0 186 0;
#X connect 97 0 47 0;
#X connect 98 0 68 0;
#X connect 100 0 101 0;
#X connect 101 0 103 0;
#X connect 102 0 100 0;
#X connect 106 0 68 1;
#X connect 109 0 110 0;
#X connect 109 1 136 0;
#X connect 110 0 111 0;
#X connect 112 0 173 0;
#X connect 114 0 23 0;
#X connect 114 0 176 0;
#X connect 116 0 148 0;
#X connect 118 0 147 1;
#X connect 118 1 147 2;
#X connect 119 1 121 0;
#X connect 120 0 119 0;
#X connect 121 1 156 0;
#X connect 121 2 156 1;
#X connect 124 0 123 0;
#X connect 127 0 128 0;
#X connect 129 0 57 0;
#X connect 131 0 130 0;
#X connect 132 0 22 0;
#X connect 135 0 31 0;
#X connect 136 0 34 0;
#X connect 136 1 39 0;
#X connect 136 2 36 0;
#X connect 136 3 138 0;
#X connect 136 4 189 0;
#X connect 137 0 135 3;
#X connect 140 0 139 0;
#X connect 141 0 142 0;
#X connect 141 1 142 1;
#X connect 141 2 142 2;
#X connect 141 3 159 1;
#X connect 142 0 159 0;
#X connect 143 0 158 0;
#X connect 147 0 152 0;
#X connect 148 0 178 0;
#X connect 148 1 118 0;
#X connect 149 0 150 0;
#X connect 150 0 178 2;
#X connect 151 0 103 0;
#X connect 152 0 141 0;
#X connect 154 0 165 0;
#X connect 155 0 157 0;
#X connect 160 0 157 0;
#X connect 162 0 147 3;
#X connect 163 0 177 0;
#X connect 164 0 163 0;
#X connect 165 0 166 0;
#X connect 165 1 160 0;
#X connect 165 2 155 0;
#X connect 166 0 164 0;
#X connect 166 1 177 2;
#X connect 167 0 166 0;
#X connect 168 0 120 0;
#X connect 170 0 175 0;
#X connect 170 1 54 0;
#X connect 171 0 174 0;
#X connect 172 0 61 0;
#X connect 173 0 113 0;
#X connect 174 0 172 0;
#X connect 175 0 171 0;
#X connect 176 0 29 0;
#X connect 176 1 115 0;
#X connect 177 0 168 0;
#X connect 178 0 147 0;
#X connect 179 0 83 1;
#X connect 179 0 161 0;
#X connect 180 0 69 0;
#X connect 181 0 176 1;
#X connect 182 0 44 0;
#X connect 182 1 127 0;
#X connect 183 0 84 0;
#X connect 184 0 183 0;
#X connect 184 1 81 0;
#X connect 184 2 88 0;
#X connect 184 3 179 2;
#X connect 184 4 107 0;
#X connect 184 4 96 0;
#X connect 184 4 140 0;
#X connect 186 0 185 0;
#X connect 186 1 184 0;
#X connect 186 2 90 0;
#X connect 187 0 114 0;
#X connect 188 0 135 4;
#X connect 190 0 191 0;
#X connect 190 1 40 0;
#X connect 193 0 98 0;
#X connect 194 0 97 0;
#X coords 0 -1 1 1 210 160 1 100 100;
