#N canvas 120 23 1440 855 10;
#X obj 100 120 cnv 15 210 20 empty empty empty 7 7 0 14 #c7e2ca #ffffff
0;
#X obj 900 100 inlet~ left;
#X obj 1020 100 inlet~ right;
#X obj 1330 100 inlet note;
#X obj 1500 100 inlet ctl;
#X obj 900 430 outlet~ left;
#X obj 1000 430 outlet~ right;
#X obj 1330 430 outlet note;
#X obj 1500 430 outlet ctl;
#X obj 500 260 savestate, f 11;
#X text 590 260 👈 bangs when parent is saved;
#X obj 500 180 f;
#X obj 500 100 r save-state-\$0;
#X obj 570 290 s save-state-\$0;
#X text 100 10 GOP is 210 wide;
#X text 100 30 gui sends and receives are from-{param}-\$0 and to-{param}-\$0
;
#X text 100 70 bang and toggle label is {param} \, x = 20 \, y = 5
\, size = 15;
#X obj 110 130 tgl 15 0 from-audio-\$0 to-audio-\$0 audio 20 5 0 10
#fcfcfc #000000 #000000 0 1;
#X text 100 50 slider label is {param} \, x = 5 \, y = 5;
#X obj 1400 860 cnv 15 210 70 empty empty empty 7 7 0 14 #c9c9c9 #ffffff
0;
#X obj 180 130 tgl 15 0 from-midi-\$0 to-midi-\$0 midi 20 5 0 10 #fcfcfc
#000000 #000000 0 1;
#X obj 250 130 tgl 15 0 from-osc-\$0 to-osc-\$0 osc 20 5 0 10 #fcfcfc
#000000 #000000 0 1;
#X floatatom 250 150 8 0 0 0 port to-port-#0 from-port-#0, f 8;
#X obj 80 330 r from-audio-\$0;
#X obj 80 300 s to-audio-\$0;
#X obj 180 300 s to-midi-\$0;
#X obj 180 330 r from-midi-\$0;
#X obj 280 300 s to-osc-\$0;
#X obj 280 330 r from-osc-\$0;
#X obj 510 130 r from-audio-\$0;
#X obj 500 360 s to-audio-\$0;
#X obj 600 360 s to-midi-\$0;
#X obj 610 130 r from-midi-\$0;
#X obj 700 360 s to-osc-\$0;
#X obj 710 130 r from-osc-\$0;
#X obj 1530 190 s to-audio-\$0;
#X obj 1620 190 s to-midi-\$0;
#X obj 1710 190 s to-osc-\$0;
#X obj 900 400 clip~ -1 1;
#X obj 910 340 *~;
#X obj 910 206 line~;
#X msg 910 178 \$1 100;
#X obj 910 150 r from-audio-\$0;
#X obj 1000 400 clip~ -1 1;
#X obj 1000 290 *~;
#X obj 1010 256 line~;
#X msg 1010 228 \$1 100;
#X obj 1010 200 r from-audio-\$0;
#X obj 1160 330 sub.bop.util.gate;
#X obj 1160 150 r from-midi-\$0;
#X obj 370 300 s to-port-\$0;
#X obj 370 330 r from-port-\$0;
#X obj 780 360 s to-port-\$0;
#X obj 800 130 r from-port-\$0;
#X obj 500 220 pack f f f f;
#X obj 498 317 unpack f f f f;
#X obj 1530 150 route audio midi osc port, f 63;
#X obj 1790 190 s to-port-\$0;
#X text 1898 918 comment;
#X obj 970 180 adc~;
#X obj 900 370 +~;
#X obj 1000 315 +~;
#X obj 1243 177 notein;
#X obj 1240 240 cyclone/flush;
#X obj 1240 210 unpack;
#X obj 1200 200 bng 15 250 50 0 empty empty empty 17 7 0 10 #fcfcfc
#000000 #000000;
#X obj 1240 280 pack, f 13;
#X connect 1 0 60 0;
#X connect 2 0 61 1;
#X connect 3 0 7 0;
#X connect 4 0 8 0;
#X connect 4 0 56 0;
#X connect 9 0 55 0;
#X connect 9 1 13 0;
#X connect 11 0 54 0;
#X connect 12 0 11 0;
#X connect 29 0 11 1;
#X connect 32 0 54 1;
#X connect 34 0 54 2;
#X connect 38 0 5 0;
#X connect 39 0 60 1;
#X connect 40 0 39 0;
#X connect 41 0 40 0;
#X connect 42 0 41 0;
#X connect 43 0 6 0;
#X connect 44 0 61 0;
#X connect 45 0 44 1;
#X connect 46 0 45 0;
#X connect 47 0 46 0;
#X connect 48 1 7 0;
#X connect 49 0 65 0;
#X connect 49 0 48 0;
#X connect 53 0 54 3;
#X connect 54 0 9 0;
#X connect 55 0 30 0;
#X connect 55 1 31 0;
#X connect 55 2 33 0;
#X connect 55 3 52 0;
#X connect 56 0 35 0;
#X connect 56 1 36 0;
#X connect 56 2 37 0;
#X connect 56 3 57 0;
#X connect 59 0 39 1;
#X connect 59 1 44 0;
#X connect 60 0 38 0;
#X connect 61 0 43 0;
#X connect 62 0 64 0;
#X connect 63 0 66 0;
#X connect 63 1 66 1;
#X connect 64 0 63 0;
#X connect 64 1 63 1;
#X connect 65 0 63 0;
#X connect 66 0 48 1;
#X coords 0 -1 1 1 210 80 1 100 100;
