#N canvas 376 0 770 772 10;
#X obj 100 130 cnv 15 210 130 empty empty empty 7 7 0 14 #fdf6e3 #ffffff
0;
#X obj 670 90 inlet~ left;
#X obj 770 90 inlet~ right;
#X obj 870 90 inlet note;
#X obj 670 290 outlet~ left;
#X obj 770 290 outlet~ right;
#X obj 870 290 outlet note;
#X obj 350 690 savestate, f 11;
#X text 430 710 👈 bangs when parent is saved;
#X obj 350 660 f;
#X obj 350 580 r save-state-\$0;
#X obj 420 740 s save-state-\$0;
#X text 100 10 GOP is 210 wide;
#X text 100 30 gui sends and receives are from-{param}-\$0 and to-{param}-\$0
;
#X text 100 70 bang and toggle label is {param} \, x = 20 \, y = 5
\, size = 15;
#X text 100 50 slider label is {param} \, x = 5 \, y = 5;
#X obj 100 110 cnv 15 210 20 empty empty bop 7 7 0 14 #ffd5f0 #ffffff
0;
#X obj 110 140 tgl 15 0 from-play-\$0 to-play-\$0 play 20 5 0 10 #ffffff
#000000 #000000 0 1;
#X floatatom 240 140 5 0 0 1 ticks to-ticks-#0 from-ticks-#0, f 5
;
#X floatatom 240 160 5 0 0 1 16ths to-16ths-#0 from-16ths-#0, f 5
;
#X floatatom 240 200 5 0 0 1 8ths to-8ths-#0 from-8ths-#0, f 5;
#X floatatom 240 220 5 0 0 1 beats to-beats-#0 from-beats-#0, f 5
;
#X floatatom 240 240 5 0 0 1 bars to-bars-#0 from-bars-#0, f 5;
#X floatatom 240 180 5 0 0 1 12ths to-12ths-#0 from-12ths-#0, f 5
;
#X obj 110 160 bng 15 250 50 0 from-rewind-\$0 to-rewind-\$0 rewind
20 5 0 10 #ffffff #000000 #000000;
#X floatatom 110 180 5 0 0 1 bpm to-bpm-#0 from-bpm-#0, f 5;
#X obj 350 350 r from-ticks-\$0;
#X obj 450 350 r from-16ths-\$0;
#X obj 560 350 r from-12ths-\$0;
#X obj 350 460 r from-8ths-\$0;
#X obj 450 460 r from-beats-\$0;
#X obj 560 460 r from-bars-\$0;
#X obj 970 90 inlet ctrl;
#X obj 970 290 outlet ctrl;
#X obj 990 120 route rewind play 1 0 bpm;
#X obj 990 240 s to-rewind-\$0;
#X obj 1080 180 s to-bpm-\$0;
#X obj 368 607 r from-bpm-\$0;
#X obj 350 730 unpack f;
#X obj 352 763 s to-bpm-\$0;
#X text 863 622 pulse;
#X obj 798 727 metro;
#X obj 825 689 expr 60000/$f1;
#X obj 830 760 r \$0-rewind;
#X obj 798 586 t f b;
#X obj 799 787 counter;
#X obj 1300 676 i;
#X obj 1373 690 / 4;
#X obj 1373 710 i;
#X obj 1198 695 i;
#X obj 1198 766 % 8;
#X obj 1373 730 change;
#X obj 1300 702 change;
#X obj 1300 728 % 4;
#X text 693 655 16ths as ticks 👉;
#X msg 868 585 set \$1;
#X obj 855 558 t b f;
#X obj 824 654 * 24;
#X floatatom 862 729 5 0 0 0 - - -, f 5;
#X msg 825 623 50;
#X obj 1300 650 / 24;
#X obj 1198 653 / 12;
#X obj 980 719 i;
#X obj 980 677 / 6;
#X obj 980 790 % 16;
#X text 1486 677 24 ticks per beat;
#X text 1486 718 12 ticks per quaver;
#X text 1486 761 6 ticks per semiquaver;
#X text 1486 632 96 ticks per bar of 4/4;
#X text 1486 739 8 ticks per quaver triplet;
#X text 1486 655 32 ticks per minim triplet;
#X text 1486 698 16 ticks per crotchet triplet;
#X obj 1099 700 i;
#X obj 1099 658 / 8;
#X obj 1099 771 % 12;
#X obj 1200 730 change;
#X obj 1100 740 change;
#X obj 976 749 change;
#X obj 852 531 r from-bpm-\$0;
#X obj 799 822 s to-ticks-\$0;
#X obj 980 610 r from-ticks-\$0;
#X obj 1100 610 r from-ticks-\$0;
#X obj 1200 610 r from-ticks-\$0;
#X obj 1300 610 r from-ticks-\$0;
#X obj 980 820 s to-16ths-\$0;
#X obj 1096 817 s to-12ths-\$0;
#X obj 1198 817 s to-8ths-\$0;
#X obj 1300 819 s to-beats-\$0;
#X obj 1373 759 s to-bars-\$0;
#X obj 700 150 dac~;
#X obj 386 175 sel 1;
#X msg 390 210 \; pd dsp 1;
#X obj 390 140 r from-play-\$0;
#X obj 800 500 r from-play-\$0;
#X obj 1030 210 s to-play-\$0;
#X msg 350 380 ticks \$1;
#X msg 450 380 16ths \$1;
#X msg 560 380 12ths \$1;
#X msg 350 490 8ths \$1;
#X msg 450 490 beats \$1;
#X msg 560 490 bars \$1;
#X msg 710 530 play \$1;
#X obj 350 410 s bop-time;
#X obj 450 410 s bop-time;
#X obj 560 410 s bop-time;
#X obj 560 520 s bop-time;
#X obj 450 520 s bop-time;
#X obj 350 520 s bop-time;
#X obj 700 560 s bop-time;
#X connect 1 0 4 0;
#X connect 1 0 89 0;
#X connect 2 0 5 0;
#X connect 2 0 89 1;
#X connect 3 0 6 0;
#X connect 7 0 38 0;
#X connect 7 1 11 0;
#X connect 9 0 7 0;
#X connect 10 0 9 0;
#X connect 26 0 95 0;
#X connect 27 0 96 0;
#X connect 28 0 97 0;
#X connect 29 0 98 0;
#X connect 30 0 99 0;
#X connect 31 0 100 0;
#X connect 32 0 33 0;
#X connect 32 0 34 0;
#X connect 34 0 35 0;
#X connect 34 1 94 0;
#X connect 34 2 94 0;
#X connect 34 3 94 0;
#X connect 34 4 36 0;
#X connect 37 0 9 1;
#X connect 38 0 39 0;
#X connect 41 0 45 0;
#X connect 42 0 41 1;
#X connect 42 0 58 0;
#X connect 43 0 45 2;
#X connect 44 0 41 0;
#X connect 44 1 59 0;
#X connect 45 0 79 0;
#X connect 46 0 52 0;
#X connect 47 0 48 0;
#X connect 48 0 51 0;
#X connect 49 0 75 0;
#X connect 50 0 86 0;
#X connect 51 0 88 0;
#X connect 52 0 53 0;
#X connect 53 0 87 0;
#X connect 55 0 59 0;
#X connect 56 0 59 0;
#X connect 56 1 55 0;
#X connect 57 0 42 0;
#X connect 59 0 57 0;
#X connect 60 0 46 0;
#X connect 60 0 47 0;
#X connect 61 0 49 0;
#X connect 62 0 77 0;
#X connect 63 0 62 0;
#X connect 64 0 84 0;
#X connect 72 0 76 0;
#X connect 73 0 72 0;
#X connect 74 0 85 0;
#X connect 75 0 50 0;
#X connect 76 0 74 0;
#X connect 77 0 64 0;
#X connect 78 0 56 0;
#X connect 80 0 63 0;
#X connect 81 0 73 0;
#X connect 82 0 61 0;
#X connect 83 0 60 0;
#X connect 90 0 91 0;
#X connect 92 0 90 0;
#X connect 93 0 44 0;
#X connect 93 0 101 0;
#X connect 95 0 102 0;
#X connect 96 0 103 0;
#X connect 97 0 104 0;
#X connect 98 0 107 0;
#X connect 99 0 106 0;
#X connect 100 0 105 0;
#X connect 101 0 108 0;
#X coords 0 -1 1 1 210 170 2 100 100;
