#N canvas 0 0 1522 772 10;
#X obj 100 120 cnv 15 210 150 empty empty empty 7 7 0 14 #fdf6e3 #ffffff
0;
#X obj 770 100 inlet~ left;
#X obj 900 100 inlet~ right;
#X obj 1000 100 inlet note;
#X obj 1100 100 inlet ctl;
#X obj 770 300 outlet~ left;
#X obj 900 300 outlet~ right;
#X obj 1000 300 outlet note;
#X obj 1100 300 outlet ctl;
#X obj 480 280 savestate, f 11;
#X text 570 280 👈 bangs when parent is saved;
#X obj 480 100 f;
#X obj 480 20 r save-state-\$0;
#X obj 550 310 s save-state-\$0;
#X obj 100 100 cnv 15 210 20 empty empty bop.reverb 7 7 0 14 #c8e1f7
#ffffff 0;
#X obj 770 190 freeverb~, f 22;
#X obj 50 620 s to-freeverb-\$0;
#X obj 790 150 r to-freeverb-\$0;
#X obj 110 130 hsl 185 15 0 1.1 0 1 from-room-size-\$0 to-room-size-\$0
room-size:0.8668 5 5 0 10 #fcfcfc #000000 #000000 14500 1;
#X obj 110 150 hsl 185 15 0 1.25 0 1 from-damping-\$0 to-damping-\$0
damping:0.4416 5 5 0 10 #fcfcfc #000000 #000000 6500 1;
#X obj 40 560 r from-room-size-\$0;
#X obj 40 680 s to-room-size-\$0;
#X obj 498 47 r from-room-size-\$0;
#X obj 480 500 s to-room-size-\$0;
#X obj 260 620 s to-freeverb-\$0;
#X msg 260 590 damping \$1;
#X obj 250 680 s to-damping-\$0;
#X obj 250 560 r from-damping-\$0;
#X obj 518 77 r from-damping-\$0;
#X obj 500 480 s to-damping-\$0;
#X obj 110 200 hsl 185 15 0.0125 1.25 1 1 from-wet-\$0 to-wet-\$0 wet:0.02519
5 5 0 10 #fcfcfc #000000 #000000 2800 1;
#X obj 600 620 s to-freeverb-\$0;
#X obj 590 560 r from-wet-\$0;
#X msg 600 590 wet \$1;
#X obj 590 680 s to-wet-\$0;
#X obj 568 127 r from-wet-\$0;
#X obj 540 430 s to-wet-\$0;
#X obj 110 220 hsl 185 15 0.01 1 1 1 from-dry-\$0 to-dry-\$0 dry:0.01
5 5 0 10 #fcfcfc #000000 #000000 0 1;
#X obj 770 620 s to-freeverb-\$0;
#X obj 760 560 r from-dry-\$0;
#X msg 770 590 dry \$1;
#X obj 760 680 s to-dry-\$0;
#X obj 570 410 s to-dry-\$0;
#X obj 580 150 r from-dry-\$0;
#X obj 110 240 tgl 15 1 from-freeze-\$0 to-freeze-\$0 freeze 20 5 0
10 #fcfcfc #000000 #000000 0 1;
#X obj 240 240 tgl 15 1 from-bypass-\$0 to-bypass-\$0 bypass 20 5 0
10 #fcfcfc #000000 #000000 0 1;
#X obj 932 622 s to-freeverb-\$0;
#X obj 930 560 r from-freeze-\$0;
#X msg 932 592 freeze \$1;
#X obj 590 180 r from-freeze-\$0;
#X obj 600 210 r from-bypass-\$0;
#X obj 590 390 s from-freeze-\$0;
#X obj 610 370 s from-bypass-\$0;
#X obj 1060 620 s to-freeverb-\$0;
#X obj 1058 558 r from-bypass-\$0;
#X msg 1060 590 bypass \$1;
#X obj 1192 302 s to-room-size-\$0;
#X obj 1212 282 s to-damping-\$0;
#X obj 1232 262 s to-wet-\$0;
#X obj 1262 242 s to-dry-\$0;
#X obj 110 180 hsl 185 15 0 2 0 1 from-width-\$0 to-width-\$0 width:2
5 5 0 10 #fcfcfc #000000 #000000 18400 1;
#X obj 430 620 s to-freeverb-\$0;
#X obj 420 560 r from-width-\$0;
#X msg 430 590 width \$1;
#X obj 420 680 s to-width-\$0;
#X obj 478 337 unpack f f f f f f f;
#X obj 520 455 s to-width-\$0;
#X obj 480 250 pack f f f f f f f;
#X obj 528 102 r from-width-\$0;
#X obj 1130 150 route room-size damping wet dry freeze bypass width
;
#X obj 1350 180 s to-width-\$0;
#X msg 50 590 roomsize \$1;
#X obj 1282 222 s to-freeze-\$0;
#X obj 1302 202 s to-bypass-\$0;
#X msg 40 650 label room-size:\$1;
#X msg 250 650 label damping:\$1;
#X msg 420 650 label width:\$1;
#X msg 592 645 label wet:\$1;
#X msg 760 650 label dry:\$1;
#X connect 1 0 15 0;
#X connect 2 0 15 1;
#X connect 3 0 7 0;
#X connect 4 0 8 0;
#X connect 4 0 69 0;
#X connect 9 0 65 0;
#X connect 9 1 13 0;
#X connect 11 0 67 0;
#X connect 12 0 11 0;
#X connect 15 0 5 0;
#X connect 15 1 6 0;
#X connect 17 0 15 0;
#X connect 20 0 71 0;
#X connect 20 0 74 0;
#X connect 22 0 11 1;
#X connect 25 0 24 0;
#X connect 27 0 25 0;
#X connect 27 0 75 0;
#X connect 28 0 67 1;
#X connect 32 0 33 0;
#X connect 32 0 77 0;
#X connect 33 0 31 0;
#X connect 35 0 67 3;
#X connect 39 0 40 0;
#X connect 39 0 78 0;
#X connect 40 0 38 0;
#X connect 43 0 67 4;
#X connect 47 0 48 0;
#X connect 48 0 46 0;
#X connect 49 0 67 5;
#X connect 50 0 67 6;
#X connect 54 0 55 0;
#X connect 55 0 53 0;
#X connect 62 0 63 0;
#X connect 62 0 76 0;
#X connect 63 0 61 0;
#X connect 65 0 23 0;
#X connect 65 1 29 0;
#X connect 65 2 66 0;
#X connect 65 3 36 0;
#X connect 65 4 42 0;
#X connect 65 5 51 0;
#X connect 65 6 52 0;
#X connect 67 0 9 0;
#X connect 68 0 67 2;
#X connect 69 0 56 0;
#X connect 69 1 57 0;
#X connect 69 2 58 0;
#X connect 69 3 59 0;
#X connect 69 4 72 0;
#X connect 69 5 73 0;
#X connect 69 6 70 0;
#X connect 71 0 16 0;
#X connect 74 0 21 0;
#X connect 75 0 26 0;
#X connect 76 0 64 0;
#X connect 77 0 34 0;
#X connect 78 0 41 0;
#X coords 0 -1 1 1 210 170 2 100 100;
