#N canvas 376 0 770 772 10;
#X obj 100 120 cnv 15 210 40 empty empty empty 7 7 0 14 #fdf6e3 #ffffff
0;
#X obj 650 100 inlet~ left;
#X obj 860 100 inlet~ right;
#X obj 1090 100 inlet note;
#X obj 650 300 outlet~ left;
#X obj 860 300 outlet~ right;
#X obj 1090 300 outlet note;
#X obj 360 230 savestate, f 11;
#X text 450 230 👈 bangs when parent is saved;
#X obj 360 110 r save-state-\$0;
#X obj 430 260 s save-state-\$0;
#X symbolatom 110 130 26 0 0 1 id to-id-#0 from-id-#0, f 26;
#X obj 360 190 symbol;
#X obj 358 287 unpack s;
#X obj 390 150 r from-id-\$0;
#X obj 360 320 s to-id-\$0;
#X obj 1400 160 route id;
#X obj 1400 200 s to-id-\$0;
#X obj 1250 100 inlet ctrl;
#X obj 1250 300 outlet ctrl;
#X obj 1100 220 list prepend;
#X obj 1260 230 list prepend;
#X obj 1130 150 r from-id-\$0;
#X obj 878 147 r from-id-\$0;
#X obj 670 150 r from-id-\$0;
#X obj 1130 180 sprintf %s notes;
#X obj 1270 180 sprintf %s ctrl;
#X obj 1270 153 r from-id-\$0;
#X obj 1100 250 send bop-send;
#X obj 1260 260 send bop-send;
#X obj 668 247 throw~;
#X obj 870 240 throw~;
#X obj 880 190 sprintf set bop-throw-%s-right;
#X obj 670 180 sprintf set bop-throw-%s-left;
#X obj 100 100 cnv 15 210 20 empty empty bop.send 7 7 0 14 #c7e2ca
#ffffff 0;
#X connect 1 0 4 0;
#X connect 1 0 30 0;
#X connect 2 0 5 0;
#X connect 2 0 31 0;
#X connect 3 0 6 0;
#X connect 3 0 20 0;
#X connect 7 0 13 0;
#X connect 7 1 10 0;
#X connect 9 0 12 0;
#X connect 12 0 7 0;
#X connect 13 0 15 0;
#X connect 14 0 12 1;
#X connect 16 0 17 0;
#X connect 18 0 16 0;
#X connect 18 0 19 0;
#X connect 18 0 21 0;
#X connect 20 0 28 0;
#X connect 21 0 29 0;
#X connect 22 0 25 0;
#X connect 23 0 32 0;
#X connect 24 0 33 0;
#X connect 25 0 20 1;
#X connect 26 0 21 1;
#X connect 27 0 26 0;
#X connect 32 0 31 0;
#X connect 33 0 30 0;
#X coords 0 -1 1 1 210 60 2 100 100;
