#N canvas 120 23 1440 772 10;
#X obj 640 100 inlet~ left;
#X obj 900 100 inlet~ right;
#X obj 1000 100 inlet note;
#X obj 1130 100 inlet ctl;
#X obj 640 200 outlet~ left;
#X obj 900 200 outlet~ right;
#X obj 1010 160 outlet note;
#X obj 1130 270 outlet ctl;
#X obj 400 370 savestate, f 11;
#X text 490 370 👈 bangs when parent is saved;
#X obj 400 0 r save-state-\$0;
#X obj 460 400 s save-state-\$0;
#X obj 1000 460 pack 0 0 0;
#X obj 1000 590 route 1 2 3 4, f 132;
#X obj 730 130 hip~ 5;
#X obj 730 155 clip~ -1 1;
#X obj 100 120 cnv 15 210 20 empty empty empty 7 7 0 14 #97c5ee #ffffff
0;
#X text 2130 1110 comment;
#X obj 110 260 hsl 185 15 0.01 1 1 1 from-sine-\$0 to-sine-\$0 sine:0.376779
5 5 0 10 #fcfcfc #000000 #000000 14500 1;
#X obj 410 400 t b l;
#X obj 400 50 f;
#X obj 1420 330 s to-curve-\$0;
#X obj 1360 350 s to-release-\$0;
#X obj 1310 370 s to-sustain-\$0;
#X obj 1280 390 s to-decay-\$0;
#X obj 1250 410 s to-peak-\$0;
#X obj 1230 430 s to-attack-\$0;
#X obj 530 660 s to-curve-\$0;
#X obj 510 680 s to-release-\$0;
#X obj 490 700 s to-sustain-\$0;
#X obj 480 720 s to-decay-\$0;
#X obj 460 740 s to-peak-\$0;
#X obj 440 760 s to-attack-\$0;
#X obj 420 20 r from-attack-\$0;
#X obj 430 40 r from-peak-\$0;
#X obj 440 60 r from-decay-\$0;
#X obj 450 80 r from-sustain-\$0;
#X obj 460 100 r from-release-\$0;
#X obj 480 120 r from-curve-\$0;
#X obj 110 310 hsl 185 15 0.01 1 1 1 from-attack-\$0 to-attack-\$0
attack:0.33246 5 5 0 10 #fcfcfc #000000 #000000 14000 1;
#X obj 110 330 hsl 185 15 0 1 0 1 from-peak-\$0 to-peak-\$0 peak:0.782609
5 5 0 10 #fcfcfc #000000 #000000 14400 1;
#X obj 110 350 hsl 185 15 0 1 0 1 from-decay-\$0 to-decay-\$0 decay:0.228261
5 5 0 10 #fcfcfc #000000 #000000 4200 1;
#X obj 110 370 hsl 185 15 0 1 0 1 from-sustain-\$0 to-sustain-\$0 sustain:0.434783
5 5 0 10 #fcfcfc #000000 #000000 8000 1;
#X obj 110 390 hsl 185 15 0 1 0 1 from-release-\$0 to-release-\$0 release:0.0163043
5 5 0 10 #fcfcfc #000000 #000000 300 1;
#X obj 110 410 hsl 185 15 0 1 0 0 from-curve-\$0 to-curve-\$0 curve:0.157609
5 5 0 10 #fcfcfc #000000 #000000 0 1;
#X msg 1000 500 \$1 \$1 \$2 \$3;
#X obj 110 150 hsl 185 15 0 1 0 1 from-spread-\$0 to-spread-\$0 spread:0.0869565
5 5 0 10 #fcfcfc #000000 #000000 1600 1;
#X obj 550 640 s to-spread-\$0;
#X obj 500 140 r from-spread-\$0;
#X obj 1470 310 s to-spread-\$0;
#X obj 730 60 catch~ instrument-left-\$0;
#X obj 800 80 catch~ instrument-right-\$0;
#X obj 800 130 hip~ 5;
#X obj 800 155 clip~ -1 1;
#X obj 1000 740 throw~ instrument-left-\$0;
#X obj 1010 710 throw~ instrument-right-\$0;
#X obj 1200 740 throw~ instrument-left-\$0;
#X obj 1210 710 throw~ instrument-right-\$0;
#X obj 1400 740 throw~ instrument-left-\$0;
#X obj 1410 710 throw~ instrument-right-\$0;
#X obj 1590 740 throw~ instrument-left-\$0;
#X obj 1600 710 throw~ instrument-right-\$0;
#X obj 1010 650 r from-spread-\$0;
#X obj 1210 650 r from-spread-\$0;
#X obj 1415 653 r from-spread-\$0;
#X obj 1601 651 r from-spread-\$0;
#X obj 1000 420 poly 4 1, f 10;
#X obj 1010 340 r bop-play;
#X obj 1010 360 sel 0;
#X obj 1000 390 cyclone/flush;
#X obj 110 130 tgl 15 1 from-pedal-\$0 to-pedal-\$0 pedal 20 5 0 10
#fcfcfc #000000 #000000 1 1;
#N canvas 0 22 450 300 sustain 0;
#X obj 50 170 stripnote;
#X obj 50 190 pack;
#X obj 100 80 + 1;
#X obj 100 30 inlet;
#X obj 50 30 inlet;
#X obj 10 250 outlet;
#X obj 10 130 cyclone/gate 2, f 7;
#X connect 0 0 1 0;
#X connect 0 1 1 1;
#X connect 1 0 5 0;
#X connect 2 0 6 0;
#X connect 3 0 2 0;
#X connect 4 0 6 1;
#X connect 6 0 5 0;
#X connect 6 1 0 0;
#X restore 1000 250 pd sustain;
#X obj 510 160 r from-pedal-\$0;
#X obj 560 620 s to-pedal-\$0;
#X obj 1020 210 r from-pedal-\$0;
#X obj 1500 290 s to-pedal-\$0;
#X obj 500 860 s to-sine-\$0;
#X obj 500 800 r from-sine-\$0;
#X obj 160 800 r from-saw-\$0;
#X obj 160 860 s to-saw-\$0;
#X obj 250 800 r from-square-\$0;
#X obj 250 860 s to-square-\$0;
#X obj 370 800 r from-triangle-\$0;
#X obj 370 860 s to-triangle-\$0;
#X obj 610 530 s to-sine-\$0;
#X obj 570 240 r from-sine-\$0;
#X obj 520 180 r from-saw-\$0;
#X obj 570 590 s to-saw-\$0;
#X obj 530 200 r from-square-\$0;
#X obj 580 570 s to-square-\$0;
#X obj 550 220 r from-triangle-\$0;
#X obj 590 550 s to-triangle-\$0;
#X obj 110 200 hsl 185 15 0.01 1 1 1 from-saw-\$0 to-saw-\$0 saw:0.0128439
5 5 0 10 #fcfcfc #000000 #000000 1000 1;
#X obj 110 220 hsl 185 15 0.01 1 1 1 from-square-\$0 to-square-\$0
square:0.0471969 5 5 0 10 #fcfcfc #000000 #000000 6200 1;
#X obj 110 240 hsl 185 15 0.01 1 1 1 from-triangle-\$0 to-triangle-\$0
triangle:0.01 5 5 0 10 #fcfcfc #000000 #000000 0 1;
#X msg 250 830 label square:\$1;
#X msg 160 830 label saw:\$1;
#X msg 370 830 label triangle:\$1;
#X msg 500 830 label sine:\$1;
#X obj 1930 310 s to-sine-\$0;
#X obj 1800 370 s to-saw-\$0;
#X obj 1850 350 s to-square-\$0;
#X obj 1890 330 s to-triangle-\$0;
#X obj 1540 270 s to-mono-\$0;
#X obj 620 510 s to-mono-\$0;
#X obj 580 260 r from-mono-\$0;
#X obj 170 130 tgl 15 1 from-mono-\$0 to-mono-\$0 mono 20 5 0 10 #fcfcfc
#000000 #000000 0 1;
#X obj 820 240 r from-mono-\$0;
#X obj 1100 420 poly 1 1;
#X obj 820 270 + 1;
#X obj 823 301 t f b;
#X obj 1000 680 sub.bop.util.spread -1;
#X obj 1200 680 sub.bop.util.spread -0.5;
#X obj 1400 680 sub.bop.util.spread 0.5;
#X obj 1590 680 sub.bop.util.spread 1;
#X obj 1200 620 sub.bop.synth.voice \$0;
#X obj 1000 620 sub.bop.synth.voice \$0;
#X obj 1400 620 sub.bop.synth.voice \$0;
#X obj 1590 620 sub.bop.synth.voice \$0;
#X obj 610 870 s to-filter-\$0;
#X obj 610 800 r from-filter-\$0;
#X obj 730 800 r from-attack-\$0;
#X obj 840 800 r from-peak-\$0;
#X obj 940 800 r from-decay-\$0;
#X obj 1050 800 r from-sustain-\$0;
#X obj 1170 800 r from-release-\$0;
#X obj 1280 800 r from-curve-\$0;
#X obj 1280 870 s to-curve-\$0;
#X obj 1170 870 s to-release-\$0;
#X obj 1050 870 s to-sustain-\$0;
#X obj 940 870 s to-decay-\$0;
#X obj 840 870 s to-peak-\$0;
#X obj 730 870 s to-attack-\$0;
#X obj 1390 800 r from-spread-\$0;
#X obj 1390 870 s to-spread-\$0;
#X msg 610 830 label filter:\$1;
#X msg 730 830 label attack:\$1;
#X msg 840 830 label peak:\$1;
#X msg 940 830 label decay:\$1;
#X msg 1050 830 label sustain:\$1;
#X msg 1170 830 label release:\$1;
#X msg 1280 830 label curve:\$1;
#X msg 1390 830 label spread:\$1;
#X obj 1000 310 cyclone/gate 2, f 17;
#X obj 110 280 hsl 185 15 0.01 1 1 1 from-noise-\$0 to-noise-\$0 noise:0.01
5 5 0 10 #fcfcfc #000000 #000000 0 1;
#X obj 50 800 r from-noise-\$0;
#X obj 50 860 s to-noise-\$0;
#X obj 590 280 r from-noise-\$0;
#X obj 640 490 s to-noise-\$0;
#X obj 1960 290 s to-noise-\$0;
#X obj 1800 270 route saw square triangle sine noise;
#X msg 50 830 label noise:\$1;
#X obj 110 170 hsl 185 15 0.01 1 1 1 from-slide-\$0 to-slide-\$0 slide:0.0759337
5 5 0 10 #fcfcfc #000000 #000000 8100 1;
#X obj 51 900 r from-slide-\$0;
#X obj 50 970 s to-slide-\$0;
#X msg 51 930 label slide:\$1;
#X obj 400 330 pack f f f f f f f f f f f f f f f;
#X obj 440 430 unpack f f f f f f f f f f f f f f f;
#X obj 600 300 r from-slide-\$0;
#X obj 650 470 s to-slide-\$0;
#X obj 1240 200 route attack peak decay sustain release curve spread
pedal mono slide, f 62;
#X obj 1570 250 s to-slide-\$0;
#X connect 0 0 4 0;
#X connect 1 0 5 0;
#X connect 2 0 6 0;
#X connect 2 0 71 0;
#X connect 3 0 7 0;
#X connect 3 0 160 0;
#X connect 8 0 19 0;
#X connect 8 1 11 0;
#X connect 10 0 20 0;
#X connect 12 0 45 0;
#X connect 13 0 116 0;
#X connect 13 1 115 0;
#X connect 13 2 117 0;
#X connect 13 3 118 0;
#X connect 14 0 15 0;
#X connect 15 0 4 0;
#X connect 19 1 157 0;
#X connect 20 0 156 0;
#X connect 33 0 20 1;
#X connect 34 0 156 1;
#X connect 35 0 156 2;
#X connect 36 0 156 3;
#X connect 37 0 156 4;
#X connect 38 0 156 5;
#X connect 45 0 13 0;
#X connect 48 0 156 6;
#X connect 50 0 14 0;
#X connect 51 0 52 0;
#X connect 52 0 53 0;
#X connect 53 0 5 0;
#X connect 62 0 111 1;
#X connect 63 0 112 1;
#X connect 64 0 113 1;
#X connect 65 0 114 1;
#X connect 66 0 12 0;
#X connect 66 1 12 1;
#X connect 66 2 12 2;
#X connect 67 0 68 0;
#X connect 68 0 69 0;
#X connect 69 0 66 0;
#X connect 69 1 66 1;
#X connect 71 0 143 1;
#X connect 72 0 156 7;
#X connect 74 0 71 1;
#X connect 77 0 98 0;
#X connect 78 0 96 0;
#X connect 80 0 95 0;
#X connect 82 0 97 0;
#X connect 85 0 156 11;
#X connect 86 0 156 8;
#X connect 88 0 156 9;
#X connect 90 0 156 10;
#X connect 95 0 81 0;
#X connect 96 0 79 0;
#X connect 97 0 83 0;
#X connect 98 0 76 0;
#X connect 105 0 156 12;
#X connect 107 0 109 0;
#X connect 108 0 12 0;
#X connect 108 1 12 1;
#X connect 108 2 12 2;
#X connect 109 0 110 0;
#X connect 110 0 143 0;
#X connect 110 1 69 0;
#X connect 111 0 54 0;
#X connect 111 1 55 0;
#X connect 112 0 56 0;
#X connect 112 1 57 0;
#X connect 113 0 58 0;
#X connect 113 1 59 0;
#X connect 114 0 60 0;
#X connect 114 1 61 0;
#X connect 115 0 112 0;
#X connect 116 0 111 0;
#X connect 117 0 113 0;
#X connect 118 0 114 0;
#X connect 120 0 135 0;
#X connect 121 0 136 0;
#X connect 122 0 137 0;
#X connect 123 0 138 0;
#X connect 124 0 139 0;
#X connect 125 0 140 0;
#X connect 126 0 141 0;
#X connect 133 0 142 0;
#X connect 135 0 119 0;
#X connect 136 0 132 0;
#X connect 137 0 131 0;
#X connect 138 0 130 0;
#X connect 139 0 129 0;
#X connect 140 0 128 0;
#X connect 141 0 127 0;
#X connect 142 0 134 0;
#X connect 143 0 69 0;
#X connect 143 1 108 0;
#X connect 145 0 151 0;
#X connect 147 0 156 13;
#X connect 150 0 100 0;
#X connect 150 1 101 0;
#X connect 150 2 102 0;
#X connect 150 3 99 0;
#X connect 150 4 149 0;
#X connect 151 0 146 0;
#X connect 153 0 155 0;
#X connect 155 0 154 0;
#X connect 156 0 8 0;
#X connect 157 0 32 0;
#X connect 157 1 31 0;
#X connect 157 2 30 0;
#X connect 157 3 29 0;
#X connect 157 4 28 0;
#X connect 157 5 27 0;
#X connect 157 6 47 0;
#X connect 157 7 73 0;
#X connect 157 8 87 0;
#X connect 157 9 89 0;
#X connect 157 10 91 0;
#X connect 157 11 84 0;
#X connect 157 12 104 0;
#X connect 157 13 148 0;
#X connect 157 14 159 0;
#X connect 158 0 156 14;
#X connect 160 0 26 0;
#X connect 160 1 25 0;
#X connect 160 2 24 0;
#X connect 160 3 23 0;
#X connect 160 4 22 0;
#X connect 160 5 21 0;
#X connect 160 6 49 0;
#X connect 160 7 75 0;
#X connect 160 8 103 0;
#X connect 160 9 161 0;
#X connect 160 10 150 0;
#X coords 0 -1 1 1 210 340 1 100 100;
