#N canvas 761 0 768 778 10;
#X obj 100 120 cnv 15 210 120 empty empty empty 7 7 0 14 #fdf6e3 #ffffff
0;
#X obj 800 100 inlet~ left;
#X obj 900 100 inlet~ right;
#X obj 1000 100 inlet note;
#X obj 1100 100 inlet ctl;
#X obj 800 300 outlet~ left;
#X obj 900 300 outlet~ right;
#X obj 1000 300 outlet note;
#X obj 1100 540 outlet ctl;
#X obj 500 260 savestate, f 11;
#X text 590 260 👈 bangs when parent is saved;
#X obj 500 160 f;
#X obj 500 50 r save-state-\$0;
#X obj 570 290 s save-state-\$0;
#X text 1530 810 🎹, f 2;
#X text 1400 810 🔊, f 2;
#X text 1460 810 🔊, f 2;
#X text 1590 830 🕹️;
#X text 1400 830 ⚪, f 2;
#X text 1460 830 🔴, f 2;
#X text 1530 830 🎹, f 2;
#X obj 1400 860 cnv 15 210 70 empty empty empty 7 7 0 14 #c9c9c9 #ffffff
0;
#X obj 100 100 cnv 15 210 20 empty empty bop.ramp 7 7 0 14 #f0aad8
#ffffff 0;
#X obj 200 170 hsl 95 15 0 5.9 0 1 from-units-\$0 to-units-\$0 units:bars(5)
6 6 0 10 #ffffff #000000 #000000 9400 1;
#X obj 500 460 s to-duration-\$0;
#X obj 540 80 r from-duration-\$0;
#X obj 560 100 r from-units-\$0;
#X obj 520 440 s to-units-\$0;
#X obj 200 150 nbx 10 15 1 1e+37 0 1 from-duration-\$0 to-duration-\$0
duration 40 6 0 10 #fcfcfc #000000 #000000 1 256 0;
#N canvas 536 233 450 305 tick-calculator 0;
#X obj 73 -159 i;
#X msg 73 -39 list ticks 16ths 12ths 8ths beats bars, f 18;
#X obj 73 17 cyclone/zl nth, f 21;
#X obj 73 -69 t b f, f 21;
#X obj 73 -99 + 1;
#X text 230 -35 todo: calculate bars according to time signature,
f 17;
#X obj 217 17 cyclone/zl nth, f 21;
#X obj 217 -99 t b f, f 21;
#X msg 217 -69 1 6 8 12 24 96, f 18;
#X obj 216 106 *;
#X obj 229 70 t b f;
#X obj 72 -193 inlet;
#X obj 238 38 inlet;
#X obj 70 160 outlet;
#X obj 214 160 outlet;
#X obj 70 90 symbol;
#X connect 0 0 4 0;
#X connect 1 0 2 0;
#X connect 2 0 15 0;
#X connect 3 0 1 0;
#X connect 3 1 2 1;
#X connect 4 0 3 0;
#X connect 4 0 7 0;
#X connect 6 0 9 0;
#X connect 7 0 8 0;
#X connect 7 1 6 1;
#X connect 8 0 6 0;
#X connect 9 0 14 0;
#X connect 10 0 9 0;
#X connect 10 1 9 1;
#X connect 11 0 0 0;
#X connect 12 0 10 0;
#X connect 15 0 13 0;
#X restore 130 480 pd tick-calculator;
#X obj 100 400 r from-units-\$0;
#X obj 237 443 r from-duration-\$0;
#X obj 237 513 s duration-ticks-\$0;
#X obj 100 580 s to-units-\$0;
#X obj 100 440 t f f;
#X obj 1130 300 s to-duration-\$0;
#X obj 1180 270 s to-units-\$0;
#X text 1560 760 comment;
#X symbolatom 110 130 12 0 0 1 tag to-tag-#0 from-tag-#0, f 12;
#X obj 560 125 r from-tag-\$0;
#X obj 540 420 s to-tag-\$0;
#X obj 110 150 nbx 8 15 -1e+37 1e+37 0 1 from-min-\$0 to-min-\$0 min
60 6 0 10 #fcfcfc #000000 #000000 0 256 0;
#X obj 110 170 nbx 8 15 -1e+37 1e+37 0 1 from-max-\$0 to-max-\$0 max
60 6 0 10 #fcfcfc #000000 #000000 1 256 0;
#X obj 1210 250 s to-tag-\$0;
#X obj 110 210 hsl 185 15 0 1 0 1 from-value-\$0 to-value-\$0 value:0
5 5 0 10 #fcfcfc #000000 #000000 0 1;
#X obj 1167 406 r from-tag-\$0;
#X obj 1140 440 symbol;
#X obj 1140 380 t b f, f 21;
#X obj 800 380 route ticks;
#X obj 800 350 r bop-time;
#X obj 800 730 s to-value-\$0;
#X obj 530 690 s to-value-\$0;
#X obj 530 540 r from-value-\$0;
#X obj 370 620 pack f f;
#X obj 410 590 t b f;
#X msg 370 650 range \$1 \$2;
#X obj 800 610 %;
#X obj 820 580 r duration-ticks-\$0;
#X obj 850 610 r duration-ticks-\$0;
#X obj 1140 340 r from-value-\$0;
#X obj 370 530 r from-min-\$0;
#X obj 410 560 r from-max-\$0;
#X obj 570 150 r from-min-\$0;
#X obj 600 170 r from-max-\$0;
#X obj 580 380 s to-max-\$0;
#X obj 550 400 s to-min-\$0;
#X obj 1290 210 s to-max-\$0;
#X obj 1240 230 s to-min-\$0;
#X obj 890 630 r from-min-\$0;
#X obj 930 650 r from-max-\$0;
#X obj 110 190 hsl 185 15 0 100 0 1 from-offset-\$0 to-offset-\$0 offset:0
5 5 0 10 #fcfcfc #000000 #000000 0 1;
#X obj 280 700 r from-offset-\$0;
#X obj 280 770 s to-offset-\$0;
#X obj 610 190 r from-offset-\$0;
#X obj 590 360 s to-offset-\$0;
#X obj 500 220 pack f f s f f f;
#X obj 498 317 unpack f f s f f f;
#X obj 1130 150 route duration units tag min max offset;
#X obj 1320 180 s to-offset-\$0;
#X obj 810 420 r from-offset-\$0;
#X obj 810 450 * 0.01;
#X obj 810 530 *;
#X obj 800 560 +;
#X obj 830 470 r duration-ticks-\$0;
#X obj 830 500 t b f;
#X obj 800 690 sub.bop.util.scale 0 1 0 1;
#X obj 100 500 int;
#X obj 100 525 pack f s;
#X msg 280 730 label offset:\$1;
#X msg 530 590 label value:\$1;
#X obj 1140 510 pack s f, f 21;
#X msg 100 550 label units:\$2(\$1);
#X connect 1 0 5 0;
#X connect 2 0 6 0;
#X connect 3 0 7 0;
#X connect 4 0 8 0;
#X connect 4 0 77 0;
#X connect 9 0 76 0;
#X connect 9 1 13 0;
#X connect 11 0 75 0;
#X connect 12 0 11 0;
#X connect 25 0 11 1;
#X connect 26 0 75 1;
#X connect 29 0 87 1;
#X connect 29 1 32 0;
#X connect 30 0 34 0;
#X connect 31 0 29 1;
#X connect 34 0 86 0;
#X connect 34 1 29 0;
#X connect 39 0 75 2;
#X connect 45 0 46 1;
#X connect 46 0 90 0;
#X connect 47 0 46 0;
#X connect 47 1 90 1;
#X connect 48 0 82 0;
#X connect 49 0 48 0;
#X connect 52 0 89 0;
#X connect 53 0 55 0;
#X connect 54 0 53 0;
#X connect 54 1 53 1;
#X connect 55 0 51 0;
#X connect 56 0 85 0;
#X connect 57 0 56 1;
#X connect 58 0 85 2;
#X connect 59 0 47 0;
#X connect 60 0 53 0;
#X connect 61 0 54 0;
#X connect 62 0 75 3;
#X connect 63 0 75 4;
#X connect 68 0 85 3;
#X connect 69 0 85 4;
#X connect 71 0 88 0;
#X connect 73 0 75 5;
#X connect 75 0 9 0;
#X connect 76 0 24 0;
#X connect 76 1 27 0;
#X connect 76 2 40 0;
#X connect 76 3 65 0;
#X connect 76 4 64 0;
#X connect 76 5 74 0;
#X connect 77 0 35 0;
#X connect 77 1 36 0;
#X connect 77 2 43 0;
#X connect 77 3 67 0;
#X connect 77 4 66 0;
#X connect 77 5 78 0;
#X connect 79 0 80 0;
#X connect 80 0 81 0;
#X connect 81 0 82 1;
#X connect 82 0 56 0;
#X connect 83 0 84 0;
#X connect 84 0 81 0;
#X connect 84 1 81 1;
#X connect 85 0 50 0;
#X connect 86 0 87 0;
#X connect 87 0 91 0;
#X connect 88 0 72 0;
#X connect 89 0 51 0;
#X connect 90 0 8 0;
#X connect 91 0 33 0;
#X coords 0 -1 1 1 210 140 2 100 100;
