#N canvas 376 0 770 772 10;
#X obj 100 120 cnv 15 210 60 empty empty empty 7 7 0 14 #fdf6e3 #ffffff
0;
#X obj 1400 700 cnv 15 210 70 empty empty empty 7 7 0 14 #c9c9c9 #ffffff
0;
#X obj 1400 680 cnv 15 210 20 empty empty bop.template 7 7 0 14 #c8e1f7
#ffffff 0;
#X obj 100 100 cnv 15 210 20 empty empty bop.template 7 7 0 14 #c7e2ca
#ffffff 0;
#X obj 100 580 cnv 15 210 70 empty empty empty 7 7 0 14 #fdf6e3 #ffffff
0;
#X obj 800 100 inlet~ left;
#X obj 900 100 inlet~ right;
#X obj 1000 100 inlet note;
#X obj 1100 100 inlet ctl;
#X obj 800 300 outlet~ left;
#X obj 900 300 outlet~ right;
#X obj 1000 300 outlet note;
#X obj 1100 300 outlet ctl;
#X obj 500 260 savestate, f 11;
#X text 590 260 👈 bangs when parent is saved;
#X obj 500 180 f;
#X obj 500 220 pack f f f;
#X obj 498 317 unpack f f f;
#X obj 500 100 r save-state-\$0;
#X obj 570 290 s save-state-\$0;
#X obj 518 127 r from-param1-\$0;
#X obj 538 157 r from-param2-\$0;
#X obj 558 187 r from-param3-\$0;
#X obj 498 407 s to-param1-\$0;
#X obj 528 377 s to-param2-\$0;
#X obj 558 347 s to-param3-\$0;
#X obj 1130 150 route param1 param2 param3;
#X obj 1130 240 s to-param1-\$0;
#X obj 1180 210 s to-param2-\$0;
#X obj 1230 180 s to-param3-\$0;
#X text 100 10 GOP is 210 wide;
#X obj 110 130 hsl 128 15 0 127 0 0 from-param1-\$0 to-param1-\$0 param1:0
5 5 0 10 #fcfcfc #000000 #000000 0 1;
#X text 100 30 gui sends and receives are from-{param}-\$0 and to-{param}-\$0
;
#X text 100 70 bang and toggle label is {param} \, x = 20 \, y = 5
\, size = 15;
#X obj 250 130 tgl 15 0 from-param2-\$0 to-param2-\$0 param2 20 5 0
10 #fcfcfc #000000 #000000 0 1;
#X symbolatom 110 150 26 0 0 1 param3 to-param3-#0 from-param3-#0,
f 26;
#X text 100 50 slider label is {param} \, x = 5 \, y = 5;
#X text 1530 810 🎹, f 2;
#X text 1400 810 🔊, f 2;
#X text 1460 810 🔊, f 2;
#X text 1590 830 🕹️;
#X text 1400 830 ⚪, f 2;
#X text 1460 830 🔴, f 2;
#X text 1530 830 🎹, f 2;
#X obj 1397 680 cnv 1 10 1 empty empty empty 7 7 0 14 #f4f4f4 #ffffff
0;
#X obj 1597 680 cnv 1 10 1 empty empty empty 7 7 0 14 #aac1ff #ffffff
0;
#X obj 1462 680 cnv 1 10 1 empty empty empty 7 7 0 14 #ffaaaa #ffffff
0;
#X obj 1530 680 cnv 1 10 1 empty empty empty 7 7 0 14 #6a6a6a #ffffff
0;
#X obj 1397 769 cnv 1 10 1 empty empty empty 7 7 0 14 #f4f4f4 #ffffff
0;
#X obj 1597 769 cnv 1 10 1 empty empty empty 7 7 0 14 #aac1ff #ffffff
0;
#X obj 1462 769 cnv 1 10 1 empty empty empty 7 7 0 14 #ffaaaa #ffffff
0;
#X obj 1530 769 cnv 1 10 1 empty empty empty 7 7 0 14 #6a6a6a #ffffff
0;
#X obj 700 560 cnv 15 210 20 empty empty bop.template 7 7 0 14 #d7cbfe
#ffffff 0;
#X obj 400 560 cnv 15 210 20 empty empty bop.template 7 7 0 14 #c8e1f7
#ffffff 0;
#X obj 1000 560 cnv 15 210 20 empty empty bop.template 7 7 0 14 #f7c8e7
#ffffff 0;
#X obj 1400 860 cnv 15 210 70 empty empty empty 7 7 0 14 #c9c9c9 #ffffff
0;
#X obj 100 560 cnv 15 210 20 empty empty bop.template 7 7 0 14 #c7e2ca
#ffffff 0;
#X obj 1000 580 cnv 15 210 70 empty empty empty 7 7 0 14 #fdf6e3 #ffffff
0;
#X obj 700 580 cnv 15 210 70 empty empty empty 7 7 0 14 #fdf6e3 #ffffff
0;
#X obj 400 580 cnv 15 210 70 empty empty empty 7 7 0 14 #fdf6e3 #ffffff
0;
#X text 400 530 audio effect;
#X text 700 530 midi effect;
#X text 1000 530 ctrl effect;
#X text 400 500 instrument;
#X text 700 500 sequencer;
#X text 1000 500 modulator;
#X text 100 500 audio io;
#X text 100 530 utility/plumbing;
#X obj 700 700 cnv 15 210 70 empty empty empty 7 7 0 14 #fdf6e3 #ffffff
0;
#X obj 800 680 cnv 15 110 20 empty empty empty 7 7 0 14 #f7c8e7 #ffffff
0;
#X obj 700 680 cnv 15 100 20 empty empty bop.template 7 7 0 14 #d7cbfe
#ffffff 0;
#X text 700 660 hybrid midi ctrl effect;
#X obj 164 296 r from-param1-\$0;
#X obj 164 321 sprintf label param1:%. 4g;
#X obj 164 346 s to-param1-\$0;
#X connect 5 0 9 0;
#X connect 6 0 10 0;
#X connect 7 0 11 0;
#X connect 8 0 12 0;
#X connect 8 0 26 0;
#X connect 13 0 17 0;
#X connect 13 1 19 0;
#X connect 15 0 16 0;
#X connect 16 0 13 0;
#X connect 17 0 23 0;
#X connect 17 1 24 0;
#X connect 17 2 25 0;
#X connect 18 0 15 0;
#X connect 20 0 15 1;
#X connect 21 0 16 1;
#X connect 22 0 16 2;
#X connect 26 0 27 0;
#X connect 26 1 28 0;
#X connect 26 2 29 0;
#X connect 72 0 73 0;
#X connect 73 0 74 0;
#X coords 0 -1 1 1 210 80 2 100 100;
