#N canvas 0 23 1680 1005 10;
#X obj 640 100 inlet~ left;
#X obj 900 100 inlet~ right;
#X obj 1000 100 inlet note;
#X obj 1130 100 inlet ctl;
#X obj 640 200 outlet~ left;
#X obj 900 200 outlet~ right;
#X obj 1010 160 outlet note;
#X obj 1130 270 outlet ctl;
#X obj 400 370 savestate, f 11;
#X text 490 370 👈 bangs when parent is saved;
#X obj 400 0 r save-state-\$0;
#X obj 460 400 s save-state-\$0;
#X obj 1000 660 pack 0 0 0;
#X obj 1000 740 route 1 2 3 4, f 132;
#X obj 730 130 hip~ 5;
#X obj 730 155 clip~ -1 1;
#X obj 100 120 cnv 15 210 20 empty empty empty 7 7 0 14 #97c5ee #ffffff
0;
#X text 2130 1110 comment;
#X obj 110 260 hsl 185 15 0.01 1 1 1 from-sine-\$0 to-sine-\$0 sine:0.01
5 5 0 10 #fcfcfc #000000 #000000 0 1;
#X obj 410 400 t b l;
#X obj 400 50 f;
#X obj 1420 330 s to-curve-\$0;
#X obj 1360 350 s to-release-\$0;
#X obj 1310 370 s to-sustain-\$0;
#X obj 1280 390 s to-decay-\$0;
#X obj 1250 410 s to-peak-\$0;
#X obj 1230 430 s to-attack-\$0;
#X obj 530 660 s to-curve-\$0;
#X obj 510 680 s to-release-\$0;
#X obj 490 700 s to-sustain-\$0;
#X obj 480 720 s to-decay-\$0;
#X obj 460 740 s to-peak-\$0;
#X obj 440 760 s to-attack-\$0;
#X obj 420 20 r from-attack-\$0;
#X obj 430 40 r from-peak-\$0;
#X obj 440 60 r from-decay-\$0;
#X obj 450 80 r from-sustain-\$0;
#X obj 460 100 r from-release-\$0;
#X obj 480 120 r from-curve-\$0;
#X obj 110 310 hsl 185 15 0.01 1 1 1 from-attack-\$0 to-attack-\$0
attack:0.01 5 5 0 10 #fcfcfc #000000 #000000 0 1;
#X obj 110 330 hsl 185 15 0 1 0 1 from-peak-\$0 to-peak-\$0 peak:0.983696
5 5 0 10 #fcfcfc #000000 #000000 18100 1;
#X obj 110 350 hsl 185 15 0 1 0 1 from-decay-\$0 to-decay-\$0 decay:0.961957
5 5 0 10 #fcfcfc #000000 #000000 17700 1;
#X obj 110 370 hsl 185 15 0 1 0 1 from-sustain-\$0 to-sustain-\$0 sustain:0
5 5 0 10 #fcfcfc #000000 #000000 0 1;
#X obj 110 390 hsl 185 15 0 1 0 1 from-release-\$0 to-release-\$0 release:0
5 5 0 10 #fcfcfc #000000 #000000 0 1;
#X obj 110 410 hsl 185 15 0 1 0 0 from-curve-\$0 to-curve-\$0 curve:0.788043
5 5 0 10 #fcfcfc #000000 #000000 14500 1;
#X msg 1000 700 \$1 \$1 \$2 \$3;
#X obj 110 150 hsl 185 15 0 1 0 1 from-spread-\$0 to-spread-\$0 spread:0.13587
5 5 0 10 #fcfcfc #000000 #000000 2500 1;
#X obj 550 640 s to-spread-\$0;
#X obj 500 140 r from-spread-\$0;
#X obj 1470 310 s to-spread-\$0;
#X obj 730 60 catch~ instrument-left-\$0;
#X obj 800 80 catch~ instrument-right-\$0;
#X obj 800 130 hip~ 5;
#X obj 800 155 clip~ -1 1;
#X obj 1000 890 throw~ instrument-left-\$0;
#X obj 1010 860 throw~ instrument-right-\$0;
#X obj 1200 890 throw~ instrument-left-\$0;
#X obj 1210 860 throw~ instrument-right-\$0;
#X obj 1400 890 throw~ instrument-left-\$0;
#X obj 1410 860 throw~ instrument-right-\$0;
#X obj 1590 890 throw~ instrument-left-\$0;
#X obj 1600 860 throw~ instrument-right-\$0;
#X obj 1010 800 r from-spread-\$0;
#X obj 1210 800 r from-spread-\$0;
#X obj 1415 803 r from-spread-\$0;
#X obj 1601 801 r from-spread-\$0;
#X obj 1000 620 poly 4 1, f 10;
#X obj 1010 560 sel 0;
#X obj 1000 590 cyclone/flush;
#X obj 110 130 tgl 15 1 from-pedal-\$0 to-pedal-\$0 pedal 20 5 0 10
#fcfcfc #000000 #000000 1 1;
#N canvas 0 22 450 300 sustain 0;
#X obj 50 170 stripnote;
#X obj 50 190 pack;
#X obj 100 80 + 1;
#X obj 100 30 inlet;
#X obj 50 30 inlet;
#X obj 10 250 outlet;
#X obj 10 130 cyclone/gate 2, f 7;
#X connect 0 0 1 0;
#X connect 0 1 1 1;
#X connect 1 0 5 0;
#X connect 2 0 6 0;
#X connect 3 0 2 0;
#X connect 4 0 6 1;
#X connect 6 0 5 0;
#X connect 6 1 0 0;
#X restore 1000 250 pd sustain;
#X obj 510 160 r from-pedal-\$0;
#X obj 560 620 s to-pedal-\$0;
#X obj 1020 210 r from-pedal-\$0;
#X obj 1500 290 s to-pedal-\$0;
#X obj 550 1060 s to-sine-\$0;
#X obj 550 1000 r from-sine-\$0;
#X obj 210 1000 r from-saw-\$0;
#X obj 210 1060 s to-saw-\$0;
#X obj 300 1000 r from-square-\$0;
#X obj 300 1060 s to-square-\$0;
#X obj 420 1000 r from-triangle-\$0;
#X obj 420 1060 s to-triangle-\$0;
#X obj 610 530 s to-sine-\$0;
#X obj 570 240 r from-sine-\$0;
#X obj 520 180 r from-saw-\$0;
#X obj 570 590 s to-saw-\$0;
#X obj 530 200 r from-square-\$0;
#X obj 580 570 s to-square-\$0;
#X obj 550 220 r from-triangle-\$0;
#X obj 590 550 s to-triangle-\$0;
#X obj 110 200 hsl 185 15 0.01 1 1 1 from-saw-\$0 to-saw-\$0 saw:0.0882373
5 5 0 10 #fcfcfc #000000 #000000 8700 1;
#X obj 110 220 hsl 185 15 0.01 1 1 1 from-square-\$0 to-square-\$0
square:0.01 5 5 0 10 #fcfcfc #000000 #000000 0 1;
#X obj 110 240 hsl 185 15 0.01 1 1 1 from-triangle-\$0 to-triangle-\$0
triangle:0.437829 5 5 0 10 #fcfcfc #000000 #000000 15100 1;
#X msg 300 1030 label square:\$1;
#X msg 210 1030 label saw:\$1;
#X msg 420 1030 label triangle:\$1;
#X msg 550 1030 label sine:\$1;
#X obj 1930 310 s to-sine-\$0;
#X obj 1800 370 s to-saw-\$0;
#X obj 1850 350 s to-square-\$0;
#X obj 1890 330 s to-triangle-\$0;
#X obj 1540 270 s to-mono-\$0;
#X obj 620 510 s to-mono-\$0;
#X obj 580 260 r from-mono-\$0;
#X obj 170 130 tgl 15 1 from-mono-\$0 to-mono-\$0 mono 20 5 0 10 #fcfcfc
#000000 #000000 0 1;
#X obj 890 250 r from-mono-\$0;
#X obj 1100 620 poly 1 1;
#X obj 890 280 + 1;
#X obj 893 311 t f b;
#X obj 1000 830 sub.bop.util.spread -1;
#X obj 1200 830 sub.bop.util.spread -0.5;
#X obj 1400 830 sub.bop.util.spread 0.5;
#X obj 1590 830 sub.bop.util.spread 1;
#X obj 1200 770 sub.bop.synth.voice \$0;
#X obj 1000 770 sub.bop.synth.voice \$0;
#X obj 1400 770 sub.bop.synth.voice \$0;
#X obj 1590 770 sub.bop.synth.voice \$0;
#X obj 660 1070 s to-filter-\$0;
#X obj 660 1000 r from-filter-\$0;
#X obj 780 1000 r from-attack-\$0;
#X obj 890 1000 r from-peak-\$0;
#X obj 990 1000 r from-decay-\$0;
#X obj 1100 1000 r from-sustain-\$0;
#X obj 1220 1000 r from-release-\$0;
#X obj 1330 1000 r from-curve-\$0;
#X obj 1330 1070 s to-curve-\$0;
#X obj 1220 1070 s to-release-\$0;
#X obj 1100 1070 s to-sustain-\$0;
#X obj 990 1070 s to-decay-\$0;
#X obj 890 1070 s to-peak-\$0;
#X obj 780 1070 s to-attack-\$0;
#X obj 1440 1000 r from-spread-\$0;
#X obj 1440 1070 s to-spread-\$0;
#X msg 660 1030 label filter:\$1;
#X msg 780 1030 label attack:\$1;
#X msg 890 1030 label peak:\$1;
#X msg 990 1030 label decay:\$1;
#X msg 1100 1030 label sustain:\$1;
#X msg 1220 1030 label release:\$1;
#X msg 1330 1030 label curve:\$1;
#X msg 1440 1030 label spread:\$1;
#X obj 1000 360 cyclone/gate 2, f 17;
#X obj 110 280 hsl 185 15 0.01 1 1 1 from-noise-\$0 to-noise-\$0 noise:0.0324242
5 5 0 10 #fcfcfc #000000 #000000 4700 1;
#X obj 100 1000 r from-noise-\$0;
#X obj 100 1060 s to-noise-\$0;
#X obj 590 280 r from-noise-\$0;
#X obj 640 490 s to-noise-\$0;
#X obj 1960 290 s to-noise-\$0;
#X obj 1800 270 route saw square triangle sine noise;
#X msg 100 1030 label noise:\$1;
#X obj 110 170 hsl 185 15 0.01 1 1 1 from-slide-\$0 to-slide-\$0 slide:0.01
5 5 0 10 #fcfcfc #000000 #000000 0 1;
#X obj 101 1100 r from-slide-\$0;
#X obj 100 1170 s to-slide-\$0;
#X msg 101 1130 label slide:\$1;
#X obj 400 330 pack f f f f f f f f f f f f f f f;
#X obj 440 430 unpack f f f f f f f f f f f f f f f;
#X obj 600 300 r from-slide-\$0;
#X obj 650 470 s to-slide-\$0;
#X obj 1240 200 route attack peak decay sustain release curve spread
pedal mono slide, f 62;
#X obj 1570 250 s to-slide-\$0;
#X obj 1905 483 loadbang;
#X obj 1905 573 s \$0-scope-id;
#X obj 1905 513 bng 15 250 50 0 empty empty empty 17 7 0 10 #fcfcfc
#000000 #000000;
#X obj 1905 543 iemguts/canvasdollarzero 1;
#X text 1930 512 get \$0 of parent patch to localise messaging;
#X obj 1903 597 r \$0-scope-id;
#X obj 1905 633 print scope-id;
#X obj 1017 402 r bop-time;
#X obj 1020 481 route;
#X obj 1041 435 r \$0-scope-id;
#X obj 1020 510 route play;
#X connect 0 0 4 0;
#X connect 1 0 5 0;
#X connect 2 0 6 0;
#X connect 2 0 70 0;
#X connect 3 0 7 0;
#X connect 3 0 159 0;
#X connect 8 0 19 0;
#X connect 8 1 11 0;
#X connect 10 0 20 0;
#X connect 12 0 45 0;
#X connect 13 0 115 0;
#X connect 13 1 114 0;
#X connect 13 2 116 0;
#X connect 13 3 117 0;
#X connect 14 0 15 0;
#X connect 15 0 4 0;
#X connect 19 1 156 0;
#X connect 20 0 155 0;
#X connect 33 0 20 1;
#X connect 34 0 155 1;
#X connect 35 0 155 2;
#X connect 36 0 155 3;
#X connect 37 0 155 4;
#X connect 38 0 155 5;
#X connect 45 0 13 0;
#X connect 48 0 155 6;
#X connect 50 0 14 0;
#X connect 51 0 52 0;
#X connect 52 0 53 0;
#X connect 53 0 5 0;
#X connect 62 0 110 1;
#X connect 63 0 111 1;
#X connect 64 0 112 1;
#X connect 65 0 113 1;
#X connect 66 0 12 0;
#X connect 66 1 12 1;
#X connect 66 2 12 2;
#X connect 67 0 68 0;
#X connect 68 0 66 0;
#X connect 68 1 66 1;
#X connect 70 0 142 1;
#X connect 71 0 155 7;
#X connect 73 0 70 1;
#X connect 76 0 97 0;
#X connect 77 0 95 0;
#X connect 79 0 94 0;
#X connect 81 0 96 0;
#X connect 84 0 155 11;
#X connect 85 0 155 8;
#X connect 87 0 155 9;
#X connect 89 0 155 10;
#X connect 94 0 80 0;
#X connect 95 0 78 0;
#X connect 96 0 82 0;
#X connect 97 0 75 0;
#X connect 104 0 155 12;
#X connect 106 0 108 0;
#X connect 107 0 12 0;
#X connect 107 1 12 1;
#X connect 107 2 12 2;
#X connect 108 0 109 0;
#X connect 109 0 142 0;
#X connect 109 1 68 0;
#X connect 110 0 54 0;
#X connect 110 1 55 0;
#X connect 111 0 56 0;
#X connect 111 1 57 0;
#X connect 112 0 58 0;
#X connect 112 1 59 0;
#X connect 113 0 60 0;
#X connect 113 1 61 0;
#X connect 114 0 111 0;
#X connect 115 0 110 0;
#X connect 116 0 112 0;
#X connect 117 0 113 0;
#X connect 119 0 134 0;
#X connect 120 0 135 0;
#X connect 121 0 136 0;
#X connect 122 0 137 0;
#X connect 123 0 138 0;
#X connect 124 0 139 0;
#X connect 125 0 140 0;
#X connect 132 0 141 0;
#X connect 134 0 118 0;
#X connect 135 0 131 0;
#X connect 136 0 130 0;
#X connect 137 0 129 0;
#X connect 138 0 128 0;
#X connect 139 0 127 0;
#X connect 140 0 126 0;
#X connect 141 0 133 0;
#X connect 142 0 68 0;
#X connect 142 1 107 0;
#X connect 144 0 150 0;
#X connect 146 0 155 13;
#X connect 149 0 99 0;
#X connect 149 1 100 0;
#X connect 149 2 101 0;
#X connect 149 3 98 0;
#X connect 149 4 148 0;
#X connect 150 0 145 0;
#X connect 152 0 154 0;
#X connect 154 0 153 0;
#X connect 155 0 8 0;
#X connect 156 0 32 0;
#X connect 156 1 31 0;
#X connect 156 2 30 0;
#X connect 156 3 29 0;
#X connect 156 4 28 0;
#X connect 156 5 27 0;
#X connect 156 6 47 0;
#X connect 156 7 72 0;
#X connect 156 8 86 0;
#X connect 156 9 88 0;
#X connect 156 10 90 0;
#X connect 156 11 83 0;
#X connect 156 12 103 0;
#X connect 156 13 147 0;
#X connect 156 14 158 0;
#X connect 157 0 155 14;
#X connect 159 0 26 0;
#X connect 159 1 25 0;
#X connect 159 2 24 0;
#X connect 159 3 23 0;
#X connect 159 4 22 0;
#X connect 159 5 21 0;
#X connect 159 6 49 0;
#X connect 159 7 74 0;
#X connect 159 8 102 0;
#X connect 159 9 160 0;
#X connect 159 10 149 0;
#X connect 161 0 163 0;
#X connect 163 0 164 0;
#X connect 164 0 162 0;
#X connect 166 0 167 0;
#X connect 168 0 169 0;
#X connect 169 0 171 0;
#X connect 170 0 169 1;
#X connect 171 0 67 0;
#X coords 0 -1 1 1 210 340 1 100 100;
