#N canvas 600 23 840 855 10;
#X obj 640 100 inlet~ left;
#X obj 900 100 inlet~ right;
#X obj 1180 60 inlet note;
#X obj 1360 100 inlet ctl;
#X obj 640 200 outlet~ left;
#X obj 900 200 outlet~ right;
#X obj 1190 120 outlet note;
#X obj 1360 270 outlet ctl;
#X obj 400 350 savestate, f 11;
#X text 490 350 👈 bangs when parent is saved;
#X obj 400 60 r save-state-\$0;
#X obj 460 380 s save-state-\$0;
#X obj 1190 440 pack 0 0 0;
#X obj 1190 520 route 1 2 3 4, f 132;
#X obj 730 130 hip~ 5;
#X obj 730 155 clip~ -1 1;
#X obj 100 120 cnv 15 210 20 empty empty empty 7 7 0 14 #94c4ec #fcfcfc
0;
#X text 1820 860 comment;
#X obj 70 730 int;
#X obj 70 750 t f f;
#X obj 70 710 r from-wave-1-\$0;
#X obj 70 890 s to-wave-1-\$0;
#X obj 1480 260 s to-wave-1-\$0;
#X obj 440 640 s to-wave-1-\$0;
#N canvas 159 357 451 305 wave-name-maker 0;
#X obj 70 -110 i;
#X obj 70 -70 t b f, f 21;
#X obj 69 -144 inlet;
#X obj 70 110 outlet;
#X msg 70 -40 saw square pulse sinepulse halfpulse res-saw res-triangle
res-trapezoid, f 39;
#X obj 70 80 symbol;
#X obj 70 20 list split;
#X msg 70 50 \$1;
#X connect 0 0 1 0;
#X connect 1 0 4 0;
#X connect 1 1 6 1;
#X connect 2 0 0 0;
#X connect 4 0 6 0;
#X connect 5 0 3 0;
#X connect 6 1 7 0;
#X connect 7 0 5 0;
#X restore 90 790 pd wave-name-maker;
#X obj 110 150 hsl 185 15 0 7 0 1 from-wave-1-\$0 to-wave-1-\$0 wave-1:0(saw)
5 5 0 10 #fcfcfc #000000 #000000 0 1;
#X obj 230 730 int;
#X obj 230 890 s to-wave-2-\$0;
#X obj 230 710 r from-wave-2-\$0;
#X obj 410 380 t b l;
#X obj 460 620 s to-wave-2-\$0;
#X obj 400 170 f;
#X obj 110 170 hsl 185 15 0 7 0 1 from-wave-2-\$0 to-wave-2-\$0 wave-2:0(saw)
5 5 0 10 #fcfcfc #000000 #000000 0 1;
#X msg 1090 350 stop;
#X obj 110 190 hsl 185 15 0 1 0 1 from-filter-\$0 to-filter-\$0 filter:0
5 5 0 10 #fcfcfc #000000 #000000 0 1;
#X obj 400 900 s to-filter-\$0;
#X obj 400 830 r from-filter-\$0;
#X obj 480 600 s to-filter-\$0;
#X obj 450 120 r from-filter-\$0;
#X obj 1480 170 route wave-1 wave-2 filter, f 36;
#X obj 1530 220 s to-filter-\$0;
#X obj 520 830 r from-attack-\$0;
#X obj 630 830 r from-peak-\$0;
#X obj 730 830 r from-decay-\$0;
#X obj 840 830 r from-sustain-\$0;
#X obj 960 830 r from-release-\$0;
#X obj 1070 830 r from-curve-\$0;
#X obj 1070 900 s to-curve-\$0;
#X obj 960 900 s to-release-\$0;
#X obj 840 900 s to-sustain-\$0;
#X obj 730 900 s to-decay-\$0;
#X obj 630 900 s to-peak-\$0;
#X obj 520 900 s to-attack-\$0;
#X obj 1820 310 s to-curve-\$0;
#X obj 1760 330 s to-release-\$0;
#X obj 1710 350 s to-sustain-\$0;
#X obj 1680 370 s to-decay-\$0;
#X obj 1650 390 s to-peak-\$0;
#X obj 1630 410 s to-attack-\$0;
#X obj 580 480 s to-curve-\$0;
#X obj 560 500 s to-release-\$0;
#X obj 540 520 s to-sustain-\$0;
#X obj 530 540 s to-decay-\$0;
#X obj 510 560 s to-peak-\$0;
#X obj 490 580 s to-attack-\$0;
#X obj 460 140 r from-attack-\$0;
#X obj 470 160 r from-peak-\$0;
#X obj 480 180 r from-decay-\$0;
#X obj 490 200 r from-sustain-\$0;
#X obj 500 220 r from-release-\$0;
#X obj 520 240 r from-curve-\$0;
#X obj 110 240 hsl 185 15 0.01 1 1 1 from-attack-\$0 to-attack-\$0
attack:0.01 5 5 0 10 #fcfcfc #000000 #000000 0 1;
#X obj 110 260 hsl 185 15 0 1 0 1 from-peak-\$0 to-peak-\$0 peak:0
5 5 0 10 #fcfcfc #000000 #000000 0 1;
#X obj 110 280 hsl 185 15 0 1 0 1 from-decay-\$0 to-decay-\$0 decay:0
5 5 0 10 #fcfcfc #000000 #000000 0 1;
#X obj 110 300 hsl 185 15 0 1 0 1 from-sustain-\$0 to-sustain-\$0 sustain:0
5 5 0 10 #fcfcfc #000000 #000000 0 1;
#X obj 110 320 hsl 185 15 0 1 0 1 from-release-\$0 to-release-\$0 release:0
5 5 0 10 #fcfcfc #000000 #000000 0 1;
#X obj 110 340 hsl 185 15 0 1 0 0 from-curve-\$0 to-curve-\$0 curve:0
5 5 0 10 #fcfcfc #000000 #000000 0 1;
#X msg 1190 480 \$1 \$1 \$2 \$3;
#X obj 110 210 hsl 185 15 0 1 0 1 from-spread-\$0 to-spread-\$0 spread:0
5 5 0 10 #fcfcfc #000000 #000000 0 1;
#X obj 1180 830 r from-spread-\$0;
#X obj 1180 900 s to-spread-\$0;
#X obj 600 460 s to-spread-\$0;
#X obj 540 260 r from-spread-\$0;
#X obj 1870 290 s to-spread-\$0;
#X obj 730 60 catch~ instrument-left-\$0;
#X obj 800 80 catch~ instrument-right-\$0;
#X obj 800 130 hip~ 5;
#X obj 800 155 clip~ -1 1;
#X obj 1190 670 throw~ instrument-left-\$0;
#X obj 1200 640 throw~ instrument-right-\$0;
#X obj 1390 670 throw~ instrument-left-\$0;
#X obj 1400 640 throw~ instrument-right-\$0;
#X obj 1590 670 throw~ instrument-left-\$0;
#X obj 1600 640 throw~ instrument-right-\$0;
#X obj 1780 670 throw~ instrument-left-\$0;
#X obj 1790 640 throw~ instrument-right-\$0;
#X obj 1200 580 r from-spread-\$0;
#X obj 1400 580 r from-spread-\$0;
#X obj 1605 583 r from-spread-\$0;
#X obj 1791 581 r from-spread-\$0;
#X obj 410 80 r from-wave-1-\$0;
#X obj 440 100 r from-wave-2-\$0;
#X obj 1500 240 s to-wave-2-\$0;
#X obj 1190 400 poly 4 1, f 10;
#X obj 1200 330 sel 0;
#X obj 1190 370 cyclone/flush;
#X obj 110 130 tgl 15 1 from-pedal-\$0 to-pedal-\$0 pedal 20 5 0 10
#fcfcfc #000000 #000000 0 1;
#X obj 400 310 pack f f f f f f f f f f f;
#X obj 440 410 unpack f f f f f f f f f f f;
#X obj 550 280 r from-pedal-\$0;
#X obj 610 440 s to-pedal-\$0;
#X obj 1640 220 route attack peak decay sustain release curve spread
pedal, f 54;
#X obj 1900 270 s to-pedal-\$0;
#X obj 1190 610 sub.bop.util.spread -1;
#X obj 1390 610 sub.bop.util.spread -0.5;
#X obj 1590 610 sub.bop.util.spread 0.5;
#X obj 1780 610 sub.bop.util.spread 1;
#X obj 1190 550 sub.bop.casio.voice \$0;
#X obj 1390 550 sub.bop.casio.voice \$0;
#X obj 1590 550 sub.bop.casio.voice \$0;
#X obj 1780 550 sub.bop.casio.voice \$0;
#X obj 70 830 pack f s;
#X msg 70 860 label wave-1:\$1(\$2);
#X obj 230 750 t f f;
#N canvas 159 357 451 305 wave-name-maker 0;
#X obj 70 -110 i;
#X obj 70 -70 t b f, f 21;
#X obj 69 -144 inlet;
#X obj 70 110 outlet;
#X msg 70 -40 saw square pulse sinepulse halfpulse res-saw res-triangle
res-trapezoid, f 39;
#X obj 70 80 symbol;
#X obj 70 20 list split;
#X msg 70 50 \$1;
#X connect 0 0 1 0;
#X connect 1 0 4 0;
#X connect 1 1 6 1;
#X connect 2 0 0 0;
#X connect 4 0 6 0;
#X connect 5 0 3 0;
#X connect 6 1 7 0;
#X connect 7 0 5 0;
#X restore 260 790 pd wave-name-maker;
#X obj 230 830 pack f s;
#X msg 230 860 label wave-2:\$1(\$2);
#X text 1480 1180 comment;
#X msg 400 860 label filter:\$1;
#X msg 520 860 label attack:\$1;
#X msg 630 860 label peak:\$1;
#X msg 730 860 label decay:\$1;
#X msg 840 860 label sustain:\$1;
#X msg 960 860 label release:\$1;
#X msg 1070 860 label curve:\$1;
#X msg 1180 860 label spread:\$1;
#X obj 1090 320 sel 0;
#X obj 1090 290 r from-pedal-\$0;
#X obj 1420 140 route time;
#X obj 1420 200 s time-\$0;
#X obj 1200 290 r time-\$0;
#X obj 1200 310 route play;
#X obj 300 100 cnv 5 10 5 empty empty empty 20 12 0 14 #94c4ec #404040
0;
#N canvas 782 406 450 300 sustain 0;
#X obj 170 180 stripnote;
#X obj 170 200 pack;
#X obj 190 40 inlet;
#X obj 140 40 inlet;
#X obj 140 240 outlet;
#X obj 140 120 list trim;
#X obj 140 150 route 0 1;
#X obj 140 80 list prepend 0;
#X connect 0 0 1 0;
#X connect 0 1 1 1;
#X connect 1 0 4 0;
#X connect 2 0 7 1;
#X connect 3 0 7 0;
#X connect 5 0 6 0;
#X connect 6 0 4 0;
#X connect 6 1 0 0;
#X connect 7 0 5 0;
#X restore 1190 240 pd sustain;
#X obj 1240 200 r from-pedal-\$0;
#X connect 0 0 4 0;
#X connect 1 0 5 0;
#X connect 2 0 6 0;
#X connect 2 0 143 0;
#X connect 3 0 7 0;
#X connect 3 0 138 0;
#X connect 8 0 29 0;
#X connect 8 1 11 0;
#X connect 10 0 31 0;
#X connect 12 0 77 0;
#X connect 13 0 117 0;
#X connect 13 1 118 0;
#X connect 13 2 119 0;
#X connect 13 3 120 0;
#X connect 14 0 15 0;
#X connect 15 0 4 0;
#X connect 18 0 19 0;
#X connect 19 0 121 0;
#X connect 19 1 24 0;
#X connect 20 0 18 0;
#X connect 24 0 121 1;
#X connect 26 0 123 0;
#X connect 28 0 26 0;
#X connect 29 1 108 0;
#X connect 31 0 107 0;
#X connect 33 0 103 0;
#X connect 36 0 128 0;
#X connect 38 0 107 2;
#X connect 39 0 22 0;
#X connect 39 1 102 0;
#X connect 39 2 40 0;
#X connect 39 3 111 0;
#X connect 41 0 129 0;
#X connect 42 0 130 0;
#X connect 43 0 131 0;
#X connect 44 0 132 0;
#X connect 45 0 133 0;
#X connect 46 0 134 0;
#X connect 65 0 107 3;
#X connect 66 0 107 4;
#X connect 67 0 107 5;
#X connect 68 0 107 6;
#X connect 69 0 107 7;
#X connect 70 0 107 8;
#X connect 77 0 13 0;
#X connect 79 0 135 0;
#X connect 82 0 107 9;
#X connect 84 0 14 0;
#X connect 85 0 86 0;
#X connect 86 0 87 0;
#X connect 87 0 5 0;
#X connect 96 0 113 1;
#X connect 97 0 114 1;
#X connect 98 0 115 1;
#X connect 99 0 116 1;
#X connect 100 0 31 1;
#X connect 101 0 107 1;
#X connect 103 0 12 0;
#X connect 103 1 12 1;
#X connect 103 2 12 2;
#X connect 104 0 105 1;
#X connect 104 0 33 0;
#X connect 105 0 103 0;
#X connect 105 1 103 1;
#X connect 107 0 8 0;
#X connect 108 0 23 0;
#X connect 108 1 30 0;
#X connect 108 2 37 0;
#X connect 108 3 64 0;
#X connect 108 4 63 0;
#X connect 108 5 62 0;
#X connect 108 6 61 0;
#X connect 108 7 60 0;
#X connect 108 8 59 0;
#X connect 108 9 81 0;
#X connect 108 10 110 0;
#X connect 109 0 107 10;
#X connect 111 0 58 0;
#X connect 111 1 57 0;
#X connect 111 2 56 0;
#X connect 111 3 55 0;
#X connect 111 4 54 0;
#X connect 111 5 53 0;
#X connect 111 6 83 0;
#X connect 111 7 112 0;
#X connect 113 0 88 0;
#X connect 113 1 89 0;
#X connect 114 0 90 0;
#X connect 114 1 91 0;
#X connect 115 0 92 0;
#X connect 115 1 93 0;
#X connect 116 0 94 0;
#X connect 116 1 95 0;
#X connect 117 0 113 0;
#X connect 118 0 114 0;
#X connect 119 0 115 0;
#X connect 120 0 116 0;
#X connect 121 0 122 0;
#X connect 122 0 21 0;
#X connect 123 0 125 0;
#X connect 123 1 124 0;
#X connect 124 0 125 1;
#X connect 125 0 126 0;
#X connect 126 0 27 0;
#X connect 128 0 35 0;
#X connect 129 0 52 0;
#X connect 130 0 51 0;
#X connect 131 0 50 0;
#X connect 132 0 49 0;
#X connect 133 0 48 0;
#X connect 134 0 47 0;
#X connect 135 0 80 0;
#X connect 136 0 33 0;
#X connect 137 0 136 0;
#X connect 138 0 139 0;
#X connect 138 1 39 0;
#X connect 140 0 141 0;
#X connect 141 0 104 0;
#X connect 143 0 105 0;
#X connect 144 0 143 1;
#X coords 0 -1 1 1 210 270 1 100 100;
