#N canvas 761 0 768 778 10;
#X obj 100 120 cnv 15 210 150 empty empty empty 7 7 0 14 #fcf4e0 #fcfcfc
0;
#X obj 460 100 inlet~ left;
#X obj 600 100 inlet~ right;
#X obj 700 100 inlet note;
#X obj 1000 100 inlet ctl;
#X obj 460 300 outlet~ left;
#X obj 600 300 outlet~ right;
#X obj 700 390 outlet note;
#X obj 1000 300 outlet ctl;
#X obj 110 160 hsl 185 35 0 1 0 0 from-play-slider-\$0 to-play-slider-\$0
empty 5 5 0 10 #fcfcfc #000000 #000000 18400 1;
#X symbolatom 130 130 19 0 0 1 filepath to-filepath-#0 from-filepath-#0
, f 19;
#X obj 110 220 bng 15 250 50 0 from-go-\$0 to-go-\$0 go 20 5 0 10 #fcfcfc
#000000 #000000;
#N canvas 0 0 450 300 (subpatch) 0;
#X array sample-\$0 87636 float 0 black black;
#X coords 0 1 87635 -1 190 35 1;
#X restore 110 160 graph;
#X obj 110 130 bng 15 250 50 0 from-open-\$0 to-open-\$0 empty 20 5
0 10 #fcfcfc #000000 #000000;
#X obj 720 290 t b f;
#X obj 1177 318 cyclone/prepend set;
#X obj 1150 280 t b s;
#X obj 1020 200 s to-go-\$0;
#X obj 720 360 s to-go-\$0;
#X obj 750 330 s pitch-\$0;
#X obj 780 290 s volume-\$0;
#X obj 1147 358 s to-filepath-\$0;
#X obj 100 520 savestate, f 11;
#X text 180 540 👈 bangs when parent is saved;
#X obj 100 320 r save-state-\$0;
#X obj 170 560 s save-state-\$0;
#X obj 140 350 r from-filepath-\$0;
#X obj 100 380 symbol;
#X obj 100 870 s to-filepath-\$0;
#X obj 780 700 soundfiler;
#X obj 1180 901 *~;
#X obj 590 450 bng 15 250 50 0 empty empty empty 17 7 0 10 #fcfcfc
#000000 #000000;
#X obj 590 480 openpanel;
#X floatatom 780 730 15 0 0 0 - - -, f 15;
#X obj 1180 710 *~;
#X obj 780 1300 f;
#X obj 1180 600 line~;
#X obj 780 1020 bng 15 250 50 0 empty empty empty 17 7 0 10 #fcfcfc
#000000 #000000;
#X msg 780 1580 1 \$1;
#X obj 780 1330 t f b, f 26;
#X obj 780 1540 * 1;
#X obj 1200 870 line;
#X obj 1200 810 / 127;
#X msg 1200 840 \$1 5;
#X obj 590 420 r from-open-\$0;
#X obj 590 510 s to-filepath-\$0;
#X obj 780 760 s sample-size-\$0;
#X obj 780 990 r from-go-\$0;
#X obj 800 1440 r pitch-\$0;
#X obj 1200 670 r sample-size-\$0;
#X obj 1230 630 s to-play-slider-\$0;
#X obj 1180 740 tabread4~ sample-\$0;
#X obj 1200 770 r volume-\$0;
#X obj 1180 1060 s~ to-out-\$0;
#X obj 510 140 r~ to-out-\$0;
#X obj 600 230 +~;
#X obj 460 230 +~;
#X obj 1230 600 line;
#X obj 780 1620 s to-line-\$0;
#X obj 930 1420 s to-line-\$0;
#X obj 1180 540 r to-line-\$0;
#X obj 720 250 unpack 60 127;
#X obj 180 220 hsl 90 15 -1 1 0 1 from-tune-\$0 to-tune-\$0 tune:0
5 5 0 10 #fcfcfc #000000 #000000 4450 1;
#X obj 150 380 r from-tune-\$0;
#X obj 1210 280 s to-tune-\$0;
#X msg 150 810 0;
#X obj 130 840 s to-tune-\$0;
#X obj 850 1460 r from-tune-\$0;
#X obj 180 240 hsl 90 15 -12 12 0 1 from-transpose-\$0 to-transpose-\$0
transpose:0 5 5 0 10 #fcfcfc #000000 #000000 4450 1;
#X obj 180 400 r from-transpose-\$0;
#X obj 1270 250 s to-transpose-\$0;
#X obj 900 1480 r from-transpose-\$0;
#X obj 280 220 bng 15 250 50 0 from-reset-tune-\$0 empty empty 17 7
0 10 #fcfcfc #000000 #000000;
#X obj 163 782 r from-reset-tune-\$0;
#X obj 280 240 bng 15 250 50 0 from-reset-transpose-\$0 empty empty
17 7 0 10 #fcfcfc #000000 #000000;
#X msg 170 710 0;
#X obj 170 680 r from-reset-transpose-\$0;
#X obj 160 740 s to-transpose-\$0;
#X obj 510 930 r from-tune-\$0;
#X obj 100 920 r from-transpose-\$0;
#X obj 510 990 s to-tune-\$0;
#X obj 100 1020 s to-transpose-\$0;
#X obj 1217 962 line~;
#X obj 1180 990 *~;
#X obj 780 1060 t b b, f 18;
#N canvas 0 0 1538 787 calculate-pitch 0;
#X obj 40 390 expr pow(2 \, $f1/12);
#X obj 40 240 * -1;
#X obj 40 210 - 60;
#X obj 40 300 -, f 17;
#X obj 40 360 -, f 27;
#X obj 200 330 int;
#X obj 170 80 t b f;
#X obj 40 180 f, f 6;
#X obj 40 80 t b f, f 6;
#X obj 110 80 t b f;
#X obj 40 30 inlet;
#X obj 110 30 inlet;
#X obj 170 30 inlet;
#X obj 40 420 outlet;
#X connect 0 0 13 0;
#X connect 1 0 3 0;
#X connect 2 0 1 0;
#X connect 3 0 4 0;
#X connect 4 0 0 0;
#X connect 5 0 4 1;
#X connect 6 0 7 0;
#X connect 6 1 5 0;
#X connect 7 0 2 0;
#X connect 8 0 7 0;
#X connect 8 1 7 1;
#X connect 9 0 7 0;
#X connect 9 1 3 1;
#X connect 10 0 8 0;
#X connect 11 0 9 0;
#X connect 12 0 6 0;
#X restore 800 1510 pd calculate-pitch;
#X obj 110 200 hsl 185 15 0 1 0 1 from-start-position-\$0 to-start-position-\$0
start-position:0 5 5 0 10 #fcfcfc #000000 #000000 0 1;
#X obj 200 420 r from-start-position-\$0;
#X obj 180 650 s to-start-position-\$0;
#X obj 290 930 r from-start-position-\$0;
#X obj 290 990 s to-start-position-\$0;
#X obj 1330 220 s to-start-position-\$0;
#X obj 950 1340 r from-start-position-\$0;
#X obj 930 1380 f 0;
#X obj 780 960 s sample-duration-\$0;
#X obj 790 1270 r sample-duration-\$0;
#X obj 780 800 r from-start-position-\$0;
#X obj 780 930 expr $f1/44100 * 1000;
#X obj 900 830 r sample-size-\$0;
#X obj 780 860 expr $f2 - ($f1 * $f2);
#X floatatom 780 900 7 0 0 0 - - -, f 7;
#X obj 870 700 bng 15 250 50 0 empty empty empty 17 7 0 10 #fcfcfc
#000000 #000000;
#X text 930 860 subtract normalised sample start from number of samples
to get adjusted length of sample ( will need to do the same for end
point), f 38;
#X obj 510 165 hip~ 5;
#X obj 510 190 clip~ -1 2;
#X obj 100 100 cnv 15 210 20 empty empty bop.sampler 7 7 0 14 #94c4ec
#fcfcfc 0;
#X obj 780 1120 t b b;
#X text 900 1110 declick;
#X obj 810 1190 s to-declick-\$0;
#X obj 1220 930 r to-declick-\$0;
#X msg 880 1150 0 20;
#X msg 810 1150 1 20;
#X obj 780 1090 delay 20;
#X obj 110 240 tgl 15 1 from-pedal-\$0 to-pedal-\$0 pedal 20 5 0 10
#fcfcfc #000000 #000000 0 1;
#X obj 100 490 pack s f f f f;
#X obj 100 590 unpack s f f f f;
#X obj 1020 160 route go bang filepath tune transpose start-position
sustain, f 64;
#N canvas 0 0 450 300 sustain 0;
#X obj 50 170 stripnote;
#X obj 50 190 pack;
#X obj 100 80 + 1;
#X obj 10 130 gate 2, f 7;
#X obj 100 30 inlet;
#X obj 50 30 inlet;
#X obj 10 250 outlet;
#X connect 0 0 1 0;
#X connect 0 1 1 1;
#X connect 1 0 6 0;
#X connect 2 0 3 0;
#X connect 3 0 6 0;
#X connect 3 1 0 0;
#X connect 4 0 2 0;
#X connect 5 0 3 1;
#X restore 720 220 pd sustain;
#X obj 210 440 r from-pedal-\$0;
#X obj 200 620 s to-pedal-\$0;
#X obj 840 160 r from-pedal-\$0;
#X obj 1340 190 s to-pedal-\$0;
#X msg 100 980 label transpose:\$1;
#X obj 100 950 int;
#X msg 290 960 label start-position:\$1;
#X msg 510 960 label tune:\$1;
#X msg 780 650 read -resize \$1 sample-\$2;
#X obj 780 620 pack s \$0;
#X obj 590 540 r from-filepath-\$0;
#X obj 590 660 s to-start-position-\$0;
#X obj 680 620 s to-tune-\$0;
#X obj 640 640 s to-transpose-\$0;
#X obj 590 570 t b s, f 32;
#X obj 740 130 loadbang;
#X obj 740 160 t 0 127, f 8;
#X msg 740 190 60 \$1;
#X connect 1 0 56 0;
#X connect 2 0 55 0;
#X connect 3 0 7 0;
#X connect 3 0 117 0;
#X connect 4 0 8 0;
#X connect 4 0 116 0;
#X connect 14 0 18 0;
#X connect 14 1 19 0;
#X connect 15 0 21 0;
#X connect 16 0 21 0;
#X connect 16 1 15 0;
#X connect 22 0 115 0;
#X connect 22 1 25 0;
#X connect 24 0 27 0;
#X connect 26 0 27 1;
#X connect 27 0 114 0;
#X connect 29 0 33 0;
#X connect 30 0 83 0;
#X connect 31 0 32 0;
#X connect 32 0 45 0;
#X connect 33 0 46 0;
#X connect 34 0 51 0;
#X connect 35 0 39 0;
#X connect 36 0 34 0;
#X connect 37 0 84 0;
#X connect 38 0 58 0;
#X connect 39 0 40 0;
#X connect 39 1 93 0;
#X connect 40 0 38 0;
#X connect 41 0 30 1;
#X connect 42 0 43 0;
#X connect 43 0 41 0;
#X connect 44 0 31 0;
#X connect 47 0 37 0;
#X connect 48 0 85 0;
#X connect 49 0 34 1;
#X connect 51 0 30 0;
#X connect 52 0 42 0;
#X connect 54 0 103 0;
#X connect 55 0 6 0;
#X connect 56 0 5 0;
#X connect 57 0 50 0;
#X connect 60 0 36 0;
#X connect 60 0 57 0;
#X connect 61 0 14 0;
#X connect 61 1 20 0;
#X connect 63 0 114 1;
#X connect 65 0 66 0;
#X connect 67 0 85 1;
#X connect 69 0 114 2;
#X connect 71 0 85 2;
#X connect 73 0 65 0;
#X connect 75 0 77 0;
#X connect 76 0 75 0;
#X connect 78 0 125 0;
#X connect 79 0 123 0;
#X connect 82 0 83 1;
#X connect 83 0 53 0;
#X connect 84 0 112 0;
#X connect 84 1 110 0;
#X connect 85 0 40 1;
#X connect 87 0 114 3;
#X connect 89 0 124 0;
#X connect 92 0 93 1;
#X connect 93 0 59 0;
#X connect 95 0 35 1;
#X connect 96 0 99 0;
#X connect 97 0 94 0;
#X connect 98 0 99 1;
#X connect 99 0 100 0;
#X connect 100 0 97 0;
#X connect 101 0 33 0;
#X connect 103 0 104 0;
#X connect 104 0 56 1;
#X connect 104 0 55 1;
#X connect 106 0 35 0;
#X connect 106 1 111 0;
#X connect 109 0 82 0;
#X connect 110 0 108 0;
#X connect 111 0 108 0;
#X connect 112 0 106 0;
#X connect 114 0 22 0;
#X connect 115 0 28 0;
#X connect 115 1 66 0;
#X connect 115 2 77 0;
#X connect 115 3 88 0;
#X connect 115 4 119 0;
#X connect 116 0 17 0;
#X connect 116 1 17 0;
#X connect 116 2 16 0;
#X connect 116 3 64 0;
#X connect 116 4 70 0;
#X connect 116 5 91 0;
#X connect 116 6 121 0;
#X connect 117 0 61 0;
#X connect 118 0 114 4;
#X connect 120 0 117 1;
#X connect 122 0 81 0;
#X connect 123 0 122 0;
#X connect 124 0 90 0;
#X connect 125 0 80 0;
#X connect 126 0 29 0;
#X connect 127 0 126 0;
#X connect 128 0 132 0;
#X connect 132 0 129 0;
#X connect 132 0 131 0;
#X connect 132 0 130 0;
#X connect 132 1 127 0;
#X connect 133 0 134 0;
#X connect 134 0 135 0;
#X connect 134 1 135 0;
#X connect 135 0 117 0;
#X coords 0 -1 1 1 210 170 2 100 100;
