#N canvas -8 -8 1538 787 10;
#X obj 100 120 cnv 15 210 80 empty empty empty 7 7 0 14 #fdf6e3 #ffffff
0;
#X obj 800 100 inlet~ left;
#X obj 900 100 inlet~ right;
#X obj 1240 30 inlet note;
#X obj 1600 100 inlet ctl;
#X obj 800 300 outlet~ left;
#X obj 900 300 outlet~ right;
#X obj 1260 920 outlet note;
#X obj 1600 300 outlet ctl;
#X obj 500 260 savestate, f 11;
#X text 590 260 👈 bangs when parent is saved;
#X obj 500 180 f;
#X obj 500 100 r save-state-\$0;
#X obj 570 290 s save-state-\$0;
#X obj 1760 920 cnv 15 210 70 empty empty empty 7 7 0 14 #c9c9c9 #ffffff
0;
#X obj 100 100 cnv 15 210 20 empty empty bop.notefx 7 7 0 14 #d7cbfe
#ffffff 0;
#X obj 1230 180 unpack, f 18;
#X obj 1260 760 + 0, f 6;
#X obj 1260 880 pack, f 26;
#X obj 1270 560 t b f;
#X obj 110 130 hsl 165 15 -12 12 0 1 from-semitone-\$0 to-semitone-\$0
semitone:0 5 5 0 10 #fcfcfc #000000 #000000 8600 1;
#X obj 1270 440 int;
#X obj 210 340 r from-semitone-\$0;
#X obj 210 370 sprintf label semitone:%d;
#X obj 210 400 s to-semitone-\$0;
#X obj 518 127 r from-semitone-\$0;
#X obj 498 407 s to-semitone-\$0;
#X obj 1270 380 r from-semitone-\$0;
#X obj 1630 240 s to-semitone-\$0;
#X obj 110 150 hsl 165 15 -6 6 0 1 from-octave-\$0 to-octave-\$0 octave:-1
5 5 0 10 #fcfcfc #000000 #000000 6400 1;
#X obj 210 430 r from-octave-\$0;
#X obj 210 460 sprintf label octave:%d;
#X obj 210 490 s to-octave-\$0;
#X obj 550 170 r from-octave-\$0;
#X obj 550 370 s to-octave-\$0;
#X obj 1650 210 s to-octave-\$0;
#X obj 1360 440 int;
#X obj 1270 470 change;
#X obj 1360 500 t b f;
#X obj 1290 300 s velocity-in-\$0;
#X obj 1200 300 s pitch-in-\$0;
#X obj 1260 680 r pitch-in-\$0;
#X obj 1410 680 r velocity-in-\$0;
#X text 1320 570 add pitch shifting values;
#X obj 1300 600 s pitch-offset-\$0;
#X obj 1290 730 r pitch-offset-\$0;
#X obj 285 130 bng 15 250 50 0 reset-semitone-\$0 empty empty 17 7
0 10 #fcfcfc #000000 #000000;
#X obj 285 150 bng 15 250 50 0 reset-octave-\$0 empty empty 17 7 0
10 #fcfcfc #000000 #000000;
#X obj 80 340 r reset-semitone-\$0;
#X obj 80 430 r reset-octave-\$0;
#X msg 80 370 0;
#X msg 80 460 0;
#X obj 1270 530 expr $f1 + ($f2 * 12);
#X obj 1360 410 r from-octave-\$0;
#X obj 1360 470 change;
#X obj 1260 820 cyclone/flush, f 26;
#X obj 1260 630 s flush-\$0;
#X obj 1270 790 r flush-\$0;
#X obj 1230 210 poly 1 1, f 19;
#X obj 110 170 tgl 15 1 from-monophonic-\$0 to-monophonic-\$0 monophonic
17 7 0 10 #fcfcfc #000000 #000000 1 1;
#X obj 498 317 unpack f f f;
#X obj 560 190 r from-monophonic-\$0;
#X obj 500 220 pack f f f;
#X obj 1630 150 route semitone octave monophonic;
#X obj 1720 180 s to-monophonic-\$0;
#X obj 570 340 s to-monophonic-\$0;
#X obj 1090 50 r from-monophonic-\$0;
#X obj 1160 120 + 1;
#X obj 1240 590 bng 15 250 50 0 empty empty empty 17 7 0 10 #fcfcfc
#000000 #000000;
#X obj 1160 150 gate 2, f 13;
#X obj 1160 210 unpack;
#X obj 1090 80 t b f, f 12;
#X obj 1090 120 s flush-\$0;
#X connect 1 0 5 0;
#X connect 2 0 6 0;
#X connect 3 0 69 1;
#X connect 4 0 8 0;
#X connect 4 0 63 0;
#X connect 9 0 60 0;
#X connect 9 1 13 0;
#X connect 11 0 62 0;
#X connect 12 0 11 0;
#X connect 16 0 58 0;
#X connect 16 1 58 1;
#X connect 17 0 55 0;
#X connect 18 0 7 0;
#X connect 19 0 56 0;
#X connect 19 1 44 0;
#X connect 21 0 37 0;
#X connect 22 0 23 0;
#X connect 23 0 24 0;
#X connect 25 0 11 1;
#X connect 27 0 21 0;
#X connect 30 0 31 0;
#X connect 31 0 32 0;
#X connect 33 0 62 1;
#X connect 36 0 54 0;
#X connect 37 0 52 0;
#X connect 38 0 52 0;
#X connect 38 1 52 1;
#X connect 41 0 17 0;
#X connect 42 0 55 1;
#X connect 45 0 17 1;
#X connect 48 0 50 0;
#X connect 49 0 51 0;
#X connect 50 0 24 0;
#X connect 51 0 32 0;
#X connect 52 0 19 0;
#X connect 53 0 36 0;
#X connect 54 0 38 0;
#X connect 55 0 18 0;
#X connect 55 1 18 1;
#X connect 57 0 55 0;
#X connect 58 1 40 0;
#X connect 58 2 39 0;
#X connect 60 0 26 0;
#X connect 60 1 34 0;
#X connect 60 2 65 0;
#X connect 61 0 62 2;
#X connect 62 0 9 0;
#X connect 63 0 28 0;
#X connect 63 1 35 0;
#X connect 63 2 64 0;
#X connect 66 0 71 0;
#X connect 67 0 69 0;
#X connect 68 0 56 0;
#X connect 69 0 70 0;
#X connect 69 1 16 0;
#X connect 70 0 40 0;
#X connect 70 1 39 0;
#X connect 71 0 72 0;
#X connect 71 1 67 0;
#X coords 0 -1 1 1 210 100 2 100 100;
