#N canvas 111 69 1538 787 10;
#X obj 100 120 cnv 15 210 250 empty empty empty 7 7 0 14 #fcf4e0 #fcfcfc
0;
#X obj 640 100 inlet~ left;
#X obj 900 100 inlet~ right;
#X obj 1030 100 inlet note;
#X obj 1200 100 inlet ctl;
#X obj 640 200 outlet~ left;
#X obj 900 200 outlet~ right;
#X obj 1040 160 outlet note;
#X obj 1200 270 outlet ctl;
#X obj 400 350 savestate, f 11;
#X text 490 350 👈 bangs when parent is saved;
#X obj 400 60 r save-state-\$0;
#X obj 460 380 s save-state-\$0;
#X obj 1030 440 pack 0 0 0;
#X obj 1030 520 route 1 2 3 4, f 132;
#X obj 730 130 hip~ 5;
#X obj 730 155 clip~ -1 1;
#X obj 100 100 cnv 15 210 20 empty empty bop.casio 7 7 0 14 #94c4ec
#fcfcfc 0;
#X text 1820 860 comment;
#X obj 70 730 int;
#X obj 70 750 t f f;
#X obj 70 710 r from-wave-1-\$0;
#X obj 70 890 s to-wave-1-\$0;
#X obj 1280 250 s to-wave-1-\$0;
#X obj 440 640 s to-wave-1-\$0;
#N canvas 159 357 451 305 wave-name-maker 0;
#X obj 70 -110 i;
#X obj 70 -70 t b f, f 21;
#X obj 69 -144 inlet;
#X obj 70 110 outlet;
#X msg 70 -40 saw square pulse sinepulse halfpulse res-saw res-triangle
res-trapezoid, f 39;
#X obj 70 80 symbol;
#X obj 70 20 list split;
#X msg 70 50 \$1;
#X connect 0 0 1 0;
#X connect 1 0 4 0;
#X connect 1 1 6 1;
#X connect 2 0 0 0;
#X connect 4 0 6 0;
#X connect 5 0 3 0;
#X connect 6 1 7 0;
#X connect 7 0 5 0;
#X restore 90 790 pd wave-name-maker;
#X obj 110 150 hsl 185 15 0 7 0 1 from-wave-1-\$0 to-wave-1-\$0 wave-1:3(sinepulse)
5 5 0 10 #fcfcfc #000000 #000000 8000 1;
#X obj 230 730 int;
#X obj 230 890 s to-wave-2-\$0;
#X obj 230 710 r from-wave-2-\$0;
#X obj 410 380 t b l;
#X obj 460 620 s to-wave-2-\$0;
#X obj 400 170 f;
#X obj 110 170 hsl 185 15 0 7 0 1 from-wave-2-\$0 to-wave-2-\$0 wave-2:4(halfpulse)
5 5 0 10 #fcfcfc #000000 #000000 10700 1;
#X msg 990 320 stop;
#X obj 110 190 hsl 185 15 0 1 0 1 from-filter-\$0 to-filter-\$0 filter:0.475
5 5 0 10 #fcfcfc #000000 #000000 8740 1;
#X obj 400 900 s to-filter-\$0;
#X obj 400 830 r from-filter-\$0;
#X obj 480 600 s to-filter-\$0;
#X obj 450 120 r from-filter-\$0;
#X obj 1280 160 route wave-1 wave-2 filter, f 36;
#X obj 1330 210 s to-filter-\$0;
#X obj 520 830 r from-attack-\$0;
#X obj 630 830 r from-peak-\$0;
#X obj 730 830 r from-decay-\$0;
#X obj 840 830 r from-sustain-\$0;
#X obj 960 830 r from-release-\$0;
#X obj 1070 830 r from-curve-\$0;
#X obj 1070 900 s to-curve-\$0;
#X obj 960 900 s to-release-\$0;
#X obj 840 900 s to-sustain-\$0;
#X obj 730 900 s to-decay-\$0;
#X obj 630 900 s to-peak-\$0;
#X obj 520 900 s to-attack-\$0;
#X obj 1620 300 s to-curve-\$0;
#X obj 1560 320 s to-release-\$0;
#X obj 1510 340 s to-sustain-\$0;
#X obj 1480 360 s to-decay-\$0;
#X obj 1450 380 s to-peak-\$0;
#X obj 1430 400 s to-attack-\$0;
#X obj 580 480 s to-curve-\$0;
#X obj 560 500 s to-release-\$0;
#X obj 540 520 s to-sustain-\$0;
#X obj 530 540 s to-decay-\$0;
#X obj 510 560 s to-peak-\$0;
#X obj 490 580 s to-attack-\$0;
#X obj 460 140 r from-attack-\$0;
#X obj 470 160 r from-peak-\$0;
#X obj 480 180 r from-decay-\$0;
#X obj 490 200 r from-sustain-\$0;
#X obj 500 220 r from-release-\$0;
#X obj 520 240 r from-curve-\$0;
#X obj 110 240 hsl 185 15 0.01 1 1 1 from-attack-\$0 to-attack-\$0
attack:0.0349525 5 5 0 10 #fcfcfc #000000 #000000 5000 1;
#X obj 110 260 hsl 185 15 0 1 0 1 from-peak-\$0 to-peak-\$0 peak:0.630435
5 5 0 10 #fcfcfc #000000 #000000 11600 1;
#X obj 110 280 hsl 185 15 0 1 0 1 from-decay-\$0 to-decay-\$0 decay:0.961957
5 5 0 10 #fcfcfc #000000 #000000 17700 1;
#X obj 110 300 hsl 185 15 0 1 0 1 from-sustain-\$0 to-sustain-\$0 sustain:0.804348
5 5 0 10 #fcfcfc #000000 #000000 14800 1;
#X obj 110 320 hsl 185 15 0 1 0 1 from-release-\$0 to-release-\$0 release:0.978261
5 5 0 10 #fcfcfc #000000 #000000 18000 1;
#X obj 110 340 hsl 185 15 0 1 0 0 from-curve-\$0 to-curve-\$0 curve:0
5 5 0 10 #fcfcfc #000000 #000000 0 1;
#X msg 1030 480 \$1 \$1 \$2 \$3;
#X obj 110 210 hsl 185 15 0 1 0 1 from-spread-\$0 to-spread-\$0 spread:0.934783
5 5 0 10 #fcfcfc #000000 #000000 17200 1;
#X obj 1180 830 r from-spread-\$0;
#X obj 1180 900 s to-spread-\$0;
#X obj 600 460 s to-spread-\$0;
#X obj 540 260 r from-spread-\$0;
#X obj 1670 280 s to-spread-\$0;
#X obj 730 60 catch~ instrument-left-\$0;
#X obj 800 80 catch~ instrument-right-\$0;
#X obj 800 130 hip~ 5;
#X obj 800 155 clip~ -1 1;
#X obj 1030 670 throw~ instrument-left-\$0;
#X obj 1040 640 throw~ instrument-right-\$0;
#X obj 1230 670 throw~ instrument-left-\$0;
#X obj 1240 640 throw~ instrument-right-\$0;
#X obj 1430 670 throw~ instrument-left-\$0;
#X obj 1440 640 throw~ instrument-right-\$0;
#X obj 1620 670 throw~ instrument-left-\$0;
#X obj 1630 640 throw~ instrument-right-\$0;
#X obj 1040 580 r from-spread-\$0;
#X obj 1240 580 r from-spread-\$0;
#X obj 1445 583 r from-spread-\$0;
#X obj 1631 581 r from-spread-\$0;
#X obj 410 80 r from-wave-1-\$0;
#X obj 440 100 r from-wave-2-\$0;
#X obj 1300 230 s to-wave-2-\$0;
#X obj 1030 400 poly 4 1, f 10;
#X obj 1040 320 r bop-play;
#X obj 1040 340 sel 0;
#X obj 1030 370 cyclone/flush;
#X obj 110 130 tgl 15 1 from-pedal-\$0 to-pedal-\$0 pedal 20 5 0 10
#fcfcfc #000000 #000000 0 1;
#X obj 400 310 pack f f f f f f f f f f f;
#X obj 440 410 unpack f f f f f f f f f f f;
#N canvas 166 225 451 301 sustain 1;
#X obj 90 170 stripnote;
#X obj 90 190 pack;
#X obj 160 80 + 1;
#X obj 160 30 inlet;
#X obj 90 30 inlet;
#X obj 10 250 outlet;
#X obj 10 130 cyclone/gate 2;
#X connect 0 0 1 0;
#X connect 0 1 1 1;
#X connect 1 0 5 0;
#X connect 2 0 6 0;
#X connect 3 0 2 0;
#X connect 4 0 6 1;
#X connect 6 0 5 0;
#X connect 6 1 0 0;
#X restore 1030 250 pd sustain;
#X obj 550 280 r from-pedal-\$0;
#X obj 610 440 s to-pedal-\$0;
#X obj 1050 210 r from-pedal-\$0;
#X obj 1440 210 route attack peak decay sustain release curve spread
pedal, f 54;
#X obj 1700 260 s to-pedal-\$0;
#X obj 1030 610 sub.bop.util.spread -1;
#X obj 1230 610 sub.bop.util.spread -0.5;
#X obj 1430 610 sub.bop.util.spread 0.5;
#X obj 1620 610 sub.bop.util.spread 1;
#X obj 1030 550 sub.bop.casio.voice \$0;
#X obj 1230 550 sub.bop.casio.voice \$0;
#X obj 1430 550 sub.bop.casio.voice \$0;
#X obj 1620 550 sub.bop.casio.voice \$0;
#X obj 70 830 pack f s;
#X msg 70 860 label wave-1:\$1(\$2);
#X obj 230 750 t f f;
#N canvas 159 357 451 305 wave-name-maker 0;
#X obj 70 -110 i;
#X obj 70 -70 t b f, f 21;
#X obj 69 -144 inlet;
#X obj 70 110 outlet;
#X msg 70 -40 saw square pulse sinepulse halfpulse res-saw res-triangle
res-trapezoid, f 39;
#X obj 70 80 symbol;
#X obj 70 20 list split;
#X msg 70 50 \$1;
#X connect 0 0 1 0;
#X connect 1 0 4 0;
#X connect 1 1 6 1;
#X connect 2 0 0 0;
#X connect 4 0 6 0;
#X connect 5 0 3 0;
#X connect 6 1 7 0;
#X connect 7 0 5 0;
#X restore 260 790 pd wave-name-maker;
#X obj 230 830 pack f s;
#X msg 230 860 label wave-2:\$1(\$2);
#X text 1480 1180 comment;
#X msg 400 860 label filter:\$1;
#X msg 520 860 label attack:\$1;
#X msg 630 860 label peak:\$1;
#X msg 730 860 label decay:\$1;
#X msg 840 860 label sustain:\$1;
#X msg 960 860 label release:\$1;
#X msg 1070 860 label curve:\$1;
#X msg 1180 860 label spread:\$1;
#X connect 1 0 5 0;
#X connect 2 0 6 0;
#X connect 3 0 7 0;
#X connect 3 0 111 0;
#X connect 4 0 8 0;
#X connect 4 0 40 0;
#X connect 9 0 30 0;
#X connect 9 1 12 0;
#X connect 11 0 32 0;
#X connect 13 0 78 0;
#X connect 14 0 121 0;
#X connect 14 1 122 0;
#X connect 14 2 123 0;
#X connect 14 3 124 0;
#X connect 15 0 16 0;
#X connect 16 0 5 0;
#X connect 19 0 20 0;
#X connect 20 0 125 0;
#X connect 20 1 25 0;
#X connect 21 0 19 0;
#X connect 25 0 125 1;
#X connect 27 0 127 0;
#X connect 29 0 27 0;
#X connect 30 1 110 0;
#X connect 32 0 109 0;
#X connect 34 0 104 0;
#X connect 37 0 132 0;
#X connect 39 0 109 2;
#X connect 40 0 23 0;
#X connect 40 1 103 0;
#X connect 40 2 41 0;
#X connect 40 3 115 0;
#X connect 42 0 133 0;
#X connect 43 0 134 0;
#X connect 44 0 135 0;
#X connect 45 0 136 0;
#X connect 46 0 137 0;
#X connect 47 0 138 0;
#X connect 66 0 109 3;
#X connect 67 0 109 4;
#X connect 68 0 109 5;
#X connect 69 0 109 6;
#X connect 70 0 109 7;
#X connect 71 0 109 8;
#X connect 78 0 14 0;
#X connect 80 0 139 0;
#X connect 83 0 109 9;
#X connect 85 0 15 0;
#X connect 86 0 87 0;
#X connect 87 0 88 0;
#X connect 88 0 6 0;
#X connect 97 0 117 1;
#X connect 98 0 118 1;
#X connect 99 0 119 1;
#X connect 100 0 120 1;
#X connect 101 0 32 1;
#X connect 102 0 109 1;
#X connect 104 0 13 0;
#X connect 104 1 13 1;
#X connect 104 2 13 2;
#X connect 105 0 106 0;
#X connect 106 0 107 0;
#X connect 107 0 104 0;
#X connect 107 1 104 1;
#X connect 109 0 9 0;
#X connect 110 0 24 0;
#X connect 110 1 31 0;
#X connect 110 2 38 0;
#X connect 110 3 65 0;
#X connect 110 4 64 0;
#X connect 110 5 63 0;
#X connect 110 6 62 0;
#X connect 110 7 61 0;
#X connect 110 8 60 0;
#X connect 110 9 82 0;
#X connect 110 10 113 0;
#X connect 111 0 107 0;
#X connect 112 0 109 10;
#X connect 114 0 111 1;
#X connect 115 0 59 0;
#X connect 115 1 58 0;
#X connect 115 2 57 0;
#X connect 115 3 56 0;
#X connect 115 4 55 0;
#X connect 115 5 54 0;
#X connect 115 6 84 0;
#X connect 115 7 116 0;
#X connect 117 0 89 0;
#X connect 117 1 90 0;
#X connect 118 0 91 0;
#X connect 118 1 92 0;
#X connect 119 0 93 0;
#X connect 119 1 94 0;
#X connect 120 0 95 0;
#X connect 120 1 96 0;
#X connect 121 0 117 0;
#X connect 122 0 118 0;
#X connect 123 0 119 0;
#X connect 124 0 120 0;
#X connect 125 0 126 0;
#X connect 126 0 22 0;
#X connect 127 0 129 0;
#X connect 127 1 128 0;
#X connect 128 0 129 1;
#X connect 129 0 130 0;
#X connect 130 0 28 0;
#X connect 132 0 36 0;
#X connect 133 0 53 0;
#X connect 134 0 52 0;
#X connect 135 0 51 0;
#X connect 136 0 50 0;
#X connect 137 0 49 0;
#X connect 138 0 48 0;
#X connect 139 0 81 0;
#X coords 0 -1 1 1 210 270 2 100 100;
