#N canvas 0 0 1522 772 10;
#X obj 60 330 bop;
#A saved 90;
#X obj 50 670 bop.euclidean;
#A saved 9 4 1.17391 3 5.9 3 3.33333 0 1 70;
#X obj 470 670 bop.euclidean;
#A saved 8.5213 3.78261 1.17391 2 5.9 2 4.25 1 1 48;
#X obj 890 710 bop.reverb;
#A saved 0.765217 0.672554 0.923913 0.0547286 0.240124 0 0;
#X obj 680 670 bop.euclidean;
#A saved 6.30391 3.52174 1.95652 1 5.9 5 4.5 1 1 51;
#X obj 260 670 bop.euclidean;
#A saved 3.30391 1.17391 2.08696 1 4.91667 10 2.91667 1 1 74;
#X obj 260 880 bop.send;
#A saved harp;
#X obj 890 480 bop.receive;
#A saved harp;
#X obj 680 880 bop.send;
#A saved harp;
#X obj 50 880 bop.send;
#A saved harp;
#X obj 470 880 bop.send;
#A saved harp;
#X obj 750 234 bng 15 250 50 0 empty empty empty 17 7 0 10 #fcfcfc
#000000 #000000;
#X obj 840 244 bng 15 250 50 0 empty empty empty 17 7 0 10 #fcfcfc
#000000 #000000;
#X msg 520 580 63 48;
#X msg 760 580 66 51;
#X msg 330 590 47 74;
#X msg 580 580 66 48;
#X msg 380 590 63 74;
#X msg 841 584 68 36;
#X obj 890 880 bop.send;
#A saved master;
#X obj 60 270 bop.receive;
#A saved master;
#X obj 90 1000 bop.euclidean;
#A saved 4.99957 2.08696 1.95652 2 5.9 7.44071 2.10951 1 1 87.6905
;
#X obj 90 1280 bop.sampler;
#A saved C:/Users/bob/SYNC/DEV/pd/bop/samples/Snare_Bluesbreak_1.wav
-0.121212 0.727273 0;
#X obj 90 1530 bop.send;
#A saved beat;
#X obj 470 1390 bop.reverb;
#A saved 0.472283 0.835598 1.63043 0.27156 0.496195 0 0;
#X obj 470 1330 bop.receive;
#A saved beat;
#X obj 680 1610 bop.send;
#A saved master;
#X text 440 1880 comment;
#X obj 720 1000 bop.euclidean;
#A saved 12 5 0 2 5.9 0 4.22856 1 1 92.2262;
#X obj 680 1330 bop.sampler;
#A saved C:/Users/bob/SYNC/DEV/pd/bop/samples/kick.wav 0 0.242424 0
;
#X obj 680 1500 bop.mix;
#A saved 0 0.924359 0;
#X obj 90 1450 bop.mix;
#A saved 0 0.659573 -0.173228;
#X obj 930 1000 bop.euclidean;
#A saved 12 7 1.82609 2 5.9 8.35738 3.27499 1 1 81.6429;
#X obj 890 1330 bop.sampler;
#A saved C:/Users/bob/SYNC/DEV/pd/bop/samples/Tambourine-BritishVintage-Stick-Hard.wav
0 0 0;
#X obj 890 1580 bop.send;
#A saved beat;
#X obj 890 1500 bop.mix;
#A saved 0 0.352767 0.88189;
#X obj 1040 1230 stripnote;
#X obj 300 1000 bop.euclidean;
#A saved 12.5217 2.86957 5.73913 12 4.56548 1.94071 2.85118 1 1 42.3333
;
#X obj 420 1220 stripnote;
#X obj 420 1240 pack;
#X obj 1040 1250 pack;
#X obj 510 1000 bop.euclidean;
#A saved 24 4.69565 0.26087 12 4.56548 0.762143 4.97023 1 1 113.393
;
#X obj 648 1218 stripnote;
#X obj 647 1247 pack;
#X obj 860 1220 stripnote;
#X obj 859 1241 pack;
#X obj 1690 630 bop.euclidean;
#A saved 12.6952 7.56522 0 2 5.9 3 5.33333 1 1 127;
#X obj 1690 530 bop.noteslider;
#A saved 2.66972 1 6.42935;
#X text 2330 1870 comment;
#X obj 1690 1100 bop.casio;
#A saved 3.04348 4.07065 0.088012 0.0349525 0.630435 0.961957 0.804348
0.978261 0.630435 0.934783;
#X obj 1690 1660 bop.send;
#A saved master;
#X obj 1690 390 bop.ramp;
#A saved 10 5.9 noteslider 0 1 0;
#X obj 1690 840 bop.notefx;
#A saved 2.85366 -1.09756 0 58.6685 68.3315 4.125 0;
#X obj 1820 1040 stripnote;
#X obj 1820 1060 pack;
#X obj 1690 1350 bop.reverb;
#A saved 1.02228 0 2 0.331759 0.316228 0 0;
#X obj 1690 1580 bop.mix;
#A saved 0 0.472407 0;
#X obj 760 64 r bop-time;
#X obj 760 94 route bars;
#X obj 760 160 sel 0;
#X obj 760 183 tgl 15 0 empty empty empty 17 7 0 10 #fcfcfc #000000
#000000 0 1;
#X obj 760 204 sel 0 1;
#X obj 1360 480 bop.euclidean;
#A saved 12 7 1.36957 2 5.9 3 1.33333 1 1 59;
#X obj 1360 1020 bop.mix;
#A saved 0 0.920895 0;
#X obj 1360 1100 bop.send;
#A saved master;
#X msg 1480 370 28 59;
#X obj 760 121 % 7;
#X floatatom 940 214 5 0 0 0 - - -, f 5;
#X obj 940 234 sel 6;
#X obj 1100 1330 bop.sampler;
#A saved C:/Users/bob/SYNC/DEV/pd/bop/samples/ride-sizzle.wav 0.020202
-3.15152 0;
#X obj 1100 1580 bop.send;
#A saved beat;
#X obj 1100 1500 bop.mix;
#A saved 0 0.338353 0.425197;
#X obj 1690 110 bop.ramp;
#A saved 35 5.9 filter 0 0.8 0;
#X obj 1690 250 bop.transform;
#A saved filter 315.217 3 3.60904 0 0;
#X obj 1360 690 bop.notefx;
#A saved 0 0.658537 0 0 127 0 0;
#X obj 1020 560 stripnote;
#X obj 1020 580 pack;
#X text 490 1220 👈 this should be a sustain toggle on all instruments
, f 18;
#X obj 890 610 bop.harp;
#A saved 0;
#X text 1930 140 Create reusable GUI elements and related objects;
#X text 1920 290 make bop.transform bop.controlfx;
#X msg 1440 370 20 59;
#X obj 1360 870 bop.rhodes;
#A saved 0;
#X obj 1360 920 bop.distortion;
#A saved 0.260259 1 0.166033;
#X text 1940 910 randomness to notefx;
#X text 1940 935 velocity control;
#X obj 1690 1540 hip~ 5000;
#X obj 1760 1540 hip~ 5000;
#X msg 190 590 56 90;
#X msg 140 590 52 70;
#X msg 1490 430 27 80;
#X msg 1150 850 divisions 12 \, hits 7;
#X msg 1120 880 divisions 12 \, hits 5;
#X msg 1170 950 divisions 8 \, hits 8;
#X msg 1550 400 divisions 12 \, hits 7;
#X msg 240 560 duration 3 \, divisions 9 \, hits 4;
#X msg 1530 430 duration 2 \, divisions 8 \, hits 8, f 19;
#X msg 250 590 54 110;
#X obj 890 660 bop.marimba;
#A saved 0;
#X msg 280 470 duration 2 \, divisions 8 \, hits 6, f 19;
#X obj 730 274 s go-chord1-\$0;
#X obj 110 500 r go-chord1-\$0;
#X obj 840 274 s go-chord2-\$0;
#X obj 780 550 r go-chord2-\$0;
#X obj 210 520 r go-chord1-\$0;
#X obj 400 510 r go-chord1-\$0;
#X obj 500 510 r go-chord1-\$0;
#X obj 660 530 r go-chord1-\$0;
#X obj 1460 290 r go-chord1-\$0;
#X obj 1420 260 r go-chord2-\$0;
#X obj 670 410 r go-chord2-\$0;
#X obj 530 470 r go-chord2-\$0;
#X obj 180 450 r go-chord2-\$0;
#X obj 210 480 r go-chord2-\$0;
#X obj 940 280 s go-chord3-\$0;
#X obj 300 520 r go-chord3-\$0;
#X obj 341 410 r go-chord3-\$0;
#X obj 1550 340 r go-chord3-\$0;
#X obj 1170 770 r go-chord1-\$0;
#X obj 1160 750 r go-chord2-\$0;
#X obj 1170 920 r go-chord3-\$0;
#X msg 1240 1290 64 127;
#X obj 1240 1250 r go-chord3-\$0;
#X obj 1150 820 bng 15 250 50 0 empty empty empty 17 7 0 10 #fcfcfc
#000000 #000000;
#X obj 1510 330 bng 15 250 50 0 empty empty empty 17 7 0 10 #fcfcfc
#000000 #000000;
#X obj 940 260 bng 15 250 50 0 empty empty empty 17 7 0 10 #fcfcfc
#000000 #000000;
#X connect 1 2 9 2;
#X connect 2 2 10 2;
#X connect 3 0 19 0;
#X connect 3 1 19 1;
#X connect 4 2 8 2;
#X connect 5 2 6 2;
#X connect 7 0 78 0;
#X connect 7 1 78 1;
#X connect 7 2 75 0;
#X connect 7 3 78 3;
#X connect 11 0 100 0;
#X connect 12 0 102 0;
#X connect 13 0 2 2;
#X connect 14 0 4 2;
#X connect 15 0 5 2;
#X connect 16 0 2 2;
#X connect 17 0 5 2;
#X connect 18 0 4 2;
#X connect 20 0 0 0;
#X connect 20 1 0 1;
#X connect 21 2 22 2;
#X connect 22 0 31 0;
#X connect 22 1 31 1;
#X connect 22 2 31 2;
#X connect 22 3 31 3;
#X connect 24 0 26 0;
#X connect 24 1 26 1;
#X connect 25 0 24 0;
#X connect 25 1 24 1;
#X connect 25 2 24 2;
#X connect 25 3 24 3;
#X connect 28 2 44 0;
#X connect 29 0 30 0;
#X connect 29 1 30 1;
#X connect 29 2 30 2;
#X connect 29 3 30 3;
#X connect 30 0 26 0;
#X connect 30 1 26 1;
#X connect 30 2 26 2;
#X connect 30 3 26 3;
#X connect 31 0 23 0;
#X connect 31 1 23 1;
#X connect 31 2 23 2;
#X connect 31 3 23 3;
#X connect 32 2 36 0;
#X connect 33 0 35 0;
#X connect 33 1 35 1;
#X connect 33 2 35 2;
#X connect 33 3 35 3;
#X connect 35 0 34 0;
#X connect 35 1 34 1;
#X connect 35 2 34 2;
#X connect 35 3 34 3;
#X connect 36 0 40 0;
#X connect 36 1 40 1;
#X connect 37 2 38 0;
#X connect 38 0 39 0;
#X connect 38 1 39 1;
#X connect 39 0 22 2;
#X connect 40 0 33 2;
#X connect 41 2 42 0;
#X connect 42 0 43 0;
#X connect 42 1 43 1;
#X connect 43 0 29 2;
#X connect 44 0 45 0;
#X connect 44 1 45 1;
#X connect 45 0 29 2;
#X connect 46 2 52 2;
#X connect 46 3 52 3;
#X connect 47 0 46 0;
#X connect 47 1 46 1;
#X connect 47 2 46 2;
#X connect 47 3 46 3;
#X connect 49 0 55 0;
#X connect 49 1 55 1;
#X connect 51 0 47 0;
#X connect 51 1 47 1;
#X connect 51 2 47 2;
#X connect 51 3 47 3;
#X connect 52 2 53 0;
#X connect 52 3 49 3;
#X connect 53 0 54 0;
#X connect 53 1 54 1;
#X connect 54 0 49 2;
#X connect 55 0 86 0;
#X connect 55 1 87 0;
#X connect 56 0 50 0;
#X connect 56 1 50 1;
#X connect 57 0 58 0;
#X connect 58 0 66 0;
#X connect 59 0 60 0;
#X connect 60 0 61 0;
#X connect 61 0 11 0;
#X connect 61 1 12 0;
#X connect 62 0 74 0;
#X connect 62 1 74 1;
#X connect 62 2 74 2;
#X connect 62 3 74 3;
#X connect 63 0 64 0;
#X connect 63 1 64 1;
#X connect 65 0 62 2;
#X connect 66 0 59 0;
#X connect 66 0 67 0;
#X connect 67 0 68 0;
#X connect 68 0 125 0;
#X connect 69 0 71 0;
#X connect 69 1 71 1;
#X connect 69 2 71 2;
#X connect 69 3 71 3;
#X connect 71 0 70 0;
#X connect 71 1 70 1;
#X connect 71 2 70 2;
#X connect 71 3 70 3;
#X connect 72 3 73 3;
#X connect 73 3 51 3;
#X connect 74 0 82 0;
#X connect 74 1 82 1;
#X connect 74 2 82 2;
#X connect 74 3 82 3;
#X connect 75 0 76 0;
#X connect 75 1 76 1;
#X connect 76 0 78 2;
#X connect 78 0 98 0;
#X connect 78 1 98 1;
#X connect 78 2 98 2;
#X connect 78 3 98 3;
#X connect 81 0 62 2;
#X connect 82 0 83 0;
#X connect 82 1 83 1;
#X connect 82 2 83 2;
#X connect 82 3 83 3;
#X connect 83 0 63 0;
#X connect 83 1 63 1;
#X connect 83 2 63 2;
#X connect 83 3 63 3;
#X connect 86 0 56 0;
#X connect 87 0 56 1;
#X connect 88 0 1 2;
#X connect 89 0 1 2;
#X connect 90 0 62 2;
#X connect 91 0 32 3;
#X connect 92 0 28 3;
#X connect 93 0 32 3;
#X connect 93 0 28 3;
#X connect 94 0 62 3;
#X connect 95 0 1 3;
#X connect 96 0 62 3;
#X connect 97 0 1 2;
#X connect 98 0 3 0;
#X connect 98 1 3 1;
#X connect 98 2 3 2;
#X connect 98 3 3 3;
#X connect 99 0 1 3;
#X connect 101 0 89 0;
#X connect 103 0 18 0;
#X connect 104 0 95 0;
#X connect 105 0 15 0;
#X connect 106 0 13 0;
#X connect 107 0 14 0;
#X connect 108 0 65 0;
#X connect 108 0 124 0;
#X connect 109 0 81 0;
#X connect 109 0 124 0;
#X connect 110 0 16 0;
#X connect 111 0 17 0;
#X connect 112 0 88 0;
#X connect 113 0 95 0;
#X connect 115 0 97 0;
#X connect 116 0 99 0;
#X connect 117 0 96 0;
#X connect 117 0 90 0;
#X connect 118 0 123 0;
#X connect 119 0 123 0;
#X connect 120 0 93 0;
#X connect 121 0 69 2;
#X connect 122 0 121 0;
#X connect 123 0 92 0;
#X connect 123 0 91 0;
#X connect 124 0 94 0;
#X connect 125 0 114 0;
