#N canvas -8 -8 1538 787 10;
#X obj 900 470 bop;
#A saved 110;
#X obj 30 190 bop.euclidean;
#A saved 2.65174 1.56522 0 1 5.9 3 2 1 1;
#X obj 450 190 bop.euclidean;
#A saved 4.99957 2.08696 1.95652 1 5.9 5 4 1 1;
#X obj 900 250 bop.harp;
#A saved 0;
#X obj 900 300 bop.reverb;
#A saved 0.866848 0.441576 2 0.027156 0.234188 0 0;
#X obj 660 190 bop.euclidean;
#A saved 6.30391 3.52174 1.95652 2 5.9 7 3 1 1;
#X obj 240 190 bop.euclidean;
#A saved 3.30391 1.17391 2.08696 2 4.91667 2 4 1 1;
#X obj 240 400 bop.send;
#A saved harp;
#X obj 900 190 bop.receive;
#A saved harp;
#X obj 660 400 bop.send;
#A saved harp;
#X obj 30 400 bop.send;
#A saved harp;
#X obj 450 400 bop.send;
#A saved harp;
#X msg 500 140 note 2 \, octave 4;
#X msg 40 140 note 3 \, octave 2;
#X msg 260 140 note 10 \, octave 2;
#X msg 720 140 note 5 \, octave 4;
#X msg 150 140 note 8 \, octave 3;
#X msg 830 140 note 7 \, octave 3;
#X msg 370 140 note 2 \, octave 4;
#X msg 610 140 note 5 \, octave 4;
#X obj 320 30 bng 15 250 50 0 empty empty empty 17 7 0 10 #fcfcfc #000000
#000000;
#X obj 450 30 bng 15 250 50 0 empty empty empty 17 7 0 10 #fcfcfc #000000
#000000;
#X connect 1 2 10 2;
#X connect 2 2 11 2;
#X connect 3 0 4 0;
#X connect 3 1 4 1;
#X connect 3 2 4 2;
#X connect 3 3 4 3;
#X connect 4 0 0 0;
#X connect 4 1 0 1;
#X connect 4 2 0 2;
#X connect 5 2 9 2;
#X connect 6 2 7 2;
#X connect 8 2 3 2;
#X connect 12 0 2 3;
#X connect 13 0 1 3;
#X connect 14 0 6 3;
#X connect 15 0 5 3;
#X connect 16 0 1 3;
#X connect 17 0 5 3;
#X connect 18 0 6 3;
#X connect 19 0 2 3;
#X connect 20 0 13 0;
#X connect 20 0 14 0;
#X connect 20 0 12 0;
#X connect 20 0 15 0;
#X connect 21 0 18 0;
#X connect 21 0 19 0;
#X connect 21 0 17 0;
