#N canvas 0 0 1522 772 10;
#X obj 70 310 bop;
#A saved 110;
#X obj 50 670 bop.euclidean;
#A saved 9 4 1.17391 3 5.9 7 3.66667 0 1 90;
#X obj 470 670 bop.euclidean;
#A saved 8.5213 3.78261 1.17391 2 5.9 5 4.5 1 1 48;
#X obj 890 740 bop.reverb;
#A saved 0.406522 1.00543 1.25543 0.0757737 0.2284 0 0;
#X obj 680 670 bop.euclidean;
#A saved 6.30391 3.52174 1.95652 1 5.9 7 4.66667 1 1 36;
#X obj 260 670 bop.euclidean;
#A saved 3.30391 1.17391 2.08696 1 4.91667 2 4.25 1 1 74;
#X obj 260 880 bop.send;
#A saved harp;
#X obj 800 250 bop.receive;
#A saved harp;
#X obj 680 880 bop.send;
#A saved harp;
#X obj 50 880 bop.send;
#A saved harp;
#X obj 470 880 bop.send;
#A saved harp;
#X obj 440 310 bng 15 250 50 0 empty empty empty 17 7 0 10 #fcfcfc
#000000 #000000;
#X obj 530 320 bng 15 250 50 0 empty empty empty 17 7 0 10 #fcfcfc
#000000 #000000;
#X msg 560 630 63 48;
#X msg 700 620 66 51;
#X msg 390 620 47 74;
#X msg 620 630 66 48;
#X msg 440 640 63 74;
#X msg 730 580 68 36;
#X obj 890 910 bop.send;
#A saved master;
#X obj 70 170 bop.receive;
#A saved master;
#X obj 250 1200 bop.euclidean;
#A saved 4.99957 2.08696 1.95652 2 5.9 2.46452 3.27499 1 1 87.6905
;
#X obj 250 1410 bop.sampler;
#A saved C:/Users/bob/SYNC/DEV/pd/bop/samples/Snare_Bluesbreak_1.wav
-0.121212 2.88539 0 1;
#X obj 250 1660 bop.send;
#A saved beat;
#X obj 580 1680 bop.send;
#A saved master;
#X text 440 1880 comment;
#X obj 470 1200 bop.euclidean;
#A saved 12 7 0 2 5.9 0 4.22856 1 1 92.2262;
#X obj 580 1430 bop.sampler;
#A saved C:/Users/bob/SYNC/DEV/pd/bop/samples/kick.wav 0 0.242424 0
1;
#X obj 580 1600 bop.mix;
#A saved 0 0.635003 0;
#X obj 250 1580 bop.mix;
#A saved 0 0.659573 -0.173228;
#X obj 890 1120 bop.euclidean;
#A saved 8 8 1.82609 2 5.9 8.35738 3.27499 1 1 81.6429;
#X obj 890 1330 bop.sampler;
#A saved C:/Users/bob/SYNC/DEV/pd/bop/samples/Tambourine-BritishVintage-Stick-Hard.wav
0 0 0 1;
#X obj 890 1580 bop.send;
#A saved beat;
#X obj 890 1500 bop.mix;
#A saved 0 0.352767 0.88189;
#X obj 680 1200 bop.euclidean;
#A saved 24 4.69565 0.26087 12 4.56548 8.11905 3.02388 1 1 127;
#X text 2330 1870 comment;
#X obj 450 140 r bop-time;
#X obj 450 170 route bars;
#X obj 450 236 sel 0;
#X obj 450 259 tgl 15 0 empty empty empty 17 7 0 10 #fcfcfc #000000
#000000 1 1;
#X obj 450 280 sel 0 1;
#X obj 1310 370 bop.euclidean;
#A saved 12 7 1.36957 2 5.9 7 0.666667 1 1 59;
#X obj 1310 1060 bop.mix;
#A saved 0 0.453104 0;
#X obj 1310 1140 bop.send;
#A saved master;
#X msg 1430 260 28 59;
#X floatatom 630 280 5 0 0 0 - - -, f 5;
#X obj 1100 1330 bop.sampler;
#A saved C:/Users/bob/SYNC/DEV/pd/bop/samples/ride-sizzle.wav 0.020202
-3.15152 0 1;
#X obj 1100 1580 bop.send;
#A saved beat;
#X obj 1100 1500 bop.mix;
#A saved 0 0.338353 0.425197;
#X obj 1310 580 bop.notefx;
#A saved 0 1.90244 1 0 127 0 0;
#X msg 1390 260 20 59;
#X msg 100 580 56 90;
#X msg 30 560 52 70;
#X msg 1440 290 27 80;
#X msg 500 1090 divisions 12 \, hits 7;
#X msg 470 1120 divisions 12 \, hits 5;
#X msg 680 1120 divisions 8 \, hits 8;
#X msg 1510 280 divisions 12 \, hits 7;
#X msg 240 560 duration 3 \, divisions 9 \, hits 4;
#X msg 1480 320 duration 2 \, divisions 8 \, hits 8, f 19;
#X msg 260 620 duration 2 \, divisions 8 \, hits 6, f 19;
#X obj 420 350 s go-chord1-\$0;
#X obj 30 500 r go-chord1-\$0;
#X obj 530 350 s go-chord2-\$0;
#X obj 730 550 r go-chord2-\$0;
#X obj 230 500 r go-chord1-\$0;
#X obj 390 590 r go-chord1-\$0;
#X obj 540 560 r go-chord1-\$0;
#X obj 700 520 r go-chord1-\$0;
#X obj 1410 180 r go-chord1-\$0;
#X obj 1370 150 r go-chord2-\$0;
#X obj 590 590 r go-chord2-\$0;
#X obj 440 610 r go-chord2-\$0;
#X obj 100 540 r go-chord2-\$0;
#X obj 210 480 r go-chord2-\$0;
#X obj 630 346 s go-chord3-\$0;
#X obj 140 570 r go-chord3-\$0;
#X obj 260 590 r go-chord3-\$0;
#X obj 1540 190 r go-chord3-\$0;
#X obj 520 1010 r go-chord1-\$0;
#X obj 510 990 r go-chord2-\$0;
#X obj 680 1090 r go-chord3-\$0;
#X msg 1240 1290 64 127;
#X obj 1240 1250 r go-chord3-\$0;
#X obj 500 1060 bng 15 250 50 0 empty empty empty 17 7 0 10 #fcfcfc
#000000 #000000;
#X obj 1460 220 bng 15 250 50 0 empty empty empty 17 7 0 10 #fcfcfc
#000000 #000000;
#X obj 630 326 bng 15 250 50 0 empty empty empty 17 7 0 10 #fcfcfc
#000000 #000000;
#X obj 890 680 bop.receive;
#A saved beat;
#X obj 450 197 % 9;
#X obj 630 300 sel 7;
#X obj 1310 760 bop.synth;
#A saved 0.014556 0.755435 0.483696 0.375 0.391304 0.233696 0 0 0.0258847
0.01 0.661686 0.316228 1;
#X obj 1010 490 bop.glok;
#A saved 1;
#X obj 1010 310 bop.notefx;
#A saved 7.17073 2.56098 1 0 127 0 1;
#X obj 70 230 bop.mix;
#A saved 0 1.18282 0;
#X obj 800 310 bop.rhodes;
#A saved 0;
#X obj 800 370 bop.mix;
#A saved 0 0.687672 -0.346457;
#X obj 1010 250 bop.receive;
#A saved harp;
#X obj 1010 550 bop.mix;
#A saved 0 1.00103 0;
#X msg 180 620 54 100;
#X connect 1 2 9 2;
#X connect 2 2 10 2;
#X connect 3 0 19 0;
#X connect 3 1 19 1;
#X connect 4 2 8 2;
#X connect 5 2 6 2;
#X connect 7 0 94 0;
#X connect 7 1 94 1;
#X connect 7 2 94 2;
#X connect 7 3 94 3;
#X connect 11 0 61 0;
#X connect 12 0 63 0;
#X connect 13 0 2 2;
#X connect 14 0 4 2;
#X connect 15 0 5 2;
#X connect 16 0 2 2;
#X connect 17 0 5 2;
#X connect 18 0 4 2;
#X connect 20 0 93 0;
#X connect 20 1 93 1;
#X connect 21 2 22 2;
#X connect 22 0 29 0;
#X connect 22 1 29 1;
#X connect 22 2 29 2;
#X connect 22 3 29 3;
#X connect 26 2 27 2;
#X connect 27 0 28 0;
#X connect 27 1 28 1;
#X connect 27 2 28 2;
#X connect 27 3 28 3;
#X connect 28 0 24 0;
#X connect 28 1 24 1;
#X connect 28 2 24 2;
#X connect 28 3 24 3;
#X connect 29 0 23 0;
#X connect 29 1 23 1;
#X connect 29 2 23 2;
#X connect 29 3 23 3;
#X connect 30 2 31 2;
#X connect 31 0 33 0;
#X connect 31 1 33 1;
#X connect 31 2 33 2;
#X connect 31 3 33 3;
#X connect 33 0 32 0;
#X connect 33 1 32 1;
#X connect 33 2 32 2;
#X connect 33 3 32 3;
#X connect 34 2 27 2;
#X connect 36 0 37 0;
#X connect 37 0 88 0;
#X connect 38 0 39 0;
#X connect 39 0 40 0;
#X connect 40 0 11 0;
#X connect 40 1 12 0;
#X connect 41 0 49 0;
#X connect 41 1 49 1;
#X connect 41 2 49 2;
#X connect 41 3 49 3;
#X connect 42 0 43 0;
#X connect 42 1 43 1;
#X connect 44 0 41 2;
#X connect 45 0 89 0;
#X connect 46 0 48 0;
#X connect 46 1 48 1;
#X connect 46 2 48 2;
#X connect 46 3 48 3;
#X connect 48 0 47 0;
#X connect 48 1 47 1;
#X connect 48 2 47 2;
#X connect 48 3 47 3;
#X connect 49 2 90 2;
#X connect 49 3 90 3;
#X connect 50 0 41 2;
#X connect 51 0 1 2;
#X connect 52 0 1 2;
#X connect 53 0 41 2;
#X connect 54 0 26 3;
#X connect 55 0 26 3;
#X connect 56 0 26 3;
#X connect 57 0 41 3;
#X connect 58 0 1 3;
#X connect 59 0 41 3;
#X connect 60 0 1 3;
#X connect 62 0 52 0;
#X connect 64 0 18 0;
#X connect 65 0 58 0;
#X connect 66 0 15 0;
#X connect 67 0 13 0;
#X connect 68 0 14 0;
#X connect 69 0 44 0;
#X connect 69 0 85 0;
#X connect 70 0 50 0;
#X connect 70 0 85 0;
#X connect 71 0 16 0;
#X connect 72 0 17 0;
#X connect 73 0 51 0;
#X connect 74 0 58 0;
#X connect 76 0 98 0;
#X connect 77 0 60 0;
#X connect 78 0 59 0;
#X connect 78 0 53 0;
#X connect 79 0 84 0;
#X connect 80 0 84 0;
#X connect 81 0 56 0;
#X connect 82 0 46 2;
#X connect 83 0 82 0;
#X connect 84 0 55 0;
#X connect 84 0 54 0;
#X connect 85 0 57 0;
#X connect 86 0 75 0;
#X connect 87 0 3 0;
#X connect 87 1 3 1;
#X connect 88 0 38 0;
#X connect 88 0 45 0;
#X connect 89 0 86 0;
#X connect 90 0 42 0;
#X connect 90 1 42 1;
#X connect 90 2 42 2;
#X connect 90 3 42 3;
#X connect 91 0 97 0;
#X connect 91 1 97 1;
#X connect 92 0 91 0;
#X connect 92 1 91 1;
#X connect 92 2 91 2;
#X connect 92 3 91 3;
#X connect 93 0 0 0;
#X connect 93 1 0 1;
#X connect 94 0 95 0;
#X connect 94 1 95 1;
#X connect 94 2 95 2;
#X connect 94 3 95 3;
#X connect 95 0 87 0;
#X connect 95 1 87 1;
#X connect 96 2 92 2;
#X connect 97 0 87 0;
#X connect 97 1 87 1;
#X connect 98 0 1 2;
