#N canvas -8 -8 1538 787 10;
#X obj 50 210 bop.midiplayer;
#A saved 6 2.75337 assets/upsidedown.mid;
#X obj 50 330 bop.dancer;
#X obj 50 470 bop.sampler;
#A saved samples/bass.wav 0.343434 -5.09091 0;
#X obj 50 640 bop.mix;
#A saved 0 0.734835 0;
#X obj 740 660 bop;
#A saved 100;
#X obj 510 210 bop.noteslider;
#A saved 3.47697 1 1.97826;
#X obj 50 720 bop.send;
#A saved bass;
#X obj 740 430 bop.receive;
#A saved bass;
#X obj 280 370 bop.sampler;
#A saved samples/clap.wav 0 0 0;
#X obj 280 540 bop.mix;
#A saved 0 0.388942 -0.393701;
#X obj 280 620 bop.send;
#A saved clap;
#N canvas 0 0 450 300 ramp 0;
#X floatatom 40 170 5 0 0 0 - - -, f 5;
#X obj 40 80 r bop-time;
#X obj 40 140 / 12;
#X obj 40 110 route 12ths;
#X msg 40 199 noteslider \$1;
#X obj 40 250 outlet;
#X connect 0 0 4 0;
#X connect 1 0 3 0;
#X connect 2 0 0 0;
#X connect 3 0 2 0;
#X connect 4 0 5 0;
#X restore 670 160 pd ramp;
#X obj 510 310 bop.notefx;
#A saved -12.6614;
#X obj 510 370 bop.harp;
#A saved 0;
#X obj 510 590 bop.mix;
#A saved 0 0.26719 0.818898;
#X obj 740 370 bop.receive;
#A saved clap;
#X obj 280 210 bop.noteslider;
#A saved 4.61495 1 7.55978;
#X obj 280 310 bop.notefx;
#A saved -24;
#X obj 510 420 bop.reverb;
#A saved 0.606793 0.91712 1.83696 0.414402 0.679348 0 0;
#X obj 740 490 bop.reverb;
#A saved 0.367962 0.876359 0.51087 0.305707 0.891304 0 0;
#X obj 740 210 bop.receive;
#A saved harp;
#X obj 510 670 bop.send;
#A saved harp;
#X floatatom 480 140 5 0 0 0 - - -, f 5;
#X msg 480 160 octaves \$1;
#X msg 580 160 freeze \$1;
#X obj 580 130 tgl 20 0 empty empty empty 17 7 0 10 #fcfcfc #000000
#000000 0 1;
#X obj 50 410 bop.notefx;
#A saved 0.472441;
#X text 40 170 Audio L;
#X text 100 170 Audio R;
#X text 170 170 notes;
#X text 230 170 control;
#X text 960 250 you can sever connections to prevent information flowing
downstream. Breaking this connection prevents the freeze message reaching
the reverb below, f 16;
#X text 60 120 modules all have four ins and outs. they will pass through
information from modules above, f 34;
#X text 740 160 The send and receive modules remotely pass through
information from all their ins and outs., f 34;
#X text 470 70 paramaters can be addressed by their labels and controlled
through the rightmost inlet, f 35;
#X floatatom 360 151 5 0 0 0 - - -, f 5;
#X obj 360 61 r bop-time;
#X msg 360 180 noteslider \$1;
#X obj 360 91 route beats;
#X obj 360 121 / 4;
#X text 60 40 bop 🐦 is a suite of modules for music composition
in Pure Data, f 33;
#X connect 0 0 1 0;
#X connect 0 1 1 1;
#X connect 0 2 1 2;
#X connect 0 3 1 3;
#X connect 1 0 26 0;
#X connect 1 1 26 1;
#X connect 1 2 26 2;
#X connect 1 3 26 3;
#X connect 2 0 3 0;
#X connect 2 1 3 1;
#X connect 2 2 3 2;
#X connect 2 3 3 3;
#X connect 3 0 6 0;
#X connect 3 1 6 1;
#X connect 3 2 6 2;
#X connect 3 3 6 3;
#X connect 5 0 12 0;
#X connect 5 1 12 1;
#X connect 5 2 12 2;
#X connect 5 3 12 3;
#X connect 7 0 19 0;
#X connect 7 1 19 1;
#X connect 7 2 19 2;
#X connect 7 3 19 3;
#X connect 8 0 9 0;
#X connect 8 1 9 1;
#X connect 8 2 9 2;
#X connect 8 3 9 3;
#X connect 9 0 10 0;
#X connect 9 1 10 1;
#X connect 9 2 10 2;
#X connect 9 3 10 3;
#X connect 11 0 5 3;
#X connect 12 0 13 0;
#X connect 12 1 13 1;
#X connect 12 2 13 2;
#X connect 12 3 13 3;
#X connect 13 0 18 0;
#X connect 13 1 18 1;
#X connect 13 2 18 2;
#X connect 13 3 18 3;
#X connect 14 0 21 0;
#X connect 14 1 21 1;
#X connect 14 2 21 2;
#X connect 14 3 21 3;
#X connect 15 0 7 0;
#X connect 15 1 7 1;
#X connect 15 2 7 2;
#X connect 15 3 7 3;
#X connect 16 0 17 0;
#X connect 16 1 17 1;
#X connect 16 2 17 2;
#X connect 16 3 17 3;
#X connect 17 0 8 0;
#X connect 17 1 8 1;
#X connect 17 2 8 2;
#X connect 17 3 8 3;
#X connect 18 0 14 0;
#X connect 18 1 14 1;
#X connect 18 2 14 2;
#X connect 18 3 14 3;
#X connect 19 0 4 0;
#X connect 19 1 4 1;
#X connect 19 2 4 2;
#X connect 19 3 4 3;
#X connect 20 0 15 0;
#X connect 20 1 15 1;
#X connect 20 2 15 2;
#X connect 22 0 23 0;
#X connect 23 0 5 3;
#X connect 24 0 5 3;
#X connect 25 0 24 0;
#X connect 26 0 2 0;
#X connect 26 1 2 1;
#X connect 26 2 2 2;
#X connect 26 3 2 3;
#X connect 35 0 37 0;
#X connect 36 0 38 0;
#X connect 37 0 16 3;
#X connect 38 0 39 0;
#X connect 39 0 35 0;
