#N canvas -8 -8 972 787 10;
#X obj 100 100 bop.midiplayer;
#A saved 4 4.77273 assets/upsidedown.mid;
#X obj 100 210 bop.dancer;
#X obj 100 270 bop.sampler;
#A saved samples/bass.wav -0.50505 -4.60606;
#X obj 100 410 bop.mix;
#A saved 0 0.940787 0;
#X obj 560 400 bop;
#A saved 100;
#X obj 330 100 bop.noteslider;
#A saved 2 1 3;
#X obj 100 480 bop.send;
#A saved bass;
#X obj 560 350 bop.receive;
#A saved clap;
#X obj 330 240 bop.sampler;
#A saved samples/clap.wav 0 0.727273;
#X obj 330 380 bop.mix;
#A saved 0 0.184882 0.614173;
#X obj 330 450 bop.send;
#A saved clap;
#X obj 900 400 bop.template;
#A saved 0 0 0;
#N canvas 0 0 450 300 ramp 0;
#X floatatom 40 170 5 0 0 0 - - -, f 5;
#X obj 40 80 r bop-time;
#X obj 40 140 / 12;
#X obj 40 110 route 12ths;
#X msg 40 199 noteslider \$1;
#X obj 13 269 outlet;
#X connect 0 0 4 0;
#X connect 1 0 3 0;
#X connect 2 0 0 0;
#X connect 3 0 2 0;
#X connect 4 0 5 0;
#X restore 530 70 pd ramp;
#X obj 330 190 bop.notefx;
#A saved -12;
#X obj 660 190 bop.harp;
#A saved 0;
#X obj 660 240 bop.mix;
#A saved 0 0.755906 0.818898;
#X obj 560 110 bop.receive;
#A saved bass;
#X connect 0 0 1 0;
#X connect 0 1 1 1;
#X connect 0 2 1 2;
#X connect 0 3 1 3;
#X connect 1 0 2 0;
#X connect 1 1 2 1;
#X connect 1 2 2 2;
#X connect 1 3 2 3;
#X connect 2 0 3 0;
#X connect 2 1 3 1;
#X connect 2 2 3 2;
#X connect 2 3 3 3;
#X connect 3 0 6 0;
#X connect 3 1 6 1;
#X connect 3 2 6 2;
#X connect 3 3 6 3;
#X connect 5 0 13 0;
#X connect 5 1 13 1;
#X connect 5 2 13 2;
#X connect 5 3 13 3;
#X connect 7 0 4 0;
#X connect 7 1 4 1;
#X connect 8 0 9 0;
#X connect 8 1 9 1;
#X connect 8 2 9 2;
#X connect 8 3 9 3;
#X connect 9 0 10 0;
#X connect 9 1 10 1;
#X connect 9 2 10 2;
#X connect 9 3 10 3;
#X connect 12 0 5 3;
#X connect 13 0 8 0;
#X connect 13 1 8 1;
#X connect 13 2 8 2;
#X connect 13 3 8 3;
#X connect 14 0 15 0;
#X connect 14 1 15 1;
#X connect 14 2 15 2;
#X connect 14 3 15 3;
#X connect 15 0 7 0;
#X connect 15 1 7 1;
#X connect 15 2 7 2;
#X connect 15 3 7 3;
#X connect 16 0 7 0;
#X connect 16 1 7 1;
#X connect 16 2 14 2;
#X connect 16 3 14 3;
