#N canvas 0 0 1522 772 10;
#X obj 70 310 bop;
#A saved 110;
#X obj 50 670 bop.euclidean;
#A saved 9 4 1.17391 3 5.9 3 3.33333 0 1 70;
#X obj 470 670 bop.euclidean;
#A saved 8.5213 3.78261 1.17391 2 5.9 2 4.25 1 1 48;
#X obj 1340 910 bop.reverb;
#A saved 0.406522 0.971467 1.19022 0.118897 0.324242 0 0;
#X obj 680 670 bop.euclidean;
#A saved 6.30391 3.52174 1.95652 1 5.9 5 4.5 1 1 51;
#X obj 260 670 bop.euclidean;
#A saved 3.30391 1.17391 2.08696 1 4.91667 10 2.91667 1 1 74;
#X obj 260 880 bop.send;
#A saved harp;
#X obj 1130 170 bop.receive;
#A saved harp;
#X obj 680 880 bop.send;
#A saved harp;
#X obj 50 880 bop.send;
#A saved harp;
#X obj 470 880 bop.send;
#A saved harp;
#X obj 440 310 bng 15 250 50 0 empty empty empty 17 7 0 10 #fcfcfc
#000000 #000000;
#X obj 530 320 bng 15 250 50 0 empty empty empty 17 7 0 10 #fcfcfc
#000000 #000000;
#X msg 560 630 63 48;
#X msg 700 620 66 51;
#X msg 390 620 47 74;
#X msg 620 630 66 48;
#X msg 440 640 63 74;
#X msg 730 580 68 36;
#X obj 1340 1080 bop.send;
#A saved master;
#X obj 70 170 bop.receive;
#A saved master;
#X obj 200 1270 bop.euclidean;
#A saved 2 1 1.95652 1 5.9 5.7619 3.48689 1 1 90;
#X obj 200 1480 bop.sampler;
#A saved C:/Users/bob/SYNC/DEV/pd/bop/samples/Clap.wav -0.121212 2.88539
0 1;
#X obj 200 1730 bop.send;
#A saved beat;
#X obj 530 1750 bop.send;
#A saved master;
#X obj 420 1270 bop.euclidean;
#A saved 12 7 0 2 5.9 0 4.22856 1 1 72.5714;
#X obj 530 1500 bop.sampler;
#A saved C:/Users/bob/SYNC/DEV/pd/bop/samples/kick2.wav 0 4.17978 0
1;
#X obj 530 1670 bop.mix;
#A saved 0 0.719665 0;
#X obj 200 1650 bop.mix;
#A saved 0 0.3998 -0.173228;
#X obj 840 1190 bop.euclidean;
#A saved 8.26044 13.8691 0 2 5.9 4.45238 4.97023 1 1 81.6429;
#X obj 840 1400 bop.sampler;
#A saved C:/Users/bob/SYNC/DEV/pd/bop/samples/Tambourine-BritishVintage-Stick-Hard.wav
0 0 0.00543478 1;
#X obj 840 1650 bop.send;
#A saved beat;
#X obj 840 1570 bop.mix;
#A saved 0 0.298548 0.566929;
#X obj 630 1270 bop.euclidean;
#A saved 24 4.69565 0.26087 12 4.56548 8.11905 3.02388 1 1 127;
#X text 2420 1970 comment;
#X obj 450 140 r bop-time;
#X obj 450 170 route bars;
#X obj 450 236 sel 0;
#X obj 450 259 tgl 15 0 empty empty empty 17 7 0 10 #fcfcfc #000000
#000000 0 1;
#X obj 450 280 sel 0 1;
#X obj 1940 950 bop.euclidean;
#A saved 12 7 1.36957 2 5.9 3 1.33333 1 1 59;
#X obj 1940 1550 bop.mix;
#A saved 0 0.635003 0;
#X obj 1940 1630 bop.send;
#A saved master;
#X msg 2060 840 28 59;
#X floatatom 630 280 5 0 0 0 - - -, f 5;
#X obj 1050 1400 bop.sampler;
#A saved C:/Users/bob/SYNC/DEV/pd/bop/samples/ride-sizzle.wav 0.020202
0 0 1;
#X obj 1050 1650 bop.send;
#A saved beat;
#X obj 1050 1570 bop.mix;
#A saved 0 0.383464 0.755906;
#X msg 100 580 56 90;
#X msg 30 560 52 70;
#X msg 2070 870 27 80;
#X msg 450 1160 divisions 12 \, hits 7;
#X msg 420 1190 divisions 12 \, hits 5;
#X msg 630 1190 divisions 8 \, hits 8;
#X msg 2140 860 divisions 12 \, hits 7;
#X msg 240 560 duration 3 \, divisions 9 \, hits 4;
#X msg 2110 900 duration 2 \, divisions 8 \, hits 8, f 19;
#X msg 260 620 duration 2 \, divisions 8 \, hits 6, f 19;
#X obj 420 350 s go-chord1-\$0;
#X obj 30 500 r go-chord1-\$0;
#X obj 530 350 s go-chord2-\$0;
#X obj 730 550 r go-chord2-\$0;
#X obj 230 500 r go-chord1-\$0;
#X obj 390 590 r go-chord1-\$0;
#X obj 540 560 r go-chord1-\$0;
#X obj 700 520 r go-chord1-\$0;
#X obj 2040 760 r go-chord1-\$0;
#X obj 2000 730 r go-chord2-\$0;
#X obj 590 590 r go-chord2-\$0;
#X obj 440 610 r go-chord2-\$0;
#X obj 100 540 r go-chord2-\$0;
#X obj 210 480 r go-chord2-\$0;
#X obj 630 346 s go-chord3-\$0;
#X obj 140 570 r go-chord3-\$0;
#X obj 260 590 r go-chord3-\$0;
#X obj 2170 770 r go-chord3-\$0;
#X obj 470 1080 r go-chord1-\$0;
#X obj 460 1060 r go-chord2-\$0;
#X obj 630 1160 r go-chord3-\$0;
#X obj 1170 1330 r go-chord3-\$0;
#X obj 450 1130 bng 15 250 50 0 empty empty empty 17 7 0 10 #fcfcfc
#000000 #000000;
#X obj 2090 800 bng 15 250 50 0 empty empty empty 17 7 0 10 #fcfcfc
#000000 #000000;
#X obj 630 326 bng 15 250 50 0 empty empty empty 17 7 0 10 #fcfcfc
#000000 #000000;
#X obj 1340 850 bop.receive;
#A saved beat;
#X obj 450 197 % 9;
#X obj 630 300 sel 7;
#X obj 1940 1160 bop.synth;
#A saved 0.0191694 0.809783 0.293478 0 0 0.171196 0 0 0.01 0.246209
0.116203 0.381524 1 0.01 0.238668;
#X obj 1340 500 bop.glok;
#A saved 0;
#X obj 1340 320 bop.notefx;
#A saved 7.17073 2.63415 4 0 127 0 1;
#X obj 70 230 bop.mix;
#A saved 0 1.11525 0;
#X obj 1130 500 bop.mix;
#A saved 0 0.324527 0;
#X obj 1340 260 bop.receive;
#A saved harp;
#X obj 1340 560 bop.mix;
#A saved 0 1.00103 0;
#X msg 180 620 54 100;
#X msg 2020 840 32 59;
#N canvas 0 0 450 300 filter 0;
#X obj 40 300 bob~;
#X floatatom 385 187 5 0 200 0 - - -, f 5;
#X obj 385 209 / 25;
#X obj 269 240 pack 0 50;
#X floatatom 268 218 7 0 0 0 - - -, f 7;
#X floatatom 536 176 5 0 999 0 - - -, f 5;
#X msg 536 222 saturation \$1;
#X obj 536 126 loadbang;
#X obj 536 198 / 100;
#X text 396 82 "resonance";
#X text 395 99 (>4 to oscillate);
#X text 433 205 scaled to 0-8;
#X text 432 187 0-200 control;
#X text 240 80 resonant or cutoff frequency, f 16;
#X text 528 87 saturation point;
#X text 525 104 of "transistors";
#X obj 385 136 loadbang;
#X obj 384 237 line~;
#X obj 268 124 loadbang;
#X obj 268 267 line~;
#X msg 536 151 750;
#X msg 268 149 483;
#X msg 385 161 66;
#X obj 13 26 inlet~;
#X obj 13 370 outlet~;
#X connect 0 0 24 0;
#X connect 1 0 2 0;
#X connect 2 0 17 0;
#X connect 3 0 19 0;
#X connect 4 0 3 0;
#X connect 5 0 8 0;
#X connect 6 0 0 0;
#X connect 7 0 20 0;
#X connect 8 0 6 0;
#X connect 16 0 22 0;
#X connect 17 0 0 2;
#X connect 18 0 21 0;
#X connect 19 0 0 1;
#X connect 20 0 5 0;
#X connect 21 0 4 0;
#X connect 22 0 1 0;
#X connect 23 0 0 0;
#X restore 1940 1510 pd filter;
#X obj 1130 230 bop.casio;
#A saved 0 0 0.755435 0.01 0.945652 0.182065 0.271739 0.320652 0.668478
0.559783 1;
#X obj 80 1120 r go-chord1-\$0;
#X obj 70 1100 r go-chord2-\$0;
#X obj 190 1130 r go-chord3-\$0;
#X obj 60 1170 bng 15 250 50 0 empty empty empty 17 7 0 10 #fcfcfc
#000000 #000000;
#X msg 60 1200 divisions 2 \, hits 1 \, velocity 90;
#X msg 190 1150 divisions 16 \, hits 6 \, velocity 40;
#X obj 1550 420 bop.synth;
#A saved 0.107798 0 0 0.581522 0.413043 0.51087 1 1 0.01 0.0882373
0.258847 0.396119 0 0.0300788 1;
#X obj 1550 190 bop.notefx;
#A saved 7.60976 1.60976 4 0 127 0 1;
#X obj 1550 130 bop.receive;
#A saved harp;
#X obj 1550 760 bop.mix;
#A saved 0 0.01 0;
#X obj 1870 20 r go-chord3-\$0;
#X msg 1750 100 amp \$1;
#X obj 1750 80 line;
#X obj 1750 20 r go-chord2-\$0;
#X msg 1170 1370 64 127;
#X msg 1750 40 0.3 10000;
#X obj 1690 390 spigot;
#X msg 1970 350 0;
#X obj 1890 280 r go-chord3-\$0;
#X obj 1780 280 r go-chord2-\$0;
#X msg 1780 310 1;
#X msg 1880 370 32 100;
#X obj 1890 310 t b b b b b;
#X msg 1940 380 slide 1;
#X msg 1636 48 slide 0.6;
#X msg 1850 50 0 1000;
#X connect 1 2 9 2;
#X connect 2 2 10 2;
#X connect 3 0 19 0;
#X connect 3 1 19 1;
#X connect 4 2 8 2;
#X connect 5 2 6 2;
#X connect 7 2 96 2;
#X connect 7 3 96 3;
#X connect 11 0 58 0;
#X connect 12 0 60 0;
#X connect 13 0 2 2;
#X connect 14 0 4 2;
#X connect 15 0 5 2;
#X connect 16 0 2 2;
#X connect 17 0 5 2;
#X connect 18 0 4 2;
#X connect 20 0 89 0;
#X connect 20 1 89 1;
#X connect 21 2 22 2;
#X connect 22 0 28 0;
#X connect 22 1 28 1;
#X connect 22 2 28 2;
#X connect 22 3 28 3;
#X connect 25 2 26 2;
#X connect 26 0 27 0;
#X connect 26 1 27 1;
#X connect 26 2 27 2;
#X connect 26 3 27 3;
#X connect 27 0 24 0;
#X connect 27 1 24 1;
#X connect 28 0 23 0;
#X connect 28 1 23 1;
#X connect 28 2 23 2;
#X connect 28 3 23 3;
#X connect 29 2 30 2;
#X connect 30 0 32 0;
#X connect 30 1 32 1;
#X connect 30 2 32 2;
#X connect 30 3 32 3;
#X connect 32 0 31 0;
#X connect 32 1 31 1;
#X connect 32 2 31 2;
#X connect 32 3 31 3;
#X connect 33 2 26 2;
#X connect 35 0 36 0;
#X connect 36 0 84 0;
#X connect 37 0 38 0;
#X connect 38 0 39 0;
#X connect 39 0 11 0;
#X connect 39 1 12 0;
#X connect 40 0 86 0;
#X connect 40 1 86 1;
#X connect 40 2 86 2;
#X connect 40 3 86 3;
#X connect 41 0 42 0;
#X connect 41 1 42 1;
#X connect 43 0 40 2;
#X connect 44 0 85 0;
#X connect 45 0 47 0;
#X connect 45 1 47 1;
#X connect 45 2 47 2;
#X connect 45 3 47 3;
#X connect 47 0 46 0;
#X connect 47 1 46 1;
#X connect 47 2 46 2;
#X connect 47 3 46 3;
#X connect 48 0 1 2;
#X connect 49 0 1 2;
#X connect 50 0 40 2;
#X connect 51 0 25 3;
#X connect 52 0 25 3;
#X connect 53 0 25 3;
#X connect 54 0 40 3;
#X connect 55 0 1 3;
#X connect 56 0 40 3;
#X connect 57 0 1 3;
#X connect 59 0 49 0;
#X connect 61 0 18 0;
#X connect 62 0 55 0;
#X connect 63 0 15 0;
#X connect 64 0 13 0;
#X connect 65 0 14 0;
#X connect 66 0 43 0;
#X connect 66 0 81 0;
#X connect 67 0 94 0;
#X connect 67 0 81 0;
#X connect 68 0 16 0;
#X connect 69 0 17 0;
#X connect 70 0 48 0;
#X connect 71 0 55 0;
#X connect 73 0 93 0;
#X connect 74 0 57 0;
#X connect 75 0 56 0;
#X connect 75 0 50 0;
#X connect 76 0 80 0;
#X connect 77 0 80 0;
#X connect 78 0 53 0;
#X connect 79 0 111 0;
#X connect 80 0 52 0;
#X connect 80 0 51 0;
#X connect 81 0 54 0;
#X connect 82 0 72 0;
#X connect 83 0 3 0;
#X connect 83 1 3 1;
#X connect 84 0 37 0;
#X connect 84 0 44 0;
#X connect 85 0 82 0;
#X connect 86 0 95 0;
#X connect 86 1 95 0;
#X connect 86 2 41 2;
#X connect 86 3 41 3;
#X connect 87 0 92 0;
#X connect 87 1 92 1;
#X connect 87 2 92 2;
#X connect 88 0 87 0;
#X connect 88 1 87 1;
#X connect 88 2 87 2;
#X connect 88 3 87 3;
#X connect 89 0 0 0;
#X connect 89 1 0 1;
#X connect 90 0 83 0;
#X connect 90 1 83 1;
#X connect 91 2 88 2;
#X connect 91 3 88 3;
#X connect 92 0 83 0;
#X connect 92 1 83 1;
#X connect 93 0 1 2;
#X connect 94 0 40 2;
#X connect 95 0 41 0;
#X connect 95 0 41 1;
#X connect 96 0 90 0;
#X connect 96 1 90 1;
#X connect 96 2 90 2;
#X connect 96 3 90 3;
#X connect 97 0 100 0;
#X connect 98 0 100 0;
#X connect 99 0 102 0;
#X connect 100 0 101 0;
#X connect 101 0 21 3;
#X connect 103 0 106 0;
#X connect 103 1 106 1;
#X connect 103 2 106 2;
#X connect 103 3 106 3;
#X connect 104 2 113 0;
#X connect 104 3 103 3;
#X connect 105 2 104 2;
#X connect 105 3 104 3;
#X connect 106 0 83 0;
#X connect 106 1 83 1;
#X connect 107 0 122 0;
#X connect 108 0 105 3;
#X connect 109 0 108 0;
#X connect 110 0 112 0;
#X connect 110 0 121 0;
#X connect 111 0 45 2;
#X connect 112 0 109 0;
#X connect 113 0 103 2;
#X connect 114 0 113 1;
#X connect 115 0 119 0;
#X connect 116 0 117 0;
#X connect 117 0 113 1;
#X connect 118 0 103 2;
#X connect 119 0 118 0;
#X connect 119 1 118 0;
#X connect 119 2 118 0;
#X connect 119 3 118 0;
#X connect 119 4 114 0;
#X connect 119 4 120 0;
#X connect 120 0 103 3;
#X connect 121 0 105 3;
#X connect 122 0 109 0;
