#N canvas -8 -8 1538 787 10;
#X floatatom 1260 110 5 0 0 0 - - -, f 5;
#X obj 660 370 unpack;
#X floatatom 660 400 5 0 0 0 - - -, f 5;
#X floatatom 700 400 5 0 0 0 - - -, f 5;
#X obj 760 360 cyclone/prepend set;
#X msg 760 390 scale-list 0 2 4 5 7 9 11 12 14 16 17 19 21 23;
#X obj 50 40 bop.midiplayer;
#A saved 2 5 assets/upsidedown.mid;
#X obj 50 170 bop.dancer;
#X obj 50 270 bop.sampler;
#A saved samples/2OSC.wav;
#X obj 50 430 bop.mix;
#A saved 0 0.799055 0;
#X obj 320 490 bop;
#A saved 100;
#X obj 1060 180 bop.noteslider;
#A saved 3 1 0;
#X obj 50 520 bop.send;
#A saved bass;
#X obj 320 260 bop.receive;
#A saved bass;
#X obj 300 40 bop.template;
#A saved 0 0 0;
#X obj 1260 10 r bop-time;
#X obj 1080 430 bop.sampler;
#A saved samples/bass.wav;
#X obj 1260 80 / 12;
#X obj 1260 50 route 12ths;
#X msg 1260 140 noteslider \$1;
#X obj 1190 310 unpack;
#X obj 1195 386 pack;
#X obj 1080 590 bop.mix;
#A saved 0 0.720315 0.480315;
#X obj 1080 680 bop.send;
#A saved riff;
#X obj 1185 346 + 17;
#X floatatom 1290 310 5 0 0 0 - - -, f 5;
#X obj 570 260 bop.receive;
#A saved riff;
#X connect 0 0 19 0;
#X connect 1 0 2 0;
#X connect 1 1 3 0;
#X connect 4 0 5 0;
#X connect 6 0 7 0;
#X connect 6 1 7 1;
#X connect 6 2 7 2;
#X connect 6 3 7 3;
#X connect 7 0 8 0;
#X connect 7 1 8 1;
#X connect 7 2 8 2;
#X connect 7 3 8 3;
#X connect 8 0 9 0;
#X connect 8 1 9 1;
#X connect 8 2 9 2;
#X connect 8 3 9 3;
#X connect 9 0 12 0;
#X connect 9 1 12 1;
#X connect 9 2 12 2;
#X connect 9 3 12 3;
#X connect 11 2 20 0;
#X connect 13 0 10 0;
#X connect 13 1 10 1;
#X connect 15 0 18 0;
#X connect 16 0 22 0;
#X connect 16 1 22 1;
#X connect 16 2 22 2;
#X connect 16 3 22 3;
#X connect 17 0 0 0;
#X connect 18 0 17 0;
#X connect 19 0 11 3;
#X connect 20 0 24 0;
#X connect 20 1 21 1;
#X connect 21 0 16 2;
#X connect 22 0 23 0;
#X connect 22 1 23 1;
#X connect 22 2 23 2;
#X connect 22 3 23 3;
#X connect 24 0 21 0;
#X connect 25 0 24 1;
#X connect 26 0 10 0;
#X connect 26 1 10 1;
#X connect 26 2 1 0;
#X connect 26 3 4 0;
