#N canvas 0 0 1522 772 10;
#X obj 50 130 bop.midiplayer;
#A saved 6 2.75337 assets/upsidedown.mid;
#X obj 50 250 bop.dancer;
#X obj 50 390 bop.sampler;
#A saved samples/bass.wav 0.30303 -5.09091 0;
#X obj 50 560 bop.mix;
#A saved 0 0.734835 0;
#X obj 740 480 bop;
#A saved 90;
#X obj 510 130 bop.noteslider;
#A saved 3.47697 0 1.97826;
#X obj 50 640 bop.send;
#A saved bass;
#X obj 740 250 bop.receive;
#A saved bass;
#X obj 280 290 bop.sampler;
#A saved samples/clap.wav 0 -6.66667 0.26087;
#X obj 280 460 bop.mix;
#A saved 0 0.388942 -0.393701;
#X obj 280 540 bop.send;
#A saved clap;
#N canvas 0 0 450 300 ramp 0;
#X floatatom 40 170 5 0 0 0 - - -, f 5;
#X obj 40 80 r bop-time;
#X obj 40 140 / 12;
#X obj 40 110 route 12ths;
#X msg 40 199 noteslider \$1;
#X obj 13 269 outlet;
#X connect 0 0 4 0;
#X connect 1 0 3 0;
#X connect 2 0 0 0;
#X connect 3 0 2 0;
#X connect 4 0 5 0;
#X restore 520 70 pd ramp;
#X obj 510 230 bop.notefx;
#A saved -12.6614;
#X obj 510 290 bop.harp;
#A saved 0;
#X obj 510 510 bop.mix;
#A saved 0 0.26719 0.818898;
#X obj 740 190 bop.receive;
#A saved clap;
#X obj 280 130 bop.noteslider;
#A saved 4.61495 1 7.55978;
#N canvas 889 192 451 302 ramp 0;
#X floatatom 40 170 5 0 0 0 - - -, f 5;
#X obj 40 80 r bop-time;
#X msg 40 199 noteslider \$1;
#X obj 13 269 outlet;
#X obj 40 110 route beats;
#X obj 40 140 / 4;
#X connect 0 0 2 0;
#X connect 1 0 4 0;
#X connect 2 0 3 0;
#X connect 4 0 5 0;
#X connect 5 0 0 0;
#X restore 440 100 pd ramp;
#X obj 280 230 bop.notefx;
#A saved -17.9528;
#X obj 510 340 bop.reverb;
#A saved 0.606793 0.91712 1.83696 0.414402 0.679348 0 0;
#X obj 740 310 bop.reverb;
#A saved 0.367962 0.876359 0.51087 0.305707 0.891304 0 0;
#X obj 740 130 bop.receive;
#A saved harp;
#X obj 510 590 bop.send;
#A saved harp;
#X msg 570 70 pitch-shift \$1;
#X floatatom 570 50 5 0 0 0 - - -, f 5;
#X floatatom 670 50 5 0 0 0 - - -, f 5;
#X msg 670 70 octaves \$1;
#X msg 740 70 freeze \$1;
#X obj 740 30 tgl 20 0 empty empty empty 17 7 0 10 #fcfcfc #000000
#000000 0 1;
#X obj 50 330 bop.notefx;
#A saved -12.378;
#X connect 0 0 1 0;
#X connect 0 1 1 1;
#X connect 0 2 1 2;
#X connect 0 3 1 3;
#X connect 1 0 29 0;
#X connect 1 1 29 1;
#X connect 1 2 29 2;
#X connect 1 3 29 3;
#X connect 2 0 3 0;
#X connect 2 1 3 1;
#X connect 2 2 3 2;
#X connect 2 3 3 3;
#X connect 3 0 6 0;
#X connect 3 1 6 1;
#X connect 3 2 6 2;
#X connect 3 3 6 3;
#X connect 5 0 12 0;
#X connect 5 1 12 1;
#X connect 5 2 12 2;
#X connect 5 3 12 3;
#X connect 7 0 20 0;
#X connect 7 1 20 1;
#X connect 7 2 20 2;
#X connect 7 3 20 3;
#X connect 8 0 9 0;
#X connect 8 1 9 1;
#X connect 8 2 9 2;
#X connect 8 3 9 3;
#X connect 9 0 10 0;
#X connect 9 1 10 1;
#X connect 9 2 10 2;
#X connect 9 3 10 3;
#X connect 11 0 5 3;
#X connect 12 0 13 0;
#X connect 12 1 13 1;
#X connect 12 2 13 2;
#X connect 12 3 13 3;
#X connect 13 0 19 0;
#X connect 13 1 19 1;
#X connect 13 2 19 2;
#X connect 13 3 19 3;
#X connect 14 0 22 0;
#X connect 14 1 22 1;
#X connect 14 2 22 2;
#X connect 14 3 22 3;
#X connect 15 0 7 0;
#X connect 15 1 7 1;
#X connect 15 2 7 2;
#X connect 15 3 7 3;
#X connect 16 0 18 0;
#X connect 16 1 18 1;
#X connect 16 2 18 2;
#X connect 16 3 18 3;
#X connect 17 0 16 3;
#X connect 18 0 8 0;
#X connect 18 1 8 1;
#X connect 18 2 8 2;
#X connect 18 3 8 3;
#X connect 19 0 14 0;
#X connect 19 1 14 1;
#X connect 19 2 14 2;
#X connect 19 3 14 3;
#X connect 20 0 4 0;
#X connect 20 1 4 1;
#X connect 20 2 4 2;
#X connect 20 3 4 3;
#X connect 21 0 15 0;
#X connect 21 1 15 1;
#X connect 21 2 15 2;
#X connect 21 3 15 3;
#X connect 23 0 5 3;
#X connect 24 0 23 0;
#X connect 25 0 26 0;
#X connect 26 0 5 3;
#X connect 27 0 5 3;
#X connect 28 0 27 0;
#X connect 29 0 2 0;
#X connect 29 1 2 1;
#X connect 29 2 2 2;
#X connect 29 3 2 3;
