#N canvas 0 0 1522 772 10;
#X obj 60 330 bop.dancer;
#X obj 60 740 bop.mix;
#A saved 0 0.44542 0;
#X obj 1170 500 bop;
#A saved 70;
#X obj 510 210 bop.noteslider;
#A saved 4.78899 0 0;
#X obj 1170 210 bop.receive;
#A saved reverb;
#X obj 280 490 bop.sampler;
#A saved samples/clap.wav 0 0 0;
#X obj 280 660 bop.mix;
#A saved 0 0.19137 0.267717;
#X obj 280 740 bop.send;
#A saved master;
#N canvas 800 164 452 302 ramp 0;
#X floatatom 38 144 5 0 0 0 - - -, f 5;
#X obj 38 54 r bop-time;
#X obj 38 114 / 12;
#X obj 38 84 route 12ths;
#X obj 40 260 outlet;
#X obj 40 200 line;
#X msg 38 174 \$1 200;
#X connect 0 0 6 0;
#X connect 1 0 3 0;
#X connect 2 0 0 0;
#X connect 3 0 2 0;
#X connect 5 0 4 0;
#X connect 6 0 5 0;
#X restore 710 100 pd ramp;
#X obj 510 320 bop.notefx;
#A saved 0 -1.39024 0 57.9783 89.7283 0 0;
#X obj 510 500 bop.harp;
#A saved 0;
#X obj 510 720 bop.mix;
#A saved 0 0.357806 -0.283465;
#X obj 1170 440 bop.receive;
#A saved master;
#X obj 280 210 bop.noteslider;
#A saved 3.71587 1 7.55978;
#X obj 280 310 bop.notefx;
#A saved -1.46341 -2.41463 1 0 127 4.9 0;
#X obj 510 550 bop.reverb;
#A saved 0.209239 0.78125 1.46739 0.292735 0.01 1 0;
#X obj 1170 270 bop.reverb;
#A saved 0.487527 0.998641 1.73913 0.405303 0.01 0 0;
#X obj 510 800 bop.send;
#A saved harp;
#X msg 590 170 freeze \$1;
#X obj 590 150 tgl 20 0 empty empty empty 17 7 0 10 #fcfcfc #000000
#000000 1 1;
#X obj 60 410 bop.notefx;
#A saved 5.26829 -4.2439 1 0 127 0.58587 0;
#X text 40 180 Audio L;
#X text 100 180 Audio R;
#X text 170 180 notes;
#X text 230 180 control;
#X text 60 120 modules all have four ins and outs. they will pass through
information from modules above, f 34;
#X text 730 160 The send and receive modules remotely pass through
information from all their ins and outs., f 34;
#X text 330 130 paramaters can be addressed by their labels and controlled
through the rightmost inlet, f 23;
#X obj 480 41 r bop-time;
#X msg 480 140 noteslider \$1;
#X obj 480 100 / 4;
#X text 60 80 bop 🐦 is a suite of modules for music composition
in Pure Data, f 33;
#X obj 730 280 bop.marimba;
#A saved 0;
#X obj 730 210 bop.receive;
#A saved harp;
#X obj 730 330 bop.mix;
#A saved 0 0.484179 0.76378;
#X obj 730 410 bop.send;
#A saved master;
#X obj 950 760 bop.mix;
#A saved 1 0.281493 0.425197;
#X obj 950 330 bop.notefx;
#A saved -5.41463 1.46341 0 0 127 0 0;
#X obj 510 870 bop.send;
#A saved master;
#X obj 60 830 bop.send;
#A saved master;
#X obj 280 808 bop.send;
#A saved reverb;
#X obj 730 480 bop.send;
#A saved reverb;
#X obj 590 90 bng 15 250 50 0 empty empty empty 17 7 0 10 #fcfcfc #000000
#000000;
#X obj 480 60 route beats 8ths, f 18;
#X obj 590 110 random 5;
#X obj 590 130 sel 0;
#X text 60 280 break connections to selectively pass audio \, notes
\, or control messages, f 34;
#X obj 60 640 bop.distortion;
#A saved 0.94837 0.548442 0.471969;
#X msg 710 130 noteslider \$1;
#X obj 60 590 bop.rhodes;
#A saved 0;
#X obj 950 510 bop.casio;
#A saved 1.82609 3.84239 0.0815217 0.308411 0.331522 0.771739 0 0 0.0923913
0;
#X obj 60 210 bop.receive;
#A saved casio;
#X obj 950 210 bop.midiplayer;
#A saved 6 2.40385 assets/upsidedown.mid;
#X obj 950 840 bop.send;
#A saved casio;
#X obj 950 910 bop.send;
#A saved master;
#X obj 950 980 bop.send;
#A saved reverb;
#X connect 0 0 20 0;
#X connect 0 1 20 1;
#X connect 0 2 20 2;
#X connect 0 3 20 3;
#X connect 1 0 39 0;
#X connect 1 1 39 1;
#X connect 3 0 9 0;
#X connect 3 1 9 1;
#X connect 3 2 9 2;
#X connect 3 3 9 3;
#X connect 4 0 16 0;
#X connect 4 1 16 1;
#X connect 4 2 16 2;
#X connect 4 3 16 3;
#X connect 5 0 6 0;
#X connect 5 1 6 1;
#X connect 5 2 6 2;
#X connect 5 3 6 3;
#X connect 6 0 7 0;
#X connect 6 1 7 1;
#X connect 6 2 7 2;
#X connect 6 3 7 3;
#X connect 7 0 40 0;
#X connect 7 1 40 1;
#X connect 8 0 48 0;
#X connect 9 0 10 0;
#X connect 9 1 10 1;
#X connect 9 2 10 2;
#X connect 9 3 10 3;
#X connect 10 0 15 0;
#X connect 10 1 15 1;
#X connect 10 2 15 2;
#X connect 10 3 15 3;
#X connect 11 0 17 0;
#X connect 11 1 17 1;
#X connect 11 2 17 2;
#X connect 11 3 17 3;
#X connect 12 0 2 0;
#X connect 12 1 2 1;
#X connect 12 2 2 2;
#X connect 12 3 2 3;
#X connect 13 0 14 0;
#X connect 13 1 14 1;
#X connect 13 2 14 2;
#X connect 13 3 14 3;
#X connect 14 0 5 0;
#X connect 14 1 5 1;
#X connect 14 2 5 2;
#X connect 14 3 5 3;
#X connect 15 0 11 0;
#X connect 15 1 11 1;
#X connect 15 2 11 2;
#X connect 15 3 11 3;
#X connect 16 0 12 0;
#X connect 16 1 12 1;
#X connect 16 2 12 2;
#X connect 16 3 12 3;
#X connect 17 0 38 0;
#X connect 17 1 38 1;
#X connect 18 0 3 3;
#X connect 19 0 18 0;
#X connect 20 0 49 0;
#X connect 20 1 49 1;
#X connect 20 2 49 2;
#X connect 20 3 49 3;
#X connect 28 0 43 0;
#X connect 29 0 13 3;
#X connect 30 0 29 0;
#X connect 32 0 34 0;
#X connect 32 1 34 1;
#X connect 32 2 34 2;
#X connect 32 3 34 3;
#X connect 33 2 32 2;
#X connect 34 0 35 0;
#X connect 34 1 35 1;
#X connect 34 2 35 2;
#X connect 34 3 35 3;
#X connect 35 0 41 0;
#X connect 35 1 41 1;
#X connect 36 0 53 0;
#X connect 36 1 53 1;
#X connect 36 2 53 2;
#X connect 36 3 53 3;
#X connect 37 0 50 0;
#X connect 37 1 50 1;
#X connect 37 2 50 2;
#X connect 37 3 50 3;
#X connect 42 0 44 0;
#X connect 43 0 30 0;
#X connect 43 1 42 0;
#X connect 44 0 45 0;
#X connect 45 0 19 0;
#X connect 47 0 1 0;
#X connect 47 1 1 1;
#X connect 47 2 1 2;
#X connect 47 3 1 3;
#X connect 48 0 3 3;
#X connect 49 0 47 0;
#X connect 49 1 47 1;
#X connect 49 2 47 2;
#X connect 49 3 47 3;
#X connect 50 0 36 0;
#X connect 50 1 36 1;
#X connect 50 2 36 2;
#X connect 50 3 36 3;
#X connect 51 2 0 2;
#X connect 52 0 37 0;
#X connect 52 1 37 1;
#X connect 52 2 37 2;
#X connect 52 3 37 3;
#X connect 53 0 54 0;
#X connect 53 1 54 1;
#X connect 54 0 55 0;
#X connect 54 1 55 1;
