#N canvas 0 0 1522 772 10;
#X obj 100 100 bop.midiplayer;
#A saved 6 2.15909 assets/upsidedown.mid;
#X obj 100 210 bop.dancer;
#X obj 100 270 bop.sampler;
#A saved samples/bass.wav;
#X obj 100 390 bop.mix;
#A saved 0 0.799055 -0.661417;
#X obj 560 420 bop;
#A saved 100;
#X obj 330 100 bop.noteslider;
#A saved 2 1 3;
#X obj 100 460 bop.send;
#A saved bass;
#X obj 560 340 bop.receive;
#A saved bass;
#X obj 330 270 bop.sampler;
#A saved samples/bass.wav;
#X obj 330 390 bop.mix;
#A saved 0 0.562835 0.708661;
#X obj 330 460 bop.send;
#A saved riff;
#X obj 780 340 bop.receive;
#A saved riff;
#X obj 560 100 bop.template;
#A saved 0 0 0;
#N canvas 0 0 450 300 ramp 0;
#X floatatom 40 170 5 0 0 0 - - -, f 5;
#X obj 40 80 r bop-time;
#X obj 40 140 / 12;
#X obj 40 110 route 12ths;
#X msg 40 199 noteslider \$1;
#X obj 13 269 outlet;
#X connect 0 0 4 0;
#X connect 1 0 3 0;
#X connect 2 0 0 0;
#X connect 3 0 2 0;
#X connect 4 0 5 0;
#X restore 530 70 pd ramp;
#N canvas 536 234 450 303 pitchshift 0;
#X obj 40 80 unpack;
#X obj 40 152 pack;
#X floatatom 100 80 5 0 0 0 - - -, f 5;
#X obj 13 26 inlet;
#X obj 13 222 outlet;
#X obj 40 116 + 10;
#X connect 0 0 5 0;
#X connect 0 1 1 1;
#X connect 1 0 4 0;
#X connect 2 0 5 1;
#X connect 3 0 0 0;
#X connect 5 0 1 0;
#X restore 460 230 pd pitchshift;
#X connect 0 0 1 0;
#X connect 0 1 1 1;
#X connect 0 2 1 2;
#X connect 0 3 1 3;
#X connect 1 0 2 0;
#X connect 1 1 2 1;
#X connect 1 2 2 2;
#X connect 1 3 2 3;
#X connect 2 0 3 0;
#X connect 2 1 3 1;
#X connect 2 2 3 2;
#X connect 2 3 3 3;
#X connect 3 0 6 0;
#X connect 3 1 6 1;
#X connect 3 2 6 2;
#X connect 3 3 6 3;
#X connect 5 2 14 0;
#X connect 7 0 4 0;
#X connect 7 1 4 1;
#X connect 8 0 9 0;
#X connect 8 1 9 1;
#X connect 8 2 9 2;
#X connect 8 3 9 3;
#X connect 9 0 10 0;
#X connect 9 1 10 1;
#X connect 9 2 10 2;
#X connect 9 3 10 3;
#X connect 11 0 4 0;
#X connect 11 1 4 1;
#X connect 13 0 5 3;
#X connect 14 0 8 2;
