#N canvas 536 232 450 470 12;
#X obj 250 120 expr max(2 \, (1-$f1) * 256);
#X obj 13 26 inlet~;
#X obj 10 420 outlet~;
#X obj 250 80 r from-amount-\$1;
#X obj 250 170 line~;
#X msg 250 149 \$1 20;
#X obj 10 280 *~;
#X obj 30 240 r from-dry-\$1;
#X obj 192 292 *~;
#X obj 210 250 r from-wet-\$1;
#X obj 10 340 +~;
#X obj 190 210 sub.bop.fx.crush~;
#X connect 0 0 5 0;
#X connect 1 0 6 0;
#X connect 1 0 11 0;
#X connect 3 0 0 0;
#X connect 4 0 11 1;
#X connect 5 0 4 0;
#X connect 6 0 10 0;
#X connect 7 0 6 1;
#X connect 8 0 10 1;
#X connect 9 0 8 1;
#X connect 10 0 2 0;
#X connect 11 0 8 0;
