#N canvas 615 23 450 300 12;
#X obj 110 70 inlet;
#X obj 135 149 list prepend \$0;
#X obj 130 110 route \$0;
#X obj 240 60 inlet;
#X obj 135 178 list trim;
#X obj 135 207 outlet;
#X connect 0 0 2 0;
#X connect 1 0 4 0;
#X connect 2 0 1 0;
#X connect 3 0 2 1;
#X connect 3 0 1 1;
#X connect 4 0 5 0;
