#N canvas 536 235 450 301 10;
#X msg 80 120 name;
#X obj 40 220 prepend;
#X obj 80 80 loadbang;
#X obj 150 80 bng 15 250 50 0 empty empty empty 17 7 0 10 #fcfcfc #000000
#000000;
#X obj 73 160 canvasinfo 1;
#X obj 40 260 send bop-local;
#X obj 13 26 inlet;
#X obj 10 60 prepend \$1;
#X connect 0 0 4 0;
#X connect 1 0 5 0;
#X connect 2 0 0 0;
#X connect 3 0 0 0;
#X connect 4 0 1 1;
#X connect 6 0 7 0;
#X connect 7 0 1 0;
