#N canvas 610 213 450 389 10;
#X obj 70 80 t l l;
#X msg 128 101 \$2, f 5;
#X obj 128 131 > 0;
#X obj 128 161 + 1;
#X text 158 161 2 = noteon \, 1 = noteoff;
#X obj 13 26 inlet;
#X obj 13 290 outlet;
#X obj 69 290 outlet;
#X obj 19 215 sub.bop.util.gate;
#X connect 0 0 8 1;
#X connect 0 1 1 0;
#X connect 1 0 2 0;
#X connect 2 0 3 0;
#X connect 3 0 8 0;
#X connect 5 0 0 0;
#X connect 8 0 6 0;
#X connect 8 1 7 0;
