#N canvas 283 256 450 300 12;
#X obj 10 20 cnv 15 100 20 empty empty empty 7 7 0 14 #fdf6e3 #ffffff
0;
#X obj 10 25 bng 15 250 50 0 empty empty \$2 20 5 0 10 #fcfcfc #000000
#000000;
#X obj 10 110 s \$1-make;
#X obj 10 50 symbol \$2;
#X obj 10 80 sprintf bop.%s;
#X connect 1 0 3 0;
#X connect 3 0 4 0;
#X connect 4 0 2 0;
#X coords 0 -1 1 1 100 20 2 10 20;
