#N canvas 239 23 962 855 10;
#X obj 100 100 tgl 30 0 empty empty empty 17 7 0 10 #fcfcfc #000000
#000000 1 1;
#X obj 100 100 cnv 10 30 30 \$0-from-cvs \$0-to-cvs \$2 3 5 0 8 #c8c8c7
#fcfcfc 0;
#X obj 160 320 sel 0 1;
#X text 820 330 188 168 252;
#N canvas 0 22 306 317 flash-time 0;
#X obj 96 521 outlet;
#X obj 162 230 t b f;
#X obj 96 268 +;
#X obj 96 293 t b f;
#X obj 96 324 +;
#X obj 19 208 * -65536;
#X obj 96 208 * -256;
#X obj 162 208 * -1;
#X obj 96 355 - 1;
#X obj 96 385 list prepend 0;
#X obj 115 456 t b a;
#X obj 104 124 vradio 15 1 0 2 empty empty empty 0 -8 0 10 #fcfcfc
#000000 #000000 0;
#X text 120 120 1.bg;
#X obj 103 105 nbx 3 14 0 255 0 0 \$0-dummy \$0-r empty 0 -8 0 10 #fcfcfc
#fc0400 #000000 0 256 0;
#X obj 133 105 nbx 3 14 0 255 0 0 \$0-dummy \$0-g empty 0 -8 0 10 #fcfcfc
#0c4410 #000000 0 256 0;
#X obj 163 105 nbx 3 14 0 255 0 0 \$0-dummy \$0-b empty 0 -8 0 10 #fcfcfc
#0400fc #000000 0 256 0;
#X text 120 137 2.label;
#X obj 96 410 route 0 1;
#X obj 96 497 pack 0 0;
#X connect 1 0 2 0;
#X connect 1 1 2 1;
#X connect 2 0 3 0;
#X connect 3 0 4 0;
#X connect 3 1 4 1;
#X connect 4 0 8 0;
#X connect 5 0 4 0;
#X connect 6 0 2 0;
#X connect 7 0 1 0;
#X connect 8 0 9 0;
#X connect 9 0 17 0;
#X connect 10 0 18 0;
#X connect 10 1 18 1;
#X connect 11 0 9 1;
#X connect 13 0 5 0;
#X connect 14 0 6 0;
#X connect 15 0 7 0;
#X connect 17 0 18 0;
#X connect 17 1 10 0;
#X connect 18 0 0 0;
#X coords 0 -1 1 1 102 58 2 100 100;
#X restore 790 260 pd flash-time;
#X msg 320 460 color -1.2364e+07 0;
#X obj 160 540 s \$0-to-cvs;
#X msg 450 460 color -1.51324e+07 0;
#X msg 800 170 color -9.86895e+06 0;
#X msg 160 460 color -1.31586e+07 0;
#X obj 230 30 route \$2;
#X obj 230 0 r \$1-to-toggles;
#X obj 380 120 t b b, f 12;
#X floatatom 160 200 5 0 0 0 - - -, f 5;
#X text 196 200 state;
#X obj 37 260 s \$1-from-toggle;
#X msg 230 240 set \$1;
#X msg 250 290 0;
#X obj 250 120 bng 15 250 50 0 empty empty empty 17 7 0 10 #fcfcfc
#000000 #000000;
#X obj 790 420 list prepend;
#X obj 860 360 loadbang;
#X obj 790 450 list trim;
#X obj 40 200 list prepend \$2;
#X obj 40 230 list trim;
#X obj 520 180 sel 0 1;
#X msg 520 240 set color -1.31586e+07 0;
#X msg 540 270 set color -6.5793e+06 0;
#X msg 860 390 set set color;
#X obj 510 140 t b f;
#X obj 510 70 r \$1-from-duration;
#X obj 230 60 route set get blink, f 35;
#X obj 510 100 < \$2;
#X text 60 390 comment;
#X text 720 330 149 133 176;
#X msg 540 360 set color -9.79909e+06 0;
#X msg 520 330 set color -1.2364e+07 0;
#X obj 380 150 delay 60;
#X obj 300 160 loadbang;
#X msg 300 185 set 0;
#X obj 640 110 loadbang;
#X msg 570 110 0;
#X connect 0 0 13 0;
#X connect 2 0 9 0;
#X connect 2 1 5 0;
#X connect 4 0 19 0;
#X connect 5 0 6 0;
#X connect 7 0 6 0;
#X connect 9 0 6 0;
#X connect 10 0 30 0;
#X connect 11 0 10 0;
#X connect 12 0 36 0;
#X connect 12 1 7 0;
#X connect 13 0 2 0;
#X connect 13 0 16 0;
#X connect 13 0 22 0;
#X connect 16 0 17 0;
#X connect 17 0 2 0;
#X connect 18 0 13 0;
#X connect 19 0 21 0;
#X connect 20 0 27 0;
#X connect 22 0 23 0;
#X connect 23 0 15 0;
#X connect 24 0 25 0;
#X connect 24 0 35 0;
#X connect 24 1 26 0;
#X connect 24 1 34 0;
#X connect 25 0 9 0;
#X connect 26 0 9 0;
#X connect 27 0 19 1;
#X connect 28 0 17 0;
#X connect 28 1 24 0;
#X connect 29 0 31 0;
#X connect 30 0 0 0;
#X connect 30 1 18 0;
#X connect 30 2 12 0;
#X connect 31 0 28 0;
#X connect 34 0 5 0;
#X connect 35 0 5 0;
#X connect 36 0 17 0;
#X connect 37 0 38 0;
#X connect 38 0 17 0;
#X connect 39 0 40 0;
#X connect 40 0 28 0;
#X coords 0 -1 1 1 30 30 2 100 100;
