#N canvas 536 235 450 301 10;
#X obj 40 210 route;
#X msg 72 138 name;
#X obj 70 110 loadbang;
#X obj 70 180 canvasinfo 1;
#X obj 40 80 receive bop-local;
#X obj 40 270 outlet;
#X obj 40 240 route \$1;
#X connect 0 0 6 0;
#X connect 1 0 3 0;
#X connect 2 0 1 0;
#X connect 3 0 0 1;
#X connect 4 0 0 0;
#X connect 6 0 5 0;
