#N canvas 376 0 770 772 10;
#X obj 290 120 inlet;
#X obj 430 120 inlet;
#X obj 170 864 outlet;
#X obj 790 130 inlet;
#X text 370 180 specify desired number of hits per bar;
#X text 750 110 specify length of bar;
#X text 170 90 <-- send an integer to find out if there should be a
hit on that beat;
#X text 60 890 Generates 'euclidean rhythms' (see cgm.cs.mcgill.ca/~godfried/publications/banff.pdf).
Ideally to be used with a [metro]-powered [f ]x[+ 1] counter attached
to the first inlet. Hits per bar \, offset and bar length can be set
by the first three arguments respectively.;
#X obj 630 120 inlet;
#X text 600 100 rhythm offset/rotation;
#X obj 320 860 outlet;
#X text 28 11 This subpatch was created by the http://forum.pdpatchrepo.info
user named 'Stutter', f 51;
#X text 28 42 For more information \, please visit: http://forum.pdpatchrepo.info/topic/5188/euclidean-rhythms/6
;
#X obj 170 670 *;
#X obj 170 740 %;
#X obj 170 800 <;
#X obj 316 832 %;
#X obj 90 270 +;
#X obj 290 150 s input-\$1;
#X obj 90 150 r input-\$1;
#X obj 310 760 r input-\$1;
#X obj 430 150 s per-bar-\$1;
#X obj 630 150 s offset-\$1;
#X obj 790 150 s length-\$1;
#X obj 330 790 r length-\$1;
#X obj 200 670 r length-\$1;
#X obj 110 190 r offset-\$1;
#X obj 190 620 r per-bar-\$1;
#X obj 190 770 r per-bar-\$1;
#X obj 90 290 moses 0;
#X text 220 250 if less than 0;
#X text 220 270 length - ( abs($f1) % length);
#X obj 80 340 abs;
#X obj 100 370 r length-\$1;
#X obj 84 411 %;
#X obj 80 540 -, f 19;
#X obj 80 510 f;
#X obj 100 480 r length-\$1;
#X obj 80 450 t b f, f 19;
#X obj 276 389 r length-\$1;
#X obj 260 430 %;
#X obj 110 220 * -1;
#X connect 0 0 18 0;
#X connect 1 0 21 0;
#X connect 3 0 23 0;
#X connect 8 0 22 0;
#X connect 13 0 14 0;
#X connect 14 0 15 0;
#X connect 15 0 2 0;
#X connect 16 0 10 0;
#X connect 17 0 29 0;
#X connect 19 0 17 0;
#X connect 20 0 16 0;
#X connect 24 0 16 1;
#X connect 25 0 14 1;
#X connect 26 0 41 0;
#X connect 27 0 13 1;
#X connect 28 0 15 1;
#X connect 29 0 32 0;
#X connect 29 1 40 0;
#X connect 32 0 34 0;
#X connect 33 0 34 1;
#X connect 34 0 38 0;
#X connect 35 0 13 0;
#X connect 36 0 35 0;
#X connect 37 0 36 1;
#X connect 38 0 36 0;
#X connect 38 1 35 1;
#X connect 39 0 40 1;
#X connect 40 0 13 0;
#X connect 41 0 17 1;
